<?xml version="1.0"?>
<svg xmlns="http://www.w3.org/2000/svg" height="512px" viewBox="0 0 512 512" width="512px" class=""><g><path d="m503.464844 443.734375h-17.066406v-298.667969c-.027344-23.550781-19.113282-42.636718-42.664063-42.667968h-34.132813v-25.597657c0-.183593-.09375-.335937-.105468-.511719-.046875-.773437-.199219-1.539062-.457032-2.269531-.097656-.273437-.164062-.539062-.285156-.800781-.398437-.890625-.949218-1.707031-1.625-2.410156l-.035156-.042969-68.253906-68.257813-.035156-.03125c-1.5-1.390624-3.429688-2.222656-5.46875-2.371093-.1875-.011719-.34375-.105469-.535157-.105469h-204.800781c-14.132812.015625-25.585938 11.46875-25.601562 25.601562v76.796876h-34.132813c-23.550781.03125-42.636719 19.117187-42.664063 42.667968v298.667969h-17.066406c-4.714844 0-8.535156 3.820313-8.535156 8.53125v25.601563c.0195312 18.84375 15.289062 34.113281 34.132812 34.132812h443.734376c18.84375-.019531 34.113281-15.289062 34.132812-34.132812v-25.601563c0-4.710937-3.820312-8.53125-8.535156-8.53125zm-162.132813-414.601563 39.132813 39.132813h-39.132813zm-298.664062 397.535157h264.53125c4.714843 0 8.535156-3.820313 8.535156-8.535157 0-4.710937-3.820313-8.53125-8.535156-8.53125h-264.53125v-264.535156c.015625-14.132812 11.464843-25.585937 25.597656-25.601562h34.132813v119.46875c0 4.710937 3.820312 8.53125 8.535156 8.53125 4.710937 0 8.53125-3.820313 8.53125-8.53125v-213.332032c.007812-4.710937 3.824218-8.53125 8.535156-8.535156h196.265625v51.199219c.011719 9.421875 7.648437 17.058594 17.066406 17.066406h51.203125v153.601563c0 4.710937 3.820313 8.53125 8.53125 8.53125 4.714844 0 8.535156-3.820313 8.535156-8.53125v-119.46875h34.132813c14.132813.015625 25.582031 11.46875 25.597656 25.601562v264.535156h-128c-4.710937 0-8.53125 3.820313-8.53125 8.53125 0 4.714844 3.820313 8.535157 8.53125 8.535157h128v17.066406h-145.066406c-9.421875.011719-17.054687 7.644531-17.066406 17.066406h-102.398438c-.011719-9.421875-7.644531-17.054687-17.066406-17.066406h-145.066406zm452.265625 51.199219c-.011719 9.421874-7.644532 17.054687-17.066406 17.066406h-443.734376c-9.421874-.011719-17.054687-7.644532-17.066406-17.066406v-17.066407h170.667969c.011719 9.421875 7.644531 17.054688 17.066406 17.066407h102.398438c9.421875-.011719 17.054687-7.644532 17.066406-17.066407h170.667969zm0 0" data-original="#000000" class="active-path" data-old_color="#000000" fill="#2291F2"/><path d="m170.667969 110.933594c18.851562 0 34.132812-15.28125 34.132812-34.132813 0-18.851562-15.28125-34.132812-34.132812-34.132812-18.851563 0-34.132813 15.28125-34.132813 34.132812.019532 18.84375 15.289063 34.113281 34.132813 34.132813zm0-51.199219c9.425781 0 17.066406 7.640625 17.066406 17.066406s-7.640625 17.066407-17.066406 17.066407-17.066407-7.640626-17.066407-17.066407c.007813-9.421875 7.644532-17.054687 17.066407-17.066406zm0 0" data-original="#000000" class="active-path" data-old_color="#000000" fill="#2291F2"/><path d="m221.867188 85.332031h17.066406c4.710937 0 8.53125-3.820312 8.53125-8.53125 0-4.714843-3.820313-8.535156-8.53125-8.535156h-17.066406c-4.714844 0-8.535157 3.820313-8.535157 8.535156 0 4.710938 3.820313 8.53125 8.535157 8.53125zm0 0" data-original="#000000" class="active-path" data-old_color="#000000" fill="#2291F2"/><path d="m273.066406 85.332031h25.601563c4.710937 0 8.53125-3.820312 8.53125-8.53125 0-4.714843-3.820313-8.535156-8.53125-8.535156h-25.601563c-4.710937 0-8.53125 3.820313-8.53125 8.535156 0 4.710938 3.820313 8.53125 8.53125 8.53125zm0 0" data-original="#000000" class="active-path" data-old_color="#000000" fill="#2291F2"/><path d="m221.867188 119.464844h51.199218c4.714844 0 8.535156-3.820313 8.535156-8.53125 0-4.714844-3.820312-8.535156-8.535156-8.535156h-51.199218c-4.714844 0-8.535157 3.820312-8.535157 8.535156 0 4.710937 3.820313 8.53125 8.535157 8.53125zm0 0" data-original="#000000" class="active-path" data-old_color="#000000" fill="#2291F2"/><path d="m298.667969 110.933594c0 4.710937 3.820312 8.53125 8.53125 8.53125h25.601562c4.710938 0 8.53125-3.820313 8.53125-8.53125 0-4.714844-3.820312-8.535156-8.53125-8.535156h-25.601562c-4.710938 0-8.53125 3.820312-8.53125 8.535156zm0 0" data-original="#000000" class="active-path" data-old_color="#000000" fill="#2291F2"/><path d="m238.933594 136.535156h-93.867188c-4.710937 0-8.53125 3.820313-8.53125 8.53125v59.734375c0 4.710938 3.820313 8.53125 8.53125 8.53125h93.867188c4.710937 0 8.53125-3.820312 8.53125-8.53125v-59.734375c0-4.710937-3.820313-8.53125-8.53125-8.53125zm-8.535156 59.730469h-76.796876v-42.664063h76.796876zm0 0" data-original="#000000" class="active-path" data-old_color="#000000" fill="#2291F2"/><path d="m366.933594 213.332031c4.710937 0 8.53125-3.820312 8.53125-8.53125v-59.734375c0-4.710937-3.820313-8.53125-8.53125-8.53125h-93.867188c-4.710937 0-8.53125 3.820313-8.53125 8.53125v59.734375c0 4.710938 3.820313 8.53125 8.53125 8.53125zm-85.332032-59.730469h76.796876v42.664063h-76.796876zm0 0" data-original="#000000" class="active-path" data-old_color="#000000" fill="#2291F2"/><path d="m119.464844 308.773438v-14.375l30.722656-23.039063c2.148438-1.609375 3.414062-4.140625 3.414062-6.824219v-25.601562c0-4.714844-3.820312-8.535156-8.535156-8.535156-4.710937 0-8.53125 3.820312-8.53125 8.535156v21.332031l-30.722656 23.042969c-2.148438 1.609375-3.414062 4.136718-3.414062 6.824218v18.640626c-10.21875 3.5625-17.066407 13.203124-17.066407 24.027343s6.847657 20.460938 17.066407 24.027344v27.171875c0 4.710938 3.820312 8.535156 8.535156 8.535156 4.710937 0 8.53125-3.824218 8.53125-8.535156v-27.171875c10.222656-3.566406 17.070312-13.203125 17.070312-24.027344s-6.847656-20.464843-17.070312-24.027343zm-8.53125 32.558593c-4.714844 0-8.535156-3.820312-8.535156-8.53125 0-4.714843 3.820312-8.535156 8.535156-8.535156 4.710937 0 8.53125 3.820313 8.53125 8.535156-.003906 4.710938-3.820313 8.527344-8.53125 8.53125zm0 0" data-original="#000000" class="active-path" data-old_color="#000000" fill="#2291F2"/><path d="m179.199219 283.171875v-6.570313l14.566406-14.566406c1.601563-1.601562 2.5-3.773437 2.5-6.035156v-17.066406c0-4.714844-3.820313-8.535156-8.53125-8.535156-4.714844 0-8.535156 3.820312-8.535156 8.535156v13.53125l-14.566407 14.570312c-1.601562 1.597656-2.5 3.769532-2.5 6.03125v10.105469c-10.21875 3.566406-17.066406 13.203125-17.066406 24.027344s6.847656 20.464843 17.066406 24.027343v52.773438c0 4.710938 3.820313 8.535156 8.535157 8.535156 4.710937 0 8.53125-3.824218 8.53125-8.535156v-52.773438c10.222656-3.5625 17.066406-13.203124 17.066406-24.027343s-6.84375-20.460938-17.066406-24.027344zm-8.53125 32.5625c-4.714844 0-8.535157-3.820313-8.535157-8.535156 0-4.710938 3.820313-8.53125 8.535157-8.53125 4.710937 0 8.53125 3.820312 8.53125 8.53125-.003907 4.710937-3.820313 8.53125-8.53125 8.535156zm0 0" data-original="#000000" class="active-path" data-old_color="#000000" fill="#2291F2"/><path d="m230.398438 342.90625v-95.441406c0-4.710938-3.820313-8.53125-8.53125-8.53125-4.714844 0-8.535157 3.820312-8.535157 8.53125v95.441406c-11.753906 4.15625-18.804687 16.175781-16.695312 28.464844 2.105469 12.289062 12.761719 21.269531 25.230469 21.269531s23.121093-8.980469 25.230468-21.269531c2.109375-12.289063-4.941406-24.308594-16.699218-28.464844zm-8.53125 32.558594c-4.714844 0-8.535157-3.820313-8.535157-8.53125 0-4.714844 3.820313-8.535156 8.535157-8.535156 4.710937 0 8.53125 3.820312 8.53125 8.535156-.003907 4.710937-3.820313 8.527344-8.53125 8.53125zm0 0" data-original="#000000" class="active-path" data-old_color="#000000" fill="#2291F2"/><path d="m366.933594 238.933594v25.601562c-.003906 2.683594 1.261718 5.214844 3.414062 6.824219l30.71875 23.039063v14.375c-10.21875 3.5625-17.066406 13.203124-17.066406 24.027343s6.847656 20.460938 17.066406 24.027344v27.171875c0 4.710938 3.820313 8.535156 8.535156 8.535156 4.710938 0 8.53125-3.824218 8.53125-8.535156v-27.171875c10.222657-3.566406 17.066407-13.203125 17.066407-24.027344s-6.84375-20.464843-17.066407-24.027343v-18.640626c.003907-2.6875-1.261718-5.214843-3.414062-6.824218l-30.71875-23.042969v-21.332031c0-4.714844-3.820312-8.535156-8.535156-8.535156-4.710938 0-8.53125 3.820312-8.53125 8.535156zm42.667968 85.332031c4.710938 0 8.53125 3.820313 8.53125 8.535156 0 4.710938-3.820312 8.53125-8.53125 8.53125-4.714843 0-8.535156-3.820312-8.535156-8.53125.003906-4.710937 3.824219-8.53125 8.535156-8.535156zm0 0" data-original="#000000" class="active-path" data-old_color="#000000" fill="#2291F2"/><path d="m358.398438 283.171875v-10.105469c0-2.261718-.898438-4.433594-2.5-6.03125l-14.566407-14.570312v-13.53125c0-4.714844-3.820312-8.535156-8.53125-8.535156-4.714843 0-8.535156 3.820312-8.535156 8.535156v17.066406c0 2.261719.902344 4.433594 2.5 6.03125l14.566406 14.570312v6.570313c-10.21875 3.5625-17.066406 13.203125-17.066406 24.027344s6.847656 20.460937 17.066406 24.027343v52.773438c0 4.710938 3.820313 8.535156 8.535157 8.535156 4.710937 0 8.53125-3.824218 8.53125-8.535156v-52.773438c10.222656-3.5625 17.070312-13.203124 17.070312-24.027343s-6.847656-20.460938-17.070312-24.027344zm-8.53125 32.5625c-4.714844 0-8.535157-3.820313-8.535157-8.535156 0-4.710938 3.820313-8.53125 8.535157-8.53125 4.710937 0 8.53125 3.820312 8.53125 8.53125-.003907 4.710937-3.820313 8.53125-8.53125 8.535156zm0 0" data-original="#000000" class="active-path" data-old_color="#000000" fill="#2291F2"/><path d="m324.265625 366.933594c-.03125-10.8125-6.867187-20.433594-17.066406-24.027344v-95.441406c0-4.710938-3.820313-8.53125-8.53125-8.53125-4.714844 0-8.535157 3.820312-8.535157 8.53125v95.441406c-12.238281 4.363281-19.257812 17.214844-16.308593 29.867188 2.945312 12.65625 14.921875 21.085937 27.828125 19.589843 12.90625-1.496093 22.636718-12.4375 22.613281-25.429687zm-25.597656 8.53125c-4.714844 0-8.535157-3.820313-8.535157-8.53125 0-4.714844 3.820313-8.535156 8.535157-8.535156 4.710937 0 8.53125 3.820312 8.53125 8.535156-.003907 4.710937-3.820313 8.527344-8.53125 8.53125zm0 0" data-original="#000000" class="active-path" data-old_color="#000000" fill="#2291F2"/></g> </svg>
