<?xml version="1.0"?>
<svg xmlns="http://www.w3.org/2000/svg" xmlns:xlink="http://www.w3.org/1999/xlink" version="1.1" id="Capa_1" x="0px" y="0px" viewBox="0 0 512 512" style="enable-background:new 0 0 512 512;" xml:space="preserve" width="512px" height="512px"><g><g>
	<g>
		<path d="M376.242,64.129H135.758c-4.142,0-7.5,3.358-7.5,7.5v160.323c0,4.142,3.358,7.5,7.5,7.5c4.142,0,7.5-3.358,7.5-7.5V79.129    h225.483v361.242c0,4.142,3.358,7.5,7.5,7.5c4.142,0,7.5-3.358,7.5-7.5V71.629C383.742,67.487,380.385,64.129,376.242,64.129z" data-original="#000000" class="active-path" data-old_color="#000000" fill="#2291F2"/>
	</g>
</g><g>
	<g>
		<path d="M280.049,32.064h-48.097c-4.142,0-7.5,3.358-7.5,7.5c0,4.142,3.358,7.5,7.5,7.5h48.097c4.142,0,7.5-3.358,7.5-7.5    C287.549,35.422,284.192,32.064,280.049,32.064z" data-original="#000000" class="active-path" data-old_color="#000000" fill="#2291F2"/>
	</g>
</g><g>
	<g>
		<path d="M199.967,32.064h-0.08c-4.142,0-7.46,3.358-7.46,7.5c0,4.142,3.398,7.5,7.54,7.5c4.142,0,7.5-3.358,7.5-7.5    C207.467,35.422,204.109,32.064,199.967,32.064z" data-original="#000000" class="active-path" data-old_color="#000000" fill="#2291F2"/>
	</g>
</g><g>
	<g>
		<path d="M376.242,0H135.758c-21.816,0-39.565,17.749-39.565,39.564v204.529c0,14.851,5.783,28.812,16.284,39.313l212.31,212.309    C335.287,506.217,349.25,512,364.101,512h12.142c21.816,0,39.564-17.749,39.564-39.564V39.564C415.807,17.749,398.059,0,376.242,0    z M335.393,485.108L123.084,272.8c-1.606-1.606-3.051-3.329-4.348-5.139c5.159,2.469,10.931,3.855,17.022,3.855h176.355    c13.545,0,24.564,11.02,24.564,24.564v176.355c0,6.091,1.386,11.863,3.855,17.021C338.722,488.16,337,486.714,335.393,485.108z     M400.807,472.435c0,13.545-11.02,24.565-24.565,24.565s-24.564-11.02-24.564-24.564V296.081    c0-21.816-17.749-39.564-39.564-39.564H135.758c-13.545,0-24.564-11.02-24.564-24.564V39.564c0-13.545,11.02-24.564,24.565-24.564    h240.483c13.545,0,24.565,11.02,24.565,24.564V472.435z" data-original="#000000" class="active-path" data-old_color="#000000" fill="#2291F2"/>
	</g>
</g></g> </svg>
