<?xml version="1.0" encoding="UTF-8"?> <!-- Generator: Adobe Illustrator 22.1.0, SVG Export Plug-In . SVG Version: 6.00 Build 0) --> <svg xmlns="http://www.w3.org/2000/svg" xmlns:xlink="http://www.w3.org/1999/xlink" id="Layer_1" x="0px" y="0px" viewBox="0 0 663.8 384.7" style="enable-background:new 0 0 663.8 384.7;" xml:space="preserve"> <style type="text/css"> .st0{opacity:0.1;fill:#27235E;} .st1{fill:#E89E71;} .st2{fill:none;stroke:#27235E;stroke-width:2;stroke-miterlimit:10;} .st3{fill:#00948D;} .st4{fill:#0F2337;} .st5{clip-path:url(#SVGID_2_);fill:#FFFFFF;} .st6{fill:#F9F57A;} .st7{fill:#DAE6F7;} .st8{fill:none;stroke:#FFFFFF;stroke-miterlimit:10;} .st9{fill:none;stroke:#DAE6F7;stroke-miterlimit:10;} .st10{fill:#FFFFFF;} .st11{fill:none;stroke:#00948D;stroke-miterlimit:10;} .st12{fill:none;stroke:#0F2337;stroke-miterlimit:10;} .st13{fill:none;stroke:#F7F7F9;stroke-width:1.6613;stroke-miterlimit:10;} </style> <g> <path class="st0" d="M178.3,144.5c9.7,8.5,20.2,15.9,31.6,22c48.3,25.7,157.1,63.1,225.6-71.7c90-177.3,187.6-52.9,194.7-44.7 c3.8,4.4,11.4,16.6,18.6,35.1c56,143.9-51.3,298.9-205.7,298.9H90.1c0,0-150-136-63-225C97.8,86.8,158.2,126.9,178.3,144.5z"></path> <path class="st1" d="M265.1,365.2c0,0,6.3,9.1,1.8,13.5s-15.1,2.1-15.1,2.1l-2.1-6.8L265.1,365.2z"></path> <line class="st2" x1="486.2" y1="24" x2="486.2" y2="79.7"></line> <path class="st3" d="M444,122.4c0,0,12-44.8,45-42.7c33,2.2,39.5,42.7,39.5,42.7H444z"></path> <ellipse class="st4" cx="486.2" cy="122.7" rx="42.2" ry="7.1"></ellipse> <g> <defs> <ellipse id="SVGID_1_" cx="486.2" cy="122.7" rx="42.2" ry="7.1"></ellipse> </defs> <clipPath id="SVGID_2_"> <use xlink:href="#SVGID_1_" style="overflow:visible;"></use> </clipPath> <circle class="st5" cx="486.2" cy="115.6" r="8.7"></circle> </g> <path class="st4" d="M63.4,339.3c0,0-41.8-23.5-30.8-50c0,0,4.8-12.8,18.8-13.8c0,0-8.2-14-4.5-21.5s8.9-10.5,13.5-11.5 c8.3-1.8,34.3,2.5,43.8-5s14-28.4,14-42.6s8.5-24.9,24-25.2s20.2,6.8,21.2,8s6.2,14,0,18.5l-30.5,44.5L63.4,339.3z"></path> <path class="st1" d="M160.4,183.2c0,0,6.5,28.7,3,34.3c-3.5,5.7-5.8,7.7-11.7,8.7c0,0,0.7,6.9,3.2,9.8c2.5,2.8,7.8,15.2,5.3,19.6 c-2.5,4.3-10.3,5-16.2,0c-5.8-5-10.3-17.5-10.3-19.7s-1.5-17.5-1-20.3c0,0-10.5-1.5-8.8-8.7c1.7-7.2,9.3,1,9.3,1s-1.5-9.8,4.5-12.8 s14-3.2,16.5-4.8C156.7,188.5,161.1,185.5,160.4,183.2z"></path> <circle class="st6" cx="129.1" cy="215.4" r="3.7"></circle> <path class="st7" d="M133.6,234.6c0,0,8.5,22.4,20.5,21.8c12-0.5,0.3-20.5,0.3-20.5l16,3.8l0.7,135.4l-40.7-17L133.6,234.6z"></path> <path class="st8" d="M136.5,260.7c0,0,17,16.3,19-3.3c0,0,8.3,13.7,16,4.8"></path> <path class="st3" d="M249.6,374.1c4.6-0.1,15.5-8.9,15.5-8.9c-4.7-37.9-38.3-80.4-57-101.5c-9.6-10.8-21.9-18.9-35.6-23.3 c-9.1-3-16.4-4.5-16.4-4.5s13.8,19.2,12.5,37s0.1,86.2,0.1,86.2l10.5,3.1l7.2-37.5c0,0,4.8-20.2,2.5-27.8 C188.9,296.8,248,374.1,249.6,374.1z"></path> <path class="st9" d="M189,296.9c0-2.7-7-18.5-7-18.5"></path> <path class="st4" d="M198.6,368.1c0,0,4.2-0.4,4,4.8s0,11.2,0,11.2h-14.9l5.9-16L198.6,368.1z"></path> <path class="st1" d="M195.1,372l23.5-6.3c2.7-0.7,5.6-0.6,8.2,0.5c1.2,0.5,2.4,1.3,3.3,2.3c3.4,3.8,8.7,11.5,8.7,11.5h-8.3l-2.9-5 c-0.8-1.3-2.5-1.7-3.8-0.8l-11.7,8.8h-22L195.1,372z"></path> <path class="st3" d="M199.6,368.1c-3,0-3.5,4.8-3.5,4.8v11.5H82.9c0,0-7.5,1.2-18.5-8.2s-4.8-34.8-4.8-34.8s26.5-66.5,31.3-81 s15.8-20.5,20-22.2s22.7-3.5,22.7-3.5s21,100.8,11.5,117.5L199.6,368.1z"></path> <polyline class="st9" points="117.8,283.7 103.9,340.8 200.5,367.7 "></polyline> <path class="st4" d="M271.1,383.7h-66.3c-1.1,0-2-0.9-2-2l0,0c0-1.1,0.9-2,2-2h66.3c1.1,0,2,0.9,2,2l0,0 C273.1,382.8,272.2,383.7,271.1,383.7z"></path> <path class="st4" d="M270.1,383.5c0,0-5.2,1-5-3.2s31.2-66.2,31.2-66.2s2.5-5.5,11-5.5s73.8,0,73.8,0s5.8,2.8,1.8,10.8 s-28.2,61.2-28.2,61.2s-1.8,4.5-9.5,4.2S270.1,383.5,270.1,383.5z"></path> <path class="st7" d="M273.1,383.5c0,0-5.2,1-5-3.2s31.2-66.2,31.2-66.2s2.5-5.5,11-5.5s73.8,0,73.8,0s5.8,2.8,1.8,10.8 s-28.2,61.2-28.2,61.2s-1.8,4.5-9.5,4.2S273.1,383.5,273.1,383.5z"></path> <ellipse class="st10" cx="329.8" cy="344.9" rx="4" ry="5.5"></ellipse> <circle class="st3" cx="149.1" cy="212.8" r="2.7"></circle> <path class="st11" d="M152.3,169.8c-0.6-2.9-3.2-8-10.7-5.9c-10.7,3-8.8,39.9-6.2,46.1c0,0,4.9,3.1,13.8,2.7"></path> <g> <circle class="st6" cx="217.9" cy="176.4" r="20.8"></circle> <path class="st6" d="M198.1,155.6h19.7v41.5h-39.5v-28.7C178.4,168.5,178.4,155.6,198.1,155.6z"></path> <circle class="st3" cx="196" cy="141.9" r="8.9"></circle> <path class="st3" d="M234.4,133H196v17.9h46.9v-12.3C242.9,138.5,242.9,133,234.4,133z"></path> <line class="st12" x1="192.1" y1="168.5" x2="217.9" y2="168.5"></line> <line class="st12" x1="192.1" y1="173.5" x2="226.2" y2="173.5"></line> <line class="st12" x1="192.1" y1="178.9" x2="207.9" y2="178.9"></line> <line class="st13" x1="198.8" y1="140.2" x2="224.5" y2="140.2"></line> <line class="st13" x1="200.4" y1="145.7" x2="216.2" y2="145.7"></line> </g> </g> </svg> 