<?xml version="1.0" encoding="utf-8"?>
<!-- Generator: Adobe Illustrator 23.0.0, SVG Export Plug-In . SVG Version: 6.00 Build 0)  -->
<svg version="1.1" id="Ñëîé_1" xmlns="http://www.w3.org/2000/svg" xmlns:xlink="http://www.w3.org/1999/xlink" x="0px" y="0px"
	 viewBox="0 0 600 450" style="enable-background:new 0 0 600 450;" xml:space="preserve">
<style type="text/css">
	.st0{opacity:0.67;}
	.st1{fill:#0F054C;}
	.st2{opacity:0.9;}
	.st3{fill:#080344;}
	.st4{fill:#24126A;}
	.st5{fill:url(#SVGID_1_);}
	.st6{fill:url(#SVGID_2_);}
	.st7{fill:#393091;}
	.st8{fill:#CAD0F9;}
	.st9{opacity:0.51;}
	.st10{fill:#453C9E;}
	.st11{fill:#BCBEFF;}
	.st12{filter:url(#Adobe_OpacityMaskFilter);}
	.st13{filter:url(#Adobe_OpacityMaskFilter_1_);}
	.st14{mask:url(#SVGID_3_);fill:url(#SVGID_4_);}
	.st15{opacity:0.78;fill:url(#SVGID_5_);}
	.st16{fill:url(#SVGID_6_);}
	.st17{fill:url(#SVGID_7_);}
	.st18{fill:url(#SVGID_8_);}
	.st19{fill:#3F21D3;}
	.st20{fill:url(#SVGID_9_);}
	.st21{fill:url(#SVGID_10_);}
	.st22{fill:url(#SVGID_11_);}
	.st23{fill:url(#SVGID_12_);}
	.st24{fill:url(#SVGID_13_);}
	.st25{fill:url(#SVGID_14_);}
	.st26{fill:url(#SVGID_15_);}
	.st27{fill:url(#SVGID_16_);}
	.st28{fill:url(#SVGID_17_);}
	.st29{fill:url(#SVGID_18_);}
	.st30{fill:url(#SVGID_19_);}
	.st31{fill:url(#SVGID_20_);}
	.st32{fill:url(#SVGID_21_);}
	.st33{fill:url(#SVGID_22_);}
	.st34{fill:url(#SVGID_23_);}
	.st35{fill:#2842A2;}
	.st36{fill:#ADB1F2;}
	.st37{fill:#9198DB;}
	.st38{fill:url(#SVGID_24_);}
	.st39{opacity:0.11;}
	.st40{clip-path:url(#SVGID_26_);}
	.st41{fill:url(#SVGID_27_);}
	.st42{fill:url(#SVGID_28_);}
	.st43{fill:#42E8E0;}
	.st44{fill:url(#SVGID_29_);}
	.st45{fill:url(#SVGID_30_);}
	.st46{fill:url(#SVGID_31_);}
	.st47{fill:url(#SVGID_32_);}
	.st48{fill:url(#SVGID_33_);}
	.st49{fill:url(#SVGID_34_);}
	.st50{fill:url(#SVGID_35_);}
	.st51{fill:url(#SVGID_36_);}
	.st52{fill:url(#SVGID_37_);}
	.st53{fill:url(#SVGID_38_);}
	.st54{fill:url(#SVGID_39_);}
	.st55{fill:url(#SVGID_40_);}
	.st56{opacity:0.2;}
	.st57{clip-path:url(#SVGID_42_);}
	.st58{fill:url(#SVGID_43_);}
	.st59{fill:#FFFFFF;}
	.st60{fill:url(#SVGID_44_);}
	.st61{fill:url(#SVGID_45_);}
	.st62{fill:url(#SVGID_46_);}
	.st63{opacity:0.48;fill:url(#SVGID_47_);}
	.st64{opacity:0.48;fill:url(#SVGID_48_);}
	.st65{opacity:0.48;fill:url(#SVGID_49_);}
	.st66{fill:url(#SVGID_50_);}
	.st67{fill:url(#SVGID_51_);}
	.st68{opacity:0.5;fill:url(#SVGID_52_);}
	.st69{opacity:0.48;fill:url(#SVGID_53_);}
	.st70{fill:url(#SVGID_54_);}
	.st71{fill:url(#SVGID_55_);}
	.st72{fill:url(#SVGID_56_);}
	.st73{fill:url(#SVGID_57_);}
	.st74{opacity:0.48;fill:url(#SVGID_58_);}
	.st75{opacity:0.48;fill:url(#SVGID_59_);}
	.st76{opacity:0.48;fill:url(#SVGID_60_);}
	.st77{fill:url(#SVGID_61_);}
	.st78{fill:url(#SVGID_62_);}
	.st79{opacity:0.5;fill:url(#SVGID_63_);}
	.st80{opacity:0.48;fill:url(#SVGID_64_);}
	.st81{fill:#160A5B;}
	.st82{fill:url(#SVGID_65_);}
	.st83{fill:url(#SVGID_66_);}
	.st84{fill:url(#SVGID_67_);}
	.st85{fill:#4846A5;}
	.st86{fill:#FCD1C5;}
	.st87{fill:#E2B1A6;}
	.st88{fill:#AA8383;}
	.st89{fill:#936D6D;}
	.st90{fill:#F0F6FF;}
	.st91{fill:#C4CCD6;}
	.st92{fill:url(#SVGID_68_);}
	.st93{fill:url(#SVGID_69_);}
	.st94{fill:#722318;}
	.st95{fill:url(#SVGID_70_);}
</style>
<g>
	<g>
		<g>
			<g>
				<g class="st0">
					<polygon class="st1" points="300,444.63 58.45,305.17 300,165.71 541.55,305.17 					"/>
				</g>
				<g class="st0">
					<polygon class="st1" points="300,423 95.91,305.17 300,187.34 504.09,305.17 					"/>
				</g>
				<g class="st2">
					<polygon class="st3" points="300,397.87 139.44,305.17 300,212.47 460.56,305.17 					"/>
				</g>
			</g>
			<g>
				<g>
					<g>
						<g class="st0">
							<path class="st4" d="M316.73,362.15l-116.7-67.37c-1.18-0.68-1.03-1.87,0.33-2.66l70.15-40.5c1.36-0.79,3.42-0.87,4.6-0.19
								l116.7,67.37c1.18,0.68,1.03,1.87-0.33,2.66l-70.15,40.5C319.97,362.74,317.91,362.83,316.73,362.15z"/>
						</g>
						<linearGradient id="SVGID_1_" gradientUnits="userSpaceOnUse" x1="186.6714" y1="306.7881" x2="405.1663" y2="306.7881">
							<stop  offset="0" style="stop-color:#5761D7"/>
							<stop  offset="0.0726" style="stop-color:#5472D8"/>
							<stop  offset="0.2791" style="stop-color:#4E9CDB"/>
							<stop  offset="0.4801" style="stop-color:#49BDDD"/>
							<stop  offset="0.6715" style="stop-color:#45D5DF"/>
							<stop  offset="0.8493" style="stop-color:#43E3E0"/>
							<stop  offset="1" style="stop-color:#42E8E0"/>
						</linearGradient>
						<path class="st5" d="M321.85,369.57c-0.73,0-1.42-0.14-1.92-0.43l-132.7-76.61c-0.37-0.21-0.56-0.46-0.56-0.71
							c0-0.13,0.07-0.61,0.94-1.11l79.77-46.05c1.33-0.77,3.41-0.87,4.54-0.22l132.7,76.61c0.36,0.21,0.56,0.46,0.56,0.71
							c0,0.13-0.07,0.61-0.93,1.11l-79.77,46.05C323.72,369.35,322.75,369.57,321.85,369.57z M320.23,368.61
							c0.93,0.54,2.8,0.43,3.93-0.22l79.77-46.05c0.48-0.28,0.62-0.53,0.63-0.59c-0.02,0.01-0.07-0.07-0.25-0.17l-132.7-76.61
							c-0.93-0.54-2.8-0.43-3.93,0.22l-79.77,46.05c-0.48,0.28-0.62,0.53-0.63,0.59c0.01-0.01,0.08,0.07,0.26,0.18L320.23,368.61z"
							/>
						<g>
							<path class="st4" d="M317.47,118.07h12.84c-1.9-4.32-3.08-6.98-3.08-6.98L199.23,61.15l0.01,213.75c0,0.02,0,0.05,0,0.07v0.2
								l0.01,0c0.05,0.38,0.3,0.75,0.78,1.02l116.7,67.37c0.22,0.13,0.47,0.22,0.74,0.29V118.07z"/>
						</g>
						<linearGradient id="SVGID_2_" gradientUnits="userSpaceOnUse" x1="355.7568" y1="344.0234" x2="355.7568" y2="87.4901">
							<stop  offset="0" style="stop-color:#C0BFF6"/>
							<stop  offset="0.2938" style="stop-color:#C5C4F7"/>
							<stop  offset="0.6399" style="stop-color:#D3D2F9"/>
							<stop  offset="1" style="stop-color:#E9E9FD"/>
						</linearGradient>
						<path class="st6" d="M392.6,87.49l-73.64,42.02v128.65l-0.05-0.03v85.89c0.02,0,0.03,0,0.05,0v0h0
							c0.83-0.03,1.69-0.25,2.37-0.65l70.15-40.5c0.72-0.42,1.09-0.95,1.11-1.45l0.01-0.01L392.6,87.49z"/>
						<path class="st7" d="M313.67,65.21v189.9v55.38v31.31l3.05,1.76c0.58,0.33,1.37,0.48,2.18,0.46c0.85-0.03,0.89-0.51,1.59-0.91
							l0.63-0.26l-0.68-32.82v-51.42l1.54-193.41H313.67z"/>
						<path class="st8" d="M321.98,310.49v-50.59V127.79l-3.02,1.73v128.65l-0.05-0.03v85.89c0.02,0,0.03,0,0.05,0l0,0l0,0
							c0.18-0.01,0.35-0.03,0.53-0.05c0.03,0,0.07,0,0.1-0.01c0.39-0.06,0.77-0.16,1.13-0.3c0.02-0.01,0.05-0.02,0.07-0.02
							c0.19-0.08,0.37-0.16,0.54-0.26l0.65-0.38V310.49z"/>
						<g class="st9">
							<polygon class="st10" points="205,72.9 307.86,132.28 307.86,332.31 205,272.92 							"/>
						</g>
						<g class="st9">
							<polygon class="st10" points="199.23,244.06 313.67,167.45 313.67,127.95 199.23,61.15 							"/>
						</g>
						<path class="st11" d="M316.73,129.71l-116.7-67.37c-1.18-0.68-1.03-1.87,0.33-2.66l70.15-40.5c1.36-0.79,3.42-0.87,4.6-0.19
							l116.7,67.37c1.18,0.68,1.03,1.87-0.33,2.66l-70.15,40.5C319.97,130.31,317.91,130.39,316.73,129.71z"/>
						<defs>
							<filter id="Adobe_OpacityMaskFilter" filterUnits="userSpaceOnUse" x="199.23" y="22.01" width="118.65" height="100.69">
								<feFlood  style="flood-color:white;flood-opacity:1" result="back"/>
								<feBlend  in="SourceGraphic" in2="back" mode="normal"/>
							</filter>
						</defs>
						<mask maskUnits="userSpaceOnUse" x="199.23" y="22.01" width="118.65" height="100.69" id="SVGID_3_">
							<g class="st12">
								<defs>
									
										<filter id="Adobe_OpacityMaskFilter_1_" filterUnits="userSpaceOnUse" x="199.23" y="22.01" width="118.65" height="100.69">
										<feFlood  style="flood-color:white;flood-opacity:1" result="back"/>
										<feBlend  in="SourceGraphic" in2="back" mode="normal"/>
									</filter>
								</defs>
								<mask maskUnits="userSpaceOnUse" x="199.23" y="22.01" width="118.65" height="100.69" id="SVGID_3_">
									<g class="st13">
									</g>
								</mask>
								<linearGradient id="SVGID_4_" gradientUnits="userSpaceOnUse" x1="217.6818" y1="72.3518" x2="336.3339" y2="72.3518">
									<stop  offset="0" style="stop-color:#000000"/>
									<stop  offset="0.0469" style="stop-color:#2F2F2F"/>
									<stop  offset="0.0981" style="stop-color:#5A5A5A"/>
									<stop  offset="0.155" style="stop-color:#828282"/>
									<stop  offset="0.2161" style="stop-color:#A4A4A4"/>
									<stop  offset="0.2828" style="stop-color:#C0C0C0"/>
									<stop  offset="0.3571" style="stop-color:#D7D7D7"/>
									<stop  offset="0.442" style="stop-color:#E9E9E9"/>
									<stop  offset="0.5443" style="stop-color:#F6F6F6"/>
									<stop  offset="0.6813" style="stop-color:#FDFDFD"/>
									<stop  offset="1" style="stop-color:#FFFFFF"/>
								</linearGradient>
								<path class="st14" d="M273.95,22.01h-8.34l-65.25,37.67c-1.36,0.79-1.51,1.98-0.33,2.66l3.17,1.83l101.37,58.53l13.32-0.15
									L273.95,22.01z"/>
							</g>
						</mask>
						<linearGradient id="SVGID_5_" gradientUnits="userSpaceOnUse" x1="217.6818" y1="72.3518" x2="336.3339" y2="72.3518">
							<stop  offset="0" style="stop-color:#E9E9FD"/>
							<stop  offset="0.0374" style="stop-color:#D3D5F7"/>
							<stop  offset="0.1056" style="stop-color:#B2B6EF"/>
							<stop  offset="0.1817" style="stop-color:#969BE7"/>
							<stop  offset="0.2663" style="stop-color:#7F86E1"/>
							<stop  offset="0.3632" style="stop-color:#6D75DD"/>
							<stop  offset="0.4798" style="stop-color:#606AD9"/>
							<stop  offset="0.6363" style="stop-color:#5963D8"/>
							<stop  offset="1" style="stop-color:#5761D7"/>
						</linearGradient>
						<path class="st15" d="M273.95,22.01h-8.34l-65.25,37.67c-1.36,0.79-1.51,1.98-0.33,2.66l3.17,1.83l101.37,58.53l13.32-0.15
							L273.95,22.01z"/>
						<linearGradient id="SVGID_6_" gradientUnits="userSpaceOnUse" x1="212.4463" y1="74.3526" x2="371.2737" y2="74.3526">
							<stop  offset="0" style="stop-color:#5761D7"/>
							<stop  offset="0.1779" style="stop-color:#5C66D9"/>
							<stop  offset="0.3876" style="stop-color:#6A73DF"/>
							<stop  offset="0.6134" style="stop-color:#8289E8"/>
							<stop  offset="0.849" style="stop-color:#A3A7F5"/>
							<stop  offset="1" style="stop-color:#BCBEFF"/>
						</linearGradient>
						<polygon class="st16" points="273.95,26.16 217.88,58.53 212.45,57.52 212.45,61.67 317.89,122.55 371.27,86.25 						"/>
						<linearGradient id="SVGID_7_" gradientUnits="userSpaceOnUse" x1="317.8866" y1="102.7152" x2="379.3916" y2="102.7152">
							<stop  offset="0" style="stop-color:#C0BFF6"/>
							<stop  offset="0.2938" style="stop-color:#C5C4F7"/>
							<stop  offset="0.6399" style="stop-color:#D3D2F9"/>
							<stop  offset="1" style="stop-color:#E9E9FD"/>
						</linearGradient>
						<polygon class="st17" points="379.39,82.88 379.39,87.04 317.89,122.55 317.89,118.39 						"/>
						<linearGradient id="SVGID_8_" gradientUnits="userSpaceOnUse" x1="212.4463" y1="70.202" x2="379.3916" y2="70.202">
							<stop  offset="0" style="stop-color:#C0BFF6"/>
							<stop  offset="0.2938" style="stop-color:#C5C4F7"/>
							<stop  offset="0.6399" style="stop-color:#D3D2F9"/>
							<stop  offset="1" style="stop-color:#E9E9FD"/>
						</linearGradient>
						<polygon class="st18" points="317.89,118.39 212.45,57.52 273.95,22.01 379.39,82.88 						"/>
						<g>
							<g>
								<g>
									<polygon class="st19" points="251.8,53.08 250.12,52.11 250.26,51.32 265.84,42.26 268.01,43.29 267.6,43.96 									"/>
									<linearGradient id="SVGID_9_" gradientUnits="userSpaceOnUse" x1="249.044" y1="46.9262" x2="268.687" y2="46.9262">
										<stop  offset="0" style="stop-color:#5761D7"/>
										<stop  offset="0.1779" style="stop-color:#5C66D9"/>
										<stop  offset="0.3876" style="stop-color:#6A73DF"/>
										<stop  offset="0.6134" style="stop-color:#8289E8"/>
										<stop  offset="0.849" style="stop-color:#A3A7F5"/>
										<stop  offset="1" style="stop-color:#BCBEFF"/>
									</linearGradient>
									<polygon class="st20" points="265.93,42.99 267.6,43.96 268.69,43.33 265.93,41.74 249.04,51.49 250.13,52.11 									"/>
								</g>
								<g>
									<polygon class="st19" points="256.9,56.02 255.22,55.04 255.36,54.26 270.94,45.19 273.11,46.22 272.7,46.89 									"/>
									<linearGradient id="SVGID_10_" gradientUnits="userSpaceOnUse" x1="254.1428" y1="49.8608" x2="273.7858" y2="49.8608">
										<stop  offset="0" style="stop-color:#5761D7"/>
										<stop  offset="0.1779" style="stop-color:#5C66D9"/>
										<stop  offset="0.3876" style="stop-color:#6A73DF"/>
										<stop  offset="0.6134" style="stop-color:#8289E8"/>
										<stop  offset="0.849" style="stop-color:#A3A7F5"/>
										<stop  offset="1" style="stop-color:#BCBEFF"/>
									</linearGradient>
									<polygon class="st21" points="271.03,45.92 272.7,46.89 273.79,46.27 271.03,44.67 254.14,54.42 255.23,55.05 									"/>
								</g>
								<g>
									<polygon class="st19" points="262,58.95 260.32,57.98 260.46,57.19 276.04,48.12 278.21,49.16 277.8,49.83 									"/>
									<linearGradient id="SVGID_11_" gradientUnits="userSpaceOnUse" x1="259.2417" y1="52.7954" x2="278.8846" y2="52.7954">
										<stop  offset="0" style="stop-color:#5761D7"/>
										<stop  offset="0.1779" style="stop-color:#5C66D9"/>
										<stop  offset="0.3876" style="stop-color:#6A73DF"/>
										<stop  offset="0.6134" style="stop-color:#8289E8"/>
										<stop  offset="0.849" style="stop-color:#A3A7F5"/>
										<stop  offset="1" style="stop-color:#BCBEFF"/>
									</linearGradient>
									<polygon class="st22" points="276.12,48.86 277.8,49.83 278.88,49.2 276.12,47.61 259.24,57.36 260.32,57.98 									"/>
								</g>
								<g>
									<polygon class="st19" points="267.1,61.88 265.42,60.91 265.56,60.13 281.14,51.06 283.3,52.09 282.9,52.76 									"/>
									<linearGradient id="SVGID_12_" gradientUnits="userSpaceOnUse" x1="264.3405" y1="55.73" x2="283.9835" y2="55.73">
										<stop  offset="0" style="stop-color:#5761D7"/>
										<stop  offset="0.1779" style="stop-color:#5C66D9"/>
										<stop  offset="0.3876" style="stop-color:#6A73DF"/>
										<stop  offset="0.6134" style="stop-color:#8289E8"/>
										<stop  offset="0.849" style="stop-color:#A3A7F5"/>
										<stop  offset="1" style="stop-color:#BCBEFF"/>
									</linearGradient>
									<polygon class="st23" points="281.22,51.79 282.9,52.76 283.98,52.14 281.22,50.54 264.34,60.29 265.42,60.92 									"/>
								</g>
							</g>
							<g>
								<g>
									<polygon class="st19" points="282.01,70.55 280.33,69.58 280.47,68.79 296.05,59.72 298.22,60.75 297.81,61.43 									
										"/>
									<linearGradient id="SVGID_13_" gradientUnits="userSpaceOnUse" x1="279.2513" y1="64.3934" x2="298.8943" y2="64.3934">
										<stop  offset="0" style="stop-color:#5761D7"/>
										<stop  offset="0.1779" style="stop-color:#5C66D9"/>
										<stop  offset="0.3876" style="stop-color:#6A73DF"/>
										<stop  offset="0.6134" style="stop-color:#8289E8"/>
										<stop  offset="0.849" style="stop-color:#A3A7F5"/>
										<stop  offset="1" style="stop-color:#BCBEFF"/>
									</linearGradient>
									<polygon class="st24" points="296.13,60.46 297.81,61.43 298.89,60.8 296.13,59.21 279.25,68.95 280.33,69.58 									"/>
								</g>
								<g>
									<polygon class="st19" points="287.11,73.48 285.43,72.51 285.57,71.73 301.15,62.66 303.31,63.69 302.91,64.36 									
										"/>
									<linearGradient id="SVGID_14_" gradientUnits="userSpaceOnUse" x1="284.3502" y1="67.328" x2="303.9932" y2="67.328">
										<stop  offset="0" style="stop-color:#5761D7"/>
										<stop  offset="0.1779" style="stop-color:#5C66D9"/>
										<stop  offset="0.3876" style="stop-color:#6A73DF"/>
										<stop  offset="0.6134" style="stop-color:#8289E8"/>
										<stop  offset="0.849" style="stop-color:#A3A7F5"/>
										<stop  offset="1" style="stop-color:#BCBEFF"/>
									</linearGradient>
									<polygon class="st25" points="301.23,63.39 302.91,64.36 303.99,63.74 301.23,62.14 284.35,71.89 285.43,72.51 									
										"/>
								</g>
								<g>
									<polygon class="st19" points="292.21,76.42 290.53,75.45 290.67,74.66 306.25,65.59 308.41,66.62 308.01,67.29 									
										"/>
									<linearGradient id="SVGID_15_" gradientUnits="userSpaceOnUse" x1="289.4491" y1="70.2626" x2="309.0921" y2="70.2626">
										<stop  offset="0" style="stop-color:#5761D7"/>
										<stop  offset="0.1779" style="stop-color:#5C66D9"/>
										<stop  offset="0.3876" style="stop-color:#6A73DF"/>
										<stop  offset="0.6134" style="stop-color:#8289E8"/>
										<stop  offset="0.849" style="stop-color:#A3A7F5"/>
										<stop  offset="1" style="stop-color:#BCBEFF"/>
									</linearGradient>
									<polygon class="st26" points="306.33,66.33 308.01,67.29 309.09,66.67 306.33,65.08 289.45,74.82 290.53,75.45 									
										"/>
								</g>
								<g>
									<polygon class="st19" points="297.31,79.35 295.63,78.38 295.77,77.59 311.35,68.53 313.51,69.56 313.11,70.23 									
										"/>
									<linearGradient id="SVGID_16_" gradientUnits="userSpaceOnUse" x1="294.5478" y1="73.1973" x2="314.1908" y2="73.1973">
										<stop  offset="0" style="stop-color:#5761D7"/>
										<stop  offset="0.1779" style="stop-color:#5C66D9"/>
										<stop  offset="0.3876" style="stop-color:#6A73DF"/>
										<stop  offset="0.6134" style="stop-color:#8289E8"/>
										<stop  offset="0.849" style="stop-color:#A3A7F5"/>
										<stop  offset="1" style="stop-color:#BCBEFF"/>
									</linearGradient>
									<polygon class="st27" points="311.43,69.26 313.11,70.23 314.19,69.6 311.43,68.01 294.55,77.76 295.63,78.38 									"/>
								</g>
							</g>
							<g>
								<g>
									<polygon class="st19" points="312.22,88.02 310.54,87.04 310.68,86.26 326.26,77.19 328.42,78.22 328.02,78.89 									
										"/>
									<linearGradient id="SVGID_17_" gradientUnits="userSpaceOnUse" x1="309.4588" y1="81.8606" x2="329.1017" y2="81.8606">
										<stop  offset="0" style="stop-color:#5761D7"/>
										<stop  offset="0.1779" style="stop-color:#5C66D9"/>
										<stop  offset="0.3876" style="stop-color:#6A73DF"/>
										<stop  offset="0.6134" style="stop-color:#8289E8"/>
										<stop  offset="0.849" style="stop-color:#A3A7F5"/>
										<stop  offset="1" style="stop-color:#BCBEFF"/>
									</linearGradient>
									<polygon class="st28" points="326.34,77.92 328.02,78.89 329.1,78.27 326.34,76.67 309.46,86.42 310.54,87.05 									"/>
								</g>
								<g>
									<polygon class="st19" points="317.32,90.95 315.64,89.98 315.78,89.19 331.36,80.12 333.52,81.16 333.12,81.83 									
										"/>
									<linearGradient id="SVGID_18_" gradientUnits="userSpaceOnUse" x1="314.5576" y1="84.7952" x2="334.2006" y2="84.7952">
										<stop  offset="0" style="stop-color:#5761D7"/>
										<stop  offset="0.1779" style="stop-color:#5C66D9"/>
										<stop  offset="0.3876" style="stop-color:#6A73DF"/>
										<stop  offset="0.6134" style="stop-color:#8289E8"/>
										<stop  offset="0.849" style="stop-color:#A3A7F5"/>
										<stop  offset="1" style="stop-color:#BCBEFF"/>
									</linearGradient>
									<polygon class="st29" points="331.44,80.86 333.12,81.83 334.2,81.2 331.44,79.61 314.56,89.36 315.64,89.98 									"/>
								</g>
								<g>
									<polygon class="st19" points="322.42,93.88 320.74,92.91 320.87,92.13 336.46,83.06 338.62,84.09 338.22,84.76 									
										"/>
									<linearGradient id="SVGID_19_" gradientUnits="userSpaceOnUse" x1="319.6564" y1="87.7299" x2="339.2994" y2="87.7299">
										<stop  offset="0" style="stop-color:#5761D7"/>
										<stop  offset="0.1779" style="stop-color:#5C66D9"/>
										<stop  offset="0.3876" style="stop-color:#6A73DF"/>
										<stop  offset="0.6134" style="stop-color:#8289E8"/>
										<stop  offset="0.849" style="stop-color:#A3A7F5"/>
										<stop  offset="1" style="stop-color:#BCBEFF"/>
									</linearGradient>
									<polygon class="st30" points="336.54,83.79 338.22,84.76 339.3,84.14 336.54,82.54 319.66,92.29 320.74,92.92 									"/>
								</g>
								<g>
									<polygon class="st19" points="327.52,96.82 325.83,95.85 325.97,95.06 341.56,85.99 343.72,87.02 343.32,87.7 									"/>
									<linearGradient id="SVGID_20_" gradientUnits="userSpaceOnUse" x1="324.7553" y1="90.6645" x2="344.3983" y2="90.6645">
										<stop  offset="0" style="stop-color:#5761D7"/>
										<stop  offset="0.1779" style="stop-color:#5C66D9"/>
										<stop  offset="0.3876" style="stop-color:#6A73DF"/>
										<stop  offset="0.6134" style="stop-color:#8289E8"/>
										<stop  offset="0.849" style="stop-color:#A3A7F5"/>
										<stop  offset="1" style="stop-color:#BCBEFF"/>
									</linearGradient>
									<polygon class="st31" points="341.64,86.73 343.32,87.7 344.4,87.07 341.64,85.48 324.76,95.23 325.84,95.85 									"/>
								</g>
							</g>
						</g>
					</g>
					<polygon class="st11" points="381.67,231.85 329.85,261.76 329.85,190.95 381.67,161.03 					"/>
					<linearGradient id="SVGID_21_" gradientUnits="userSpaceOnUse" x1="380.7636" y1="229.9719" x2="339.1662" y2="199.074">
						<stop  offset="0" style="stop-color:#5761D7"/>
						<stop  offset="0.1779" style="stop-color:#5C66D9"/>
						<stop  offset="0.3876" style="stop-color:#6A73DF"/>
						<stop  offset="0.6134" style="stop-color:#8289E8"/>
						<stop  offset="0.849" style="stop-color:#A3A7F5"/>
						<stop  offset="1" style="stop-color:#BCBEFF"/>
					</linearGradient>
					<polygon class="st32" points="378.78,162.69 378.78,230.51 329.85,258.77 329.85,261.76 381.67,231.85 381.67,161.03 					"/>
					<g>
						<linearGradient id="SVGID_22_" gradientUnits="userSpaceOnUse" x1="329.8657" y1="258.713" x2="412.8811" y2="258.713">
							<stop  offset="0" style="stop-color:#5761D7"/>
							<stop  offset="0.1779" style="stop-color:#5C66D9"/>
							<stop  offset="0.3876" style="stop-color:#6A73DF"/>
							<stop  offset="0.6134" style="stop-color:#8289E8"/>
							<stop  offset="0.849" style="stop-color:#A3A7F5"/>
							<stop  offset="1" style="stop-color:#BCBEFF"/>
						</linearGradient>
						<path class="st33" d="M412.88,250.12l-2.78,1.45l-27.84-16.08c-0.47-0.27-1.28-0.24-1.82,0.08l-48.02,27.73
							c-0.46-0.26-2.55-1.26-2.55-1.26l1.02,2.65l0,0c0.04,0.12,0.13,0.23,0.28,0.32l29.33,16.93c0.47,0.27,1.28,0.24,1.82-0.08
							l49.14-28.37c0.22-0.13,0.36-0.28,0.41-0.44l0,0L412.88,250.12z"/>
						<linearGradient id="SVGID_23_" gradientUnits="userSpaceOnUse" x1="357.7591" y1="255.9449" x2="440.8187" y2="255.9449">
							<stop  offset="0" style="stop-color:#C0BFF6"/>
							<stop  offset="0.2938" style="stop-color:#C5C4F7"/>
							<stop  offset="0.6399" style="stop-color:#D3D2F9"/>
							<stop  offset="1" style="stop-color:#E9E9FD"/>
						</linearGradient>
						<path class="st34" d="M412.45,250.58l-50.36,29.08c-0.55,0.32-1.39,0.35-1.86,0.08l-30.05-17.35
							c-0.48-0.28-0.42-0.76,0.13-1.08l50.36-29.08c0.55-0.32,1.39-0.35,1.86-0.08l30.05,17.35
							C413.06,249.78,413,250.26,412.45,250.58z"/>
						<path class="st35" d="M346.9,273.37v-0.55c0-0.05,0.03-0.08,0.07-0.05l1.95,1.12c0.04,0.02,0.07,0.08,0.07,0.14v0.55
							c0,0.05-0.03,0.08-0.07,0.05l-1.95-1.12C346.93,273.48,346.9,273.42,346.9,273.37z"/>
						<path class="st35" d="M349.81,275.05v-0.55c0-0.05,0.03-0.08,0.07-0.05l1.95,1.12c0.04,0.02,0.07,0.08,0.07,0.14v0.55
							c0,0.05-0.03,0.08-0.07,0.05l-1.95-1.12C349.84,275.16,349.81,275.1,349.81,275.05z"/>
						<path class="st36" d="M338.01,260.76l41.85-24.16c0.28-0.16,0.62-0.16,0.9,0l14.9,8.62c0.21,0.12,0.21,0.43,0,0.56
							l-41.83,24.15c-0.28,0.16-0.62,0.16-0.9,0l-14.92-8.61C337.79,261.19,337.79,260.88,338.01,260.76z"/>
						<path class="st37" d="M338.01,261.32l0.15,0.09l41.7-24.08c0.28-0.16,0.62-0.16,0.9,0l14.75,8.54l0.15-0.09
							c0.21-0.12,0.21-0.43,0-0.56l-14.9-8.62c-0.28-0.16-0.62-0.16-0.9,0l-41.85,24.16C337.79,260.88,337.79,261.19,338.01,261.32z
							"/>
						<g>
							<polygon class="st4" points="381.89,238.78 345.53,259.77 343.91,258.84 380.27,237.85 							"/>
							<polygon class="st4" points="385.85,241.07 351.75,260.76 350.13,259.82 384.23,240.13 							"/>
							<polygon class="st4" points="388.43,242.56 348.28,265.74 346.66,264.8 386.81,241.62 							"/>
							<polygon class="st4" points="391.01,244.05 350.86,267.23 349.25,266.29 389.39,243.11 							"/>
							<polygon class="st4" points="393.59,245.54 353.44,268.72 351.83,267.78 391.98,244.61 							"/>
							<polygon class="st4" points="343.33,261.04 341.72,261.97 340.1,261.04 341.72,260.1 							"/>
							<polygon class="st4" points="349.04,262.32 345.68,264.26 344.06,263.33 347.42,261.39 							"/>
						</g>
						<linearGradient id="SVGID_24_" gradientUnits="userSpaceOnUse" x1="371.8253" y1="260.6601" x2="393.0861" y2="260.6601">
							<stop  offset="0" style="stop-color:#C0BFF6"/>
							<stop  offset="0.2938" style="stop-color:#C5C4F7"/>
							<stop  offset="0.6399" style="stop-color:#D3D2F9"/>
							<stop  offset="1" style="stop-color:#E9E9FD"/>
						</linearGradient>
						<path class="st38" d="M381.47,266.61l11.29-6.52c0.44-0.25,0.44-0.67,0-0.92l-7.72-4.46c-0.44-0.25-1.16-0.25-1.6,0
							l-11.28,6.52c-0.44,0.25-0.44,0.67,0,0.92l7.72,4.46C380.31,266.86,381.03,266.86,381.47,266.61z"/>
						<path class="st37" d="M372.16,261.61l11.28-6.52c0.44-0.25,1.16-0.25,1.6,0l7.72,4.46c0.14,0.08,0.23,0.17,0.28,0.27
							c0.12-0.22,0.03-0.47-0.28-0.65l-7.72-4.46c-0.44-0.25-1.16-0.25-1.6,0l-11.28,6.52c-0.31,0.18-0.39,0.43-0.28,0.65
							C371.93,261.78,372.02,261.68,372.16,261.61z"/>
					</g>
					<polygon class="st4" points="378.78,162.69 329.85,190.95 329.85,258.77 378.78,230.51 					"/>
					<polygon class="st4" points="378.78,162.69 329.85,190.95 329.85,258.77 378.78,230.51 					"/>
					<g class="st9">
						<polygon class="st10" points="376.06,232.09 376.06,167.38 329.85,194.05 329.85,258.77 						"/>
					</g>
					<g class="st39">
						<defs>
							<polygon id="SVGID_25_" class="st39" points="376.06,232.09 376.06,167.38 329.85,194.05 329.85,258.77 							"/>
						</defs>
						<clipPath id="SVGID_26_">
							<use xlink:href="#SVGID_25_"  style="overflow:visible;"/>
						</clipPath>
						<g class="st40">
							<linearGradient id="SVGID_27_" gradientUnits="userSpaceOnUse" x1="326.3642" y1="237.4776" x2="409.0293" y2="237.4776">
								<stop  offset="0" style="stop-color:#C0BFF6"/>
								<stop  offset="0.2938" style="stop-color:#C5C4F7"/>
								<stop  offset="0.6399" style="stop-color:#D3D2F9"/>
								<stop  offset="1" style="stop-color:#E9E9FD"/>
							</linearGradient>
							<path class="st41" d="M380.8,232.14l-50.13,28.94c-0.55,0.32-1.38,0.35-1.85,0.08l-29.91-17.27
								c-0.48-0.27-0.42-0.75,0.13-1.07l50.13-28.94c0.55-0.32,1.38-0.35,1.85-0.08l29.91,17.27
								C381.41,231.34,381.35,231.82,380.8,232.14z"/>
							<linearGradient id="SVGID_28_" gradientUnits="userSpaceOnUse" x1="320.9235" y1="231.4094" x2="342.0834" y2="231.4094">
								<stop  offset="0" style="stop-color:#C0BFF6"/>
								<stop  offset="0.2938" style="stop-color:#C5C4F7"/>
								<stop  offset="0.6399" style="stop-color:#D3D2F9"/>
								<stop  offset="1" style="stop-color:#E9E9FD"/>
							</linearGradient>
							<path class="st42" d="M330.52,237.33l11.23-6.48c0.44-0.25,0.44-0.66,0-0.92l-7.68-4.43c-0.44-0.25-1.15-0.25-1.59,0
								l-11.23,6.48c-0.44,0.25-0.44,0.66,0,0.92l7.68,4.43C329.37,237.58,330.08,237.58,330.52,237.33z"/>
							<path class="st37" d="M321.25,232.35l11.23-6.48c0.44-0.25,1.15-0.25,1.59,0l7.68,4.43c0.14,0.08,0.22,0.17,0.28,0.27
								c0.12-0.22,0.03-0.47-0.28-0.65l-7.68-4.43c-0.44-0.25-1.15-0.25-1.59,0l-11.23,6.48c-0.3,0.18-0.39,0.42-0.28,0.65
								C321.03,232.52,321.12,232.43,321.25,232.35z"/>
							<g>
								<path class="st36" d="M316.32,247.46l41.65-24.05c0.28-0.16,0.62-0.16,0.9,0l14.83,8.58c0.21,0.12,0.21,0.43,0,0.55
									l-41.63,24.04c-0.28,0.16-0.62,0.16-0.9,0l-14.85-8.57C316.1,247.89,316.1,247.58,316.32,247.46z"/>
								<path class="st37" d="M316.32,248.02l0.15,0.09l41.5-23.96c0.28-0.16,0.62-0.16,0.9,0l14.68,8.5l0.15-0.09
									c0.21-0.12,0.21-0.43,0-0.55l-14.83-8.58c-0.28-0.16-0.62-0.16-0.9,0l-41.65,24.05C316.1,247.58,316.1,247.89,316.32,248.02
									z"/>
								<g>
									<polygon class="st4" points="369.82,231.41 333.53,252.36 334.97,253.19 371.26,232.24 									"/>
									<polygon class="st4" points="365.99,229.2 331.5,249.12 332.94,249.95 367.43,230.03 									"/>
									<polygon class="st4" points="328.93,250.6 325.71,252.46 327.14,253.29 330.37,251.43 									"/>
									<polygon class="st4" points="331.77,253.37 329.53,254.67 330.97,255.5 333.21,254.2 									"/>
									<polygon class="st4" points="363.6,227.82 323.31,251.08 324.75,251.91 365.04,228.65 									"/>
									<polygon class="st4" points="361.2,226.44 320.92,249.7 322.35,250.53 362.64,227.27 									"/>
									<polygon class="st4" points="358.81,225.05 318.52,248.31 319.96,249.14 360.24,225.88 									"/>
								</g>
							</g>
						</g>
					</g>
					<g>
						<polygon class="st43" points="343.2,199.36 340.27,201.05 340.27,199.09 343.2,197.4 						"/>
						<polygon class="st43" points="343.2,212.62 340.27,214.31 340.27,202.84 343.2,201.15 						"/>
						<polygon class="st43" points="343.2,218.96 340.27,220.65 340.27,216.09 343.2,214.4 						"/>
						<polygon class="st43" points="343.2,225.53 340.27,227.22 340.27,222.67 343.2,220.98 						"/>
						<polygon class="st43" points="347.56,203.18 344.63,204.87 344.63,200.32 347.56,198.63 						"/>
						<polygon class="st43" points="347.56,211.89 344.63,213.58 344.63,206.89 347.56,205.2 						"/>
						<polygon class="st43" points="347.56,219.9 344.63,221.59 344.63,215.85 347.56,214.16 						"/>
						<polygon class="st43" points="343.2,232.1 340.27,233.79 340.27,229.24 343.2,227.55 						"/>
						<polygon class="st43" points="347.56,196.84 344.63,198.53 344.63,196.57 347.56,194.88 						"/>
					</g>
					<polygon class="st43" points="345.38,237.22 340.27,240.17 340.27,238.27 345.38,235.32 					"/>
				</g>
				<g>
					<linearGradient id="SVGID_29_" gradientUnits="userSpaceOnUse" x1="305.6497" y1="132.1642" x2="310.6797" y2="132.1642">
						<stop  offset="0" style="stop-color:#C0BFF6"/>
						<stop  offset="0.2938" style="stop-color:#C5C4F7"/>
						<stop  offset="0.6399" style="stop-color:#D3D2F9"/>
						<stop  offset="1" style="stop-color:#E9E9FD"/>
					</linearGradient>
					<path class="st44" d="M310.68,133.01c0-1.33-0.93-2.94-2.08-3.6c-0.58-0.33-1.1-0.36-1.48-0.14l0,0l-1.47,0.86l0.91,0.03
						c-0.03,0.14-0.04,0.29-0.04,0.45c0,1.33,0.93,2.94,2.08,3.6c0.15,0.09,0.3,0.15,0.45,0.2l-0.42,0.79l1.44-0.84l0,0
						C310.44,134.15,310.68,133.68,310.68,133.01z"/>
					<linearGradient id="SVGID_30_" gradientUnits="userSpaceOnUse" x1="305.0374" y1="132.6767" x2="309.1973" y2="132.6767">
						<stop  offset="0" style="stop-color:#5761D7"/>
						<stop  offset="0.1779" style="stop-color:#5C66D9"/>
						<stop  offset="0.3876" style="stop-color:#6A73DF"/>
						<stop  offset="0.6134" style="stop-color:#8289E8"/>
						<stop  offset="0.849" style="stop-color:#A3A7F5"/>
						<stop  offset="1" style="stop-color:#BCBEFF"/>
					</linearGradient>
					<path class="st45" d="M309.2,133.88c0,1.33-0.93,1.86-2.08,1.2c-1.15-0.66-2.08-2.28-2.08-3.6c0-1.33,0.93-1.86,2.08-1.2
						C308.27,130.94,309.2,132.55,309.2,133.88z"/>
					<path class="st19" d="M308.31,133.37c0,0.76-0.54,1.07-1.2,0.69c-0.66-0.38-1.2-1.31-1.2-2.07s0.54-1.07,1.2-0.69
						C307.78,131.68,308.31,132.6,308.31,133.37z"/>
				</g>
				<g>
					<linearGradient id="SVGID_31_" gradientUnits="userSpaceOnUse" x1="202.7961" y1="73.1183" x2="207.826" y2="73.1183">
						<stop  offset="0" style="stop-color:#C0BFF6"/>
						<stop  offset="0.2938" style="stop-color:#C5C4F7"/>
						<stop  offset="0.6399" style="stop-color:#D3D2F9"/>
						<stop  offset="1" style="stop-color:#E9E9FD"/>
					</linearGradient>
					<path class="st46" d="M207.83,73.96c0-1.33-0.93-2.94-2.08-3.6c-0.58-0.33-1.1-0.36-1.48-0.14v0l-1.47,0.86l0.91,0.03
						c-0.03,0.14-0.04,0.29-0.04,0.45c0,1.33,0.93,2.94,2.08,3.6c0.15,0.09,0.3,0.15,0.45,0.2l-0.42,0.79l1.44-0.84l0,0
						C207.59,75.1,207.83,74.63,207.83,73.96z"/>
					<linearGradient id="SVGID_32_" gradientUnits="userSpaceOnUse" x1="202.1837" y1="73.6307" x2="206.3434" y2="73.6307">
						<stop  offset="0" style="stop-color:#5761D7"/>
						<stop  offset="0.1779" style="stop-color:#5C66D9"/>
						<stop  offset="0.3876" style="stop-color:#6A73DF"/>
						<stop  offset="0.6134" style="stop-color:#8289E8"/>
						<stop  offset="0.849" style="stop-color:#A3A7F5"/>
						<stop  offset="1" style="stop-color:#BCBEFF"/>
					</linearGradient>
					<path class="st47" d="M206.34,74.83c0,1.33-0.93,1.86-2.08,1.2c-1.15-0.66-2.08-2.28-2.08-3.6s0.93-1.86,2.08-1.2
						C205.41,71.89,206.34,73.51,206.34,74.83z"/>
					<path class="st19" d="M205.46,74.32c0,0.76-0.54,1.07-1.2,0.69c-0.66-0.38-1.2-1.31-1.2-2.07c0-0.76,0.54-1.07,1.2-0.69
						C204.92,72.63,205.46,73.56,205.46,74.32z"/>
				</g>
				<g>
					<linearGradient id="SVGID_33_" gradientUnits="userSpaceOnUse" x1="305.6497" y1="332.1342" x2="310.6797" y2="332.1342">
						<stop  offset="0" style="stop-color:#C0BFF6"/>
						<stop  offset="0.2938" style="stop-color:#C5C4F7"/>
						<stop  offset="0.6399" style="stop-color:#D3D2F9"/>
						<stop  offset="1" style="stop-color:#E9E9FD"/>
					</linearGradient>
					<path class="st48" d="M310.68,332.98c0-1.33-0.93-2.94-2.08-3.6c-0.58-0.33-1.1-0.36-1.48-0.14l0,0l-1.47,0.86l0,0
						c0.38-0.21,0.89-0.18,1.47,0.15c1.15,0.66,2.08,2.28,2.08,3.6c0,0.64-0.22,1.09-0.57,1.31l-0.01,0.01l1.44-0.84l0,0
						C310.44,334.12,310.68,333.65,310.68,332.98z"/>
					<linearGradient id="SVGID_34_" gradientUnits="userSpaceOnUse" x1="305.0375" y1="332.7133" x2="309.1972" y2="332.7133">
						<stop  offset="0" style="stop-color:#5761D7"/>
						<stop  offset="0.1779" style="stop-color:#5C66D9"/>
						<stop  offset="0.3876" style="stop-color:#6A73DF"/>
						<stop  offset="0.6134" style="stop-color:#8289E8"/>
						<stop  offset="0.849" style="stop-color:#A3A7F5"/>
						<stop  offset="1" style="stop-color:#BCBEFF"/>
					</linearGradient>
					<path class="st49" d="M308.6,334.18c-0.14-0.08-0.29-0.18-0.42-0.29c-0.2,0.33-0.6,0.41-1.06,0.14
						c-0.66-0.38-1.2-1.31-1.2-2.07c0-0.53,0.26-0.84,0.65-0.85c-0.03-0.18-0.05-0.36-0.05-0.53c0-0.16,0.01-0.31,0.04-0.45
						l-0.91-0.03c-0.38,0.22-0.61,0.68-0.61,1.35c0,1.33,0.93,2.94,2.08,3.6c0.6,0.34,1.13,0.36,1.51,0.11l0.42-0.78
						C308.9,334.33,308.75,334.27,308.6,334.18z"/>
					<linearGradient id="SVGID_35_" gradientUnits="userSpaceOnUse" x1="305.6511" y1="332.5616" x2="310.6812" y2="332.5616">
						<stop  offset="0" style="stop-color:#C0BFF6"/>
						<stop  offset="0.2938" style="stop-color:#C5C4F7"/>
						<stop  offset="0.6399" style="stop-color:#D3D2F9"/>
						<stop  offset="1" style="stop-color:#E9E9FD"/>
					</linearGradient>
					<path class="st50" d="M309.2,333.85c0-1.33-0.93-2.94-2.08-3.6c-0.57-0.33-1.09-0.36-1.47-0.15l0.91,0.03
						c-0.03,0.14-0.04,0.29-0.04,0.45c0,0.17,0.02,0.35,0.05,0.53c0.17,0,0.35,0.04,0.55,0.16c0.66,0.38,1.2,1.31,1.2,2.07
						c0,0.23-0.05,0.41-0.14,0.55c0.14,0.11,0.28,0.21,0.42,0.29c0.15,0.09,0.3,0.15,0.45,0.2l-0.42,0.78
						C308.98,334.93,309.2,334.49,309.2,333.85z"/>
					<linearGradient id="SVGID_36_" gradientUnits="userSpaceOnUse" x1="305.0374" y1="332.5616" x2="309.1972" y2="332.5616">
						<stop  offset="0" style="stop-color:#5761D7"/>
						<stop  offset="0.1779" style="stop-color:#5C66D9"/>
						<stop  offset="0.3876" style="stop-color:#6A73DF"/>
						<stop  offset="0.6134" style="stop-color:#8289E8"/>
						<stop  offset="0.849" style="stop-color:#A3A7F5"/>
						<stop  offset="1" style="stop-color:#BCBEFF"/>
					</linearGradient>
					<path class="st51" d="M309.2,333.85c0-1.33-0.93-2.94-2.08-3.6c-0.57-0.33-1.09-0.36-1.47-0.15l0.91,0.03
						c-0.03,0.14-0.04,0.29-0.04,0.45c0,0.17,0.02,0.35,0.05,0.53c0.17,0,0.35,0.04,0.55,0.16c0.66,0.38,1.2,1.31,1.2,2.07
						c0,0.23-0.05,0.41-0.14,0.55c0.14,0.11,0.28,0.21,0.42,0.29c0.15,0.09,0.3,0.15,0.45,0.2l-0.42,0.78
						C308.98,334.93,309.2,334.49,309.2,333.85z"/>
					<path class="st19" d="M305.92,331.96c0,0.76,0.54,1.69,1.2,2.07c0.46,0.27,0.86,0.19,1.06-0.14c-0.81-0.66-1.44-1.75-1.61-2.78
						C306.18,331.12,305.92,331.42,305.92,331.96z"/>
					<path class="st19" d="M308.18,333.89c0.08-0.14,0.14-0.32,0.14-0.55c0-0.76-0.54-1.69-1.2-2.07c-0.2-0.12-0.38-0.16-0.55-0.16
						C306.74,332.14,307.37,333.23,308.18,333.89z"/>
					<linearGradient id="SVGID_37_" gradientUnits="userSpaceOnUse" x1="202.7959" y1="273.0882" x2="207.826" y2="273.0882">
						<stop  offset="0" style="stop-color:#C0BFF6"/>
						<stop  offset="0.2938" style="stop-color:#C5C4F7"/>
						<stop  offset="0.6399" style="stop-color:#D3D2F9"/>
						<stop  offset="1" style="stop-color:#E9E9FD"/>
					</linearGradient>
					<path class="st52" d="M205.75,270.33c-0.58-0.33-1.1-0.36-1.48-0.14v0l-1.47,0.86h0c0.38-0.21,0.89-0.18,1.47,0.15
						c1.15,0.66,2.08,2.28,2.08,3.6c0,0.64-0.22,1.09-0.57,1.31l-0.01,0.01l1.44-0.84l0,0c0.38-0.22,0.62-0.68,0.62-1.35
						C207.83,272.61,206.89,271,205.75,270.33z"/>
					<linearGradient id="SVGID_38_" gradientUnits="userSpaceOnUse" x1="202.1837" y1="273.6672" x2="206.3435" y2="273.6672">
						<stop  offset="0" style="stop-color:#5761D7"/>
						<stop  offset="0.1779" style="stop-color:#5C66D9"/>
						<stop  offset="0.3876" style="stop-color:#6A73DF"/>
						<stop  offset="0.6134" style="stop-color:#8289E8"/>
						<stop  offset="0.849" style="stop-color:#A3A7F5"/>
						<stop  offset="1" style="stop-color:#BCBEFF"/>
					</linearGradient>
					<path class="st53" d="M205.75,275.14c-0.14-0.08-0.29-0.18-0.42-0.29c-0.2,0.33-0.6,0.41-1.06,0.14
						c-0.66-0.38-1.2-1.31-1.2-2.07c0-0.53,0.26-0.84,0.65-0.85c-0.03-0.18-0.05-0.36-0.05-0.53c0-0.16,0.01-0.31,0.04-0.45
						l-0.91-0.03c-0.38,0.22-0.61,0.68-0.61,1.35c0,1.33,0.93,2.94,2.08,3.6c0.6,0.34,1.13,0.36,1.51,0.11l0.42-0.78
						C206.05,275.29,205.9,275.22,205.75,275.14z"/>
					<linearGradient id="SVGID_39_" gradientUnits="userSpaceOnUse" x1="202.7975" y1="273.5156" x2="207.8273" y2="273.5156">
						<stop  offset="0" style="stop-color:#C0BFF6"/>
						<stop  offset="0.2938" style="stop-color:#C5C4F7"/>
						<stop  offset="0.6399" style="stop-color:#D3D2F9"/>
						<stop  offset="1" style="stop-color:#E9E9FD"/>
					</linearGradient>
					<path class="st54" d="M206.34,274.8c0-1.33-0.93-2.94-2.08-3.6c-0.57-0.33-1.09-0.36-1.47-0.15l0.91,0.03
						c-0.03,0.14-0.04,0.29-0.04,0.45c0,0.17,0.02,0.35,0.05,0.53c0.17,0,0.35,0.04,0.55,0.16c0.66,0.38,1.2,1.31,1.2,2.07
						c0,0.23-0.05,0.41-0.14,0.55c0.14,0.11,0.28,0.21,0.42,0.29c0.15,0.09,0.3,0.15,0.45,0.2l-0.42,0.78
						C206.12,275.89,206.34,275.44,206.34,274.8z"/>
					<linearGradient id="SVGID_40_" gradientUnits="userSpaceOnUse" x1="202.1837" y1="273.5156" x2="206.3434" y2="273.5156">
						<stop  offset="0" style="stop-color:#5761D7"/>
						<stop  offset="0.1779" style="stop-color:#5C66D9"/>
						<stop  offset="0.3876" style="stop-color:#6A73DF"/>
						<stop  offset="0.6134" style="stop-color:#8289E8"/>
						<stop  offset="0.849" style="stop-color:#A3A7F5"/>
						<stop  offset="1" style="stop-color:#BCBEFF"/>
					</linearGradient>
					<path class="st55" d="M206.34,274.8c0-1.33-0.93-2.94-2.08-3.6c-0.57-0.33-1.09-0.36-1.47-0.15l0.91,0.03
						c-0.03,0.14-0.04,0.29-0.04,0.45c0,0.17,0.02,0.35,0.05,0.53c0.17,0,0.35,0.04,0.55,0.16c0.66,0.38,1.2,1.31,1.2,2.07
						c0,0.23-0.05,0.41-0.14,0.55c0.14,0.11,0.28,0.21,0.42,0.29c0.15,0.09,0.3,0.15,0.45,0.2l-0.42,0.78
						C206.12,275.89,206.34,275.44,206.34,274.8z"/>
					<path class="st19" d="M203.07,272.91c0,0.76,0.54,1.69,1.2,2.07c0.46,0.27,0.86,0.19,1.06-0.14c-0.8-0.66-1.44-1.75-1.61-2.78
						C203.33,272.07,203.07,272.38,203.07,272.91z"/>
					<path class="st19" d="M205.32,274.84c0.08-0.14,0.14-0.32,0.14-0.55c0-0.76-0.54-1.69-1.2-2.07c-0.2-0.12-0.38-0.16-0.55-0.16
						C203.89,273.09,204.52,274.18,205.32,274.84z"/>
				</g>
			</g>
		</g>
		<g class="st56">
			<defs>
				<polygon id="SVGID_41_" class="st56" points="205,72.9 307.86,132.28 307.86,332.31 205,272.92 				"/>
			</defs>
			<clipPath id="SVGID_42_">
				<use xlink:href="#SVGID_41_"  style="overflow:visible;"/>
			</clipPath>
			<g class="st57">
				<g>
					
						<linearGradient id="SVGID_43_" gradientUnits="userSpaceOnUse" x1="3490.033" y1="-941.6673" x2="3502.1746" y2="-941.6673" gradientTransform="matrix(-0.866 0.5 1 0.5774 4240.6875 -944.5508)">
						<stop  offset="0" style="stop-color:#5761D7"/>
						<stop  offset="0.1645" style="stop-color:#5E67DA"/>
						<stop  offset="0.4051" style="stop-color:#727AE2"/>
						<stop  offset="0.6924" style="stop-color:#9297EE"/>
						<stop  offset="1" style="stop-color:#BCBEFF"/>
					</linearGradient>
					<path class="st58" d="M266.14,262.82c-2.9-1.68-2.9-4.39,0-6.07c2.9-1.68,7.61-1.68,10.51,0c2.9,1.68,2.9,4.39,0,6.07
						C273.75,264.49,269.04,264.49,266.14,262.82z"/>
					<path class="st59" d="M266.14,262.45c2.9,1.68,7.61,1.68,10.51,0c1.37-0.79,2.09-1.82,2.16-2.85c0.08,1.16-0.63,2.33-2.16,3.22
						c-2.9,1.68-7.61,1.68-10.51,0c-1.53-0.88-2.25-2.06-2.16-3.22C264.05,260.64,264.77,261.66,266.14,262.45z"/>
					
						<linearGradient id="SVGID_44_" gradientUnits="userSpaceOnUse" x1="3504.4719" y1="-929.1629" x2="3516.6138" y2="-929.1629" gradientTransform="matrix(-0.866 0.5 1 0.5774 4240.6875 -944.5508)">
						<stop  offset="0" style="stop-color:#5761D7"/>
						<stop  offset="0.1645" style="stop-color:#5E67DA"/>
						<stop  offset="0.4051" style="stop-color:#727AE2"/>
						<stop  offset="0.6924" style="stop-color:#9297EE"/>
						<stop  offset="1" style="stop-color:#BCBEFF"/>
					</linearGradient>
					<path class="st60" d="M266.14,277.26c-2.9-1.68-2.9-4.39,0-6.07c2.9-1.68,7.61-1.68,10.51,0c2.9,1.68,2.9,4.39,0,6.07
						C273.75,278.93,269.04,278.93,266.14,277.26z"/>
					
						<linearGradient id="SVGID_45_" gradientUnits="userSpaceOnUse" x1="3519.1646" y1="-916.4392" x2="3531.3062" y2="-916.4392" gradientTransform="matrix(-0.866 0.5 1 0.5774 4240.6875 -944.5508)">
						<stop  offset="0" style="stop-color:#5761D7"/>
						<stop  offset="0.1645" style="stop-color:#5E67DA"/>
						<stop  offset="0.4051" style="stop-color:#727AE2"/>
						<stop  offset="0.6924" style="stop-color:#9297EE"/>
						<stop  offset="1" style="stop-color:#BCBEFF"/>
					</linearGradient>
					<path class="st61" d="M266.14,291.95c-2.9-1.68-2.9-4.39,0-6.07c2.9-1.68,7.61-1.68,10.51,0c2.9,1.68,2.9,4.39,0,6.07
						C273.75,293.63,269.04,293.63,266.14,291.95z"/>
					
						<linearGradient id="SVGID_46_" gradientUnits="userSpaceOnUse" x1="4983.939" y1="271.1063" x2="5024.5747" y2="271.1063" gradientTransform="matrix(-1 0 0 1 5282.6997 0)">
						<stop  offset="0" style="stop-color:#5761D7"/>
						<stop  offset="0.1645" style="stop-color:#5E67DA"/>
						<stop  offset="0.4051" style="stop-color:#727AE2"/>
						<stop  offset="0.6924" style="stop-color:#9297EE"/>
						<stop  offset="1" style="stop-color:#BCBEFF"/>
					</linearGradient>
					<path class="st62" d="M278.83,259.78v-7.51c0,1.1-0.73,2.2-2.18,3.03c-2.9,1.68-7.61,1.68-10.51,0
						c-1.41-0.81-2.13-1.87-2.17-2.93v-31.78h14.86v93.6c0,4.1-3.33,7.43-7.43,7.43c-4.1,0-7.43-3.33-7.43-7.43v-25.38
						c-0.05,1.13,0.67,2.27,2.17,3.13c2.9,1.68,7.61,1.68,10.51,0c1.45-0.84,2.17-1.93,2.18-3.03h0v-0.01v0v-7.51
						c0,1.1-0.73,2.2-2.18,3.03c-2.9,1.68-7.61,1.68-10.51,0c-1.41-0.81-2.13-1.87-2.17-2.93v-7.38c-0.05,1.13,0.67,2.27,2.17,3.13
						c2.9,1.68,7.61,1.68,10.51,0c1.45-0.84,2.17-1.93,2.18-3.03h0v-0.01v0v-7.51c0,1.1-0.73,2.2-2.18,3.03
						c-2.9,1.68-7.61,1.68-10.51,0c-1.41-0.81-2.13-1.87-2.17-2.93v-7.13c-0.05,1.13,0.67,2.27,2.17,3.13
						c2.9,1.68,7.61,1.68,10.51,0C278.1,261.98,278.83,260.89,278.83,259.78L278.83,259.78L278.83,259.78L278.83,259.78z"/>
					<path class="st59" d="M266.14,276.89c2.9,1.68,7.61,1.68,10.51,0c1.37-0.79,2.09-1.82,2.16-2.85c0.08,1.16-0.63,2.33-2.16,3.22
						c-2.9,1.68-7.61,1.68-10.51,0c-1.53-0.88-2.25-2.06-2.16-3.22C264.05,275.08,264.77,276.1,266.14,276.89z"/>
					<path class="st59" d="M266.14,291.59c2.9,1.68,7.61,1.68,10.51,0c1.37-0.79,2.09-1.82,2.16-2.85c0.08,1.16-0.63,2.33-2.16,3.22
						c-2.9,1.68-7.61,1.68-10.51,0c-1.53-0.88-2.25-2.06-2.16-3.22C264.05,289.77,264.77,290.79,266.14,291.59z"/>
					
						<linearGradient id="SVGID_47_" gradientUnits="userSpaceOnUse" x1="5003.873" y1="258.1734" x2="5018.7373" y2="258.1734" gradientTransform="matrix(-1 0 0 1 5282.6997 0)">
						<stop  offset="0" style="stop-color:#42E8E0"/>
						<stop  offset="0.1507" style="stop-color:#43E3E0"/>
						<stop  offset="0.3285" style="stop-color:#45D5DF"/>
						<stop  offset="0.5199" style="stop-color:#49BDDD"/>
						<stop  offset="0.7209" style="stop-color:#4E9CDB"/>
						<stop  offset="0.9274" style="stop-color:#5472D8"/>
						<stop  offset="1" style="stop-color:#5761D7"/>
					</linearGradient>
					<path class="st63" d="M266.13,255.31c2.9,1.68,7.61,1.68,10.51,0c1.45-0.84,2.18-1.94,2.18-3.03v7.51l0,0l0,0.01h0
						c0,1.1-0.73,2.19-2.18,3.03c-2.9,1.68-7.61,1.68-10.51,0c-1.5-0.86-2.21-2-2.17-3.13v-7.31
						C264.01,253.44,264.73,254.49,266.13,255.31z"/>
					
						<linearGradient id="SVGID_48_" gradientUnits="userSpaceOnUse" x1="5003.873" y1="272.6131" x2="5018.7373" y2="272.6131" gradientTransform="matrix(-1 0 0 1 5282.6997 0)">
						<stop  offset="0" style="stop-color:#42E8E0"/>
						<stop  offset="0.1507" style="stop-color:#43E3E0"/>
						<stop  offset="0.3285" style="stop-color:#45D5DF"/>
						<stop  offset="0.5199" style="stop-color:#49BDDD"/>
						<stop  offset="0.7209" style="stop-color:#4E9CDB"/>
						<stop  offset="0.9274" style="stop-color:#5472D8"/>
						<stop  offset="1" style="stop-color:#5761D7"/>
					</linearGradient>
					<path class="st64" d="M266.13,269.75c2.9,1.68,7.61,1.68,10.51,0c1.45-0.84,2.18-1.94,2.18-3.03v7.51l0,0l0,0.01h0
						c0,1.1-0.73,2.19-2.18,3.03c-2.9,1.68-7.61,1.68-10.51,0c-1.5-0.86-2.21-2-2.17-3.13v-7.31
						C264.01,267.88,264.73,268.93,266.13,269.75z"/>
					
						<linearGradient id="SVGID_49_" gradientUnits="userSpaceOnUse" x1="5003.873" y1="287.3061" x2="5018.7373" y2="287.3061" gradientTransform="matrix(-1 0 0 1 5282.6997 0)">
						<stop  offset="0" style="stop-color:#42E8E0"/>
						<stop  offset="0.1507" style="stop-color:#43E3E0"/>
						<stop  offset="0.3285" style="stop-color:#45D5DF"/>
						<stop  offset="0.5199" style="stop-color:#49BDDD"/>
						<stop  offset="0.7209" style="stop-color:#4E9CDB"/>
						<stop  offset="0.9274" style="stop-color:#5472D8"/>
						<stop  offset="1" style="stop-color:#5761D7"/>
					</linearGradient>
					<path class="st65" d="M266.13,284.44c2.9,1.68,7.61,1.68,10.51,0c1.45-0.84,2.18-1.94,2.18-3.03v7.51l0,0l0,0.01h0
						c0,1.1-0.73,2.19-2.18,3.03c-2.9,1.68-7.61,1.68-10.51,0c-1.5-0.86-2.21-2-2.17-3.13v-7.31
						C264.01,282.57,264.73,283.63,266.13,284.44z"/>
				</g>
				<g>
					
						<linearGradient id="SVGID_50_" gradientUnits="userSpaceOnUse" x1="4957.9399" y1="194.6482" x2="5053.999" y2="138.961" gradientTransform="matrix(-1 0 0 1 5282.6997 0)">
						<stop  offset="0" style="stop-color:#5761D7"/>
						<stop  offset="0.1645" style="stop-color:#5E67DA"/>
						<stop  offset="0.4051" style="stop-color:#727AE2"/>
						<stop  offset="0.6924" style="stop-color:#9297EE"/>
						<stop  offset="1" style="stop-color:#BCBEFF"/>
					</linearGradient>
					<path class="st66" d="M298.26,209.03c0.34-0.19,0.68-0.39,1.01-0.6l3.63-20.58l-4.56-27.32l-12.67-13.81l-13.05-12.67
						l-20.77-8.61l-0.55-0.21c-0.99,0.49-1.91,1.1-2.78,1.79c-5.19-0.65-10.39-1.3-15.58-1.95c0.87-2.14,1.91-4.09,3.13-5.8
						l-2.49-0.97l9.3-5.36c0.11-0.06,0.22-0.13,0.33-0.19l0.35-0.2l0.02,0.01c8-4.31,18.89-3.53,30.9,3.4
						c24.56,14.18,44.46,48.66,44.46,77.01c0,14.07-4.9,23.98-12.84,28.67l0,0l-0.06,0.04c-0.09,0.05-0.18,0.11-0.27,0.16
						l-9.88,5.65l0.51-2.87c-1.23,0.1-2.5,0.11-3.8,0.03C295.35,219.81,299.05,214.46,298.26,209.03z"/>
					
						<linearGradient id="SVGID_51_" gradientUnits="userSpaceOnUse" x1="5063.2715" y1="145.2666" x2="4976.7876" y2="208.5865" gradientTransform="matrix(-1 0 0 1 5282.6997 0)">
						<stop  offset="0" style="stop-color:#5761D7"/>
						<stop  offset="0.1645" style="stop-color:#5E67DA"/>
						<stop  offset="0.4051" style="stop-color:#727AE2"/>
						<stop  offset="0.6924" style="stop-color:#9297EE"/>
						<stop  offset="1" style="stop-color:#BCBEFF"/>
					</linearGradient>
					<path class="st67" d="M230.06,142.77c-0.01-0.38-0.02-0.77-0.02-1.15c0-6.43,1.05-11.96,2.92-16.55
						c5.19,0.65,10.39,1.3,15.58,1.95c-4.99,3.94-8.02,11.01-8.02,20.65c0,21.67,15.21,48.02,33.98,58.85
						c9.25,5.34,17.64,5.9,23.76,2.51c0.79,5.42-2.91,10.78-5.65,15.6c-4.12-0.25-8.58-1.4-13.25-3.5l1.47,1.65
						c0,0-18.49-6.42-18.87-6.83c-0.38-0.41-21.91-22.15-21.91-22.15l-14.06-30.33L230.06,142.77z"/>
					
						<linearGradient id="SVGID_52_" gradientUnits="userSpaceOnUse" x1="4980.2822" y1="171.7985" x2="5048.2393" y2="171.7985" gradientTransform="matrix(-1 0 0 1 5282.6997 0)">
						<stop  offset="0" style="stop-color:#42E8E0"/>
						<stop  offset="0.1507" style="stop-color:#43E3E0"/>
						<stop  offset="0.3285" style="stop-color:#45D5DF"/>
						<stop  offset="0.5199" style="stop-color:#49BDDD"/>
						<stop  offset="0.7209" style="stop-color:#4E9CDB"/>
						<stop  offset="0.9274" style="stop-color:#5472D8"/>
						<stop  offset="1" style="stop-color:#5761D7"/>
					</linearGradient>
					<path class="st68" d="M234.46,152.18c0-21.67,15.21-30.45,33.98-19.62c18.77,10.83,33.98,37.18,33.98,58.85
						s-15.21,30.45-33.98,19.62C249.67,200.2,234.46,173.85,234.46,152.18z"/>
					
						<linearGradient id="SVGID_53_" gradientUnits="userSpaceOnUse" x1="4977.3267" y1="170.194" x2="5045.2842" y2="170.194" gradientTransform="matrix(-1 0 0 1 5282.6997 0)">
						<stop  offset="0" style="stop-color:#42E8E0"/>
						<stop  offset="0.1507" style="stop-color:#43E3E0"/>
						<stop  offset="0.3285" style="stop-color:#45D5DF"/>
						<stop  offset="0.5199" style="stop-color:#49BDDD"/>
						<stop  offset="0.7209" style="stop-color:#4E9CDB"/>
						<stop  offset="0.9274" style="stop-color:#5472D8"/>
						<stop  offset="1" style="stop-color:#5761D7"/>
					</linearGradient>
					<path class="st69" d="M237.42,150.58c0-21.67,15.21-30.45,33.98-19.62s33.98,37.18,33.98,58.85
						c0,21.67-15.21,30.45-33.98,19.62C252.63,198.59,237.42,172.24,237.42,150.58z"/>
					<path class="st11" d="M220.26,147.26c0,28.35,19.91,62.83,44.46,77.01c24.56,14.18,44.46,2.69,44.46-25.67
						s-19.91-62.83-44.46-77.01C240.17,107.41,220.26,118.91,220.26,147.26z M230.74,153.31c0-21.67,15.21-30.45,33.98-19.62
						c18.77,10.83,33.98,37.18,33.98,58.85s-15.21,30.45-33.98,19.62C245.96,201.33,230.74,174.98,230.74,153.31z"/>
					<path class="st11" d="M220.26,147.26c0,28.35,19.91,62.83,44.46,77.01c24.56,14.18,44.46,2.69,44.46-25.67
						s-19.91-62.83-44.46-77.01C240.17,107.41,220.26,118.91,220.26,147.26z M230.74,153.31c0-21.67,15.21-30.45,33.98-19.62
						c18.77,10.83,33.98,37.18,33.98,58.85s-15.21,30.45-33.98,19.62C245.96,201.33,230.74,174.98,230.74,153.31z"/>
					<g>
						<path class="st59" d="M308.51,199.36c0-28.35-19.91-62.83-44.46-77.01c-15.11-8.73-28.46-7.71-36.49,0.95
							c7.95-9.37,21.62-10.69,37.17-1.72c24.56,14.18,44.46,48.66,44.46,77.01c0,10.9-2.95,19.3-7.97,24.71
							C305.82,217.89,308.51,209.76,308.51,199.36z"/>
						<path class="st59" d="M264.05,212.92c-18.77-10.83-33.98-37.18-33.98-58.85c0-8.39,2.29-14.84,6.18-18.98
							c-3.48,4.15-5.5,10.32-5.5,18.22c0,21.67,15.21,48.02,33.98,58.85c11.5,6.64,21.65,5.9,27.8-0.64
							C286.46,218.76,275.98,219.81,264.05,212.92z"/>
					</g>
				</g>
			</g>
		</g>
		<g>
			<g>
				
					<linearGradient id="SVGID_54_" gradientUnits="userSpaceOnUse" x1="3528.6226" y1="-937.0068" x2="3540.7642" y2="-937.0068" gradientTransform="matrix(-0.866 0.5 1 0.5774 4240.6875 -944.5508)">
					<stop  offset="0" style="stop-color:#5761D7"/>
					<stop  offset="0.1645" style="stop-color:#5E67DA"/>
					<stop  offset="0.4051" style="stop-color:#727AE2"/>
					<stop  offset="0.6924" style="stop-color:#9297EE"/>
					<stop  offset="1" style="stop-color:#BCBEFF"/>
				</linearGradient>
				<path class="st70" d="M237.38,284.8c-2.9-1.68-2.9-4.39,0-6.07c2.9-1.68,7.61-1.68,10.51,0c2.9,1.68,2.9,4.39,0,6.07
					C244.99,286.48,240.28,286.48,237.38,284.8z"/>
				<path class="st59" d="M237.38,284.44c2.9,1.68,7.61,1.68,10.51,0c1.37-0.79,2.09-1.82,2.16-2.85c0.08,1.16-0.63,2.33-2.16,3.22
					c-2.9,1.68-7.61,1.68-10.51,0c-1.53-0.88-2.25-2.06-2.16-3.22C235.29,282.62,236.01,283.65,237.38,284.44z"/>
				
					<linearGradient id="SVGID_55_" gradientUnits="userSpaceOnUse" x1="3543.0618" y1="-924.5024" x2="3555.2034" y2="-924.5024" gradientTransform="matrix(-0.866 0.5 1 0.5774 4240.6875 -944.5508)">
					<stop  offset="0" style="stop-color:#5761D7"/>
					<stop  offset="0.1645" style="stop-color:#5E67DA"/>
					<stop  offset="0.4051" style="stop-color:#727AE2"/>
					<stop  offset="0.6924" style="stop-color:#9297EE"/>
					<stop  offset="1" style="stop-color:#BCBEFF"/>
				</linearGradient>
				<path class="st71" d="M237.38,299.24c-2.9-1.68-2.9-4.39,0-6.07c2.9-1.68,7.61-1.68,10.51,0c2.9,1.68,2.9,4.39,0,6.07
					C244.99,300.92,240.28,300.92,237.38,299.24z"/>
				
					<linearGradient id="SVGID_56_" gradientUnits="userSpaceOnUse" x1="3557.7544" y1="-911.7787" x2="3569.896" y2="-911.7787" gradientTransform="matrix(-0.866 0.5 1 0.5774 4240.6875 -944.5508)">
					<stop  offset="0" style="stop-color:#5761D7"/>
					<stop  offset="0.1645" style="stop-color:#5E67DA"/>
					<stop  offset="0.4051" style="stop-color:#727AE2"/>
					<stop  offset="0.6924" style="stop-color:#9297EE"/>
					<stop  offset="1" style="stop-color:#BCBEFF"/>
				</linearGradient>
				<path class="st72" d="M237.38,313.94c-2.9-1.68-2.9-4.39,0-6.07c2.9-1.68,7.61-1.68,10.51,0c2.9,1.68,2.9,4.39,0,6.07
					C244.99,315.61,240.28,315.61,237.38,313.94z"/>
				
					<linearGradient id="SVGID_57_" gradientUnits="userSpaceOnUse" x1="5012.6973" y1="293.0921" x2="5053.333" y2="293.0921" gradientTransform="matrix(-1 0 0 1 5282.6997 0)">
					<stop  offset="0" style="stop-color:#5761D7"/>
					<stop  offset="0.1645" style="stop-color:#5E67DA"/>
					<stop  offset="0.4051" style="stop-color:#727AE2"/>
					<stop  offset="0.6924" style="stop-color:#9297EE"/>
					<stop  offset="1" style="stop-color:#BCBEFF"/>
				</linearGradient>
				<path class="st73" d="M250.07,281.77v-7.51c0,1.1-0.73,2.2-2.18,3.03c-2.9,1.68-7.61,1.68-10.51,0
					c-1.41-0.81-2.13-1.87-2.17-2.93v-31.78h14.86v93.6c0,4.1-3.33,7.43-7.43,7.43c-4.1,0-7.43-3.33-7.43-7.43V310.8
					c-0.05,1.13,0.67,2.27,2.17,3.13c2.9,1.68,7.61,1.68,10.51,0c1.45-0.84,2.17-1.93,2.18-3.03h0v-0.01v0v-7.51
					c0,1.1-0.73,2.2-2.18,3.03c-2.9,1.68-7.61,1.68-10.51,0c-1.41-0.81-2.13-1.87-2.17-2.93v-7.38c-0.05,1.13,0.67,2.27,2.17,3.13
					c2.9,1.68,7.61,1.68,10.51,0c1.45-0.84,2.17-1.93,2.18-3.03h0v-0.01v0v-7.51c0,1.1-0.73,2.2-2.18,3.03
					c-2.9,1.68-7.61,1.68-10.51,0c-1.41-0.81-2.13-1.87-2.17-2.93v-7.13c-0.05,1.13,0.67,2.27,2.17,3.13c2.9,1.68,7.61,1.68,10.51,0
					C249.34,283.97,250.07,282.87,250.07,281.77L250.07,281.77L250.07,281.77L250.07,281.77z"/>
				<path class="st59" d="M237.38,298.88c2.9,1.68,7.61,1.68,10.51,0c1.37-0.79,2.09-1.82,2.16-2.85c0.08,1.16-0.63,2.33-2.16,3.22
					c-2.9,1.68-7.61,1.68-10.51,0c-1.53-0.88-2.25-2.06-2.16-3.22C235.29,297.06,236.01,298.09,237.38,298.88z"/>
				<path class="st59" d="M237.38,313.57c2.9,1.68,7.61,1.68,10.51,0c1.37-0.79,2.09-1.82,2.16-2.85c0.08,1.16-0.63,2.33-2.16,3.22
					c-2.9,1.68-7.61,1.68-10.51,0c-1.53-0.88-2.25-2.06-2.16-3.22C235.29,311.76,236.01,312.78,237.38,313.57z"/>
				
					<linearGradient id="SVGID_58_" gradientUnits="userSpaceOnUse" x1="5032.6318" y1="280.1593" x2="5047.4956" y2="280.1593" gradientTransform="matrix(-1 0 0 1 5282.6997 0)">
					<stop  offset="0" style="stop-color:#42E8E0"/>
					<stop  offset="0.1507" style="stop-color:#43E3E0"/>
					<stop  offset="0.3285" style="stop-color:#45D5DF"/>
					<stop  offset="0.5199" style="stop-color:#49BDDD"/>
					<stop  offset="0.7209" style="stop-color:#4E9CDB"/>
					<stop  offset="0.9274" style="stop-color:#5472D8"/>
					<stop  offset="1" style="stop-color:#5761D7"/>
				</linearGradient>
				<path class="st74" d="M237.38,277.29c2.9,1.68,7.61,1.68,10.51,0c1.45-0.84,2.18-1.94,2.18-3.03v7.51v0v0.01h0
					c0,1.1-0.73,2.19-2.18,3.03c-2.9,1.68-7.61,1.68-10.51,0c-1.5-0.86-2.21-2-2.17-3.13v-7.31
					C235.25,275.42,235.97,276.48,237.38,277.29z"/>
				
					<linearGradient id="SVGID_59_" gradientUnits="userSpaceOnUse" x1="5032.6318" y1="294.5989" x2="5047.4956" y2="294.5989" gradientTransform="matrix(-1 0 0 1 5282.6997 0)">
					<stop  offset="0" style="stop-color:#42E8E0"/>
					<stop  offset="0.1507" style="stop-color:#43E3E0"/>
					<stop  offset="0.3285" style="stop-color:#45D5DF"/>
					<stop  offset="0.5199" style="stop-color:#49BDDD"/>
					<stop  offset="0.7209" style="stop-color:#4E9CDB"/>
					<stop  offset="0.9274" style="stop-color:#5472D8"/>
					<stop  offset="1" style="stop-color:#5761D7"/>
				</linearGradient>
				<path class="st75" d="M237.38,291.73c2.9,1.68,7.61,1.68,10.51,0c1.45-0.84,2.18-1.94,2.18-3.03v7.51l0,0l0,0.01h0
					c0,1.1-0.73,2.19-2.18,3.03c-2.9,1.68-7.61,1.68-10.51,0c-1.5-0.86-2.21-2-2.17-3.13v-7.31
					C235.25,289.86,235.97,290.92,237.38,291.73z"/>
				
					<linearGradient id="SVGID_60_" gradientUnits="userSpaceOnUse" x1="5032.6318" y1="309.2919" x2="5047.4956" y2="309.2919" gradientTransform="matrix(-1 0 0 1 5282.6997 0)">
					<stop  offset="0" style="stop-color:#42E8E0"/>
					<stop  offset="0.1507" style="stop-color:#43E3E0"/>
					<stop  offset="0.3285" style="stop-color:#45D5DF"/>
					<stop  offset="0.5199" style="stop-color:#49BDDD"/>
					<stop  offset="0.7209" style="stop-color:#4E9CDB"/>
					<stop  offset="0.9274" style="stop-color:#5472D8"/>
					<stop  offset="1" style="stop-color:#5761D7"/>
				</linearGradient>
				<path class="st76" d="M237.38,306.42c2.9,1.68,7.61,1.68,10.51,0c1.45-0.84,2.18-1.94,2.18-3.03v7.51v0v0.01h0
					c0,1.1-0.73,2.19-2.18,3.03c-2.9,1.68-7.61,1.68-10.51,0c-1.5-0.86-2.21-2-2.17-3.13v-7.31
					C235.25,304.55,235.97,305.61,237.38,306.42z"/>
			</g>
			<g>
				
					<linearGradient id="SVGID_61_" gradientUnits="userSpaceOnUse" x1="4986.6982" y1="216.6341" x2="5082.7568" y2="160.9468" gradientTransform="matrix(-1 0 0 1 5282.6997 0)">
					<stop  offset="0" style="stop-color:#5761D7"/>
					<stop  offset="0.1645" style="stop-color:#5E67DA"/>
					<stop  offset="0.4051" style="stop-color:#727AE2"/>
					<stop  offset="0.6924" style="stop-color:#9297EE"/>
					<stop  offset="1" style="stop-color:#BCBEFF"/>
				</linearGradient>
				<path class="st77" d="M269.5,231.02c0.34-0.19,0.68-0.38,1.01-0.6l3.63-20.58l-4.56-27.32l-12.67-13.81l-13.05-12.67
					l-20.77-8.61l-0.55-0.21c-0.99,0.49-1.91,1.1-2.78,1.79c-5.19-0.65-10.39-1.3-15.58-1.95c0.87-2.14,1.91-4.09,3.13-5.8
					l-2.49-0.97l9.3-5.36c0.11-0.07,0.22-0.13,0.33-0.19l0.35-0.2l0.02,0.01c8-4.31,18.89-3.53,30.9,3.4
					c24.56,14.18,44.46,48.66,44.46,77.01c0,14.07-4.9,23.98-12.84,28.67l0,0l-0.06,0.04c-0.09,0.05-0.18,0.11-0.27,0.16l-9.88,5.65
					l0.51-2.87c-1.23,0.1-2.5,0.11-3.8,0.03C266.59,241.8,270.29,236.44,269.5,231.02z"/>
				
					<linearGradient id="SVGID_62_" gradientUnits="userSpaceOnUse" x1="5092.0298" y1="167.2525" x2="5005.5459" y2="230.5724" gradientTransform="matrix(-1 0 0 1 5282.6997 0)">
					<stop  offset="0" style="stop-color:#5761D7"/>
					<stop  offset="0.1645" style="stop-color:#5E67DA"/>
					<stop  offset="0.4051" style="stop-color:#727AE2"/>
					<stop  offset="0.6924" style="stop-color:#9297EE"/>
					<stop  offset="1" style="stop-color:#BCBEFF"/>
				</linearGradient>
				<path class="st78" d="M201.3,164.76c-0.01-0.38-0.02-0.77-0.02-1.15c0-6.43,1.05-11.96,2.92-16.55
					c5.19,0.65,10.39,1.3,15.58,1.95c-4.99,3.94-8.02,11.01-8.02,20.65c0,21.67,15.21,48.02,33.98,58.85
					c9.25,5.34,17.64,5.9,23.76,2.51c0.79,5.42-2.91,10.78-5.65,15.6c-4.12-0.25-8.58-1.4-13.25-3.5l1.47,1.65
					c0,0-18.49-6.42-18.87-6.83c-0.38-0.41-21.91-22.15-21.91-22.15l-14.06-30.33L201.3,164.76z"/>
				
					<linearGradient id="SVGID_63_" gradientUnits="userSpaceOnUse" x1="5009.0405" y1="193.7843" x2="5076.9976" y2="193.7843" gradientTransform="matrix(-1 0 0 1 5282.6997 0)">
					<stop  offset="0" style="stop-color:#42E8E0"/>
					<stop  offset="0.1507" style="stop-color:#43E3E0"/>
					<stop  offset="0.3285" style="stop-color:#45D5DF"/>
					<stop  offset="0.5199" style="stop-color:#49BDDD"/>
					<stop  offset="0.7209" style="stop-color:#4E9CDB"/>
					<stop  offset="0.9274" style="stop-color:#5472D8"/>
					<stop  offset="1" style="stop-color:#5761D7"/>
				</linearGradient>
				<path class="st79" d="M205.7,174.17c0-21.67,15.21-30.45,33.98-19.62c18.77,10.83,33.98,37.18,33.98,58.85
					s-15.21,30.45-33.98,19.62C220.91,222.18,205.7,195.84,205.7,174.17z"/>
				
					<linearGradient id="SVGID_64_" gradientUnits="userSpaceOnUse" x1="5006.085" y1="192.1799" x2="5074.042" y2="192.1799" gradientTransform="matrix(-1 0 0 1 5282.6997 0)">
					<stop  offset="0" style="stop-color:#42E8E0"/>
					<stop  offset="0.1507" style="stop-color:#43E3E0"/>
					<stop  offset="0.3285" style="stop-color:#45D5DF"/>
					<stop  offset="0.5199" style="stop-color:#49BDDD"/>
					<stop  offset="0.7209" style="stop-color:#4E9CDB"/>
					<stop  offset="0.9274" style="stop-color:#5472D8"/>
					<stop  offset="1" style="stop-color:#5761D7"/>
				</linearGradient>
				<path class="st80" d="M208.66,172.56c0-21.67,15.21-30.45,33.98-19.62s33.98,37.18,33.98,58.85c0,21.67-15.21,30.45-33.98,19.62
					C223.87,220.58,208.66,194.23,208.66,172.56z"/>
				<path class="st11" d="M191.5,169.25c0,28.35,19.91,62.83,44.46,77.01c24.56,14.18,44.46,2.69,44.46-25.67
					s-19.91-62.83-44.46-77.01C211.41,129.4,191.5,140.89,191.5,169.25z M201.99,175.3c0-21.67,15.21-30.45,33.98-19.62
					c18.77,10.83,33.98,37.18,33.98,58.85c0,21.67-15.21,30.45-33.98,19.62C217.2,223.32,201.99,196.97,201.99,175.3z"/>
				<path class="st11" d="M191.5,169.25c0,28.35,19.91,62.83,44.46,77.01c24.56,14.18,44.46,2.69,44.46-25.67
					s-19.91-62.83-44.46-77.01C211.41,129.4,191.5,140.89,191.5,169.25z M201.99,175.3c0-21.67,15.21-30.45,33.98-19.62
					c18.77,10.83,33.98,37.18,33.98,58.85c0,21.67-15.21,30.45-33.98,19.62C217.2,223.32,201.99,196.97,201.99,175.3z"/>
				<g>
					<path class="st59" d="M279.75,221.35c0-28.35-19.91-62.83-44.46-77.01c-15.11-8.73-28.46-7.71-36.49,0.96
						c7.95-9.37,21.62-10.69,37.17-1.71c24.56,14.18,44.46,48.66,44.46,77.01c0,10.9-2.95,19.3-7.97,24.71
						C277.06,239.87,279.75,231.75,279.75,221.35z"/>
					<path class="st59" d="M235.29,234.91c-18.77-10.83-33.98-37.18-33.98-58.85c0-8.39,2.29-14.84,6.18-18.98
						c-3.48,4.15-5.5,10.32-5.5,18.22c0,21.67,15.21,48.02,33.98,58.85c11.5,6.64,21.65,5.9,27.8-0.64
						C257.7,240.75,247.22,241.8,235.29,234.91z"/>
				</g>
			</g>
		</g>
	</g>
	<g>
		<g>
			<path class="st81" d="M113.24,390.14c0,0,3.75,0.92,7.37,1.07c3.63,0.14,13.49,2.12,13.24,5.8c-0.25,3.7-5.4,9.01-11.86,9.79
				c-6.46,0.79-14.77-1.07-18.99-0.96c-4.22,0.12-7.11-4.19-5.45-8.31C99.19,393.43,113.24,390.14,113.24,390.14z"/>
			<path class="st81" d="M91.47,380.24c0,0-1.38,2.23-0.71,3.59c0.68,1.37,2.49,4.76,8.39,1.48c5.88-3.27,17.22-7.95,17.22-7.95
				s6.5-3.46,6.15-7.54c-0.35-4.06-6.34-3.45-6.34-3.45L91.47,380.24z"/>
			<path class="st4" d="M129.79,322.33c0,0-2.51,26.52-7.84,36.57c-5.42,10.22-6.91,28.93-8.04,32.5
				c-1.14,3.59-4.64,8.76-10.17,9.85c-5.54,1.1-6.44-2.67-6.17-4.93c0.27-2.25,1.81-5.9,1.83-8.34c0.02-2.44-0.55-3.58-0.63-4.69
				c0,0-6.33,1.87-7.3-3.04c0,0,0.51-1.43,0.6-2.16c0.08-0.73-0.54-18.49-0.69-20.64c-0.15-2.14,1-13.75,2.76-19.47
				c1.74-5.67,1.16-17.73,1.16-17.73l18.03-2.51L129.79,322.33z"/>
			<linearGradient id="SVGID_65_" gradientUnits="userSpaceOnUse" x1="149.2918" y1="340.605" x2="91.7669" y2="364.0105">
				<stop  offset="0" style="stop-color:#42E8E0"/>
				<stop  offset="4.674554e-03" style="stop-color:#42E6DF"/>
				<stop  offset="0.1358" style="stop-color:#40B6CB"/>
				<stop  offset="0.2707" style="stop-color:#3E8DB9"/>
				<stop  offset="0.4074" style="stop-color:#3C6BAA"/>
				<stop  offset="0.5467" style="stop-color:#3B519F"/>
				<stop  offset="0.6893" style="stop-color:#3A3F97"/>
				<stop  offset="0.8375" style="stop-color:#393493"/>
				<stop  offset="1" style="stop-color:#393091"/>
			</linearGradient>
			<path class="st82" d="M129.79,322.33c0,0-2.51,26.52-7.84,36.57c-5.42,10.22-6.91,28.93-8.04,32.5
				c-1.14,3.59-4.64,8.76-10.17,9.85c-5.54,1.1-6.44-2.67-6.17-4.93c0.27-2.25,1.81-5.9,1.83-8.34c0.02-2.44-0.55-3.58-0.63-4.69
				c0,0-6.33,1.87-7.3-3.04c0,0,0.51-1.43,0.6-2.16c0.08-0.73-0.54-18.49-0.69-20.64c-0.15-2.14,1-13.75,2.76-19.47
				c1.74-5.67,1.16-17.73,1.16-17.73l18.03-2.51L129.79,322.33z"/>
			<path class="st81" d="M100.64,322.17c0,0,0.07,4.14,1.8,7.62c0,0-0.03,14.1,1.41,21.23c0,0-2.33,14.33-3.8,18.85
				c-1.48,4.55-1.28,13.41-1.28,13.41s-0.72,0.27-1.75,0.3c-1.03,0.04-1.11-17.52,0.48-20.62c1.58-3.08,2.78-16.77,2.18-20.94
				c-0.59-4.14-0.39-16-1.17-18.1c-0.78-2.09,0.98-3.19,0.98-3.19L100.64,322.17z"/>
			<path class="st81" d="M115.82,226.5c0,0,5.24,3.79,4.97,10.33l-3.89-0.84C116.9,235.99,118.06,228.75,115.82,226.5z"/>
			<path class="st81" d="M113.78,327.95c-11.95,0.37-18.4-4.93-18.4-4.93c-0.03-1.68-0.08-2.77-0.08-2.77l18.03-2.51l16.46,4.59
				c0,0-0.5,5.23-1.51,11.93c-2.93,0.32-5.81-6.88-5.81-6.88l-8.2,0.52C114.27,327.89,125.73,327.58,113.78,327.95z"/>
			<path class="st10" d="M127.49,322.72c0,0-25.99,10.61-38.55-9.51c-0.36-0.57-0.52-1.27-0.5-1.98l0.16-4.69
				c0.02-0.6-0.07-1.19-0.25-1.74l0,0c-0.4-1.19-0.49-2.49-0.26-3.75c0.97-5.24,3.61-19.49,4.23-23.45
				c0.75-4.82-1.8-24.13-6.11-32.49c-4.25-8.24,6.66-26.77,6.66-26.77s2.68-4.33,7.92-2.84c0,0-5,3.5-2.26,7.19
				c2.76,3.72,10.97,6.68,10.97,6.68s15.19,7.88,20.39,17.47c0,0,1.79,4.99,1.95,11.3c0.16,6.38-0.55,21.69-0.28,23.82
				c0.27,2.13,1.07,16.72,0.99,17.4C132.44,300.05,127.49,322.72,127.49,322.72z"/>
			<linearGradient id="SVGID_66_" gradientUnits="userSpaceOnUse" x1="144.9219" y1="262.4333" x2="83.4013" y2="275.3688">
				<stop  offset="0" style="stop-color:#42E8E0"/>
				<stop  offset="4.674554e-03" style="stop-color:#42E6DF"/>
				<stop  offset="0.1358" style="stop-color:#40B6CB"/>
				<stop  offset="0.2707" style="stop-color:#3E8DB9"/>
				<stop  offset="0.4074" style="stop-color:#3C6BAA"/>
				<stop  offset="0.5467" style="stop-color:#3B519F"/>
				<stop  offset="0.6893" style="stop-color:#3A3F97"/>
				<stop  offset="0.8375" style="stop-color:#393493"/>
				<stop  offset="1" style="stop-color:#393091"/>
			</linearGradient>
			<path class="st83" d="M127.49,322.72c0,0-25.99,10.61-38.55-9.51c-0.36-0.57-0.52-1.27-0.5-1.98l0.16-4.69
				c0.02-0.6-0.07-1.19-0.25-1.74l0,0c-0.4-1.19-0.49-2.49-0.26-3.75c0.97-5.24,3.61-19.49,4.23-23.45
				c0.75-4.82-1.8-24.13-6.11-32.49c-4.25-8.24,6.66-26.77,6.66-26.77s2.68-4.33,7.92-2.84c0,0-5,3.5-2.26,7.19
				c2.76,3.72,10.97,6.68,10.97,6.68s15.19,7.88,20.39,17.47c0,0,1.79,4.99,1.95,11.3c0.16,6.38-0.55,21.69-0.28,23.82
				c0.27,2.13,1.07,16.72,0.99,17.4C132.44,300.05,127.49,322.72,127.49,322.72z"/>
			<g>
				
					<linearGradient id="SVGID_67_" gradientUnits="userSpaceOnUse" x1="-1023.7351" y1="144.0829" x2="-1021.1461" y2="144.0829" gradientTransform="matrix(-0.9962 -0.0873 -0.0873 0.9962 -906.6111 -16.0328)">
					<stop  offset="0" style="stop-color:#5761D7"/>
					<stop  offset="0.0726" style="stop-color:#5472D8"/>
					<stop  offset="0.2791" style="stop-color:#4E9CDB"/>
					<stop  offset="0.4801" style="stop-color:#49BDDD"/>
					<stop  offset="0.6715" style="stop-color:#45D5DF"/>
					<stop  offset="0.8493" style="stop-color:#43E3E0"/>
					<stop  offset="1" style="stop-color:#42E8E0"/>
				</linearGradient>
				<path class="st84" d="M98.33,218.18c-0.41-1.05-0.29-2.06,0.09-2.94c0.72-0.02,1.49,0.02,2.35,0.27
					C100.78,215.5,99.23,216.59,98.33,218.18z"/>
				<path class="st4" d="M119.61,324.89c0,0-15.31-41.33-14.58-56.33c0.71-14.63,22.34,29.63,22.34,29.63l0.11,24.53
					C127.49,322.72,122.58,324.53,119.61,324.89z"/>
			</g>
			<path class="st85" d="M127.87,276.06c-0.55-3.37-0.88-6.76-0.92-10.14c-0.07-5.88-1.72-15.63-12.35-13.93
				c-15.03,2.39-8.6,23.45-6.95,27.13c1.66,3.7,8.24,20.38,8.58,21.33c0.33,0.89,10.72,21.72,14.43,26.71
				c0.34,0.46,0.94,0.53,1.35,0.17c1.51-1.28,4.89-4.34,5.33-6.27c0.57-2.48-1.6-11.5-1.6-11.5s-5.86-22.51-6.35-23.56
				C129.02,285.23,128.77,281.53,127.87,276.06z"/>
			<path class="st86" d="M115.56,226.97c0,0,1.19-2.72,3.95-3c2.76-0.28,4.32-1.05,4.6-2.07c0.28-1.02,0.29-2.25,0.96-3.77
				c0.67-1.52,1.23-5.24,1.22-5.33c-0.01-0.09,2.08-0.72,2.19-1.64c0.1-0.92-0.98-4.21-0.87-4.47c0.12-0.25,1.24-2.27,1.09-3.84
				c-0.15-1.57-0.35-3.83-1.19-5.75c-0.83-1.92-6.68-13.58-21.88-7.57c-15.37,6.07-3.68,18.97-5.2,27.33c0,0-1.37,1.76,1.14,4.75
				C104.09,224.62,111.37,225.27,115.56,226.97z"/>
			<path class="st87" d="M101.57,221.61c-2.51-2.99-1.14-4.75-1.14-4.75c0.21-1.16,0.16-2.42-0.03-3.72l6.02,1.15
				c0,0,8.88-7.9,8.25-3.67c-0.64,4.26,1.52,5,1.52,5l-1.82,2.32c-0.47,0.6-0.19,1.3,0.19,1.95c2.53,4.36,8.69,3.05,8.71,3.05
				c-0.77,0.5-2.03,0.87-3.76,1.04c-2.76,0.28-3.95,3-3.95,3C111.37,225.27,104.09,224.62,101.57,221.61z"/>
			<g>
				<path class="st88" d="M128.17,192.66c0,0,1.06,3.12-0.66,4.43c-1.72,1.32-3.28,2.56-3.28,2.56l0.01,3.96
					c0,0.57-0.16,1.13-0.47,1.61l-2.17,3.34c-0.42,0.65-0.64,1.4-0.65,2.18l-0.01,1.62c0,0.48-0.35,0.87-0.81,0.92l-0.57,0.06
					c-0.5,0.06-0.95-0.32-1.01-0.83l-0.24-2.25c0,0-1.14-1.81-3.64,0.35l-2.24,0.92c-0.63,0.26-1.12,0.77-1.35,1.42
					c-0.63,1.73-1.97,5.15-2.98,5.71c-1.36,0.77-6.62-1.95-7.32-3.16c-0.7-1.2-2.47-9.22-3.57-13.04
					c-1.09-3.8-0.45-13.19,10.88-15.59C119.36,184.49,126.62,189.27,128.17,192.66z"/>
				<path class="st89" d="M100.78,215.5c-0.7-1.2-2.47-9.22-3.57-13.04c0,0,4.38,2.92,10.07,3.79c5.69,0.87,16.97-5.54,16.97-5.54
					l0.01,2.9c0,0.57-0.16,1.13-0.47,1.61l-2.17,3.34c-0.42,0.65-0.64,1.4-0.65,2.18l-0.01,1.62c0,0.48-0.35,0.87-0.81,0.92
					l-0.57,0.06c-0.5,0.06-0.95-0.32-1.01-0.83l-0.24-2.25c0,0-1.14-1.81-3.64,0.35l-3.24,1.33c0,0-1.97,5.95-3.33,6.72
					C106.74,219.43,101.48,216.71,100.78,215.5z"/>
			</g>
			<path class="st90" d="M100.55,215.88c0,0-4.4,2.71-2.21,6.56c2.21,3.87,18.17,10.75,18.96,11.77c0,0,0.63-5.77-1.49-7.72
				c0,0-12.22-2.38-14.12-5.5C99.81,217.89,100.55,215.88,100.55,215.88z"/>
			<path class="st91" d="M100.55,215.88c0,0-0.74,2,1.15,5.11c1.44,2.36,8.78,4.3,12.27,5.1l0,0c0,0-1.3,0.74-3.47,4.43
				c-4.91-2.55-10.87-5.82-12.16-8.09C96.15,218.6,100.55,215.88,100.55,215.88z"/>
			<path class="st4" d="M97.57,228.2c0,0,7.11,4.08,10.58,5.92c3.48,1.85,7.27,4.3,7.27,4.3l1.33-1.33l1.6,3.51
				c0,0,5.46,3.28,8.02,6.01c2.57,2.75,4.5,6.33,4.78,7.15c0,0-6.82-8.94-12.19-11.6l-1.44-0.73l-0.82-2.78l-1.32,1.4
				C115.37,240.05,99.74,230.62,97.57,228.2z"/>
		</g>
		<g>
			<path class="st10" d="M115.91,348.86L115.91,348.86L115.91,348.86c0.22-0.64,0.56-1.2,0.95-1.53l29.25-24.56
				c0.77-0.65,1.51-0.15,1.67,1.1l3.42,28.59c0.16,1.32-0.35,2.94-1.14,3.62l-24.57,21.25l0.85,8.27l-7.34-3.38l0-0.02
				c-0.33-0.21-0.57-0.68-0.64-1.4l-2.73-29.89C115.57,350.26,115.68,349.52,115.91,348.86z"/>
			<path class="st10" d="M154.09,325.59l-6.92-2.99l-0.22-0.1c-0.25-0.06-0.54,0.02-0.83,0.26l-29.25,24.56
				c-0.4,0.33-0.73,0.89-0.95,1.53l1.05,0.51l0,0l5.96,2.88l25.64-21.92l0,0L154.09,325.59z"/>
			<path class="st4" d="M157.27,359.3l-29.92,26.06c-0.82,0.71-1.59,0.17-1.73-1.22l-2.91-30.04c-0.13-1.32,0.42-2.94,1.22-3.61
				l29.19-24.68c0.77-0.65,1.52-0.15,1.68,1.11l3.59,28.74C158.56,356.98,158.05,358.61,157.27,359.3z"/>
			<linearGradient id="SVGID_68_" gradientUnits="userSpaceOnUse" x1="188.6629" y1="334.0406" x2="129.9007" y2="360.1871">
				<stop  offset="0" style="stop-color:#42E8E0"/>
				<stop  offset="0.1067" style="stop-color:#40C1CF"/>
				<stop  offset="0.2549" style="stop-color:#3E91BB"/>
				<stop  offset="0.396" style="stop-color:#3C6CAB"/>
				<stop  offset="0.5263" style="stop-color:#3B519F"/>
				<stop  offset="0.6417" style="stop-color:#3A4198"/>
				<stop  offset="0.7304" style="stop-color:#3A3B96"/>
				<stop  offset="0.8389" style="stop-color:#393493"/>
				<stop  offset="1" style="stop-color:#393091"/>
			</linearGradient>
			<path class="st92" d="M157.27,359.3l-29.92,26.06c-0.82,0.71-1.59,0.17-1.73-1.22l-2.91-30.04c-0.13-1.32,0.42-2.94,1.22-3.61
				l29.19-24.68c0.77-0.65,1.52-0.15,1.68,1.11l3.59,28.74C158.56,356.98,158.05,358.61,157.27,359.3z"/>
			<path class="st81" d="M121.91,382.38l-2.82-29.96c-0.12-1.32,0.43-2.93,1.23-3.6l29.22-24.62c0.24-0.2,0.48-0.29,0.69-0.28
				c-0.28-0.12-0.6-0.05-0.94,0.23l-29.22,24.62c-0.8,0.67-1.35,2.29-1.23,3.6l2.81,29.96c0.09,0.95,0.46,1.55,0.97,1.56
				C122.24,383.72,121.98,383.17,121.91,382.38z"/>
			<g>
				<g>
					<path class="st81" d="M132.62,338.28l-1.53-0.76c-0.35-0.17-0.67-0.23-0.95-0.17l-0.12,0.03c-0.15,0.03-0.23,0.2-0.21,0.43
						l0.03,0.28l4.31,2.15l-0.03-0.28c-0.02-0.23-0.15-0.5-0.33-0.7l-0.14-0.16C133.32,338.73,132.96,338.45,132.62,338.28z"/>
					<polygon class="st81" points="132.07,341.98 134.14,340.23 129.87,337.46 127.83,339.17 					"/>
					
						<linearGradient id="SVGID_69_" gradientUnits="userSpaceOnUse" x1="-1065.9542" y1="264.6707" x2="-1061.4067" y2="264.6707" gradientTransform="matrix(-0.9962 -0.0873 -0.0873 0.9962 -906.6111 -16.0328)">
						<stop  offset="0" style="stop-color:#5761D7"/>
						<stop  offset="0.0726" style="stop-color:#5472D8"/>
						<stop  offset="0.2791" style="stop-color:#4E9CDB"/>
						<stop  offset="0.4801" style="stop-color:#49BDDD"/>
						<stop  offset="0.6715" style="stop-color:#45D5DF"/>
						<stop  offset="0.8493" style="stop-color:#43E3E0"/>
						<stop  offset="1" style="stop-color:#42E8E0"/>
					</linearGradient>
					<path class="st93" d="M130.55,340.02l-1.53-0.77c-0.35-0.17-0.68-0.23-0.95-0.17l-0.12,0.03c-0.15,0.03-0.23,0.2-0.21,0.43
						l0.03,0.28l4.31,2.16l-0.03-0.28c-0.02-0.23-0.15-0.5-0.33-0.7l-0.14-0.16C131.25,340.47,130.9,340.19,130.55,340.02z"/>
					<polygon class="st94" points="129.64,340.76 129.5,339.49 129.64,339.56 129.77,340.82 					"/>
					<polygon class="st94" points="129.51,339.49 131.63,337.78 131.74,337.84 129.64,339.56 					"/>
				</g>
				<g>
					<path class="st81" d="M141.91,330.46l-1.53-0.75c-0.35-0.17-0.67-0.23-0.95-0.17l-0.12,0.03c-0.15,0.03-0.23,0.2-0.2,0.43
						l0.03,0.27l4.3,2.13l-0.03-0.28c-0.03-0.23-0.15-0.49-0.33-0.69l-0.14-0.16C142.61,330.91,142.26,330.63,141.91,330.46z"/>
					<polygon class="st81" points="141.4,334.12 143.44,332.39 139.17,329.66 137.16,331.34 					"/>
					
						<linearGradient id="SVGID_70_" gradientUnits="userSpaceOnUse" x1="-1074.5555" y1="256.0445" x2="-1070.0189" y2="256.0445" gradientTransform="matrix(-0.9962 -0.0873 -0.0873 0.9962 -906.6111 -16.0328)">
						<stop  offset="0" style="stop-color:#5761D7"/>
						<stop  offset="0.0726" style="stop-color:#5472D8"/>
						<stop  offset="0.2791" style="stop-color:#4E9CDB"/>
						<stop  offset="0.4801" style="stop-color:#49BDDD"/>
						<stop  offset="0.6715" style="stop-color:#45D5DF"/>
						<stop  offset="0.8493" style="stop-color:#43E3E0"/>
						<stop  offset="1" style="stop-color:#42E8E0"/>
					</linearGradient>
					<path class="st95" d="M139.87,332.18l-1.53-0.76c-0.35-0.17-0.67-0.23-0.95-0.17l-0.12,0.03c-0.15,0.03-0.23,0.2-0.2,0.43
						l0.03,0.28l4.3,2.13l-0.03-0.28c-0.03-0.23-0.15-0.5-0.33-0.69l-0.14-0.16C140.57,332.63,140.22,332.35,139.87,332.18z"/>
					<polygon class="st94" points="138.96,332.91 138.83,331.66 138.96,331.73 139.1,332.97 					"/>
					<polygon class="st94" points="138.83,331.66 140.92,329.97 141.04,330.03 138.96,331.73 					"/>
				</g>
				<g>
					<path class="st10" d="M128.68,333.5l0.55,5.33l1.38-1.16l-0.54-5.18c-0.08-0.76,0.29-1.73,0.83-2.18l5.96-4.98
						c0.53-0.44,1.03-0.2,1.11,0.55l0.57,5.13l1.37-1.15l-0.59-5.26c-0.19-1.65-1.28-2.18-2.45-1.21l-6.35,5.3
						C129.33,329.68,128.51,331.83,128.68,333.5z"/>
					<path class="st10" d="M138.94,324.98l-2.45-0.25l-7.09,6.62l-0.31,4.08l0.14,3.41l1.59,0.79l0.05-4.25l0.09-2.91l1.47-2.1
						c0,0,2.66-2.15,2.69-2.21C135.14,328.1,138.94,324.98,138.94,324.98z"/>
					<polygon class="st10" points="140.13,331.79 138.54,331.01 138.12,327.23 139.63,327.35 140.08,327.43 					"/>
					<path class="st10" d="M140.07,323.81l-1.7-0.83c0,0,0.45,0.93,0.46,0.92c0.01-0.01,0.56,0.2,0.57,0.2
						C139.4,324.09,140.07,323.81,140.07,323.81z"/>
					<path class="st81" d="M130.26,334.29l0.56,5.34l1.38-1.16l-0.55-5.19c-0.08-0.76,0.29-1.73,0.83-2.18l5.95-4.99
						c0.53-0.44,1.03-0.2,1.11,0.55l0.58,5.13l1.37-1.15l-0.6-5.26c-0.19-1.65-1.29-2.19-2.46-1.21l-6.35,5.31
						C130.91,330.47,130.09,332.62,130.26,334.29z"/>
				</g>
			</g>
		</g>
		<path class="st86" d="M136.92,320.85c0,0,1.01,5.21,0.72,6.52c-0.29,1.31-2.78,3.84-4.28,4.3c-1.5,0.46-0.89-1.33-1.23-2.46
			c-0.34-1.12-0.28-3.57-0.28-3.57L136.92,320.85z"/>
		<path class="st87" d="M131.85,325.64l5.07-4.79c0,0,0.21,1.07,0.41,2.36c0,0.01-1.88,3.88-5.32,5.41
			C131.81,327.4,131.85,325.64,131.85,325.64z"/>
		<path class="st85" d="M137.3,321.24c0,0-1.8,5.62-6.3,6.15l1.53-6.15c0,0,3.8-1.07,3.92-1.09
			C136.56,320.14,137.3,321.24,137.3,321.24z"/>
	</g>
</g>
</svg>
