<?xml version="1.0" encoding="UTF-8" ?>
<!DOCTYPE svg PUBLIC "-//W3C//DTD SVG 1.1//EN" "http://www.w3.org/Graphics/SVG/1.1/DTD/svg11.dtd">
<svg width="510pt" height="419pt" viewBox="0 0 510 419" version="1.1" xmlns="http://www.w3.org/2000/svg">
<g id="#9acef8ff">
<path fill="#9acef8" opacity="1.00" d=" M 388.65 5.87 C 388.83 4.71 390.57 3.74 391.60 4.51 C 409.98 15.29 426.99 29.81 436.82 49.04 C 442.89 60.89 445.17 74.48 443.97 87.68 C 441.12 101.86 434.90 115.40 425.26 126.26 C 415.53 137.74 403.35 146.90 390.44 154.49 C 389.96 155.93 390.03 157.46 389.98 158.96 C 390.09 169.97 389.82 180.99 390.33 192.00 C 390.20 211.98 390.60 231.97 390.12 251.94 C 389.64 251.64 388.68 251.05 388.20 250.75 C 387.67 240.84 388.32 230.90 387.90 220.99 L 387.86 219.99 C 387.19 207.74 388.33 195.42 387.28 183.20 C 387.65 181.21 387.79 179.18 387.73 177.15 C 387.62 172.43 387.72 167.71 387.75 162.99 C 387.75 160.67 387.69 158.35 387.63 156.03 C 387.74 155.34 387.96 153.96 388.07 153.27 C 393.00 149.48 398.99 147.02 403.31 142.44 C 407.76 140.43 410.85 136.58 414.55 133.55 C 416.70 131.77 418.48 129.60 420.23 127.44 C 421.43 126.25 422.52 124.94 423.39 123.48 C 424.06 122.75 424.73 122.01 425.39 121.26 C 432.57 112.47 437.48 101.87 439.79 90.76 C 440.93 87.25 439.91 83.67 439.24 80.19 C 439.47 79.88 439.93 79.27 440.17 78.96 C 440.31 78.64 440.61 78.00 440.75 77.68 C 440.69 61.26 433.17 45.68 422.74 33.32 C 413.11 22.27 401.55 12.85 388.65 5.87 Z" />
</g>
<g id="#50dda4ff">
<path fill="#50dda4" opacity="1.00" d=" M 329.74 4.70 C 337.56 7.58 343.63 14.09 348.00 21.03 C 354.17 31.58 357.01 44.22 355.82 56.33 C 353.54 48.13 351.48 39.82 347.89 32.06 C 346.70 29.60 345.87 26.85 343.84 24.92 C 345.79 31.54 348.93 37.80 350.48 44.57 C 351.77 51.08 355.18 57.18 354.85 63.97 C 351.64 59.04 350.43 52.76 345.85 48.74 C 348.00 54.64 351.77 59.88 353.07 66.12 C 350.24 64.73 348.30 62.09 346.17 59.85 C 339.75 52.18 334.54 43.37 331.08 33.99 C 333.54 33.85 335.46 35.78 337.87 36.02 C 334.74 25.74 330.67 15.49 329.74 4.70 Z" />
<path fill="#50dda4" opacity="1.00" d=" M 361.85 56.08 C 362.71 46.36 369.25 36.18 379.09 33.53 L 379.74 34.16 C 379.01 44.95 373.17 55.03 364.98 61.94 C 363.97 62.65 363.10 63.91 361.74 63.81 C 362.55 58.97 364.97 54.62 366.16 49.89 C 364.54 51.84 363.74 54.36 361.85 56.08 Z" />
<path fill="#50dda4" opacity="1.00" d=" M 399.26 47.19 C 399.90 47.09 401.18 46.90 401.82 46.81 C 408.17 51.50 414.07 56.82 419.27 62.75 C 422.41 66.60 425.63 70.97 425.63 76.17 C 425.85 85.73 425.45 95.30 425.84 104.87 C 426.16 106.72 423.41 106.32 423.02 105.00 C 417.59 97.83 411.31 91.27 404.10 85.86 C 400.76 83.78 398.65 80.03 398.99 76.05 C 399.16 66.43 398.67 56.79 399.26 47.19 M 403.02 56.22 C 403.25 59.01 404.76 61.69 406.61 63.76 C 406.73 63.32 406.96 62.45 407.08 62.02 C 412.61 62.82 410.69 70.30 413.96 72.78 C 414.47 69.44 412.90 66.18 412.02 63.01 C 410.03 60.11 405.82 58.44 406.55 54.26 C 405.10 54.25 404.00 55.30 403.02 56.22 M 418.17 69.19 C 415.54 72.85 413.99 77.46 410.84 80.62 C 408.13 80.09 406.20 77.07 406.58 74.25 C 405.39 74.25 404.27 74.71 403.32 75.40 C 403.06 78.37 404.87 81.43 406.61 83.79 C 406.71 83.34 406.91 82.43 407.02 81.98 L 407.80 81.70 C 409.18 82.70 410.39 83.93 411.87 84.81 C 412.95 83.49 413.49 81.65 415.01 80.76 C 416.68 84.20 416.86 88.11 418.25 91.65 C 419.55 93.18 420.59 95.60 422.84 95.77 C 422.65 92.66 419.27 91.14 418.71 88.19 C 417.96 85.25 417.21 82.32 416.54 79.37 C 415.74 77.10 417.81 75.27 418.98 73.59 C 420.40 74.47 421.28 76.18 422.91 76.71 C 422.77 73.56 420.22 71.30 418.17 69.19 Z" />
</g>
<g id="#3779edff">
<path fill="#3779ed" opacity="1.00" d=" M 388.65 5.87 C 401.55 12.85 413.11 22.27 422.74 33.32 C 433.17 45.68 440.69 61.26 440.75 77.68 C 440.61 78.00 440.31 78.64 440.17 78.96 C 437.09 59.42 424.43 42.81 409.63 30.33 C 405.89 27.40 402.38 23.97 398.01 21.99 L 397.31 22.35 C 397.23 23.42 397.28 24.48 397.45 25.54 C 400.09 28.30 403.56 30.08 406.46 32.55 C 421.75 44.63 434.97 60.79 439.24 80.19 C 439.91 83.67 440.93 87.25 439.79 90.76 C 437.48 101.87 432.57 112.47 425.39 121.26 C 418.61 112.55 410.37 105.07 401.47 98.60 C 400.31 97.86 399.17 96.90 397.74 96.82 C 397.57 98.59 397.21 100.90 399.17 101.84 C 408.14 107.96 416.29 115.26 423.39 123.48 C 422.52 124.94 421.43 126.25 420.23 127.44 C 411.17 117.64 400.25 109.83 388.99 102.81 C 388.60 100.00 388.73 97.16 388.38 94.35 C 388.45 93.76 388.59 92.58 388.66 92.00 C 388.96 63.29 388.35 34.58 388.65 5.87 M 401.82 46.81 C 401.18 46.90 399.90 47.09 399.26 47.19 C 398.67 56.79 399.16 66.43 398.99 76.05 C 398.65 80.03 400.76 83.78 404.10 85.86 C 411.31 91.27 417.59 97.83 423.02 105.00 C 423.41 106.32 426.16 106.72 425.84 104.87 C 426.32 104.86 427.30 104.86 427.79 104.85 C 428.28 97.58 427.86 90.28 428.00 83.00 C 427.87 77.70 428.80 71.91 425.81 67.18 C 420.70 58.87 413.13 52.41 405.65 46.31 C 404.58 45.16 401.65 44.41 401.82 46.81 Z" />
<path fill="#3779ed" opacity="1.00" d=" M 425.26 126.26 C 434.90 115.40 441.12 101.86 443.97 87.68 C 444.45 92.65 444.50 97.75 443.93 102.70 C 442.44 119.86 434.11 135.96 422.34 148.38 C 419.90 150.51 420.22 153.94 420.18 156.86 C 423.00 155.21 425.02 152.56 427.09 150.10 C 434.09 141.37 439.62 131.32 442.49 120.47 L 443.23 120.08 C 443.63 123.35 442.57 126.51 441.72 129.62 C 438.76 140.69 433.02 150.89 425.68 159.64 C 424.03 161.64 421.98 163.35 420.71 165.64 C 420.14 167.66 420.17 169.78 420.17 171.87 C 423.18 170.06 425.33 167.21 427.53 164.56 C 434.30 155.93 439.72 146.09 442.45 135.42 L 443.23 135.09 C 443.75 139.20 442.01 143.10 441.03 147.00 C 435.76 164.29 423.75 178.68 409.94 189.96 C 407.38 192.10 404.47 193.84 402.16 196.27 C 401.82 198.17 401.93 200.12 402.09 202.05 C 404.32 201.69 405.94 200.00 407.66 198.69 C 422.15 187.29 435.11 172.87 441.07 155.13 C 441.83 153.47 441.51 151.06 443.13 149.97 C 442.35 165.22 434.32 179.19 424.69 190.65 C 419.48 196.46 413.89 201.97 407.66 206.69 C 405.79 208.17 403.76 209.48 402.15 211.25 C 401.82 213.17 401.92 215.13 402.08 217.06 C 404.30 216.66 405.93 214.99 407.66 213.68 C 421.11 202.99 433.34 189.90 439.72 173.71 C 441.49 169.85 441.91 165.47 444.16 161.83 C 444.19 163.12 444.20 164.41 444.21 165.71 C 442.43 169.36 442.68 173.58 441.34 177.39 C 437.95 188.46 432.08 198.76 424.39 207.41 C 418.14 215.22 410.04 221.20 402.23 227.33 C 401.79 229.50 401.94 231.74 402.05 233.94 C 418.49 222.94 432.82 207.76 440.11 189.13 C 441.83 185.10 442.32 180.66 444.20 176.69 C 444.77 193.11 437.31 208.75 427.39 221.44 C 417.15 233.92 404.29 244.25 390.12 251.94 C 390.60 231.97 390.20 211.98 390.33 192.00 C 389.82 180.99 390.09 169.97 389.98 158.96 C 390.03 157.46 389.96 155.93 390.44 154.49 C 403.35 146.90 415.53 137.74 425.26 126.26 M 402.21 165.25 C 401.78 172.42 401.98 179.65 402.14 186.84 C 407.02 183.60 411.71 179.93 415.81 175.74 C 416.19 168.56 416.06 161.32 415.82 154.12 C 411.57 158.18 406.85 161.67 402.21 165.25 Z" />
</g>
<g id="#ffffffff">
<path fill="#ffffff" opacity="1.00" d=" M 397.31 22.35 L 398.01 21.99 C 402.38 23.97 405.89 27.40 409.63 30.33 C 424.43 42.81 437.09 59.42 440.17 78.96 C 439.93 79.27 439.47 79.88 439.24 80.19 C 434.97 60.79 421.75 44.63 406.46 32.55 C 403.56 30.08 400.09 28.30 397.45 25.54 C 397.28 24.48 397.23 23.42 397.31 22.35 Z" />
<path fill="#ffffff" opacity="1.00" d=" M 397.74 96.82 C 399.17 96.90 400.31 97.86 401.47 98.60 C 410.37 105.07 418.61 112.55 425.39 121.26 C 424.73 122.01 424.06 122.75 423.39 123.48 C 416.29 115.26 408.14 107.96 399.17 101.84 C 397.21 100.90 397.57 98.59 397.74 96.82 Z" />
<path fill="#ffffff" opacity="1.00" d=" M 143.19 129.94 C 144.71 130.57 146.23 131.22 147.75 131.87 C 145.81 135.76 144.85 140.96 140.91 143.28 C 140.46 143.14 139.54 142.86 139.09 142.72 C 138.60 142.46 137.64 141.95 137.16 141.69 C 137.45 140.76 137.85 139.88 138.36 139.05 C 138.81 138.45 139.23 137.83 139.64 137.20 C 141.16 134.96 142.18 132.44 143.19 129.94 Z" />
<path fill="#ffffff" opacity="1.00" d=" M 264.94 136.97 C 269.60 136.24 274.33 136.94 279.02 136.88 C 279.52 138.23 280.01 139.59 280.46 140.96 C 275.46 142.60 270.05 141.11 264.90 141.87 C 264.83 140.24 264.68 138.59 264.94 136.97 Z" />
<path fill="#ffffff" opacity="1.00" d=" M 453.12 212.88 C 453.87 210.07 454.81 207.32 455.85 204.61 C 468.18 218.06 477.50 234.76 480.11 252.98 C 481.12 259.20 480.56 265.50 480.47 271.76 C 478.10 292.40 467.36 311.29 452.95 325.96 C 440.68 338.77 425.94 348.99 410.37 357.38 C 368.32 379.83 320.51 389.50 273.19 391.40 C 270.43 391.42 267.66 391.40 264.92 391.07 C 264.84 389.70 264.83 388.35 264.88 386.99 C 270.20 386.02 275.62 386.34 280.99 386.37 C 318.36 384.00 355.74 376.40 390.09 361.16 C 415.74 349.36 440.41 333.25 456.93 309.89 C 459.14 306.94 461.30 303.86 462.28 300.26 C 475.83 276.99 475.04 246.29 460.28 223.74 C 459.05 219.47 455.95 216.16 453.12 212.88 Z" />
<path fill="#ffffff" opacity="1.00" d=" M 96.54 220.22 C 97.96 216.16 101.03 211.18 105.86 211.26 C 111.27 213.44 115.86 217.24 120.94 220.06 C 124.09 221.47 123.23 225.31 122.86 228.01 C 122.02 226.14 121.61 224.09 120.65 222.27 C 116.66 221.37 113.86 225.46 112.60 228.71 C 112.39 231.49 115.33 233.89 117.96 234.20 C 116.98 234.90 115.97 235.56 114.97 236.26 C 113.54 235.58 112.13 234.88 110.76 234.10 C 110.66 232.80 110.66 231.48 110.37 230.20 C 106.38 226.09 100.21 224.71 96.54 220.22 Z" />
<path fill="#ffffff" opacity="1.00" d=" M 155.30 229.14 C 157.89 229.24 160.45 229.74 163.00 230.18 C 165.18 230.94 167.42 231.57 169.73 231.84 C 176.50 233.12 183.17 234.93 189.97 236.08 C 192.49 236.59 195.13 236.85 197.45 238.05 C 197.50 239.38 197.44 240.73 197.90 242.01 L 197.50 242.75 C 196.90 243.73 196.20 244.66 195.78 245.74 C 196.89 247.11 198.44 248.62 197.48 250.54 C 195.15 254.80 192.54 258.94 189.87 263.00 C 188.18 262.58 186.42 262.25 184.95 261.25 C 186.42 260.69 189.34 261.95 189.89 260.27 C 184.64 258.44 179.02 257.39 174.00 255.09 C 179.58 255.25 185.07 256.36 190.62 256.84 C 189.92 252.87 185.13 253.43 183.03 250.99 C 185.37 251.21 187.68 251.70 190.03 251.93 C 188.75 249.37 185.59 248.43 183.34 246.86 C 183.41 247.36 183.56 248.37 183.63 248.88 C 174.20 246.00 164.55 243.58 154.72 242.68 C 154.61 242.30 154.41 241.55 154.30 241.17 C 151.79 241.27 149.30 241.75 146.81 242.11 C 149.75 237.86 151.91 233.04 155.30 229.14 Z" />
<path fill="#ffffff" opacity="1.00" d=" M 149.25 245.80 C 155.39 246.29 161.25 248.40 167.23 249.76 C 169.45 250.47 171.99 250.45 173.92 251.89 C 166.31 250.84 158.64 249.98 150.95 250.02 C 149.70 250.10 148.57 249.76 147.58 249.02 C 148.11 247.93 148.67 246.86 149.25 245.80 Z" />
<path fill="#ffffff" opacity="1.00" d=" M 144.12 259.38 C 158.35 262.18 172.53 265.27 186.74 268.21 C 184.25 272.54 181.68 276.85 178.79 280.91 L 178.04 281.18 L 177.36 280.83 C 171.84 276.45 166.19 271.96 159.92 268.74 C 151.91 269.30 144.00 271.38 135.97 272.09 C 138.58 267.80 140.99 263.29 144.12 259.38 Z" />
</g>
<g id="#1d7665ff">
<path fill="#1d7665" opacity="1.00" d=" M 343.84 24.92 C 345.87 26.85 346.70 29.60 347.89 32.06 C 351.48 39.82 353.54 48.13 355.82 56.33 C 356.49 60.46 357.04 64.62 358.01 68.70 L 358.75 68.95 C 360.30 64.80 359.78 59.91 361.85 56.08 C 363.74 54.36 364.54 51.84 366.16 49.89 C 364.97 54.62 362.55 58.97 361.74 63.81 C 360.88 67.27 359.77 70.73 359.72 74.32 C 360.84 74.03 361.72 73.32 362.34 72.19 L 363.09 71.95 C 363.52 71.97 364.39 72.01 364.82 72.03 C 363.27 73.78 361.83 75.62 360.74 77.70 C 359.14 79.44 359.31 81.87 358.99 84.06 C 358.25 84.05 356.76 84.05 356.01 84.04 C 355.64 82.00 355.74 79.85 354.91 77.92 C 353.85 76.94 352.55 76.32 351.21 75.85 C 351.44 75.39 351.90 74.48 352.12 74.03 C 352.01 72.50 349.64 73.41 349.35 72.21 C 349.46 71.92 349.70 71.34 349.82 71.06 C 348.21 69.22 346.05 68.00 344.25 66.38 C 344.76 66.11 345.77 65.56 346.28 65.28 C 349.77 67.60 351.38 72.40 354.99 74.92 C 354.89 71.89 353.93 68.99 353.07 66.12 C 351.77 59.88 348.00 54.64 345.85 48.74 C 350.43 52.76 351.64 59.04 354.85 63.97 C 355.18 57.18 351.77 51.08 350.48 44.57 C 348.93 37.80 345.79 31.54 343.84 24.92 M 359.25 75.26 C 359.82 75.83 359.82 75.83 359.25 75.26 Z" />
<path fill="#1d7665" opacity="1.00" d=" M 83.29 118.14 C 84.03 118.61 84.50 119.28 84.69 120.13 C 87.12 129.05 89.71 137.92 92.29 146.79 C 94.78 153.58 93.32 160.92 93.71 167.97 C 92.56 166.63 92.26 164.84 91.75 163.21 C 89.07 153.72 86.26 144.27 83.47 134.81 C 83.25 129.26 83.56 123.70 83.29 118.14 Z" />
</g>
<g id="#124b85ff">
<path fill="#124b85" opacity="1.00" d=" M 401.82 46.81 C 401.65 44.41 404.58 45.16 405.65 46.31 C 413.13 52.41 420.70 58.87 425.81 67.18 C 428.80 71.91 427.87 77.70 428.00 83.00 C 427.86 90.28 428.28 97.58 427.79 104.85 C 427.30 104.86 426.32 104.86 425.84 104.87 C 425.45 95.30 425.85 85.73 425.63 76.17 C 425.63 70.97 422.41 66.60 419.27 62.75 C 414.07 56.82 408.17 51.50 401.82 46.81 Z" />
</g>
<g id="#fefeffff">
<path fill="#fefeff" opacity="1.00" d=" M 403.02 56.22 C 404.00 55.30 405.10 54.25 406.55 54.26 C 405.82 58.44 410.03 60.11 412.02 63.01 C 412.90 66.18 414.47 69.44 413.96 72.78 C 410.69 70.30 412.61 62.82 407.08 62.02 C 406.96 62.45 406.73 63.32 406.61 63.76 C 404.76 61.69 403.25 59.01 403.02 56.22 Z" />
</g>
<g id="#4fdba3ff">
<path fill="#4fdba3" opacity="1.00" d=" M 331.17 59.15 C 336.73 59.12 342.36 61.34 346.28 65.28 C 345.77 65.56 344.76 66.11 344.25 66.38 C 346.05 68.00 348.21 69.22 349.82 71.06 C 349.70 71.34 349.46 71.92 349.35 72.21 C 341.93 70.56 334.41 66.33 331.17 59.15 Z" />
<path fill="#4fdba3" opacity="1.00" d=" M 364.96 68.94 C 369.50 64.42 375.53 61.20 382.03 60.99 C 381.02 65.78 376.84 69.24 373.14 72.14 C 370.87 74.09 367.51 74.39 365.60 76.74 L 365.03 77.35 C 363.69 78.07 362.17 77.80 360.74 77.70 C 361.83 75.62 363.27 73.78 364.82 72.03 C 364.39 72.01 363.52 71.97 363.09 71.95 C 363.02 70.66 364.22 69.83 364.96 68.94 Z" />
</g>
<g id="#feffffff">
<path fill="#feffff" opacity="1.00" d=" M 418.17 69.19 C 420.22 71.30 422.77 73.56 422.91 76.71 C 421.28 76.18 420.40 74.47 418.98 73.59 C 417.81 75.27 415.74 77.10 416.54 79.37 C 417.21 82.32 417.96 85.25 418.71 88.19 C 419.27 91.14 422.65 92.66 422.84 95.77 C 420.59 95.60 419.55 93.18 418.25 91.65 C 416.86 88.11 416.68 84.20 415.01 80.76 C 413.49 81.65 412.95 83.49 411.87 84.81 C 410.39 83.93 409.18 82.70 407.80 81.70 L 407.02 81.98 C 406.91 82.43 406.71 83.34 406.61 83.79 C 404.87 81.43 403.06 78.37 403.32 75.40 C 404.27 74.71 405.39 74.25 406.58 74.25 C 406.20 77.07 408.13 80.09 410.84 80.62 C 413.99 77.46 415.54 72.85 418.17 69.19 Z" />
</g>
<g id="#b8c7d9ff">
<path fill="#b8c7d9" opacity="1.00" d=" M 278.46 74.40 C 279.82 70.06 286.86 70.33 287.37 75.02 C 287.55 83.36 287.49 91.71 287.39 100.04 C 284.44 98.27 280.41 98.04 278.21 101.08 C 278.49 92.19 277.98 83.27 278.46 74.40 Z" />
<path fill="#b8c7d9" opacity="1.00" d=" M 295.96 198.09 C 293.22 193.11 290.31 187.14 293.05 181.49 C 294.52 185.47 296.02 189.45 296.93 193.60 C 296.18 194.57 295.85 195.68 295.95 196.90 C 307.29 197.15 318.65 196.83 330.01 197.04 C 332.33 197.14 334.63 196.80 336.91 196.43 C 336.22 200.16 337.33 203.67 339.05 206.94 C 333.32 209.16 326.87 207.06 320.86 207.93 C 317.60 207.88 314.24 207.55 311.13 208.78 C 308.31 207.48 304.42 207.38 301.70 208.95 C 297.20 207.21 298.18 201.62 295.96 198.09 Z" />
<path fill="#b8c7d9" opacity="1.00" d=" M 348.19 197.01 C 353.08 197.00 357.33 199.55 361.11 202.37 C 359.36 205.98 356.62 208.92 354.17 212.05 C 353.54 211.18 352.79 210.44 351.91 209.84 C 352.12 205.22 349.78 201.18 348.19 197.01 Z" />
</g>
<g id="#544238ff">
<path fill="#544238" opacity="1.00" d=" M 300.46 78.44 C 303.19 73.69 308.53 70.76 313.99 70.80 C 320.91 70.77 327.68 73.09 333.72 76.37 C 334.13 77.71 332.46 78.66 331.92 79.77 C 331.64 80.12 331.10 80.82 330.82 81.17 C 326.74 82.60 321.10 80.44 318.24 84.41 C 315.57 93.38 320.43 102.92 327.42 108.53 C 328.54 109.32 329.91 109.61 331.18 110.09 C 331.08 111.34 330.92 112.58 330.69 113.81 C 328.22 114.49 325.64 114.54 323.10 114.74 C 320.08 113.03 316.64 111.17 315.46 107.67 C 314.14 103.29 316.65 98.79 315.62 94.38 C 314.25 92.04 310.83 90.82 308.49 92.46 C 306.18 96.18 310.41 100.51 308.32 104.30 C 307.42 105.80 305.40 105.60 303.95 106.11 C 300.90 102.22 299.38 97.43 298.27 92.68 C 297.86 87.88 297.53 82.57 300.46 78.44 Z" />
<path fill="#544238" opacity="1.00" d=" M 109.98 102.95 C 114.25 100.56 119.03 98.85 123.99 99.03 C 134.36 99.11 141.56 108.22 145.14 117.04 C 144.25 118.93 144.04 122.70 141.10 122.12 C 137.28 120.18 137.37 113.10 132.20 113.11 C 129.15 115.36 131.56 119.42 130.13 122.35 C 125.59 119.09 120.85 115.25 115.00 115.10 C 111.88 114.85 109.25 116.73 106.70 118.22 C 106.28 118.19 105.44 118.13 105.02 118.10 C 103.86 117.24 102.66 116.42 101.66 115.38 C 100.99 113.86 101.29 112.01 100.27 110.64 C 103.92 108.58 106.27 104.90 109.98 102.95 Z" />
<path fill="#544238" opacity="1.00" d=" M 140.09 193.26 C 152.08 192.70 164.01 191.09 175.96 189.95 C 178.82 196.39 184.73 201.50 191.84 202.45 C 192.42 202.60 193.59 202.90 194.18 203.05 C 193.20 204.42 192.31 205.94 190.83 206.84 C 183.56 211.76 174.75 213.24 166.42 215.41 C 160.90 216.81 154.98 216.48 149.72 218.87 C 146.67 215.96 144.09 212.58 141.88 209.00 C 149.14 207.15 156.37 205.14 163.71 203.66 L 164.06 203.01 C 162.06 201.59 159.60 203.27 157.43 203.40 C 152.34 204.07 147.22 204.61 142.18 205.63 C 141.80 205.98 141.06 206.67 140.69 207.02 C 138.73 203.60 137.56 199.81 136.64 196.00 C 137.80 195.09 138.95 194.18 140.09 193.26 Z" />
</g>
<g id="#c4dbe1ff">
<path fill="#c4dbe1" opacity="1.00" d=" M 359.25 75.26 C 359.82 75.83 359.82 75.83 359.25 75.26 Z" />
</g>
<g id="#e1f4f9ff">
<path fill="#e1f4f9" opacity="1.00" d=" M 343.59 79.51 C 346.04 78.14 348.21 75.95 351.21 75.85 C 352.55 76.32 353.85 76.94 354.91 77.92 C 352.11 77.72 348.42 76.66 346.57 79.52 C 345.35 81.52 343.19 84.54 345.51 86.56 C 349.66 90.99 356.46 91.29 362.05 90.16 C 365.29 89.38 369.46 87.62 369.69 83.77 C 370.29 80.64 366.94 79.14 365.03 77.35 L 365.60 76.74 C 370.17 77.66 372.46 82.39 371.30 86.73 C 376.95 89.34 382.69 91.79 388.38 94.35 C 388.73 97.16 388.60 100.00 388.99 102.81 C 400.25 109.83 411.17 117.64 420.23 127.44 C 418.48 129.60 416.70 131.77 414.55 133.55 C 410.85 136.58 407.76 140.43 403.31 142.44 C 401.21 139.31 397.36 137.50 393.64 138.64 C 384.77 141.07 375.89 143.51 367.06 146.09 C 363.42 147.84 365.02 152.42 366.91 154.93 C 362.28 154.68 357.82 153.24 353.22 152.79 C 347.08 145.35 338.73 140.10 330.26 135.69 C 328.67 130.58 326.16 125.62 322.28 121.86 C 322.46 121.00 322.62 120.13 322.74 119.26 C 322.26 118.82 321.31 117.96 320.83 117.53 C 321.56 116.58 322.32 115.64 323.10 114.74 C 325.64 114.54 328.22 114.49 330.69 113.81 C 330.92 112.58 331.08 111.34 331.18 110.09 C 331.49 107.60 331.55 105.01 332.47 102.64 C 333.58 101.97 335.09 101.88 335.93 100.80 C 335.87 97.91 332.98 95.88 332.83 92.94 C 332.38 88.98 331.80 85.04 330.82 81.17 C 331.10 80.82 331.64 80.12 331.92 79.77 C 335.78 79.19 339.70 79.77 343.59 79.51 M 343.01 86.24 C 343.46 88.85 344.47 91.99 347.02 93.19 L 347.16 94.11 C 346.02 96.98 343.60 100.29 345.72 103.31 C 349.95 106.51 355.29 104.23 359.99 104.01 C 362.79 104.63 365.76 104.99 368.31 103.33 C 370.72 100.28 367.37 97.20 366.80 94.16 C 368.65 92.45 370.02 90.25 370.83 87.87 C 368.07 88.12 365.88 90.77 362.97 91.09 C 357.62 92.87 352.15 91.31 346.92 90.09 C 346.19 88.39 344.26 87.55 343.01 86.24 Z" />
<path fill="#e1f4f9" opacity="1.00" d=" M 292.50 114.65 C 291.23 106.95 291.60 97.89 298.27 92.68 C 299.38 97.43 300.90 102.22 303.95 106.11 C 303.54 107.31 303.12 108.51 302.66 109.70 C 299.66 111.02 298.92 115.87 295.34 115.83 C 294.60 114.89 294.10 113.74 293.15 112.99 C 293.14 113.47 293.11 114.42 293.10 114.90 L 292.50 114.65 Z" />
<path fill="#e1f4f9" opacity="1.00" d=" M 444.24 140.85 L 444.95 141.18 C 453.67 153.92 458.53 169.38 458.02 184.86 C 457.33 188.50 456.73 192.17 456.49 195.87 C 454.19 205.29 450.96 214.69 445.15 222.57 C 443.45 219.65 444.13 216.20 444.04 213.00 C 443.99 207.69 444.23 202.36 443.85 197.06 C 440.81 202.67 440.16 209.39 437.00 215.01 C 430.50 226.90 422.08 237.98 411.27 246.27 C 407.70 249.41 403.80 252.15 399.99 254.98 C 396.88 257.30 393.12 258.68 390.26 261.34 C 389.59 263.88 390.06 266.52 390.19 269.11 C 379.75 275.03 368.48 279.30 357.14 283.12 C 341.07 287.65 323.28 286.89 308.03 279.89 C 300.47 276.41 293.09 270.37 291.66 261.72 C 290.69 255.32 293.83 247.81 300.04 245.25 C 302.99 243.97 305.50 241.90 308.35 240.42 C 317.47 236.84 326.64 233.18 335.08 228.13 C 336.50 227.40 337.66 226.29 338.51 224.94 C 338.85 225.30 339.55 226.01 339.90 226.37 C 340.01 227.45 340.00 228.52 339.88 229.61 C 337.97 229.49 335.70 228.45 334.19 230.16 C 332.29 231.44 331.74 233.73 332.06 235.89 C 332.45 242.25 332.45 248.62 332.11 254.98 C 332.13 258.20 331.27 261.92 333.37 264.70 C 336.53 265.38 339.80 264.98 343.01 265.10 C 345.92 264.98 349.23 265.56 351.72 263.64 C 352.35 261.15 352.08 258.55 352.08 256.01 C 352.22 253.26 351.56 249.96 353.92 247.94 C 357.14 244.64 359.03 239.81 357.88 235.21 C 356.71 233.11 354.39 232.29 352.20 231.79 C 350.73 229.46 347.39 229.38 346.10 227.06 C 347.67 224.27 349.80 221.76 350.76 218.65 C 351.85 215.82 351.00 212.71 351.91 209.84 C 351.86 210.60 351.77 212.12 351.72 212.88 C 352.21 214.71 353.74 212.85 354.17 212.05 C 356.62 208.92 359.36 205.98 361.11 202.37 C 361.38 201.88 361.90 200.89 362.16 200.39 C 363.37 198.04 364.51 195.65 365.33 193.13 C 366.65 190.15 364.90 184.65 368.98 183.82 C 371.09 183.70 373.19 183.53 375.29 183.31 C 374.49 192.21 371.08 200.69 366.04 208.01 C 364.73 209.73 363.76 212.46 365.56 214.20 C 367.37 215.85 369.86 216.24 372.13 216.90 C 377.39 218.24 382.55 220.00 387.90 220.99 C 388.32 230.90 387.67 240.84 388.20 250.75 C 388.68 251.05 389.64 251.64 390.12 251.94 C 404.29 244.25 417.15 233.92 427.39 221.44 C 437.31 208.75 444.77 193.11 444.20 176.69 C 444.41 173.03 444.44 169.37 444.21 165.71 C 444.20 164.41 444.19 163.12 444.16 161.83 C 444.39 154.84 444.30 147.84 444.24 140.85 Z" />
<path fill="#e1f4f9" opacity="1.00" d=" M 367.33 163.07 C 368.95 163.12 370.59 163.33 372.09 163.99 C 373.29 167.55 374.19 171.20 375.03 174.86 C 373.43 176.50 371.29 177.19 369.05 177.38 C 368.05 176.93 367.06 176.48 366.07 176.03 C 365.97 174.62 365.74 173.22 365.34 171.87 C 364.35 169.20 363.20 166.58 361.96 164.01 C 363.78 163.90 365.77 164.27 367.33 163.07 Z" />
</g>
<g id="#ffc98fff">
<path fill="#ffc98f" opacity="1.00" d=" M 346.57 79.52 C 348.42 76.66 352.11 77.72 354.91 77.92 C 355.74 79.85 355.64 82.00 356.01 84.04 C 356.76 84.05 358.25 84.05 358.99 84.06 C 359.31 81.87 359.14 79.44 360.74 77.70 C 362.17 77.80 363.69 78.07 365.03 77.35 C 366.94 79.14 370.29 80.64 369.69 83.77 C 369.46 87.62 365.29 89.38 362.05 90.16 C 356.46 91.29 349.66 90.99 345.51 86.56 C 343.19 84.54 345.35 81.52 346.57 79.52 Z" />
<path fill="#ffc98f" opacity="1.00" d=" M 150.85 127.83 C 153.36 126.44 155.85 124.79 158.86 124.94 C 154.01 128.22 151.78 133.73 150.10 139.11 C 144.67 155.03 138.75 170.79 132.24 186.30 C 131.70 188.35 128.69 189.77 127.20 187.84 C 123.16 183.86 119.23 179.76 115.65 175.37 C 114.48 173.90 112.94 172.82 111.42 171.77 C 112.63 169.40 114.79 167.90 117.12 166.75 C 119.90 168.57 122.45 170.70 124.96 172.89 C 127.28 174.79 129.24 177.15 131.81 178.73 C 133.76 173.30 135.28 167.74 137.07 162.26 C 138.88 156.27 141.43 150.48 142.77 144.36 C 142.30 144.09 141.38 143.55 140.91 143.28 C 144.85 140.96 145.81 135.76 147.75 131.87 C 148.37 130.25 148.95 128.63 149.55 127.01 C 149.87 127.21 150.53 127.63 150.85 127.83 Z" />
<path fill="#ffc98f" opacity="1.00" d=" M 167.03 155.01 C 171.81 151.17 180.05 152.61 182.65 158.31 C 187.78 168.01 191.51 178.46 193.70 189.22 C 194.45 193.43 195.32 197.71 194.85 202.01 C 194.10 202.12 192.59 202.34 191.84 202.45 C 184.73 201.50 178.82 196.39 175.96 189.95 C 172.72 180.21 167.55 171.11 161.54 162.82 C 161.09 159.26 164.62 156.97 167.03 155.01 Z" />
<path fill="#ffc98f" opacity="1.00" d=" M 352.20 231.79 C 354.39 232.29 356.71 233.11 357.88 235.21 C 359.03 239.81 357.14 244.64 353.92 247.94 C 351.56 249.96 352.22 253.26 352.08 256.01 C 346.61 260.55 336.54 261.27 332.11 254.98 C 332.45 248.62 332.45 242.25 332.06 235.89 C 337.48 241.13 346.39 240.86 352.09 236.22 C 352.21 239.14 352.08 242.08 352.22 245.01 C 354.72 242.94 355.65 239.43 354.84 236.33 C 354.06 235.69 353.30 235.05 352.53 234.41 C 352.45 233.75 352.28 232.44 352.20 231.79 Z" />
</g>
<g id="#a9bdcdff">
<path fill="#a9bdcd" opacity="1.00" d=" M 124.20 98.24 C 146.43 88.51 170.08 82.12 194.09 78.67 C 194.58 78.66 195.55 78.64 196.04 78.63 C 198.21 82.39 199.50 86.58 201.34 90.50 C 206.45 103.08 212.08 115.45 217.03 128.09 L 217.04 128.93 C 208.79 129.59 200.67 131.56 192.82 134.14 C 188.62 130.86 184.35 127.65 179.71 124.99 C 181.10 124.25 182.48 123.51 183.90 122.84 C 189.08 121.70 194.27 120.58 199.46 119.48 C 199.67 117.98 199.73 116.47 199.91 114.98 C 201.95 113.63 202.79 110.25 200.20 109.00 C 195.75 101.27 194.97 91.86 190.77 84.08 C 180.05 85.06 169.34 86.40 158.63 87.52 C 158.46 89.30 158.96 91.04 159.34 92.76 C 156.17 94.86 151.92 94.96 148.96 97.12 C 149.67 99.14 152.13 100.00 152.92 101.98 C 151.55 104.29 147.71 104.10 146.30 106.60 C 151.57 109.62 156.28 113.59 161.88 116.02 C 162.19 116.49 162.81 117.43 163.12 117.91 C 159.49 117.03 155.87 115.89 152.10 115.96 C 150.84 115.05 149.64 114.07 148.36 113.19 C 148.02 114.92 147.76 116.68 147.14 118.34 C 146.64 118.01 145.64 117.36 145.14 117.04 C 141.56 108.22 134.36 99.11 123.99 99.03 L 124.20 98.24 Z" />
<path fill="#a9bdcd" opacity="1.00" d=" M 86.49 120.28 C 90.77 116.64 95.63 113.78 100.27 110.64 C 101.29 112.01 100.99 113.86 101.66 115.38 C 102.66 116.42 103.86 117.24 105.02 118.10 C 104.49 119.64 103.67 121.18 103.78 122.86 C 105.13 126.63 108.50 129.10 111.17 131.92 C 114.83 139.91 120.15 146.99 124.02 154.86 C 116.42 154.99 108.77 154.37 101.20 155.20 C 100.32 166.09 101.06 177.07 100.82 188.00 C 100.92 192.63 100.46 197.30 101.20 201.89 C 106.07 202.83 111.07 202.15 116.00 202.37 C 118.81 202.23 121.85 202.87 124.46 201.56 C 124.89 199.74 124.99 197.86 125.12 196.01 C 127.97 198.09 132.30 198.98 135.15 196.42 C 135.52 196.32 136.27 196.10 136.64 196.00 C 137.56 199.81 138.73 203.60 140.69 207.02 C 140.99 207.51 141.59 208.51 141.88 209.00 C 144.09 212.58 146.67 215.96 149.72 218.87 C 152.84 221.83 155.82 225.15 159.79 226.98 C 160.89 228.02 161.93 229.10 163.00 230.18 C 160.45 229.74 157.89 229.24 155.30 229.14 C 151.91 233.04 149.75 237.86 146.81 242.11 C 143.18 238.80 138.40 237.17 133.62 236.42 C 132.06 235.98 129.65 236.24 129.64 234.01 C 130.11 232.26 132.08 231.14 131.87 229.17 C 128.91 228.57 125.88 228.59 122.89 228.74 L 122.86 228.01 C 123.23 225.31 124.09 221.47 120.94 220.06 C 115.86 217.24 111.27 213.44 105.86 211.26 C 101.03 211.18 97.96 216.16 96.54 220.22 C 95.00 218.50 93.52 216.72 91.73 215.26 C 80.06 217.87 68.59 221.57 57.03 224.70 C 52.31 215.79 48.26 206.23 47.69 196.04 C 47.03 196.91 46.68 197.92 46.64 199.09 C 46.02 196.32 46.85 193.28 45.47 190.71 C 46.06 189.91 46.89 189.14 46.70 188.03 C 46.81 184.68 46.99 181.29 47.86 178.04 C 49.16 178.79 50.49 179.52 51.83 180.23 C 52.21 187.16 51.89 194.10 52.01 201.03 C 52.04 201.74 52.11 203.16 52.15 203.87 C 65.04 204.02 77.98 204.24 90.86 203.75 C 91.58 202.61 91.68 201.24 91.57 199.93 C 91.04 193.98 91.65 188.00 91.05 182.05 C 92.24 181.63 93.44 181.22 94.57 180.67 C 94.65 180.30 94.79 179.57 94.86 179.20 C 95.63 171.49 94.97 163.73 95.23 156.00 C 95.62 149.61 93.05 143.65 91.36 137.62 C 89.75 131.84 87.94 126.11 86.49 120.28 Z" />
<path fill="#a9bdcd" opacity="1.00" d=" M 127.64 140.02 C 129.32 138.58 131.03 137.18 132.72 135.75 C 133.34 136.02 134.57 136.55 135.19 136.81 C 136.26 137.53 137.31 138.28 138.36 139.05 C 137.85 139.88 137.45 140.76 137.16 141.69 C 137.64 141.95 138.60 142.46 139.09 142.72 C 136.96 143.52 135.31 145.48 133.11 145.91 C 131.02 144.21 129.54 141.91 127.64 140.02 Z" />
<path fill="#a9bdcd" opacity="1.00" d=" M 125.04 156.93 C 127.03 160.10 130.08 163.11 134.14 162.70 C 135.12 162.59 136.10 162.45 137.07 162.26 C 135.28 167.74 133.76 173.30 131.81 178.73 C 129.24 177.15 127.28 174.79 124.96 172.89 C 124.74 167.57 124.75 162.25 125.04 156.93 Z" />
<path fill="#a9bdcd" opacity="1.00" d=" M 460.28 223.74 C 475.04 246.29 475.83 276.99 462.28 300.26 C 463.36 295.09 466.19 290.52 467.58 285.44 C 470.07 278.56 470.31 271.21 471.13 264.01 C 470.56 254.66 469.40 245.20 465.63 236.53 C 464.18 232.11 461.16 228.34 460.28 223.74 Z" />
<path fill="#a9bdcd" opacity="1.00" d=" M 106.50 231.96 C 107.94 232.63 109.35 233.36 110.76 234.10 C 112.13 234.88 113.54 235.58 114.97 236.26 C 114.86 236.84 114.64 238.00 114.53 238.58 C 112.14 240.07 109.22 240.35 106.79 241.77 C 105.93 242.69 106.25 244.12 107.26 244.79 C 110.47 246.78 115.00 244.70 117.88 247.19 C 116.57 248.93 113.35 249.99 114.29 252.66 C 119.74 256.37 126.64 256.40 132.99 256.39 C 137.63 256.29 142.69 256.89 146.77 254.19 C 147.79 254.97 148.90 255.65 150.20 255.84 C 162.06 258.36 173.96 260.68 185.82 263.22 C 187.11 263.28 188.85 264.22 189.87 263.00 C 192.54 258.94 195.15 254.80 197.48 250.54 C 198.44 248.62 196.89 247.11 195.78 245.74 C 196.20 244.66 196.90 243.73 197.50 242.75 C 197.72 243.20 198.15 244.08 198.37 244.52 C 204.07 246.29 210.07 246.99 215.91 248.24 C 211.28 259.97 205.87 271.37 201.02 283.02 C 198.82 287.88 197.02 292.94 194.50 297.66 C 190.54 298.06 186.64 296.79 182.76 296.21 C 146.62 289.44 110.66 276.61 81.86 253.18 C 78.18 250.37 75.42 246.24 71.01 244.52 C 82.65 240.27 95.05 238.16 106.71 233.96 C 106.66 233.46 106.55 232.46 106.50 231.96 M 144.12 259.38 C 140.99 263.29 138.58 267.80 135.97 272.09 C 138.62 273.85 141.56 275.14 144.42 276.50 C 152.09 279.64 159.57 283.24 167.22 286.42 C 170.80 285.27 176.65 285.63 177.36 280.83 L 178.04 281.18 L 178.79 280.91 C 181.68 276.85 184.25 272.54 186.74 268.21 C 172.53 265.27 158.35 262.18 144.12 259.38 Z" />
</g>
<g id="#f7a281ff">
<path fill="#f7a281" opacity="1.00" d=" M 318.24 84.41 C 321.10 80.44 326.74 82.60 330.82 81.17 C 331.80 85.04 332.38 88.98 332.83 92.94 C 332.98 95.88 335.87 97.91 335.93 100.80 C 335.09 101.88 333.58 101.97 332.47 102.64 C 331.55 105.01 331.49 107.60 331.18 110.09 C 329.91 109.61 328.54 109.32 327.42 108.53 C 320.43 102.92 315.57 93.38 318.24 84.41 Z" />
<path fill="#f7a281" opacity="1.00" d=" M 308.49 92.46 C 310.83 90.82 314.25 92.04 315.62 94.38 C 316.65 98.79 314.14 103.29 315.46 107.67 C 316.64 111.17 320.08 113.03 323.10 114.74 C 322.32 115.64 321.56 116.58 320.83 117.53 C 320.12 118.39 319.43 119.26 318.74 120.14 C 313.76 119.02 309.47 116.12 304.97 113.85 C 304.56 113.51 303.74 112.85 303.33 112.52 C 303.16 111.82 302.83 110.40 302.66 109.70 C 303.12 108.51 303.54 107.31 303.95 106.11 C 305.40 105.60 307.42 105.80 308.32 104.30 C 310.41 100.51 306.18 96.18 308.49 92.46 Z" />
<path fill="#f7a281" opacity="1.00" d=" M 106.70 118.22 C 109.25 116.73 111.88 114.85 115.00 115.10 C 120.85 115.25 125.59 119.09 130.13 122.35 C 133.74 125.23 138.56 127.02 140.99 131.14 C 140.83 133.14 138.53 135.40 139.64 137.20 C 139.23 137.83 138.81 138.45 138.36 139.05 C 137.31 138.28 136.26 137.53 135.19 136.81 C 135.99 134.97 136.72 133.08 137.06 131.09 C 134.95 131.92 133.84 133.93 132.72 135.75 C 131.03 137.18 129.32 138.58 127.64 140.02 C 123.40 139.67 120.25 136.69 116.83 134.53 C 116.48 134.69 115.78 135.00 115.43 135.16 C 114.22 134.16 113.74 132.42 112.16 131.90 C 112.29 131.59 112.56 130.98 112.69 130.67 C 110.79 126.49 107.02 123.06 106.70 118.22 Z" />
<path fill="#f7a281" opacity="1.00" d=" M 379.42 154.52 C 382.25 153.62 385.07 154.91 387.63 156.03 C 387.69 158.35 387.75 160.67 387.75 162.99 C 384.89 160.71 380.93 159.76 377.80 162.13 C 379.00 164.73 383.82 161.92 384.93 164.87 C 380.94 166.85 376.02 165.67 372.09 163.99 C 370.59 163.33 368.95 163.12 367.33 163.07 C 367.27 162.63 367.13 161.73 367.06 161.29 C 367.97 159.99 368.05 158.40 368.25 156.89 C 372.14 157.04 375.77 155.66 379.42 154.52 Z" />
<path fill="#f7a281" opacity="1.00" d=" M 110.94 158.14 C 114.11 160.04 116.27 163.16 117.12 166.75 C 114.79 167.90 112.63 169.40 111.42 171.77 L 110.71 172.31 C 108.44 170.24 105.60 168.76 103.74 166.26 C 102.97 163.99 103.48 161.37 104.31 159.16 C 107.49 157.31 109.79 161.17 111.89 162.96 C 111.46 161.38 111.04 159.78 110.94 158.14 Z" />
<path fill="#f7a281" opacity="1.00" d=" M 375.03 174.86 C 377.27 174.22 379.59 173.56 381.96 173.75 C 384.04 174.58 385.84 175.96 387.73 177.15 C 387.79 179.18 387.65 181.21 387.28 183.20 C 385.80 182.59 384.37 181.85 382.82 181.46 C 380.25 181.81 377.80 182.71 375.29 183.31 C 373.19 183.53 371.09 183.70 368.98 183.82 C 368.83 183.36 368.53 182.43 368.37 181.96 C 368.57 180.43 368.86 178.91 369.05 177.38 C 371.29 177.19 373.43 176.50 375.03 174.86 Z" />
</g>
<g id="#f2fafcff">
<path fill="#f2fafc" opacity="1.00" d=" M 158.63 87.52 C 169.34 86.40 180.05 85.06 190.77 84.08 C 194.97 91.86 195.75 101.27 200.20 109.00 C 199.81 109.41 199.02 110.23 198.63 110.64 C 188.85 112.05 178.92 112.45 169.20 114.23 C 170.75 117.06 173.70 118.69 175.74 121.13 C 175.56 121.46 175.19 122.12 175.01 122.45 C 171.12 120.74 167.12 119.31 163.12 117.91 C 162.81 117.43 162.19 116.49 161.88 116.02 C 160.94 113.03 159.84 110.09 159.00 107.07 C 160.99 108.40 162.84 110.01 165.12 110.87 C 164.23 104.59 161.81 98.57 159.34 92.76 C 158.96 91.04 158.46 89.30 158.63 87.52 Z" />
</g>
<g id="#2f70cfff">
<path fill="#2f70cf" opacity="1.00" d=" M 343.01 86.24 C 344.26 87.55 346.19 88.39 346.92 90.09 C 346.95 90.87 347.00 92.41 347.02 93.19 C 344.47 91.99 343.46 88.85 343.01 86.24 Z" />
<path fill="#2f70cf" opacity="1.00" d=" M 480.47 271.76 C 480.52 272.36 480.64 273.58 480.69 274.19 C 479.20 292.63 470.73 309.95 458.94 324.01 C 435.41 351.64 402.03 368.64 368.11 379.99 C 334.79 390.50 299.83 395.96 264.89 396.07 C 264.65 394.68 264.65 393.29 264.90 391.90 C 267.66 391.66 270.43 391.65 273.19 391.40 C 320.51 389.50 368.32 379.83 410.37 357.38 C 425.94 348.99 440.68 338.77 452.95 325.96 C 467.36 311.29 478.10 292.40 480.47 271.76 Z" />
</g>
<g id="#60afffff">
<path fill="#60afff" opacity="1.00" d=" M 362.97 91.09 C 365.88 90.77 368.07 88.12 370.83 87.87 C 370.02 90.25 368.65 92.45 366.80 94.16 C 361.49 99.12 352.46 99.05 347.16 94.11 L 347.02 93.19 C 347.00 92.41 346.95 90.87 346.92 90.09 C 352.15 91.31 357.62 92.87 362.97 91.09 Z" />
</g>
<g id="#ffecdaff">
<path fill="#ffecda" opacity="1.00" d=" M 148.96 97.12 C 151.92 94.96 156.17 94.86 159.34 92.76 C 161.81 98.57 164.23 104.59 165.12 110.87 C 162.84 110.01 160.99 108.40 159.00 107.07 C 159.84 110.09 160.94 113.03 161.88 116.02 C 156.28 113.59 151.57 109.62 146.30 106.60 C 147.71 104.10 151.55 104.29 152.92 101.98 C 152.13 100.00 149.67 99.14 148.96 97.12 Z" />
</g>
<g id="#c5e3fbff">
<path fill="#c5e3fb" opacity="1.00" d=" M 347.16 94.11 C 352.46 99.05 361.49 99.12 366.80 94.16 C 367.37 97.20 370.72 100.28 368.31 103.33 C 365.76 104.99 362.79 104.63 359.99 104.01 C 355.29 104.23 349.95 106.51 345.72 103.31 C 343.60 100.29 346.02 96.98 347.16 94.11 Z" />
</g>
<g id="#7997adff">
<path fill="#7997ad" opacity="1.00" d=" M 278.21 101.08 C 280.41 98.04 284.44 98.27 287.39 100.04 C 287.01 103.35 287.99 106.50 288.63 109.64 C 287.01 112.50 287.79 115.88 287.65 119.00 C 287.86 125.56 287.14 132.21 288.35 138.69 C 290.01 142.82 291.25 147.08 292.56 151.33 C 296.40 160.60 299.44 170.17 302.31 179.78 C 303.68 184.42 305.97 188.87 306.23 193.78 C 303.12 193.71 300.02 193.71 296.93 193.60 C 296.02 189.45 294.52 185.47 293.05 181.49 C 289.17 167.89 284.72 154.45 280.46 140.96 C 280.01 139.59 279.52 138.23 279.02 136.88 C 278.34 134.05 278.25 131.13 277.85 128.25 C 277.37 127.98 276.40 127.42 275.92 127.15 C 276.44 127.10 277.47 127.00 277.99 126.95 C 278.68 118.39 278.14 109.70 278.21 101.08 Z" />
<path fill="#7997ad" opacity="1.00" d=" M 210.75 269.86 C 211.51 268.16 212.22 266.44 212.91 264.71 C 215.94 265.16 218.97 265.62 222.01 266.03 C 222.03 267.30 222.00 268.57 221.93 269.84 C 218.56 270.25 216.14 273.04 212.72 273.38 C 211.89 272.30 211.33 271.06 210.75 269.86 Z" />
</g>
<g id="#1958a4ff">
<path fill="#1958a4" opacity="1.00" d=" M 422.34 148.38 C 434.11 135.96 442.44 119.86 443.93 102.70 C 444.69 115.33 444.18 128.15 444.24 140.85 C 444.30 147.84 444.39 154.84 444.16 161.83 C 441.91 165.47 441.49 169.85 439.72 173.71 C 433.34 189.90 421.11 202.99 407.66 213.68 C 405.93 214.99 404.30 216.66 402.08 217.06 C 401.92 215.13 401.82 213.17 402.15 211.25 C 403.76 209.48 405.79 208.17 407.66 206.69 C 413.89 201.97 419.48 196.46 424.69 190.65 C 434.32 179.19 442.35 165.22 443.13 149.97 C 441.51 151.06 441.83 153.47 441.07 155.13 C 435.11 172.87 422.15 187.29 407.66 198.69 C 405.94 200.00 404.32 201.69 402.09 202.05 C 401.93 200.12 401.82 198.17 402.16 196.27 C 404.47 193.84 407.38 192.10 409.94 189.96 C 423.75 178.68 435.76 164.29 441.03 147.00 C 442.01 143.10 443.75 139.20 443.23 135.09 L 442.45 135.42 C 439.72 146.09 434.30 155.93 427.53 164.56 C 425.33 167.21 423.18 170.06 420.17 171.87 C 420.17 169.78 420.14 167.66 420.71 165.64 C 421.98 163.35 424.03 161.64 425.68 159.64 C 433.02 150.89 438.76 140.69 441.72 129.62 C 442.57 126.51 443.63 123.35 443.23 120.08 L 442.49 120.47 C 439.62 131.32 434.09 141.37 427.09 150.10 C 425.02 152.56 423.00 155.21 420.18 156.86 C 420.22 153.94 419.90 150.51 422.34 148.38 Z" />
<path fill="#1958a4" opacity="1.00" d=" M 441.34 177.39 C 442.68 173.58 442.43 169.36 444.21 165.71 C 444.44 169.37 444.41 173.03 444.20 176.69 C 442.32 180.66 441.83 185.10 440.11 189.13 C 432.82 207.76 418.49 222.94 402.05 233.94 C 401.94 231.74 401.79 229.50 402.23 227.33 C 410.04 221.20 418.14 215.22 424.39 207.41 C 432.08 198.76 437.95 188.46 441.34 177.39 Z" />
<path fill="#1958a4" opacity="1.00" d=" M 365.56 214.20 C 367.94 214.28 370.31 214.65 372.58 215.41 C 377.64 217.05 382.88 218.08 387.86 219.99 L 387.90 220.99 C 382.55 220.00 377.39 218.24 372.13 216.90 C 369.86 216.24 367.37 215.85 365.56 214.20 Z" />
</g>
<g id="#efd6bfff">
<path fill="#efd6bf" opacity="1.00" d=" M 50.14 114.17 C 60.70 111.25 71.22 108.16 81.77 105.20 L 81.79 106.06 C 81.92 115.67 81.80 125.29 81.89 134.90 C 77.37 134.95 73.20 136.80 68.89 137.91 C 61.55 140.26 53.84 141.58 46.82 144.84 L 46.16 144.65 C 45.51 141.16 45.76 137.59 45.99 134.08 C 47.26 128.48 46.15 122.68 46.62 117.00 C 46.66 115.13 48.76 114.72 50.14 114.17 Z" />
<path fill="#efd6bf" opacity="1.00" d=" M 51.83 180.23 C 52.84 180.50 53.86 180.76 54.88 181.01 C 55.45 181.23 56.57 181.69 57.14 181.92 C 58.09 185.38 58.50 189.91 62.73 190.80 C 67.18 193.18 72.51 193.68 77.34 192.29 C 79.90 191.47 82.65 189.94 83.26 187.09 C 83.64 183.12 88.00 182.87 91.05 182.05 C 91.65 188.00 91.04 193.98 91.57 199.93 C 89.69 201.40 87.23 201.08 85.00 201.12 C 74.01 201.00 63.01 201.17 52.01 201.03 C 51.89 194.10 52.21 187.16 51.83 180.23 Z" />
</g>
<g id="#f9f0e8ff">
<path fill="#f9f0e8" opacity="1.00" d=" M 81.79 106.06 L 82.44 106.37 C 83.74 111.02 84.87 115.72 86.49 120.28 C 87.94 126.11 89.75 131.84 91.36 137.62 C 93.05 143.65 95.62 149.61 95.23 156.00 C 94.97 163.73 95.63 171.49 94.86 179.20 C 92.85 174.22 91.81 168.94 90.20 163.83 C 87.56 154.15 84.46 144.60 81.89 134.90 C 81.80 125.29 81.92 115.67 81.79 106.06 M 83.29 118.14 C 83.56 123.70 83.25 129.26 83.47 134.81 C 86.26 144.27 89.07 153.72 91.75 163.21 C 92.26 164.84 92.56 166.63 93.71 167.97 C 93.32 160.92 94.78 153.58 92.29 146.79 C 89.71 137.92 87.12 129.05 84.69 120.13 C 84.50 119.28 84.03 118.61 83.29 118.14 Z" />
</g>
<g id="#ffecdbff">
<path fill="#ffecdb" opacity="1.00" d=" M 200.20 109.00 C 202.79 110.25 201.95 113.63 199.91 114.98 C 199.58 114.62 198.93 113.90 198.60 113.55 C 193.94 114.59 189.57 116.66 184.99 117.98 C 183.01 118.90 180.36 119.10 179.03 120.95 C 182.03 120.64 185.01 120.02 188.05 120.01 C 186.81 121.15 185.40 122.07 183.90 122.84 C 182.48 123.51 181.10 124.25 179.71 124.99 C 178.14 124.15 176.57 123.30 175.01 122.45 C 175.19 122.12 175.56 121.46 175.74 121.13 C 173.70 118.69 170.75 117.06 169.20 114.23 C 178.92 112.45 188.85 112.05 198.63 110.64 C 199.02 110.23 199.81 109.41 200.20 109.00 Z" />
</g>
<g id="#cbcbcbff">
<path fill="#cbcbcb" opacity="1.00" d=" M 287.65 119.00 C 287.79 115.88 287.01 112.50 288.63 109.64 C 290.42 113.49 291.54 117.65 292.38 121.80 C 295.44 120.59 293.58 117.16 293.10 114.90 C 293.11 114.42 293.14 113.47 293.15 112.99 C 294.10 113.74 294.60 114.89 295.34 115.83 C 298.92 115.87 299.66 111.02 302.66 109.70 C 302.83 110.40 303.16 111.82 303.33 112.52 C 303.74 112.85 304.56 113.51 304.97 113.85 C 303.99 114.52 302.15 115.25 303.18 116.75 C 308.86 120.03 315.03 122.87 321.70 123.13 L 321.96 123.98 C 314.90 124.35 308.73 120.38 302.16 118.51 C 296.79 121.40 295.89 128.46 295.07 133.96 C 293.97 140.64 297.73 146.54 301.03 151.97 C 304.98 158.01 308.91 164.07 312.96 170.05 C 315.73 174.36 318.19 179.76 323.39 181.53 C 329.55 182.28 335.78 181.50 341.96 181.76 C 343.28 182.98 342.95 185.27 342.60 186.91 C 340.95 183.26 336.10 185.44 332.99 184.94 C 327.34 184.36 321.73 184.78 316.09 185.21 C 316.26 188.18 317.21 191.03 317.70 193.95 C 313.87 194.08 310.05 193.93 306.23 193.78 C 305.97 188.87 303.68 184.42 302.31 179.78 C 299.44 170.17 296.40 160.60 292.56 151.33 C 291.25 147.08 290.01 142.82 288.35 138.69 C 287.14 132.21 287.86 125.56 287.65 119.00 Z" />
<path fill="#cbcbcb" opacity="1.00" d=" M 311.13 208.78 C 314.24 207.55 317.60 207.88 320.86 207.93 C 321.19 209.58 320.92 211.54 322.20 212.85 C 326.68 218.07 333.11 220.88 338.51 224.94 C 337.66 226.29 336.50 227.40 335.08 228.13 C 326.64 233.18 317.47 236.84 308.35 240.42 C 305.50 241.90 302.99 243.97 300.04 245.25 C 299.60 245.17 298.72 245.01 298.29 244.93 C 302.63 239.48 306.73 233.49 307.12 226.28 C 307.87 226.43 308.61 226.43 309.35 226.27 C 310.87 220.57 310.96 214.64 311.13 208.78 Z" />
</g>
<g id="#b7715eff">
<path fill="#b7715e" opacity="1.00" d=" M 132.20 113.11 C 137.37 113.10 137.28 120.18 141.10 122.12 C 144.04 122.70 144.25 118.93 145.14 117.04 C 145.64 117.36 146.64 118.01 147.14 118.34 C 145.77 122.18 144.43 126.04 143.19 129.94 C 142.18 132.44 141.16 134.96 139.64 137.20 C 138.53 135.40 140.83 133.14 140.99 131.14 C 138.56 127.02 133.74 125.23 130.13 122.35 C 131.56 119.42 129.15 115.36 132.20 113.11 Z" />
<path fill="#b7715e" opacity="1.00" d=" M 217.03 128.09 C 219.33 125.54 223.33 125.84 226.09 127.44 L 226.25 128.18 C 226.07 138.66 226.41 149.14 226.14 159.62 C 223.11 158.83 219.98 158.83 217.04 159.97 C 216.98 152.26 216.97 144.56 217.04 136.86 C 217.14 134.22 217.14 131.57 217.04 128.93 L 217.03 128.09 Z" />
<path fill="#b7715e" opacity="1.00" d=" M 345.97 188.98 C 352.25 189.71 358.58 190.24 364.80 191.41 C 364.94 191.84 365.20 192.70 365.33 193.13 C 364.51 195.65 363.37 198.04 362.16 200.39 C 357.93 196.13 352.29 193.53 346.24 193.60 C 345.96 192.07 345.93 190.52 345.97 188.98 Z" />
<path fill="#b7715e" opacity="1.00" d=" M 208.14 220.18 C 212.37 216.80 214.64 211.69 216.67 206.81 C 216.97 213.16 217.29 219.55 216.83 225.90 C 216.46 229.14 212.83 230.64 209.94 230.66 C 198.96 230.69 187.98 230.67 177.00 230.65 C 174.54 230.69 171.86 230.31 169.73 231.84 C 167.42 231.57 165.18 230.94 163.00 230.18 C 161.93 229.10 160.89 228.02 159.79 226.98 C 170.42 226.16 181.10 226.97 191.74 226.57 C 197.68 226.13 203.64 224.20 208.14 220.18 Z" />
<path fill="#b7715e" opacity="1.00" d=" M 117.96 234.20 C 115.33 233.89 112.39 231.49 112.60 228.71 C 115.07 230.02 117.36 231.63 119.84 232.92 C 120.96 231.61 121.90 230.16 122.89 228.74 C 125.88 228.59 128.91 228.57 131.87 229.17 C 132.08 231.14 130.11 232.26 129.64 234.01 C 129.65 236.24 132.06 235.98 133.62 236.42 C 138.40 237.17 143.18 238.80 146.81 242.11 C 146.97 242.69 147.28 243.87 147.44 244.45 C 147.89 244.79 148.80 245.46 149.25 245.80 C 148.67 246.86 148.11 247.93 147.58 249.02 C 146.94 250.66 146.96 252.45 146.77 254.19 C 142.69 256.89 137.63 256.29 132.99 256.39 C 126.64 256.40 119.74 256.37 114.29 252.66 C 113.35 249.99 116.57 248.93 117.88 247.19 C 115.00 244.70 110.47 246.78 107.26 244.79 C 106.25 244.12 105.93 242.69 106.79 241.77 C 109.22 240.35 112.14 240.07 114.53 238.58 C 114.64 238.00 114.86 236.84 114.97 236.26 C 115.97 235.56 116.98 234.90 117.96 234.20 Z" />
<path fill="#b7715e" opacity="1.00" d=" M 335.08 235.75 C 334.57 233.65 337.25 232.71 338.88 232.66 C 340.39 233.91 341.19 235.87 342.91 236.91 C 343.07 235.58 343.21 234.25 343.35 232.91 C 345.75 232.59 348.01 233.41 349.36 235.47 C 345.67 239.19 338.98 239.12 335.08 235.75 Z" />
</g>
<g id="#bfe4e8ff">
<path fill="#bfe4e8" opacity="1.00" d=" M 148.36 113.19 C 149.64 114.07 150.84 115.05 152.10 115.96 C 151.67 119.73 150.84 123.44 149.55 127.01 C 148.95 128.63 148.37 130.25 147.75 131.87 C 146.23 131.22 144.71 130.57 143.19 129.94 C 144.43 126.04 145.77 122.18 147.14 118.34 C 147.76 116.68 148.02 114.92 148.36 113.19 Z" />
</g>
<g id="#e2f3f8ff">
<path fill="#e2f3f8" opacity="1.00" d=" M 184.99 117.98 C 189.57 116.66 193.94 114.59 198.60 113.55 C 198.93 113.90 199.58 114.62 199.91 114.98 C 199.73 116.47 199.67 117.98 199.46 119.48 C 194.27 120.58 189.08 121.70 183.90 122.84 C 185.40 122.07 186.81 121.15 188.05 120.01 C 185.01 120.02 182.03 120.64 179.03 120.95 C 180.36 119.10 183.01 118.90 184.99 117.98 Z" />
</g>
<g id="#f7f7f7ff">
<path fill="#f7f7f7" opacity="1.00" d=" M 303.18 116.75 C 302.15 115.25 303.99 114.52 304.97 113.85 C 309.47 116.12 313.76 119.02 318.74 120.14 C 319.93 120.69 321.11 121.27 322.28 121.86 C 326.16 125.62 328.67 130.58 330.26 135.69 C 332.23 140.76 334.81 145.73 337.90 150.19 C 343.06 150.73 348.04 152.32 353.22 152.79 C 357.82 153.24 362.28 154.68 366.91 154.93 C 367.25 155.42 367.91 156.40 368.25 156.89 C 368.05 158.40 367.97 159.99 367.06 161.29 C 362.66 161.07 358.24 161.18 353.92 160.20 C 348.28 159.88 342.61 159.97 336.97 160.14 C 336.85 161.54 337.40 162.85 337.89 164.13 C 338.25 166.78 338.78 169.41 338.95 172.08 C 337.02 172.10 335.49 170.45 333.51 170.55 C 330.82 170.56 327.76 170.05 326.75 167.15 C 322.55 157.94 319.34 148.26 315.03 139.11 C 315.82 145.17 319.71 150.24 321.06 156.15 C 321.91 161.31 325.59 165.35 326.54 170.50 C 331.07 170.11 335.11 172.29 339.49 172.80 C 339.74 169.67 339.91 166.01 343.18 164.47 C 345.08 164.67 347.24 164.87 348.47 166.55 C 350.28 168.36 349.72 171.13 350.24 173.42 C 355.64 173.57 360.73 175.50 366.07 176.03 C 367.06 176.48 368.05 176.93 369.05 177.38 C 368.86 178.91 368.57 180.43 368.37 181.96 C 361.51 180.55 354.35 181.51 347.38 181.38 C 345.99 183.64 346.09 186.41 345.97 188.98 C 345.93 190.52 345.96 192.07 346.24 193.60 C 352.29 193.53 357.93 196.13 362.16 200.39 C 361.90 200.89 361.38 201.88 361.11 202.37 C 357.33 199.55 353.08 197.00 348.19 197.01 C 349.78 201.18 352.12 205.22 351.91 209.84 C 351.00 212.71 351.85 215.82 350.76 218.65 C 349.80 221.76 347.67 224.27 346.10 227.06 C 347.39 229.38 350.73 229.46 352.20 231.79 C 352.28 232.44 352.45 233.75 352.53 234.41 C 353.30 235.05 354.06 235.69 354.84 236.33 C 355.65 239.43 354.72 242.94 352.22 245.01 C 352.08 242.08 352.21 239.14 352.09 236.22 C 346.39 240.86 337.48 241.13 332.06 235.89 C 331.74 233.73 332.29 231.44 334.19 230.16 C 335.70 228.45 337.97 229.49 339.88 229.61 C 340.00 228.52 340.01 227.45 339.90 226.37 C 339.55 226.01 338.85 225.30 338.51 224.94 C 333.11 220.88 326.68 218.07 322.20 212.85 C 320.92 211.54 321.19 209.58 320.86 207.93 C 326.87 207.06 333.32 209.16 339.05 206.94 C 337.33 203.67 336.22 200.16 336.91 196.43 C 334.63 196.80 332.33 197.14 330.01 197.04 C 318.65 196.83 307.29 197.15 295.95 196.90 C 295.85 195.68 296.18 194.57 296.93 193.60 C 300.02 193.71 303.12 193.71 306.23 193.78 C 310.05 193.93 313.87 194.08 317.70 193.95 C 317.21 191.03 316.26 188.18 316.09 185.21 C 321.73 184.78 327.34 184.36 332.99 184.94 C 336.10 185.44 340.95 183.26 342.60 186.91 C 342.95 185.27 343.28 182.98 341.96 181.76 C 335.78 181.50 329.55 182.28 323.39 181.53 C 318.19 179.76 315.73 174.36 312.96 170.05 C 308.91 164.07 304.98 158.01 301.03 151.97 C 297.73 146.54 293.97 140.64 295.07 133.96 C 295.89 128.46 296.79 121.40 302.16 118.51 C 308.73 120.38 314.90 124.35 321.96 123.98 L 321.70 123.13 C 315.03 122.87 308.86 120.03 303.18 116.75 M 322.17 136.46 C 321.52 137.65 321.52 138.87 322.19 140.14 C 321.74 141.12 321.35 142.12 321.04 143.14 C 323.41 143.54 326.24 141.50 325.99 138.98 C 325.53 139.04 324.61 139.16 324.15 139.22 C 323.84 138.25 323.43 136.45 322.17 136.46 M 344.23 230.13 C 343.86 231.03 343.57 231.96 343.35 232.91 C 343.21 234.25 343.07 235.58 342.91 236.91 C 341.19 235.87 340.39 233.91 338.88 232.66 C 337.25 232.71 334.57 233.65 335.08 235.75 C 338.98 239.12 345.67 239.19 349.36 235.47 L 349.86 235.93 C 350.72 232.59 347.55 229.46 344.23 230.13 Z" />
</g>
<g id="#e0a469ff">
<path fill="#e0a469" opacity="1.00" d=" M 152.10 115.96 C 155.87 115.89 159.49 117.03 163.12 117.91 C 167.12 119.31 171.12 120.74 175.01 122.45 C 176.57 123.30 178.14 124.15 179.71 124.99 C 184.35 127.65 188.62 130.86 192.82 134.14 C 198.14 139.23 202.70 145.03 206.89 151.07 C 210.30 157.78 213.45 164.75 214.89 172.19 C 215.45 174.90 216.08 177.59 216.82 180.26 C 217.68 189.08 218.42 198.05 216.67 206.81 C 214.64 211.69 212.37 216.80 208.14 220.18 C 205.01 213.57 201.96 205.27 194.18 203.05 C 193.59 202.90 192.42 202.60 191.84 202.45 C 192.59 202.34 194.10 202.12 194.85 202.01 C 195.32 197.71 194.45 193.43 193.70 189.22 C 191.51 178.46 187.78 168.01 182.65 158.31 C 180.05 152.61 171.81 151.17 167.03 155.01 C 164.62 156.97 161.09 159.26 161.54 162.82 C 158.87 164.04 157.89 167.00 156.25 169.23 C 153.37 173.35 150.33 177.37 147.65 181.63 C 145.16 185.52 141.87 188.92 140.09 193.26 C 138.95 194.18 137.80 195.09 136.64 196.00 C 136.27 196.10 135.52 196.32 135.15 196.42 C 132.50 196.27 129.41 196.71 127.36 194.63 C 123.36 190.83 120.75 185.87 117.39 181.54 C 115.29 178.35 112.42 175.57 111.42 171.77 C 112.94 172.82 114.48 173.90 115.65 175.37 C 119.23 179.76 123.16 183.86 127.20 187.84 C 128.69 189.77 131.70 188.35 132.24 186.30 C 138.75 170.79 144.67 155.03 150.10 139.11 C 151.78 133.73 154.01 128.22 158.86 124.94 C 155.85 124.79 153.36 126.44 150.85 127.83 C 150.53 127.63 149.87 127.21 149.55 127.01 C 150.84 123.44 151.67 119.73 152.10 115.96 Z" />
<path fill="#e0a469" opacity="1.00" d=" M 115.43 135.16 C 115.78 135.00 116.48 134.69 116.83 134.53 C 120.25 136.69 123.40 139.67 127.64 140.02 C 129.54 141.91 131.02 144.21 133.11 145.91 C 135.31 145.48 136.96 143.52 139.09 142.72 C 139.54 142.86 140.46 143.14 140.91 143.28 C 141.38 143.55 142.30 144.09 142.77 144.36 C 141.43 150.48 138.88 156.27 137.07 162.26 C 136.10 162.45 135.12 162.59 134.14 162.70 C 130.97 160.60 128.43 157.71 126.59 154.40 C 122.52 148.19 119.36 141.45 115.43 135.16 Z" />
</g>
<g id="#b7725fff">
<path fill="#b7725f" opacity="1.00" d=" M 105.02 118.10 C 105.44 118.13 106.28 118.19 106.70 118.22 C 107.02 123.06 110.79 126.49 112.69 130.67 C 112.56 130.98 112.29 131.59 112.16 131.90 L 111.17 131.92 C 108.50 129.10 105.13 126.63 103.78 122.86 C 103.67 121.18 104.49 119.64 105.02 118.10 Z" />
</g>
<g id="#9db4b7ff">
<path fill="#9db4b7" opacity="1.00" d=" M 318.74 120.14 C 319.43 119.26 320.12 118.39 320.83 117.53 C 321.31 117.96 322.26 118.82 322.74 119.26 C 322.62 120.13 322.46 121.00 322.28 121.86 C 321.11 121.27 319.93 120.69 318.74 120.14 Z" />
</g>
<g id="#9bcff9ff">
<path fill="#9bcff9" opacity="1.00" d=" M 226.09 127.44 C 242.69 126.76 259.32 126.92 275.92 127.15 C 276.40 127.42 277.37 127.98 277.85 128.25 C 278.25 131.13 278.34 134.05 279.02 136.88 C 274.33 136.94 269.60 136.24 264.94 136.97 C 264.68 138.59 264.83 140.24 264.90 141.87 C 264.80 223.58 264.82 305.29 264.88 386.99 C 264.83 388.35 264.84 389.70 264.92 391.07 C 267.66 391.40 270.43 391.42 273.19 391.40 C 270.43 391.65 267.66 391.66 264.90 391.90 C 264.65 393.29 264.65 394.68 264.89 396.07 C 299.83 395.96 334.79 390.50 368.11 379.99 C 402.03 368.64 435.41 351.64 458.94 324.01 C 470.73 309.95 479.20 292.63 480.69 274.19 C 480.64 273.58 480.52 272.36 480.47 271.76 C 480.56 265.50 481.12 259.20 480.11 252.98 C 477.50 234.76 468.18 218.06 455.85 204.61 C 456.18 201.73 457.63 198.68 456.49 195.87 C 456.73 192.17 457.33 188.50 458.02 184.86 C 459.33 184.92 460.24 186.03 461.27 186.73 C 475.82 198.63 488.55 213.12 496.79 230.13 C 504.15 245.53 507.43 263.09 504.87 280.05 C 502.29 298.68 493.28 315.96 481.28 330.27 C 468.11 345.98 451.58 358.57 433.93 368.85 C 395.79 390.75 352.58 402.60 309.11 407.78 C 294.13 409.45 279.08 410.61 264.00 410.45 C 250.64 410.39 237.27 410.75 223.94 409.75 C 194.92 407.88 166.05 403.05 138.16 394.76 C 110.09 386.28 82.85 374.24 58.99 357.05 C 39.12 342.60 21.32 324.04 11.96 301.00 C 3.75 281.36 3.35 258.65 10.73 238.70 C 17.70 219.95 30.33 203.60 45.47 190.71 C 46.85 193.28 46.02 196.32 46.64 199.09 C 47.17 203.76 47.60 208.44 48.73 213.02 C 32.84 232.17 26.56 258.66 31.89 282.95 C 33.23 292.32 37.25 301.07 41.79 309.29 C 53.78 329.75 72.50 345.33 92.60 357.44 C 115.67 371.23 141.21 380.43 167.26 386.71 C 192.42 392.59 218.20 395.81 244.03 396.14 C 245.63 396.15 247.24 396.11 248.83 395.91 C 248.91 394.55 248.94 393.18 248.90 391.82 C 248.53 306.95 249.06 222.04 248.65 137.17 C 246.52 136.42 244.24 136.66 242.04 136.77 C 236.92 137.15 231.79 136.91 226.67 137.15 C 226.42 134.18 227.18 131.05 226.25 128.18 L 226.09 127.44 Z" />
</g>
<g id="#925945ff">
<path fill="#925945" opacity="1.00" d=" M 226.25 128.18 C 227.18 131.05 226.42 134.18 226.67 137.15 C 226.60 168.78 226.63 200.40 226.67 232.03 C 226.87 236.02 224.05 239.96 220.39 241.38 C 212.94 242.26 205.37 241.10 197.90 242.01 C 197.44 240.73 197.50 239.38 197.45 238.05 C 195.13 236.85 192.49 236.59 189.97 236.08 C 183.17 234.93 176.50 233.12 169.73 231.84 C 171.86 230.31 174.54 230.69 177.00 230.65 C 187.98 230.67 198.96 230.69 209.94 230.66 C 212.83 230.64 216.46 229.14 216.83 225.90 C 217.29 219.55 216.97 213.16 216.67 206.81 C 218.42 198.05 217.68 189.08 216.82 180.26 C 217.19 173.50 216.90 166.73 217.04 159.97 C 219.98 158.83 223.11 158.83 226.14 159.62 C 226.41 149.14 226.07 138.66 226.25 128.18 Z" />
</g>
<g id="#6b7a8cff">
<path fill="#6b7a8c" opacity="1.00" d=" M 192.82 134.14 C 200.67 131.56 208.79 129.59 217.04 128.93 C 217.14 131.57 217.14 134.22 217.04 136.86 C 213.75 137.12 210.40 137.22 207.23 138.19 C 206.49 142.44 206.97 146.78 206.89 151.07 C 202.70 145.03 198.14 139.23 192.82 134.14 Z" />
<path fill="#6b7a8c" opacity="1.00" d=" M 110.71 172.31 L 111.42 171.77 C 112.42 175.57 115.29 178.35 117.39 181.54 C 120.75 185.87 123.36 190.83 127.36 194.63 C 129.41 196.71 132.50 196.27 135.15 196.42 C 132.30 198.98 127.97 198.09 125.12 196.01 C 123.51 191.36 119.81 187.91 117.33 183.76 C 115.07 179.98 111.65 176.75 110.71 172.31 Z" />
<path fill="#6b7a8c" opacity="1.00" d=" M 67.20 248.96 C 67.99 247.14 69.46 245.72 71.01 244.52 C 75.42 246.24 78.18 250.37 81.86 253.18 C 110.66 276.61 146.62 289.44 182.76 296.21 C 186.64 296.79 190.54 298.06 194.50 297.66 C 197.02 292.94 198.82 287.88 201.02 283.02 C 205.87 271.37 211.28 259.97 215.91 248.24 L 216.63 248.42 C 216.88 252.26 217.07 256.36 215.01 259.79 C 214.22 261.39 213.52 263.03 212.91 264.71 C 212.22 266.44 211.51 268.16 210.75 269.86 C 208.94 273.34 206.81 276.92 206.84 280.98 C 206.69 294.38 206.79 307.79 206.79 321.20 C 206.52 320.14 206.32 319.07 206.21 317.99 C 206.05 305.71 206.60 293.41 205.93 281.15 C 202.09 281.94 202.03 286.52 200.30 289.31 C 197.21 294.66 197.08 301.48 193.03 306.23 C 191.67 305.84 190.31 305.46 188.93 305.18 C 184.39 304.31 179.81 303.69 175.27 302.80 C 168.51 301.20 161.80 299.39 155.01 297.94 C 153.30 297.28 151.58 296.63 149.83 296.08 C 148.58 295.73 147.15 295.01 146.00 295.99 C 143.75 294.05 140.80 292.58 138.17 294.74 C 136.56 293.51 135.12 291.98 133.19 291.23 C 133.36 293.02 133.73 294.79 133.76 296.60 C 132.90 297.48 131.72 298.08 131.07 299.16 C 131.24 300.50 131.59 301.82 131.90 303.14 C 126.85 303.53 122.41 299.58 120.76 295.02 C 121.85 293.87 123.44 292.80 122.96 290.98 C 122.21 290.91 120.73 290.75 119.99 290.68 C 121.63 289.84 124.25 290.18 124.89 288.09 C 124.44 288.04 123.55 287.95 123.10 287.91 C 123.26 287.47 123.59 286.60 123.75 286.16 C 123.18 286.05 122.03 285.84 121.45 285.73 C 102.60 276.60 84.40 265.45 69.83 250.22 C 69.53 250.41 68.95 250.80 68.66 250.99 C 68.17 250.31 67.68 249.64 67.20 248.96 Z" />
<path fill="#6b7a8c" opacity="1.00" d=" M 108.88 300.96 C 113.99 307.63 122.98 309.76 131.01 309.20 C 137.82 309.18 144.70 306.33 148.93 300.90 C 147.74 311.95 146.14 322.95 144.94 334.00 C 144.78 335.54 144.55 337.21 143.37 338.34 C 138.72 343.58 130.94 344.44 124.38 343.50 C 120.02 342.46 114.24 340.98 113.25 335.85 C 111.73 324.23 110.38 312.58 108.88 300.96 Z" />
</g>
<g id="#c88369ff">
<path fill="#c88369" opacity="1.00" d=" M 132.72 135.75 C 133.84 133.93 134.95 131.92 137.06 131.09 C 136.72 133.08 135.99 134.97 135.19 136.81 C 134.57 136.55 133.34 136.02 132.72 135.75 Z" />
</g>
<g id="#f9c690ff">
<path fill="#f9c690" opacity="1.00" d=" M 111.17 131.92 L 112.16 131.90 C 113.74 132.42 114.22 134.16 115.43 135.16 C 119.36 141.45 122.52 148.19 126.59 154.40 C 128.43 157.71 130.97 160.60 134.14 162.70 C 130.08 163.11 127.03 160.10 125.04 156.93 C 124.78 156.41 124.27 155.38 124.02 154.86 C 120.15 146.99 114.83 139.91 111.17 131.92 Z" />
</g>
<g id="#c6baacff">
<path fill="#c6baac" opacity="1.00" d=" M 43.50 136.47 C 44.18 135.59 44.65 133.99 45.99 134.08 C 45.76 137.59 45.51 141.16 46.16 144.65 L 46.82 144.84 C 53.84 141.58 61.55 140.26 68.89 137.91 C 73.20 136.80 77.37 134.95 81.89 134.90 C 84.46 144.60 87.56 154.15 90.20 163.83 C 91.81 168.94 92.85 174.22 94.86 179.20 C 94.79 179.57 94.65 180.30 94.57 180.67 C 93.44 181.22 92.24 181.63 91.05 182.05 C 88.00 182.87 83.64 183.12 83.26 187.09 C 83.16 186.38 82.97 184.97 82.88 184.26 C 78.48 185.17 74.24 186.70 69.91 187.89 C 67.45 188.68 64.69 188.95 62.73 190.80 C 58.50 189.91 58.09 185.38 57.14 181.92 C 54.74 172.51 52.16 163.08 48.94 153.93 C 47.13 154.00 48.62 156.40 48.52 157.47 C 50.48 165.36 53.43 173.00 54.88 181.01 C 53.86 180.76 52.84 180.50 51.83 180.23 C 50.49 179.52 49.16 178.79 47.86 178.04 C 47.47 171.74 44.44 165.98 43.46 159.79 C 43.44 152.02 43.35 144.24 43.50 136.47 Z" />
</g>
<g id="#4caff2ff">
<path fill="#4caff2" opacity="1.00" d=" M 322.17 136.46 C 323.43 136.45 323.84 138.25 324.15 139.22 C 323.93 139.56 323.49 140.24 323.27 140.58 C 323.00 140.47 322.46 140.25 322.19 140.14 C 321.52 138.87 321.52 137.65 322.17 136.46 Z" />
</g>
<g id="#91aabfff">
<path fill="#91aabf" opacity="1.00" d=" M 330.26 135.69 C 338.73 140.10 347.08 145.35 353.22 152.79 C 348.04 152.32 343.06 150.73 337.90 150.19 C 334.81 145.73 332.23 140.76 330.26 135.69 Z" />
<path fill="#91aabf" opacity="1.00" d=" M 315.03 139.11 C 319.34 148.26 322.55 157.94 326.75 167.15 C 327.76 170.05 330.82 170.56 333.51 170.55 C 335.49 170.45 337.02 172.10 338.95 172.08 C 338.78 169.41 338.25 166.78 337.89 164.13 C 339.65 164.22 341.42 164.30 343.18 164.47 C 339.91 166.01 339.74 169.67 339.49 172.80 C 335.11 172.29 331.07 170.11 326.54 170.50 C 325.59 165.35 321.91 161.31 321.06 156.15 C 319.71 150.24 315.82 145.17 315.03 139.11 Z" />
<path fill="#91aabf" opacity="1.00" d=" M 456.49 195.87 C 457.63 198.68 456.18 201.73 455.85 204.61 C 454.81 207.32 453.87 210.07 453.12 212.88 C 451.19 217.20 448.82 221.28 446.89 225.59 C 440.88 233.87 434.87 242.38 426.86 248.86 C 417.29 257.95 406.12 265.19 394.64 271.63 C 390.85 273.73 386.75 275.26 383.15 277.70 C 383.75 277.84 384.96 278.14 385.57 278.29 C 385.87 279.43 384.44 280.19 383.66 280.75 C 380.87 282.46 377.82 279.66 375.00 280.96 C 371.65 282.39 367.66 283.30 365.54 286.54 C 358.49 296.14 353.49 307.19 350.82 318.79 C 348.77 326.27 348.72 334.08 347.87 341.74 C 345.98 344.01 342.74 344.25 340.00 344.13 C 337.99 344.01 335.46 343.47 334.62 341.39 C 334.05 339.33 334.17 337.16 334.09 335.04 C 334.05 326.13 331.83 317.42 329.27 308.94 C 326.46 301.78 323.35 294.44 318.50 288.46 C 311.70 286.04 304.60 283.77 299.13 278.83 C 294.24 274.74 290.17 268.30 291.66 261.72 C 293.09 270.37 300.47 276.41 308.03 279.89 C 323.28 286.89 341.07 287.65 357.14 283.12 C 368.48 279.30 379.75 275.03 390.19 269.11 C 405.29 261.79 419.22 251.95 431.22 240.20 C 436.36 234.76 441.43 229.11 445.15 222.57 C 450.96 214.69 454.19 205.29 456.49 195.87 Z" />
</g>
<g id="#ddc5a4ff">
<path fill="#ddc5a4" opacity="1.00" d=" M 207.23 138.19 C 210.40 137.22 213.75 137.12 217.04 136.86 C 216.97 144.56 216.98 152.26 217.04 159.97 C 216.90 166.73 217.19 173.50 216.82 180.26 C 216.08 177.59 215.45 174.90 214.89 172.19 C 213.45 164.75 210.30 157.78 206.89 151.07 C 206.97 146.78 206.49 142.44 207.23 138.19 Z" />
<path fill="#ddc5a4" opacity="1.00" d=" M 226.67 137.15 C 231.79 136.91 236.92 137.15 242.04 136.77 C 244.24 136.66 246.52 136.42 248.65 137.17 C 249.06 222.04 248.53 306.95 248.90 391.82 C 242.06 391.45 235.14 392.15 228.35 390.76 C 217.72 390.29 207.08 389.54 196.61 387.49 C 191.66 386.67 186.56 386.65 181.74 385.12 C 172.03 383.04 162.10 381.71 152.72 378.21 C 145.70 375.27 138.00 374.32 131.14 370.93 C 125.63 368.11 119.36 367.18 114.03 364.00 C 107.83 360.81 101.72 357.41 95.33 354.61 C 89.97 352.29 86.10 347.64 80.81 345.19 C 77.46 343.72 75.47 340.39 72.19 338.80 C 68.54 336.96 66.14 333.54 63.26 330.77 C 56.02 323.26 47.97 316.12 43.28 306.65 C 40.71 302.49 38.27 298.24 36.14 293.84 C 34.42 290.31 34.76 285.89 31.89 282.95 C 26.56 258.66 32.84 232.17 48.73 213.02 C 50.17 217.58 51.24 222.38 54.01 226.36 C 52.65 228.22 50.92 229.95 50.29 232.22 C 49.82 234.01 51.17 235.44 52.11 236.78 C 46.42 249.85 45.38 264.74 48.49 278.60 C 52.43 294.13 61.06 308.32 72.66 319.34 C 80.86 327.98 90.62 334.94 100.67 341.26 C 120.60 353.14 142.55 361.39 165.01 367.02 C 174.83 369.16 184.63 371.71 194.66 372.59 C 200.46 359.66 205.98 346.59 211.63 333.59 C 213.16 330.11 214.95 326.71 215.94 323.03 C 213.16 321.49 209.85 321.61 206.79 321.20 C 206.79 307.79 206.69 294.38 206.84 280.98 C 206.81 276.92 208.94 273.34 210.75 269.86 C 211.33 271.06 211.89 272.30 212.72 273.38 C 215.54 277.10 222.54 274.66 221.93 269.84 C 222.00 268.57 222.03 267.30 222.01 266.03 C 222.01 264.40 222.02 262.77 221.85 261.15 C 219.73 260.10 217.32 260.03 215.01 259.79 C 217.07 256.36 216.88 252.26 216.63 248.42 L 215.91 248.24 C 210.07 246.99 204.07 246.29 198.37 244.52 C 198.15 244.08 197.72 243.20 197.50 242.75 L 197.90 242.01 C 205.37 241.10 212.94 242.26 220.39 241.38 C 224.05 239.96 226.87 236.02 226.67 232.03 C 226.63 200.40 226.60 168.78 226.67 137.15 M 221.49 290.56 C 220.32 293.13 220.07 296.05 220.20 298.84 C 222.44 299.53 225.14 299.31 226.87 301.17 C 228.78 302.93 230.90 300.38 231.81 298.78 C 232.99 296.50 235.07 293.31 232.77 291.04 C 231.59 291.04 230.43 291.32 229.26 291.37 C 227.09 289.75 223.89 289.37 221.49 290.56 M 221.54 356.57 C 222.08 358.87 220.15 360.93 220.98 363.27 C 221.02 363.92 221.09 365.21 221.13 365.86 C 223.69 366.75 226.48 367.49 229.20 366.98 C 230.94 367.02 229.69 364.18 230.27 363.06 C 230.09 361.05 233.43 360.49 232.57 358.42 C 230.76 355.79 227.82 354.26 224.85 353.32 C 223.02 352.89 220.83 354.63 221.54 356.57 Z" />
<path fill="#ddc5a4" opacity="1.00" d=" M 155.01 297.94 C 161.80 299.39 168.51 301.20 175.27 302.80 C 175.06 305.54 174.93 308.28 174.94 311.03 C 168.25 306.76 160.76 303.55 155.01 297.94 Z" />
<path fill="#ddc5a4" opacity="1.00" d=" M 188.93 305.18 C 190.31 305.46 191.67 305.84 193.03 306.23 C 192.55 309.84 192.70 313.49 192.73 317.13 C 191.48 316.78 190.24 316.44 188.99 316.08 C 188.97 312.45 189.04 308.81 188.93 305.18 Z" />
</g>
<g id="#3172deff">
<path fill="#3172de" opacity="1.00" d=" M 393.64 138.64 C 397.36 137.50 401.21 139.31 403.31 142.44 C 398.99 147.02 393.00 149.48 388.07 153.27 C 387.96 153.96 387.74 155.34 387.63 156.03 C 385.07 154.91 382.25 153.62 379.42 154.52 C 375.77 155.66 372.14 157.04 368.25 156.89 C 367.91 156.40 367.25 155.42 366.91 154.93 C 365.02 152.42 363.42 147.84 367.06 146.09 C 375.89 143.51 384.77 141.07 393.64 138.64 Z" />
<path fill="#3172de" opacity="1.00" d=" M 377.80 162.13 C 380.93 159.76 384.89 160.71 387.75 162.99 C 387.72 167.71 387.62 172.43 387.73 177.15 C 385.84 175.96 384.04 174.58 381.96 173.75 C 379.59 173.56 377.27 174.22 375.03 174.86 C 374.19 171.20 373.29 167.55 372.09 163.99 C 376.02 165.67 380.94 166.85 384.93 164.87 C 383.82 161.92 379.00 164.73 377.80 162.13 Z" />
<path fill="#3172de" opacity="1.00" d=" M 375.29 183.31 C 377.80 182.71 380.25 181.81 382.82 181.46 C 384.37 181.85 385.80 182.59 387.28 183.20 C 388.33 195.42 387.19 207.74 387.86 219.99 C 382.88 218.08 377.64 217.05 372.58 215.41 C 370.31 214.65 367.94 214.28 365.56 214.20 C 363.76 212.46 364.73 209.73 366.04 208.01 C 371.08 200.69 374.49 192.21 375.29 183.31 Z" />
</g>
<g id="#ccd1d4ff">
<path fill="#ccd1d4" opacity="1.00" d=" M 324.15 139.22 C 324.61 139.16 325.53 139.04 325.99 138.98 C 326.24 141.50 323.41 143.54 321.04 143.14 C 321.35 142.12 321.74 141.12 322.19 140.14 C 322.46 140.25 323.00 140.47 323.27 140.58 C 323.49 140.24 323.93 139.56 324.15 139.22 Z" />
</g>
<g id="#e4ecf4ff">
<path fill="#e4ecf4" opacity="1.00" d=" M 280.46 140.96 C 284.72 154.45 289.17 167.89 293.05 181.49 C 290.31 187.14 293.22 193.11 295.96 198.09 C 298.18 201.62 297.20 207.21 301.70 208.95 C 303.84 214.61 305.39 220.48 307.12 226.28 C 306.73 233.49 302.63 239.48 298.29 244.93 C 298.72 245.01 299.60 245.17 300.04 245.25 C 293.83 247.81 290.69 255.32 291.66 261.72 C 290.17 268.30 294.24 274.74 299.13 278.83 C 304.60 283.77 311.70 286.04 318.50 288.46 C 323.35 294.44 326.46 301.78 329.27 308.94 C 329.11 310.32 328.33 311.54 326.95 311.95 C 318.64 316.19 309.10 317.83 301.55 323.53 C 296.01 327.23 291.42 333.10 291.23 340.00 C 291.52 347.05 295.92 353.50 301.82 357.16 C 316.24 366.70 334.59 368.00 351.27 365.31 C 366.78 361.64 381.29 354.72 395.37 347.38 C 408.58 340.13 420.94 331.27 431.73 320.74 C 443.86 308.03 453.97 292.48 456.92 274.90 C 459.79 259.95 456.96 244.25 450.30 230.68 C 449.37 228.85 448.11 227.22 446.89 225.59 C 448.82 221.28 451.19 217.20 453.12 212.88 C 455.95 216.16 459.05 219.47 460.28 223.74 C 461.16 228.34 464.18 232.11 465.63 236.53 C 469.40 245.20 470.56 254.66 471.13 264.01 C 470.31 271.21 470.07 278.56 467.58 285.44 C 466.19 290.52 463.36 295.09 462.28 300.26 C 461.30 303.86 459.14 306.94 456.93 309.89 C 440.41 333.25 415.74 349.36 390.09 361.16 C 355.74 376.40 318.36 384.00 280.99 386.37 C 275.62 386.34 270.20 386.02 264.88 386.99 C 264.82 305.29 264.80 223.58 264.90 141.87 C 270.05 141.11 275.46 142.60 280.46 140.96 Z" />
<path fill="#e4ecf4" opacity="1.00" d=" M 145.25 347.39 C 147.86 348.22 149.72 346.39 151.97 345.64 C 153.92 347.29 156.04 350.14 154.97 352.83 L 154.14 352.83 C 153.04 352.34 151.97 351.82 150.84 351.44 C 149.78 352.01 148.83 352.75 147.80 353.36 C 146.87 353.33 145.95 353.23 145.04 353.07 C 144.36 351.23 144.58 349.19 145.25 347.39 Z" />
</g>
<g id="#ad9e90ff">
<path fill="#ad9e90" opacity="1.00" d=" M 48.52 157.47 C 48.62 156.40 47.13 154.00 48.94 153.93 C 52.16 163.08 54.74 172.51 57.14 181.92 C 56.57 181.69 55.45 181.23 54.88 181.01 C 53.43 173.00 50.48 165.36 48.52 157.47 Z" />
</g>
<g id="#1958a3ff">
<path fill="#1958a3" opacity="1.00" d=" M 402.21 165.25 C 406.85 161.67 411.57 158.18 415.82 154.12 C 416.06 161.32 416.19 168.56 415.81 175.74 C 411.71 179.93 407.02 183.60 402.14 186.84 C 401.98 179.65 401.78 172.42 402.21 165.25 Z" />
</g>
<g id="#faf1e8ff">
<path fill="#faf1e8" opacity="1.00" d=" M 101.20 155.20 C 108.77 154.37 116.42 154.99 124.02 154.86 C 124.27 155.38 124.78 156.41 125.04 156.93 C 124.75 162.25 124.74 167.57 124.96 172.89 C 122.45 170.70 119.90 168.57 117.12 166.75 C 116.27 163.16 114.11 160.04 110.94 158.14 C 111.04 159.78 111.46 161.38 111.89 162.96 C 109.79 161.17 107.49 157.31 104.31 159.16 C 103.48 161.37 102.97 163.99 103.74 166.26 C 105.60 168.76 108.44 170.24 110.71 172.31 C 111.65 176.75 115.07 179.98 117.33 183.76 C 119.81 187.91 123.51 191.36 125.12 196.01 C 124.99 197.86 124.89 199.74 124.46 201.56 C 121.85 202.87 118.81 202.23 116.00 202.37 C 111.07 202.15 106.07 202.83 101.20 201.89 C 100.46 197.30 100.92 192.63 100.82 188.00 C 101.06 177.07 100.32 166.09 101.20 155.20 Z" />
</g>
<g id="#becad5ff">
<path fill="#becad5" opacity="1.00" d=" M 336.97 160.14 C 342.61 159.97 348.28 159.88 353.92 160.20 C 358.24 161.18 362.66 161.07 367.06 161.29 C 367.13 161.73 367.27 162.63 367.33 163.07 C 365.77 164.27 363.78 163.90 361.96 164.01 C 361.46 164.03 360.47 164.06 359.98 164.07 C 360.05 166.60 362.07 168.60 362.91 170.93 C 363.65 171.84 363.54 173.91 365.04 173.87 C 365.11 173.37 365.26 172.37 365.34 171.87 C 365.74 173.22 365.97 174.62 366.07 176.03 C 360.73 175.50 355.64 173.57 350.24 173.42 C 349.72 171.13 350.28 168.36 348.47 166.55 C 347.24 164.87 345.08 164.67 343.18 164.47 C 341.42 164.30 339.65 164.22 337.89 164.13 C 337.40 162.85 336.85 161.54 336.97 160.14 Z" />
</g>
<g id="#b79e83ff">
<path fill="#b79e83" opacity="1.00" d=" M 156.25 169.23 C 157.89 167.00 158.87 164.04 161.54 162.82 C 167.55 171.11 172.72 180.21 175.96 189.95 C 164.01 191.09 152.08 192.70 140.09 193.26 C 141.87 188.92 145.16 185.52 147.65 181.63 C 150.33 177.37 153.37 173.35 156.25 169.23 Z" />
<path fill="#b79e83" opacity="1.00" d=" M 52.11 236.78 C 53.36 238.02 54.61 239.28 55.71 240.66 C 54.17 243.53 54.96 246.90 54.80 250.00 C 55.06 258.57 54.33 267.19 55.16 275.73 C 58.72 278.93 66.07 279.23 68.55 274.59 C 69.13 266.76 68.82 258.84 68.66 250.99 C 68.95 250.80 69.53 250.41 69.83 250.22 C 84.40 265.45 102.60 276.60 121.45 285.73 C 117.28 287.52 112.52 288.89 109.79 292.82 C 107.97 295.16 108.24 298.25 108.88 300.96 C 110.38 312.58 111.73 324.23 113.25 335.85 C 114.24 340.98 120.02 342.46 124.38 343.50 C 130.94 344.44 138.72 343.58 143.37 338.34 C 144.55 337.21 144.78 335.54 144.94 334.00 C 146.14 322.95 147.74 311.95 148.93 300.90 C 149.22 299.29 149.52 297.68 149.83 296.08 C 151.58 296.63 153.30 297.28 155.01 297.94 C 160.76 303.55 168.25 306.76 174.94 311.03 C 175.16 328.01 174.81 345.01 175.09 361.99 C 174.92 364.65 177.79 365.90 180.01 366.08 C 182.59 366.29 185.50 366.36 187.67 364.74 C 189.19 363.70 188.85 361.64 189.02 360.06 C 188.99 345.40 189.01 330.74 188.99 316.08 C 190.24 316.44 191.48 316.78 192.73 317.13 C 192.96 320.95 192.39 324.88 193.35 328.64 C 197.01 331.48 202.91 331.66 206.25 328.29 C 207.16 326.06 206.84 323.55 206.79 321.20 C 209.85 321.61 213.16 321.49 215.94 323.03 C 214.95 326.71 213.16 330.11 211.63 333.59 C 205.98 346.59 200.46 359.66 194.66 372.59 C 184.63 371.71 174.83 369.16 165.01 367.02 C 142.55 361.39 120.60 353.14 100.67 341.26 C 90.62 334.94 80.86 327.98 72.66 319.34 C 61.06 308.32 52.43 294.13 48.49 278.60 C 45.38 264.74 46.42 249.85 52.11 236.78 M 75.01 306.88 C 74.13 308.45 72.92 311.83 75.34 312.53 C 77.64 312.39 79.85 313.08 82.13 313.25 C 85.68 313.29 85.09 308.47 84.93 306.07 C 83.02 305.36 80.63 305.36 79.44 303.44 C 77.59 302.60 75.29 305.09 75.01 306.88 M 145.25 347.39 C 144.58 349.19 144.36 351.23 145.04 353.07 C 145.19 354.94 147.19 358.32 149.26 356.33 C 150.73 354.88 153.31 354.92 154.14 352.83 L 154.97 352.83 C 156.04 350.14 153.92 347.29 151.97 345.64 C 149.72 346.39 147.86 348.22 145.25 347.39 Z" />
<path fill="#b79e83" opacity="1.00" d=" M 133.19 291.23 C 135.12 291.98 136.56 293.51 138.17 294.74 C 140.80 292.58 143.75 294.05 146.00 295.99 C 145.91 297.93 146.49 300.35 144.77 301.79 C 141.65 304.81 137.46 306.84 133.09 307.09 C 132.71 305.77 132.32 304.45 131.90 303.14 C 131.59 301.82 131.24 300.50 131.07 299.16 C 131.72 298.08 132.90 297.48 133.76 296.60 C 133.73 294.79 133.36 293.02 133.19 291.23 Z" />
</g>
<g id="#9cb3c5ff">
<path fill="#9cb3c5" opacity="1.00" d=" M 359.98 164.07 C 360.47 164.06 361.46 164.03 361.96 164.01 C 363.20 166.58 364.35 169.20 365.34 171.87 C 365.26 172.37 365.11 173.37 365.04 173.87 C 363.54 173.91 363.65 171.84 362.91 170.93 C 362.07 168.60 360.05 166.60 359.98 164.07 Z" />
</g>
<g id="#c1cad2ff">
<path fill="#c1cad2" opacity="1.00" d=" M 347.38 181.38 C 354.35 181.51 361.51 180.55 368.37 181.96 C 368.53 182.43 368.83 183.36 368.98 183.82 C 364.90 184.65 366.65 190.15 365.33 193.13 C 365.20 192.70 364.94 191.84 364.80 191.41 C 358.58 190.24 352.25 189.71 345.97 188.98 C 346.09 186.41 345.99 183.64 347.38 181.38 Z" />
</g>
<g id="#a49485ff">
<path fill="#a49485" opacity="1.00" d=" M 69.91 187.89 C 74.24 186.70 78.48 185.17 82.88 184.26 C 82.97 184.97 83.16 186.38 83.26 187.09 C 82.65 189.94 79.90 191.47 77.34 192.29 C 72.51 193.68 67.18 193.18 62.73 190.80 C 64.69 188.95 67.45 188.68 69.91 187.89 Z" />
</g>
<g id="#6c7b8dff">
<path fill="#6c7b8d" opacity="1.00" d=" M 46.64 199.09 C 46.68 197.92 47.03 196.91 47.69 196.04 C 48.26 206.23 52.31 215.79 57.03 224.70 C 56.02 225.25 55.01 225.80 54.01 226.36 C 51.24 222.38 50.17 217.58 48.73 213.02 C 47.60 208.44 47.17 203.76 46.64 199.09 Z" />
</g>
<g id="#d0e8f9ff">
<path fill="#d0e8f9" opacity="1.00" d=" M 437.00 215.01 C 440.16 209.39 440.81 202.67 443.85 197.06 C 444.23 202.36 443.99 207.69 444.04 213.00 C 444.13 216.20 443.45 219.65 445.15 222.57 C 441.43 229.11 436.36 234.76 431.22 240.20 C 419.22 251.95 405.29 261.79 390.19 269.11 C 390.06 266.52 389.59 263.88 390.26 261.34 C 393.12 258.68 396.88 257.30 399.99 254.98 C 403.80 252.15 407.70 249.41 411.27 246.27 C 422.08 237.98 430.50 226.90 437.00 215.01 Z" />
</g>
<g id="#c8bcaeff">
<path fill="#c8bcae" opacity="1.00" d=" M 91.57 199.93 C 91.68 201.24 91.58 202.61 90.86 203.75 C 77.98 204.24 65.04 204.02 52.15 203.87 C 52.11 203.16 52.04 201.74 52.01 201.03 C 63.01 201.17 74.01 201.00 85.00 201.12 C 87.23 201.08 89.69 201.40 91.57 199.93 Z" />
</g>
<g id="#39302dff">
<path fill="#39302d" opacity="1.00" d=" M 157.43 203.40 C 159.60 203.27 162.06 201.59 164.06 203.01 L 163.71 203.66 C 156.37 205.14 149.14 207.15 141.88 209.00 C 141.59 208.51 140.99 207.51 140.69 207.02 C 141.06 206.67 141.80 205.98 142.18 205.63 C 147.22 204.61 152.34 204.07 157.43 203.40 Z" />
</g>
<g id="#382f2bff">
<path fill="#382f2b" opacity="1.00" d=" M 194.18 203.05 C 201.96 205.27 205.01 213.57 208.14 220.18 C 203.64 224.20 197.68 226.13 191.74 226.57 C 181.10 226.97 170.42 226.16 159.79 226.98 C 155.82 225.15 152.84 221.83 149.72 218.87 C 154.98 216.48 160.90 216.81 166.42 215.41 C 174.75 213.24 183.56 211.76 190.83 206.84 C 192.31 205.94 193.20 204.42 194.18 203.05 Z" />
</g>
<g id="#7a97adff">
<path fill="#7a97ad" opacity="1.00" d=" M 301.70 208.95 C 304.42 207.38 308.31 207.48 311.13 208.78 C 310.96 214.64 310.87 220.57 309.35 226.27 C 308.61 226.43 307.87 226.43 307.12 226.28 C 305.39 220.48 303.84 214.61 301.70 208.95 Z" />
</g>
<g id="#bd897eff">
<path fill="#bd897e" opacity="1.00" d=" M 351.91 209.84 C 352.79 210.44 353.54 211.18 354.17 212.05 C 353.74 212.85 352.21 214.71 351.72 212.88 C 351.77 212.12 351.86 210.60 351.91 209.84 Z" />
</g>
<g id="#daf0f6ff">
<path fill="#daf0f6" opacity="1.00" d=" M 57.03 224.70 C 68.59 221.57 80.06 217.87 91.73 215.26 C 93.52 216.72 95.00 218.50 96.54 220.22 C 100.21 224.71 106.38 226.09 110.37 230.20 C 110.66 231.48 110.66 232.80 110.76 234.10 C 109.35 233.36 107.94 232.63 106.50 231.96 C 106.55 232.46 106.66 233.46 106.71 233.96 C 95.05 238.16 82.65 240.27 71.01 244.52 C 69.46 245.72 67.99 247.14 67.20 248.96 C 66.47 249.90 66.43 251.62 65.14 251.96 C 61.84 248.33 58.91 244.38 55.71 240.66 C 54.61 239.28 53.36 238.02 52.11 236.78 C 51.17 235.44 49.82 234.01 50.29 232.22 C 50.92 229.95 52.65 228.22 54.01 226.36 C 55.01 225.80 56.02 225.25 57.03 224.70 Z" />
</g>
<g id="#e5ecf4ff">
<path fill="#e5ecf4" opacity="1.00" d=" M 112.60 228.71 C 113.86 225.46 116.66 221.37 120.65 222.27 C 121.61 224.09 122.02 226.14 122.86 228.01 L 122.89 228.74 C 121.90 230.16 120.96 231.61 119.84 232.92 C 117.36 231.63 115.07 230.02 112.60 228.71 Z" />
</g>
<g id="#bdcad6ff">
<path fill="#bdcad6" opacity="1.00" d=" M 426.86 248.86 C 434.87 242.38 440.88 233.87 446.89 225.59 C 448.11 227.22 449.37 228.85 450.30 230.68 C 456.96 244.25 459.79 259.95 456.92 274.90 C 453.97 292.48 443.86 308.03 431.73 320.74 C 420.94 331.27 408.58 340.13 395.37 347.38 C 381.29 354.72 366.78 361.64 351.27 365.31 C 334.59 368.00 316.24 366.70 301.82 357.16 C 295.92 353.50 291.52 347.05 291.23 340.00 C 291.42 333.10 296.01 327.23 301.55 323.53 C 309.10 317.83 318.64 316.19 326.95 311.95 C 328.33 311.54 329.11 310.32 329.27 308.94 C 331.83 317.42 334.05 326.13 334.09 335.04 C 334.17 337.16 334.05 339.33 334.62 341.39 C 335.46 343.47 337.99 344.01 340.00 344.13 C 342.74 344.25 345.98 344.01 347.87 341.74 C 348.72 334.08 348.77 326.27 350.82 318.79 C 353.49 307.19 358.49 296.14 365.54 286.54 C 367.66 283.30 371.65 282.39 375.00 280.96 C 377.82 279.66 380.87 282.46 383.66 280.75 C 384.44 280.19 385.87 279.43 385.57 278.29 C 384.96 278.14 383.75 277.84 383.15 277.70 C 386.75 275.26 390.85 273.73 394.64 271.63 C 406.12 265.19 417.29 257.95 426.86 248.86 Z" />
</g>
<g id="#f8c794ff">
<path fill="#f8c794" opacity="1.00" d=" M 344.23 230.13 C 347.55 229.46 350.72 232.59 349.86 235.93 L 349.36 235.47 C 348.01 233.41 345.75 232.59 343.35 232.91 C 343.57 231.96 343.86 231.03 344.23 230.13 Z" />
</g>
<g id="#5c6979ff">
<path fill="#5c6979" opacity="1.00" d=" M 54.80 250.00 C 54.96 246.90 54.17 243.53 55.71 240.66 C 58.91 244.38 61.84 248.33 65.14 251.96 C 66.43 251.62 66.47 249.90 67.20 248.96 C 67.68 249.64 68.17 250.31 68.66 250.99 C 68.82 258.84 69.13 266.76 68.55 274.59 C 66.07 279.23 58.72 278.93 55.16 275.73 C 54.33 267.19 55.06 258.57 54.80 250.00 Z" />
<path fill="#5c6979" opacity="1.00" d=" M 200.30 289.31 C 202.03 286.52 202.09 281.94 205.93 281.15 C 206.60 293.41 206.05 305.71 206.21 317.99 C 206.32 319.07 206.52 320.14 206.79 321.20 C 206.84 323.55 207.16 326.06 206.25 328.29 C 202.91 331.66 197.01 331.48 193.35 328.64 C 192.39 324.88 192.96 320.95 192.73 317.13 C 192.70 313.49 192.55 309.84 193.03 306.23 C 197.08 301.48 197.21 294.66 200.30 289.31 Z" />
<path fill="#5c6979" opacity="1.00" d=" M 175.27 302.80 C 179.81 303.69 184.39 304.31 188.93 305.18 C 189.04 308.81 188.97 312.45 188.99 316.08 C 189.01 330.74 188.99 345.40 189.02 360.06 C 188.85 361.64 189.19 363.70 187.67 364.74 C 185.50 366.36 182.59 366.29 180.01 366.08 C 177.79 365.90 174.92 364.65 175.09 361.99 C 174.81 345.01 175.16 328.01 174.94 311.03 C 174.93 308.28 175.06 305.54 175.27 302.80 Z" />
</g>
<g id="#c8d6e2ff">
<path fill="#c8d6e2" opacity="1.00" d=" M 146.81 242.11 C 149.30 241.75 151.79 241.27 154.30 241.17 C 154.41 241.55 154.61 242.30 154.72 242.68 C 164.55 243.58 174.20 246.00 183.63 248.88 C 183.56 248.37 183.41 247.36 183.34 246.86 C 185.59 248.43 188.75 249.37 190.03 251.93 C 187.68 251.70 185.37 251.21 183.03 250.99 C 185.13 253.43 189.92 252.87 190.62 256.84 C 185.07 256.36 179.58 255.25 174.00 255.09 C 179.02 257.39 184.64 258.44 189.89 260.27 C 189.34 261.95 186.42 260.69 184.95 261.25 C 186.42 262.25 188.18 262.58 189.87 263.00 C 188.85 264.22 187.11 263.28 185.82 263.22 C 173.96 260.68 162.06 258.36 150.20 255.84 C 148.90 255.65 147.79 254.97 146.77 254.19 C 146.96 252.45 146.94 250.66 147.58 249.02 C 148.57 249.76 149.70 250.10 150.95 250.02 C 158.64 249.98 166.31 250.84 173.92 251.89 C 171.99 250.45 169.45 250.47 167.23 249.76 C 161.25 248.40 155.39 246.29 149.25 245.80 C 148.80 245.46 147.89 244.79 147.44 244.45 C 147.28 243.87 146.97 242.69 146.81 242.11 Z" />
</g>
<g id="#e5ece8ff">
<path fill="#e5ece8" opacity="1.00" d=" M 332.11 254.98 C 336.54 261.27 346.61 260.55 352.08 256.01 C 352.08 258.55 352.35 261.15 351.72 263.64 C 349.23 265.56 345.92 264.98 343.01 265.10 C 339.80 264.98 336.53 265.38 333.37 264.70 C 331.27 261.92 332.13 258.20 332.11 254.98 Z" />
</g>
<g id="#b8c7d8ff">
<path fill="#b8c7d8" opacity="1.00" d=" M 215.01 259.79 C 217.32 260.03 219.73 260.10 221.85 261.15 C 222.02 262.77 222.01 264.40 222.01 266.03 C 218.97 265.62 215.94 265.16 212.91 264.71 C 213.52 263.03 214.22 261.39 215.01 259.79 Z" />
</g>
<g id="#dcf2f7ff">
<path fill="#dcf2f7" opacity="1.00" d=" M 135.97 272.09 C 144.00 271.38 151.91 269.30 159.92 268.74 C 166.19 271.96 171.84 276.45 177.36 280.83 C 176.65 285.63 170.80 285.27 167.22 286.42 C 159.57 283.24 152.09 279.64 144.42 276.50 C 141.56 275.14 138.62 273.85 135.97 272.09 M 156.10 271.84 C 154.70 273.70 153.54 275.82 152.99 278.10 C 155.35 278.81 157.50 277.63 159.66 276.86 C 160.71 276.19 162.95 276.64 163.06 275.05 C 162.13 273.74 160.68 274.49 159.42 274.61 C 158.43 273.58 158.01 271.16 156.10 271.84 Z" />
</g>
<g id="#636f7dff">
<path fill="#636f7d" opacity="1.00" d=" M 212.72 273.38 C 216.14 273.04 218.56 270.25 221.93 269.84 C 222.54 274.66 215.54 277.10 212.72 273.38 Z" />
</g>
<g id="#c8dfe7ff">
<path fill="#c8dfe7" opacity="1.00" d=" M 156.10 271.84 C 158.01 271.16 158.43 273.58 159.42 274.61 C 160.68 274.49 162.13 273.74 163.06 275.05 C 162.95 276.64 160.71 276.19 159.66 276.86 C 157.50 277.63 155.35 278.81 152.99 278.10 C 153.54 275.82 154.70 273.70 156.10 271.84 Z" />
</g>
<g id="#b79e84ff">
<path fill="#b79e84" opacity="1.00" d=" M 31.89 282.95 C 34.76 285.89 34.42 290.31 36.14 293.84 C 38.27 298.24 40.71 302.49 43.28 306.65 C 47.97 316.12 56.02 323.26 63.26 330.77 C 66.14 333.54 68.54 336.96 72.19 338.80 C 75.47 340.39 77.46 343.72 80.81 345.19 C 86.10 347.64 89.97 352.29 95.33 354.61 C 101.72 357.41 107.83 360.81 114.03 364.00 C 119.36 367.18 125.63 368.11 131.14 370.93 C 138.00 374.32 145.70 375.27 152.72 378.21 C 162.10 381.71 172.03 383.04 181.74 385.12 C 186.56 386.65 191.66 386.67 196.61 387.49 C 207.08 389.54 217.72 390.29 228.35 390.76 C 235.14 392.15 242.06 391.45 248.90 391.82 C 248.94 393.18 248.91 394.55 248.83 395.91 C 247.24 396.11 245.63 396.15 244.03 396.14 C 218.20 395.81 192.42 392.59 167.26 386.71 C 141.21 380.43 115.67 371.23 92.60 357.44 C 72.50 345.33 53.78 329.75 41.79 309.29 C 37.25 301.07 33.23 292.32 31.89 282.95 Z" />
</g>
<g id="#93a9bbff">
<path fill="#93a9bb" opacity="1.00" d=" M 109.79 292.82 C 112.52 288.89 117.28 287.52 121.45 285.73 C 122.03 285.84 123.18 286.05 123.75 286.16 C 123.59 286.60 123.26 287.47 123.10 287.91 C 119.31 288.43 115.56 290.04 113.04 292.99 C 112.08 294.11 111.26 295.80 112.41 297.08 C 112.06 297.66 111.73 298.26 111.44 298.88 C 112.28 301.14 114.03 304.62 116.98 303.35 C 116.93 304.44 117.41 305.18 118.41 305.57 C 122.98 307.66 128.19 307.61 133.09 307.09 C 137.46 306.84 141.65 304.81 144.77 301.79 C 146.49 300.35 145.91 297.93 146.00 295.99 C 147.15 295.01 148.58 295.73 149.83 296.08 C 149.52 297.68 149.22 299.29 148.93 300.90 C 144.70 306.33 137.82 309.18 131.01 309.20 C 122.98 309.76 113.99 307.63 108.88 300.96 C 108.24 298.25 107.97 295.16 109.79 292.82 Z" />
</g>
<g id="#4c5967ff">
<path fill="#4c5967" opacity="1.00" d=" M 113.04 292.99 C 115.56 290.04 119.31 288.43 123.10 287.91 C 123.55 287.95 124.44 288.04 124.89 288.09 C 124.25 290.18 121.63 289.84 119.99 290.68 C 117.96 293.36 115.41 295.55 112.41 297.08 C 111.26 295.80 112.08 294.11 113.04 292.99 Z" />
<path fill="#4c5967" opacity="1.00" d=" M 118.28 295.34 C 118.90 295.26 120.14 295.10 120.76 295.02 C 122.41 299.58 126.85 303.53 131.90 303.14 C 132.32 304.45 132.71 305.77 133.09 307.09 C 128.19 307.61 122.98 307.66 118.41 305.57 C 117.41 305.18 116.93 304.44 116.98 303.35 C 118.24 302.84 119.51 302.37 120.74 301.80 C 120.18 299.56 118.29 297.66 118.28 295.34 Z" />
</g>
<g id="#fefefeff">
<path fill="#fefefe" opacity="1.00" d=" M 221.49 290.56 C 223.89 289.37 227.09 289.75 229.26 291.37 C 230.43 291.32 231.59 291.04 232.77 291.04 C 235.07 293.31 232.99 296.50 231.81 298.78 C 230.90 300.38 228.78 302.93 226.87 301.17 C 225.14 299.31 222.44 299.53 220.20 298.84 C 220.07 296.05 220.32 293.13 221.49 290.56 Z" />
</g>
<g id="#c7d5e2ff">
<path fill="#c7d5e2" opacity="1.00" d=" M 112.41 297.08 C 115.41 295.55 117.96 293.36 119.99 290.68 C 120.73 290.75 122.21 290.91 122.96 290.98 C 123.44 292.80 121.85 293.87 120.76 295.02 C 120.14 295.10 118.90 295.26 118.28 295.34 C 118.29 297.66 120.18 299.56 120.74 301.80 C 119.51 302.37 118.24 302.84 116.98 303.35 C 114.03 304.62 112.28 301.14 111.44 298.88 C 111.73 298.26 112.06 297.66 112.41 297.08 Z" />
</g>
<g id="#c7d5e1ff">
<path fill="#c7d5e1" opacity="1.00" d=" M 75.01 306.88 C 75.29 305.09 77.59 302.60 79.44 303.44 C 80.63 305.36 83.02 305.36 84.93 306.07 C 85.09 308.47 85.68 313.29 82.13 313.25 C 81.66 312.23 81.14 311.24 80.57 310.29 C 78.34 309.72 75.98 309.25 75.01 306.88 Z" />
</g>
<g id="#97abbdff">
<path fill="#97abbd" opacity="1.00" d=" M 75.01 306.88 C 75.98 309.25 78.34 309.72 80.57 310.29 C 81.14 311.24 81.66 312.23 82.13 313.25 C 79.85 313.08 77.64 312.39 75.34 312.53 C 72.92 311.83 74.13 308.45 75.01 306.88 Z" />
</g>
<g id="#98acbdff">
<path fill="#98acbd" opacity="1.00" d=" M 147.80 353.36 C 148.83 352.75 149.78 352.01 150.84 351.44 C 151.97 351.82 153.04 352.34 154.14 352.83 C 153.31 354.92 150.73 354.88 149.26 356.33 C 147.19 358.32 145.19 354.94 145.04 353.07 C 145.95 353.23 146.87 353.33 147.80 353.36 Z" />
</g>
<g id="#f6f9fcff">
<path fill="#f6f9fc" opacity="1.00" d=" M 221.54 356.57 C 220.83 354.63 223.02 352.89 224.85 353.32 C 227.82 354.26 230.76 355.79 232.57 358.42 C 233.43 360.49 230.09 361.05 230.27 363.06 C 229.69 364.18 230.94 367.02 229.20 366.98 C 228.83 364.56 228.25 362.14 226.94 360.04 C 225.12 361.43 223.35 363.00 220.98 363.27 C 220.15 360.93 222.08 358.87 221.54 356.57 Z" />
</g>
<g id="#92aabfff">
<path fill="#92aabf" opacity="1.00" d=" M 220.98 363.27 C 223.35 363.00 225.12 361.43 226.94 360.04 C 228.25 362.14 228.83 364.56 229.20 366.98 C 226.48 367.49 223.69 366.75 221.13 365.86 C 221.09 365.21 221.02 363.92 220.98 363.27 Z" />
</g>
</svg>
