<?xml version="1.0" encoding="utf-8"?>
<!-- Generator: Adobe Illustrator 23.0.0, SVG Export Plug-In . SVG Version: 6.00 Build 0)  -->
<svg version="1.1" xmlns="http://www.w3.org/2000/svg" xmlns:xlink="http://www.w3.org/1999/xlink" x="0px" y="0px"
	 viewBox="0 0 500 500" enable-background="new 0 0 500 500" xml:space="preserve">
<g id="BACKGROUND" display="none">
	<rect display="inline" fill="#DEE0DD" width="500" height="500"/>
</g>
<g id="OBJECTS">
	<path fill="#EFF0F0" d="M400.37,340.1c31.26-17.95,53.65-55.15,61.99-89.41c14.95-61.38-0.79-128.27-41.71-138.5
		c-40.92-10.23-51.15,33.84-122.76,5.51C260.74,103,219.27,73.3,176.92,82.79c-54.79,12.28-32.01,65.23-48.2,103.37
		c-16.84,39.66-102.67,47.46-81.34,104.26c12.72,33.86,57.39,50.77,90.78,50.77c47.21,0,74.76-29.12,129.84-18.89
		c25.7,4.77,47.35,19.22,72.26,25.92C362.48,354.19,382.83,350.18,400.37,340.1z"/>
	<g>
		<path fill="#00B94E" d="M343.98,196.26c0,0-7.32,7.36-11.13,9.14c-3.81,1.78-11.16,7.87-11.16,7.87l2.54,10.4
			c0,0,11.93-5.33,15.99-5.33c4.06,0,8.12-3.04,8.12-3.04S347.5,196.01,343.98,196.26z"/>
		<ellipse fill="#BFC4C4" cx="369.64" cy="371.49" rx="49.09" ry="10.86"/>
		<ellipse fill="#BFC4C4" cx="297.06" cy="370.25" rx="21.09" ry="4.66"/>
		<g>
			<path fill="#B57053" d="M368.67,150.35c0,0,3.66-1.94,8.83-0.22c5.17,1.72,6.89,5.39,7.11,9.69c0.22,4.31,1.29,6.68,2.8,9.05
				s1.72,4.09,1.72,11.42c0,7.32-3.88,9.69-3.45,12.06c0.43,2.37,8.4,5.39,9.69,11.42c1.29,6.03-3.45,7.76-4.09,11.2
				c-0.65,3.45,1.51,6.03,0.43,9.91s-4.74,8.83-12.71,9.26c-7.97,0.43-15.29-13.57-21.33-20.46c-6.03-6.89-10.77-13.79-9.91-20.25
				c0.86-6.46,5.6-6.89,5.6-11.63c0-4.74-4.95-8.4-3.02-13.57c1.94-5.17,3.66-4.74,4.74-9.91
				C356.18,153.15,360.49,150.57,368.67,150.35z"/>
			<path fill="#DA5955" d="M341.15,246.7c0,0-6.73,42.85-5.72,56s15.58,59.34,15.58,59.34s-9.62,5.73-9.85,8.02
				c-0.39,3.93,15.14-3.22,15.64-6.25c0.51-3.03-6.08-45.68-4.65-57.9c0.46-3.89,2.24-13.19,2.75-16.72
				c0.51-3.54,3.92-18.91,3.92-18.91s7.94,34.1,10.97,40.68c3.03,6.57,12.36,23.7,21.31,39.18c2.95,5.1,5.13,11.34,5.13,11.34
				s-0.57,14.14,1.52,14.98c3.53,1.42,4.04-13.15,4.04-14.66c0-1.52-3.49-9.18-7.03-25.86c-3.54-16.68-9.35-24.68-9.85-30.24
				c-0.51-5.56-1.22-47.21-4.3-56.48C377.53,239.93,344.71,238.81,341.15,246.7z"/>
			<path fill="#393762" d="M356.8,363.8c0-0.01,0-0.03,0.01-0.05c-3.11-0.04-5.8-1.72-5.8-1.72s-9.62,5.73-9.85,8.02
				C340.77,373.98,356.29,366.84,356.8,363.8z"/>
			<path fill="#393762" d="M396.23,361.46c0,0-0.57,14.14,1.52,14.98c3.53,1.42,4.04-13.15,4.04-14.66
				C397.56,364.38,396.23,361.46,396.23,361.46z"/>
			<path fill="#E69D35" d="M380.5,248.52c-1.97-10.71-3.28-12.46-3.28-13.78c0-1.31,4.15-20.77,4.15-20.77s9.14-2.82,4.15-15.96
				c-1.39-3.66-13.99-7.22-17.49-7.87c-3.5-0.66-12.25,0.44-12.25,0.44s-10.5,3.94-11.81,5.69c-1.31,1.75,0,8.31,0,11.15
				c0,2.84,0.44,2.84,0,3.94c-0.44,1.09-2.62,3.06-2.41,7.43c0.22,4.37,2.62,8.53,2.84,11.37c0.16,2.12-1.5,8.16-3.27,16.54
				c3.19,1.96,8.71,4.29,17.26,4.67c8.59,0.37,16.76-0.96,22.2-2.17C380.57,248.97,380.54,248.74,380.5,248.52z"/>
			<path fill="#F2957E" d="M360.82,177.57c0,0,0.66,1.97-1.53,7.87c-2.19,5.9-1.75,16.18,0.87,15.31
				c2.62-0.87,7.65-10.71,8.31-15.09c0.66-4.37,1.31-9.84,1.31-9.84L360.82,177.57z"/>
			<path fill="#F6BA99" d="M379.21,169.25c0,0-0.31,0.56-1.28-7.48c-1.09-9.04-7.07-8.68-14.43-9.05c-4.31-0.22-4.46,3.65-5.6,7.97
				c-1.14,4.32-2.15,9.26-2.15,9.26s-1.51,2.8-1.51,4.95c0,2.15,1.47,7.98,3.02,10.56c0.65,1.08,1.72,1.94,4.31,1.94
				c8.83-1.51,14.01-10.19,14.01-10.19s2.5,2.05,5.01-1.59C383.08,171.98,383.08,168.11,379.21,169.25z"/>
			<path fill="#B57053" d="M363.72,157.89c0,0-3.23-1.94-4.95,0.22c-1.72,2.15-1.51,6.25-2.15,7.54c-0.65,1.29-2.59,4.09-2.59,4.09
				s1.29-4.31,0.22-7.76c-1.08-3.45-1.94-8.83,1.51-11.63c3.45-2.8,11.2-1.29,13.79,0.86C372.12,153.37,363.72,157.89,363.72,157.89
				z"/>
			<path fill="#B57053" d="M363.72,157.89c0,0,3.23-0.22,4.74,4.52c1.51,4.74,3.66,11.42,6.89,13.79c3.23,2.37,3.45,3.02,1.94,6.89
				c-1.51,3.88-3.02,5.39-2.15,8.4c0.86,3.02,7.97,3.88,7.97,3.88s-3.02-4.09-1.72-6.89c1.29-2.8,5.6-8.4,4.52-13.14
				c-1.08-4.74-5.6-5.6-5.17-8.83c0.43-3.23,3.66-7.97,1.51-11.85c-2.15-3.88-7.11-2.8-9.48-3.88
				C370.39,149.7,364.79,149.06,363.72,157.89z"/>
			<path fill="#B57053" d="M363.72,157.89c0,0-0.65,5.39,1.94,8.4c2.58,3.02,6.03,2.15,6.03,2.15s-5.39-1.29-5.17-6.46
				c0.22-5.17-1.72-7.11-1.72-7.11L363.72,157.89z"/>
			<path fill="#B57053" d="M362.42,157.67c0,0-1.29-0.65-2.8,1.72c-1.51,2.37-1.72,4.31-2.8,5.6c-1.08,1.29-3.88,1.51-3.88,1.51
				s2.58-0.86,3.23-4.74c0.65-3.88,2.58-6.03,5.17-6.03"/>
			<path fill="#B57053" d="M353.16,155.95c0,0,1.94,4.31,0.22,6.25c-1.72,1.94-4.31,1.94-4.31,1.94s1.51,2.15,3.88,2.37
				c2.37,0.22,4.95-5.17,4.95-5.17"/>
		</g>
		<path fill="#F6BA99" d="M311.96,186.13c0,0-2.18,16.24-1.21,24.72c0.97,8.48,6.79,11.63,9.69,9.45
			c2.91-2.18,2.67-13.81,1.21-21.08c-1.45-7.27-2.67-12.36-3.88-14.54C316.56,182.49,312.93,181.28,311.96,186.13z"/>
		<path fill="#F6BA99" d="M295.9,184.2c0,0,5.87,3.14,9.27,3.63c3.39,0.48,10.42-1.94,10.42-1.94s-2.91-1.94-6.06-1.94
			s-10.42-1.45-11.87-1.45S295.9,184.2,295.9,184.2z"/>
		<g>
			<path fill="#82819C" d="M278.62,259.3v-6.27c0-32.25,40.84-33.65,40.84-56.62c0-9.98-8.12-16.47-20.19-16.47
				c-13.23,0-21.58,7.19-21.58,17.4v2.55c0,2.55-1.39,3.71-3.95,3.71l-24.83-0.93c-2.32,0-3.94-1.16-3.94-2.78v-2.55
				c0-28.08,22.27-47.34,54.99-47.34c32.02,0,52.67,18.1,52.67,45.25c0,38.52-41.54,38.75-41.54,59.87v4.18
				c0,2.55-1.39,3.94-3.95,3.94h-24.6C280.01,263.24,278.62,261.85,278.62,259.3z M276.53,296.66c0-10.21,9.05-18.56,19.95-18.56
				c10.44,0,19.72,8.36,19.72,18.56c0,10.21-9.28,18.56-19.95,18.56C285.35,315.22,276.53,306.87,276.53,296.66z"/>
		</g>
		<g>
			<path fill="#393762" d="M278.62,262.35v-6.27c0-32.25,40.84-33.65,40.84-56.62c0-9.98-8.12-16.47-20.19-16.47
				c-13.23,0-21.58,7.19-21.58,17.4v2.55c0,2.55-1.39,3.71-3.95,3.71l-24.83-0.93c-2.32,0-3.94-1.16-3.94-2.78v-2.55
				c0-28.08,22.27-47.34,54.99-47.34c32.02,0,52.67,18.1,52.67,45.25c0,38.52-41.54,38.75-41.54,59.87v4.18
				c0,2.55-1.39,3.94-3.95,3.94h-24.6C280.01,266.29,278.62,264.9,278.62,262.35z M276.53,299.71c0-10.21,9.05-18.56,19.95-18.56
				c10.44,0,19.72,8.36,19.72,18.56c0,10.21-9.28,18.56-19.95,18.56C285.35,318.27,276.53,309.92,276.53,299.71z"/>
		</g>
		<g>
			<path fill="#F6BA99" d="M385.88,200.4c0,0-1.89-4.31-7.54-2.15c-5.66,2.15-12.93,17.24-19.93,20.2
				c-7,2.96-23.16,10.23-27.47,13.2c-4.31,2.96-23.7,9.16-23.7,9.16l-4.85-1.89c0,0-4.28-1.53-4.45-0.64
				c-0.17,0.91,1.54,2.17,3.4,2.91c-1.44,0.16-1.56,0.19-3,0.35c-1.35,0.15-2.71,0.08-4.06,0.26c-0.5,0.07-1.3,0.1-1.69,0.48
				c-0.48,0.48-0.48,1.33,0.33,1.33c1.35,0,5.18,0.4,5.18,0.4l-5,1.01c-0.54,0.2-0.83,0.77-0.68,1.32c0.15,0.52,0.66,0.85,1.2,0.78
				c0,0,10.38-2.39,2.05,0.53c-1.1,0.38-2,0.66-1.7,1.78c0.46,1.71,5.82-0.75,6.96-1.05c-0.87,0.39-1.73,0.81-2.58,1.25
				c-0.39,0.2-1.54,0.58-1.69,1.02c-0.25,0.72,0.84,1.33,1.45,1.16c0.44-0.13,0.89-0.46,1.29-0.67c1.34-0.69,2.68-1.39,4.03-2.08
				c2.47-1.27,4.93-2.55,7.4-3.82c6.8-1.63,24.17-5.74,30.6-6.6c8.08-1.08,20.47-5.93,24.78-7.81c4.31-1.89,15.08-13.47,18.58-19.12
				C388.31,206.06,385.88,200.4,385.88,200.4z"/>
			<path fill="#E9A94D" d="M384.81,211.72c3.5-5.66,1.08-11.31,1.08-11.31s-1.89-4.31-7.54-2.15c-5.66,2.15-12.93,17.24-19.93,20.2
				c-5.38,2.28-16.17,7.1-22.83,10.55l3.24,10.06c0.99-0.17,1.88-0.32,2.62-0.42c8.08-1.08,20.47-5.93,24.78-7.81
				C370.53,228.95,381.3,217.37,384.81,211.72z"/>
		</g>
		<path fill="#F6BA99" d="M297.56,180.21c0,0-2.89,3.62-1.65,3.98c1.24,0.36,2.69-3.08,2.89-3.8
			C299,179.67,298.38,179.67,297.56,180.21z"/>
		<path fill="#F6BA99" d="M299.84,179.34c0,0-3.39,4.85-1.94,5.33c1.45,0.48,3.15-4.12,3.39-5.09
			C301.54,178.62,300.81,178.62,299.84,179.34z"/>
		<path fill="#F6BA99" d="M301.78,179.59c0,0-3.39,4.85-1.94,5.33c1.45,0.48,3.15-4.12,3.39-5.09
			C303.47,178.86,302.75,178.86,301.78,179.59z"/>
		<path fill="#F6BA99" d="M303.72,180.55c0,0-3.39,4.85-1.94,5.33c1.45,0.48,3.15-4.12,3.39-5.09
			C305.41,179.83,304.69,179.83,303.72,180.55z"/>
	</g>
	<g>
		<ellipse fill="#BFC4C4" cx="217.53" cy="382.82" rx="21.09" ry="4.66"/>
		<g>
			<path fill="#393762" d="M180.68,156.57c0,0-6.77-3.23-14.52,0.32c-7.74,3.55-11.94,12.26-9.03,16.78c2.9,4.52,3.87,9.03,0,10.97
				c-3.87,1.94-12.9,2.26-16.45,9.03c-3.55,6.77,5.16,15.81,5.16,19.68c0,3.87-5.16,3.55-7.42,11.61
				c-2.26,8.07,1.29,16.78,17.42,17.74c16.13,0.97,21.61-12.58,23.23-19.36c1.61-6.77-2.26-17.1,0.97-20
				c3.23-2.9,8.39-6.45,8.71-12.9c0.32-6.45-4.19-17.42-4.52-23.23c-0.32-5.81-0.32-8.07-0.32-8.07l-1.94-1.94L180.68,156.57z"/>
			<path fill="#FFFFFF" d="M192.66,199.52c0,0,1.56-1.22,3.75,2.59c2.19,3.8,7.34,17.84,10.75,22.37
				c3.41,4.53,7.79,10.48,7.79,10.48s-4.73,1.8-7.12,4.67c-2.39,2.87-2.68,4.19-2.68,4.19s-5.74-6.44-9.05-13.89
				c-3.31-7.46-6.41-19.93-7.09-25.15c-0.68-5.21,2.88-5.89,2.88-5.89L192.66,199.52z"/>
			<ellipse fill="#BFC4C4" cx="169.83" cy="374.89" rx="52.66" ry="10.12"/>
			<path fill="#F6BA99" d="M154.56,296.02c0,0,1.21,8.01,0.61,9.02c-0.6,1-8.29,12.75-11.1,20.58c-2.81,7.83-9.39,30.67-10.6,35.69
				c-1.21,5.02-4.42,9.24-3.62,11.45c0.8,2.21,12.05,9.64,13.66,9.44c1.61-0.2,0.8-2.41-0.6-6.03c-1.41-3.62-5.62-8.24-5.22-11.45
				c0.4-3.21,14.26-28.33,19.08-35.16c4.82-6.83,7.43-13.46,9.84-19.08c2.41-5.63,4.42-14.46,4.42-14.46H154.56z"/>
			<path fill="#393762" d="M139.01,369.2l-3.93,1.75l-3.3-4.84c-1.24,2.86-2.45,5.19-1.92,6.65c0.8,2.21,12.05,9.64,13.66,9.44
				c1.61-0.2,0.8-2.41-0.6-6.03C142.08,374.03,140.27,371.54,139.01,369.2z"/>
			<path fill="#F6BA99" d="M184.29,298.02c0,0,1.17,4.25,1.17,10.48c0,6.23,4.25,24.48,4.45,33.12c0.2,8.64,2.21,18.28,1.61,21.9
				c-0.6,3.62-0.4,5.02,0.2,5.22c0.6,0.2,19.08,1,20.29,0c1.21-1,2.41-0.6,1.41-2.01c-1-1.41-15.67-8.04-15.67-9.64
				c0-1.61,0-26.12,0.4-35.96c0.4-9.84,1.41-19.69,0.6-24.11C197.95,292.6,184.29,298.02,184.29,298.02z"/>
			<path fill="#FFFFFF" d="M172.84,196.78c0,0-13.46,2.41-13.66,3.62c-0.2,1.21,2.81,21.9,4.82,27.12c2.01,5.22,1.81,5.22,0.8,10.25
				c-1,5.02-7.03,12.46-9.64,26.32c-2.61,13.86-3.01,33.15-3.01,33.95c0,0.8,8.84,5.02,24.71,4.02c15.87-1,22.9-3.82,23.71-5.22
				c0.8-1.41-4.62-40.58-6.23-47.21c-1.61-6.63-3.42-15.47-2.21-18.68c1.21-3.21,3.62-6.03,3.82-10.45
				c0.2-4.42-3.42-10.85-3.21-13.86c0.2-3.01,2.61-4.22,1.21-6.83c-1.41-2.61-8.04-4.02-11.85-4.02
				C178.27,195.77,172.84,196.78,172.84,196.78z"/>
			<path fill="#336699" d="M178.27,192.56c0,0-5.62,0.6-7.03,2.81c-1.41,2.21,0,12.46,1,14.66s6.23-4.62,8.24-4.62
				c2.01,0,5.42,4.22,6.63,2.61C188.31,206.42,188.11,195.37,178.27,192.56z"/>
			<path fill="#F6BA99" d="M195.34,170.86c0,0,1-8.24-6.03-12.25c-7.03-4.02-14.26-2.01-19.08,3.21c-4.82,5.22-2.41,17.08-0.8,20.09
				c1.61,3.01,5.83,3.82,6.83,5.83c1,2.01,0.4,4.42-0.6,7.43c-1,3.01,3.21,10.25,4.82,10.25s1.61-6.03,2.61-9.44
				c1-3.42,2.01-6.43,2.01-6.43s5.62,2.61,7.63-0.2c2.01-2.81,3.62-9.04,3.62-9.04s2.01-1.21,2.21-2.81
				C198.76,175.88,194.94,171.87,195.34,170.86z"/>
			<path fill="#393762" d="M189.32,158.61c-7.03-4.02-15.12-1.75-19.94,3.47c-0.24,0.26-0.45,0.55-0.66,0.84
				c-4.33,9-1.7,13.95-1.7,13.95c0.41,2.65,1.39,4.15,1.96,5.24c1.24,2.33,4.48,3.14,6.15,4.4c1.7-1.16,1.77-3.07,2.93-5.4
				c1.41-2.81,2.21-4.62,3.21-6.03c1-1.41-3.21-3.62,1.41-9.44c3.14-3.96,7.67-4.11,10.25-3.81
				C192.06,160.64,190.9,159.51,189.32,158.61z"/>
			<path fill="#005D8E" d="M182.47,156.68c0,0-9.56,5.21-6.81,18.97c0,0-6.23-9.85,1.88-18.39
				C177.55,157.26,180.74,155.81,182.47,156.68z"/>
			<path fill="#F6BA99" d="M180.48,178.09c0,0-3.01-5.02-5.83-1.61c-2.81,3.42,1.21,6.63,2.21,7.03c1,0.4,4.62-1.21,4.62-1.21"/>
			<path fill="#336699" d="M192.01,237.72c-2.41,1.02-6.42,2.23-12.74,2.85c-7.73,0.76-12.26-1.04-14.55-2.47
				c-1.2,5.02-7,12.42-9.56,25.97c-2.61,13.86-3.01,33.15-3.01,33.95c0,0.8,8.84,5.02,24.71,4.02c15.87-1,22.9-3.82,23.71-5.22
				c0.8-1.41-4.62-40.58-6.23-47.21C193.43,245.88,192.47,241.45,192.01,237.72z"/>
			<path fill="#336699" d="M216.94,233.84c0,0-2.48-3.32-5.7-2.1c-3.22,1.22-8.09,8.23-7.27,11.54c0.83,3.31,2.58,3.71,4.82,3.56
				c2.24-0.14,9.12-5.79,9.8-8.86C219.28,234.91,216.94,233.84,216.94,233.84z"/>
			<path fill="#F6BA99" d="M231.16,254.02c0,0-11.38-12.19-13.04-14.21c-1.66-2.03-3.6-3.01-6.45-1.45
				c-2.85,1.56-3.99,5.54-1.88,7.92c2.11,2.38,19.18,11.45,19.18,11.45s0.61,3.17,2.92,3.9c2.31,0.73,5.55,0.21,5.55,0.21
				s5.08-2.74,4.73-3.91c-0.34-1.17-0.62-2.67-0.62-2.67l-9.56-0.92L231.16,254.02z"/>
			<path fill="#393762" d="M201.04,359.67l-1.68,5.05l-7.94-0.5c-0.46,3.08-0.25,4.33,0.31,4.51c0.6,0.2,19.08,1,20.29,0
				c1.21-1,2.41-0.6,1.41-2.01C212.72,365.75,205.43,362.25,201.04,359.67z"/>
		</g>
		<g>
			<defs>
				<path id="SVGID_1_" d="M255.97,90.6L135.5,102.55l4.33,94.46c0.03-1.15,0.29-2.27,0.85-3.34c3.55-6.77,12.58-7.1,16.45-9.03
					c3.87-1.94,2.9-6.45,0-10.97c-2.9-4.52,1.29-13.23,9.03-16.78c6.84-3.13,12.91-0.99,14.24-0.44c0.52-0.06,1.05-0.06,1.52,0.04
					c2.42,0.04,4.92,0.69,7.4,2.11c0.41,0.24,0.8,0.49,1.15,0.75c0.21,0.16,0.4,0.32,0.6,0.49c0.12,0.1,0.25,0.2,0.37,0.31
					c0.26,0.23,0.49,0.47,0.71,0.72c0.03,0.03,0.07,0.07,0.1,0.1c3.77,4.23,3.1,9.88,3.1,9.88c-0.4,1,3.42,5.02,3.21,6.63
					c-0.2,1.61-2.21,2.81-2.21,2.81s-1.61,6.23-3.62,9.04c-0.89,1.25-2.49,1.43-4,1.24c-0.14,2.22-0.85,4.1-1.85,5.72
					c1.3,0.26,2.59,0.63,3.72,1.08l10.9,70.82l50.49-5.32l13.29-145.28L255.97,90.6z"/>
			</defs>
			<clipPath id="SVGID_2_">
				<use xlink:href="#SVGID_1_"  overflow="visible"/>
			</clipPath>
			<path clip-path="url(#SVGID_2_)" fill="#EEB3B1" d="M201.31,210.62l-1.6-6.06c-8.22-31.19,30.92-42.94,25.07-65.15
				c-2.54-9.65-12.05-13.86-23.72-10.79c-12.79,3.37-19.04,12.45-16.44,22.33l0.65,2.47c0.65,2.47-0.4,3.95-2.87,4.6l-24.25,5.43
				c-2.24,0.59-4.11-0.12-4.52-1.69l-0.65-2.47c-7.15-27.15,9.48-51.45,41.12-59.78c30.97-8.16,55.55,4.08,62.46,30.34
				c9.81,37.25-30.29,48.05-24.91,68.47l1.06,4.04c0.65,2.47-0.34,4.17-2.81,4.82l-23.79,6.27
				C203.66,214.07,201.96,213.08,201.31,210.62z M208.81,247.27c-2.6-9.87,4.02-20.26,14.57-23.03c10.1-2.66,21.2,3.05,23.8,12.93
				c2.6,9.87-4.25,20.32-14.57,23.03C222.06,262.98,211.41,257.15,208.81,247.27z"/>
			<path clip-path="url(#SVGID_2_)" fill="#DA5955" d="M201.31,212.52l-1.6-6.06c-8.22-31.19,30.92-42.94,25.07-65.15
				c-2.54-9.65-12.05-13.86-23.72-10.79c-12.79,3.37-19.04,12.45-16.44,22.33l0.65,2.47c0.65,2.47-0.4,3.95-2.87,4.6l-24.25,5.43
				c-2.24,0.59-4.11-0.12-4.52-1.69l-0.65-2.47c-7.15-27.15,9.48-51.45,41.12-59.78c30.97-8.16,55.55,4.08,62.46,30.34
				c9.81,37.25-30.29,48.05-24.91,68.47l1.06,4.04c0.65,2.47-0.34,4.17-2.81,4.82l-23.79,6.27
				C203.66,215.98,201.96,214.99,201.31,212.52z M208.81,249.18c-2.6-9.87,4.02-20.26,14.57-23.03c10.1-2.66,21.2,3.05,23.8,12.93
				c2.6,9.87-4.25,20.32-14.57,23.03C222.06,264.88,211.41,259.05,208.81,249.18z"/>
		</g>
		<path fill="#F6BA99" d="M214.93,253.8c0,0,5.52-0.75,7.1-0.75c1.58,0,9.06,1.47,6.7,2.6c-2.36,1.13-5.91,0.01-5.91,0.01
			s2.41,1,3.97,3.11s5.13,3.51,5.13,3.51s-7.52,2.34-11.46,1.97c-3.94-0.37-9.47-7.47-9.47-7.47L214.93,253.8z"/>
		<path fill="#FFFFFF" d="M159.18,200.39c0,0-3.51,2.71,0.02,12.83c3.53,10.12,7.77,20.95,12.24,25.66
			c4.47,4.71,14.83,10.59,14.83,10.59s-0.71-8.24,0-9.65c0.71-1.41,1.88-2.35,1.88-2.35l-0.47-1.65c0,0-5.18-4.94-8.71-10.83
			c-3.53-5.88-8.71-15.3-10.83-20.01C166.03,200.27,162.69,198.63,159.18,200.39z"/>
		<path fill="#336699" d="M194.98,242.87c0,0,0-3.53-2.12-5.18c-2.12-1.65-4.94-3.3-7.06-2.59c-2.12,0.71-5.18,7.06-4.71,10.12
			c0.47,3.06,4.94,5.88,7.06,5.88C190.27,251.11,194.98,242.87,194.98,242.87z"/>
		<path fill="#F6BA99" d="M214.93,253.8c0,0-12.42-7.63-17.83-10.69c-5.41-3.06-7.3-5.41-10.36-1.65c-3.06,3.77-1.88,5.88,3.3,8.71
			c3.52,1.92,20.95,6.61,20.95,6.61L214.93,253.8z"/>
	</g>
</g>
<g id="DESIGNED_BY_FREEPIK">
</g>
</svg>
