<?xml version="1.0"?>
<svg xmlns="http://www.w3.org/2000/svg" height="512px" viewBox="-32 0 512 512.001" width="512px" class=""><g><path d="m448.589844 124.976562-61.628906-61.625-21.210938 21.210938 20.207031 20.207031-28.992187 28.996094 21.210937 21.207031 28.992188-28.992187 20.207031 20.207031zm0 0" fill="#00429b" data-original="#00429B" class="" style="fill:#2291F2" data-old_color="#00429B"/><path d="m448.589844 124.976562-61.628906-61.625-21.210938 21.210938 20.207031 20.207031-28.992187 28.996094 21.210937 21.207031 28.992188-28.992187 20.207031 20.207031zm0 0" fill="#002659" data-original="#002659" class="" style="fill:#2291F2" data-old_color="#002659"/><path d="m165.988281 15v87.882812l111.121094.027344v-87.910156zm0 0" fill="#005fdf" data-original="#005FDF" class="" style="fill:#2291F2" data-old_color="#005FDF"/><path d="m277.109375 15h-55.5625v87.898438l55.5625.011718zm0 0" fill="#00429b" data-original="#00429B" class="" style="fill:#2291F2" data-old_color="#00429B"/><path d="m137.390625 0h168.316406v30h-168.316406zm0 0" fill="#00429b" data-original="#00429B" class="" style="fill:#2291F2" data-old_color="#00429B"/><path d="m221.546875 0h84.160156v30h-84.160156zm0 0" fill="#002659" data-original="#002659" class="" style="fill:#2291F2" data-old_color="#002659"/><path d="m378.207031 133.792969c-41.847656-41.84375-97.480469-64.890625-156.660156-64.890625-59.175781 0-114.8125 23.046875-156.65625 64.890625-41.84375 41.847656-64.890625 97.480469-64.890625 156.660156s23.046875 114.8125 64.890625 156.65625c41.84375 41.847656 97.480469 64.890625 156.65625 64.890625 59.179687 0 114.8125-23.042969 156.660156-64.890625 41.84375-41.84375 64.890625-97.476563 64.890625-156.65625s-23.046875-114.8125-64.890625-156.660156zm0 0" fill="#bce9f8" data-original="#BCE9F8" class="active-path" style="fill:#85DEF2" data-old_color="#BCE9F8"/><path d="m378.207031 133.792969c-41.847656-41.84375-97.480469-64.890625-156.660156-64.890625v443.097656c59.179687 0 114.8125-23.042969 156.660156-64.890625 41.84375-41.84375 64.890625-97.480469 64.890625-156.65625 0-59.179687-23.046875-114.8125-64.890625-156.660156zm0 0" fill="#7ed6f4" data-original="#7ED6F4" class="" style="fill:#35BDF2" data-old_color="#7ED6F4"/><path d="m371.835938 290.453125c0 83-67.285157 150.285156-150.289063 150.285156-83 0-150.285156-67.285156-150.285156-150.285156s67.285156-150.285156 150.285156-150.285156c83.003906 0 150.289063 67.285156 150.289063 150.285156zm0 0" fill="#f3eee9" data-original="#F3EEE9" class=""/><path d="m221.546875 140.167969v300.570312c83.003906 0 150.289063-67.285156 150.289063-150.285156s-67.285157-150.285156-150.289063-150.285156zm0 0" fill="#e9dfda" data-original="#E9DFDA" class=""/><path d="m221.546875 124.496094c-91.507813 0-165.953125 74.449218-165.953125 165.957031s74.445312 165.957031 165.953125 165.957031c91.511719 0 165.957031-74.449218 165.957031-165.957031s-74.445312-165.957031-165.957031-165.957031zm15.671875 299.65625v-31.664063h-31.339844v31.664063c-61.730468-7.1875-110.839844-56.300782-118.03125-118.03125h31.664063v-31.339844h-31.664063c7.1875-61.730469 56.300782-110.839844 118.03125-118.03125v31.664062h31.339844v-31.664062c61.730469 7.191406 110.839844 56.300781 118.03125 118.03125h-31.664062v31.339844h31.664062c-7.191406 61.730468-56.300781 110.84375-118.03125 118.03125zm0 0" fill="#5eccf2" data-original="#5ECCF2" class=""/><path d="m221.546875 124.496094v63.917968h15.671875v-31.660156c61.730469 7.1875 110.839844 56.300782 118.03125 118.03125h-31.664062v31.335938h31.664062c-7.191406 61.730468-56.300781 110.84375-118.03125 118.03125v-31.660156h-15.671875v63.917968c91.511719 0 165.957031-74.449218 165.957031-165.957031s-74.445312-165.957031-165.957031-165.957031zm0 0" fill="#0fa7db" data-original="#0FA7DB" class="" style="fill:#0FA7DB"/><path d="m221.546875 249.027344c-5.808594 0-11.34375 1.207031-16.367187 3.378906l-46.117188-46.117188-22.160156 22.160157 46.316406 46.3125c-1.992188 4.84375-3.097656 10.140625-3.097656 15.6875 0 22.84375 18.585937 41.429687 41.429687 41.429687 22.839844 0 41.425781-18.585937 41.425781-41.429687 0-22.839844-18.585937-41.421875-41.429687-41.421875zm0 0" fill="#005fdf" data-original="#005FDF" class="" style="fill:#2291F2" data-old_color="#005FDF"/><path d="m221.546875 249.027344v82.851562c22.84375 0 41.429687-18.585937 41.429687-41.425781 0-22.84375-18.585937-41.425781-41.429687-41.425781zm0 0" fill="#00429b" data-original="#00429B" class="" style="fill:#2291F2" data-old_color="#00429B"/></g> </svg>
