<?xml version="1.0" encoding="utf-8"?>
<!-- Generator: Adobe Illustrator 23.0.0, SVG Export Plug-In . SVG Version: 6.00 Build 0)  -->
<svg version="1.1" id="Слой_1" xmlns="http://www.w3.org/2000/svg" xmlns:xlink="http://www.w3.org/1999/xlink" x="0px" y="0px"
	 viewBox="0 0 664.75 518.62" enable-background="new 0 0 664.75 518.62" xml:space="preserve">
<g>
	<rect x="-12.79" y="3.63" display="none" fill="#FCFCFC" width="733" height="571.87"/>
	<g>
		<linearGradient id="SVGID_1_" gradientUnits="userSpaceOnUse" x1="316.7384" y1="273.429" x2="498.4395" y2="273.429">
			<stop  offset="0" style="stop-color:#96CBFF"/>
			<stop  offset="1" style="stop-color:#5599FF"/>
		</linearGradient>
		<path fill="url(#SVGID_1_)" d="M479.12,302.25c2.72-6.73,4.42-13.72,5.15-20.76l14.17-5.13l-2.43-16.19l-2.43-16.19l-15.05-0.75
			c-2.77-6.52-6.45-12.7-11.02-18.34l6.39-13.64l-13.16-9.73l-13.16-9.73l-11.16,10.1c-6.73-2.72-13.72-4.42-20.76-5.16l-5.13-14.17
			l-16.19,2.43l-16.19,2.43l-0.75,15.05c-6.52,2.77-12.7,6.45-18.34,11.02l-13.63-6.39l-9.73,13.16l-9.73,13.16l10.1,11.16
			c-2.72,6.73-4.42,13.72-5.16,20.76l-14.17,5.13l2.43,16.19l2.43,16.19l15.05,0.75c2.77,6.52,6.45,12.7,11.02,18.34l-6.39,13.63
			l13.16,9.73l13.16,9.73l11.16-10.1c6.73,2.72,13.72,4.42,20.76,5.15l5.13,14.17l16.19-2.43l16.19-2.43l0.75-15.05
			c6.52-2.77,12.7-6.45,18.34-11.02l13.63,6.38l9.73-13.16l9.73-13.16L479.12,302.25z M383.73,305.71
			c-17.83-13.18-21.59-38.31-8.42-56.14c13.18-17.83,38.31-21.59,56.14-8.42c17.83,13.18,21.59,38.31,8.42,56.14
			C426.69,315.11,401.55,318.88,383.73,305.71z"/>
		<g>
			<path fill="#3A3F47" d="M365.65,400.16c0,0,0.36-1.7,2.84-1.7c3.45,0.01,3.73,4.92,3.15,7.97c-0.77,4.05-2.24,5.7,0.55,16.19
				c0,0-6.18-12.97-5.21-16.83C367.7,402.97,365.65,400.16,365.65,400.16z"/>
			<path fill="#EEA886" d="M346.24,432.87c0,0-1.47-0.74-1.45-1.55c0.02-0.81-0.35-1.89-0.49-2.23c-0.18-0.45-0.24-2.05-0.78-1.81
				c-0.54,0.24-0.02,2.65,0,3.18c0.01,0.53-1.74-0.9-2.26-0.89s-2.64,3.27-1.33,4.11c1.31,0.83,3.19,0.89,3.45,0.99
				c0.27,0.1,1.26,0.47,1.26,0.47L346.24,432.87z"/>
			<path fill="#EEA886" d="M341.61,429.69c0,0-4.18-2.27-4.59-2.17c-0.4,0.1-0.51,0.35-0.13,0.58c0.38,0.23,3.98,2.32,3.98,2.32
				s-5.39-1.79-5.74-1.79c-0.2,0-0.43,0.48-0.24,0.62c0.19,0.14,5.44,2.25,5.44,2.25s-5.04-1.66-5.32-1.57
				c-0.25,0.08-0.36,0.57,0,0.72c0.37,0.15,4.95,1.98,4.95,1.98s-3.74-0.96-3.94-0.73c-0.12,0.14-0.34,0.54,0.63,0.76
				c0.97,0.22,3.22,0.98,3.22,0.98L341.61,429.69z"/>
			<path fill="#EEA886" d="M358.89,436.03c0,0-6.85-1.52-8.17-1.92c-1.52-0.46-4.49-1.24-4.49-1.24l-1.59,2.28
				c0,0,8.84,4.53,10.47,5.18c1.52,0.6,5.64,2.09,5.64,2.09L358.89,436.03z"/>
			<path fill="#DE9673" d="M329.21,464.43c0,0-2,8.53-2.07,10.2c-0.07,1.67-5.84,23.9-6.26,25c-0.42,1.1,2.17,2.04,2.9,1.32
				c0.74-0.73,6.46-13.12,7.76-15.43c1.31-2.3,4.51-7.65,4.69-13C336.42,467.17,329.21,464.43,329.21,464.43z"/>
			<path fill="#EEA886" d="M327.76,467.01c0,0,3.11,8.19,3.99,9.61c0.88,1.42,8.53,23.08,8.8,24.23c0.27,1.15,2.92,0.38,3.13-0.63
				c0.2-1.01-1.98-14.39-2.18-17.03c-0.2-2.64-0.64-9.5-3.48-14.04C335.17,464.61,327.76,467.01,327.76,467.01z"/>
			<g>
				<path fill="#FFC955" d="M343.81,500.24c0,0-3.47-0.8-3.58-0.89c-0.11-0.09-0.14-0.3-0.6-0.08c-0.46,0.21-0.62,0.94-1.07,1.19
					c-0.45,0.25-3.23,1.22-4.74,2.06c-0.54,0.3-2.87,1.32-3.17,2.09c-0.3,0.77-0.14,1.9,3.91,1.43c4.05-0.47,8.53-0.12,9.39-0.61
					C344.81,504.93,344.1,501.41,343.81,500.24z"/>
			</g>
			<g>
				<path fill="#FFC955" d="M323.96,501.03c0,0-3.22-1.53-3.3-1.64c-0.08-0.11-0.07-0.32-0.57-0.21c-0.5,0.11-0.81,0.78-1.3,0.93
					c-0.5,0.15-3.42,0.49-5.07,0.99c-0.6,0.18-3.08,0.68-3.54,1.37c-0.46,0.69-0.54,1.82,3.51,2.23c4.06,0.41,8.35,1.71,9.31,1.42
					C323.94,505.83,324,502.23,323.96,501.03z"/>
			</g>
			<path fill="#FFC955" d="M357.02,452.51c0,0-26.85,5.9-29.26,14.5c0,0,4.8-1.34,9.6,1.29c0,0,12.57,0.08,24.99,0.05
				c1.56,0,12.51-3.11,10.81-12.33C371.45,446.69,357.02,452.51,357.02,452.51z"/>
			<g>
				<path fill="#EEA987" d="M361.58,415.18c0.39,0.37,0.74,0.89,1.05,1.46c0.29,0.54,0.55,1.12,0.76,1.66
					c0.46,1.18,0.72,2.19,0.72,2.19s6.35-3.35,4.8-4.62c-1.55-1.27-2.23-6.23-2.23-6.23S360.3,413.95,361.58,415.18z"/>
			</g>
			<g>
				<path fill="#EEA886" d="M354.15,403.22c0,0-1.31,1.98,0.67,6.1c0,0,0.58,3.55,0.22,4.3c-0.36,0.75,1.65,0.43,1.97,0.8
					c0.33,0.38,1.28,2.3,2.97,3.14c1.7,0.84,7.38-4.71,7.13-6.88c-0.25-2.17,1.92-12.38-5.56-10.74
					C354.08,401.58,354.15,403.22,354.15,403.22z"/>
			</g>
			<g>
				<path fill="#3A3F47" d="M354.2,407.81c0,0-3.33-8.76,5.83-9.58c9.16-0.82,7.41,10.25,7.12,13.78c0,0-1.24-5.01-5.48-4.01
					C357.43,409.01,356.29,408.28,354.2,407.81z"/>
			</g>
			<g>
				<path fill="#EEA886" d="M362,406.55c0.27-1.06,2.21-1.07,2.39,0.37c0.18,1.45-0.87,3.24-1.54,2.7
					C362.19,409.09,361.61,408.11,362,406.55z"/>
			</g>
			<path fill="#A77860" d="M362.64,416.64c0.29,0.54,0.55,1.12,0.76,1.66c1.96-1.65,2.77-5.24,2.77-5.24
				C364.93,414.91,362.64,416.64,362.64,416.64C362.64,416.64,362.64,416.64,362.64,416.64z"/>
			<path fill="#5F8CC9" d="M363.18,419.42c0,0-5.6,6.4-6.31,6.91c-0.71,0.51-2.84,5.07,0,7.81c0,0,0.26,2.92,0.77,4.03
				c0.51,1.12,0.15,12.61-0.66,13.93c-0.81,1.32,10.71,5.7,16.19,3.92c0,0-1.55-7.37-2.06-11.13c-0.51-3.76,1.76-14.7,1.81-17.64
				c0.05-2.94-1.99-10.42-3.99-11.23C366.92,415.21,363.18,419.42,363.18,419.42z"/>
			
				<rect x="333.62" y="455.37" transform="matrix(0.9486 -0.3163 0.3163 0.9486 -126.5808 132.3478)" fill="#6E6760" width="21.41" height="1.32"/>
			
				<rect x="315.51" y="452.41" transform="matrix(0.7991 0.6012 -0.6012 0.7991 337.905 -105.099)" fill="#6E6760" width="21.41" height="1.32"/>
			<path fill="#EEA886" d="M339.5,457.02c-0.17-0.44-0.2-1.15,1.12-2.13c1.32-0.98,4.2-3.69,5.28-3.89c1.08-0.2,1.9,0.27,2.33,0.2
				c0.44-0.07,1.01,2.57,1.01,2.57L339.5,457.02z"/>
			<path fill="#EEA886" d="M348.23,451.2c0,0,5.76-2.37,6.74-2.84c0.98-0.47,5.72-2.13,6.12-2.33c0.41-0.2,2.54-11.3,2.71-14.18
				c0.17-2.88,0.34-8.97,3.59-8.7c3.25,0.27,4.03,2.4,3.62,6.6c-0.41,4.2-2.81,19.22-3.82,19.73c-1.01,0.51-13.04,2.9-18.79,4.6
				C342.64,455.76,348.23,451.2,348.23,451.2z"/>
			<path fill="#5F8CC9" d="M365.99,400.61c0,0,1.37,2.47,1.23,4.34C367.22,404.95,368.48,402.13,365.99,400.61z"/>
		</g>
		<g>
			<g>
				<g>
					<path fill="#E4F3FF" d="M613.57,296.7v144.33c0,3.85-3.12,6.96-6.96,6.96h-107c-3.85,0-6.96-3.12-6.96-6.96V296.7
						c0-3.85,3.12-6.96,6.96-6.96h107C610.45,289.73,613.57,292.85,613.57,296.7z"/>
				</g>
			</g>
		</g>
		<path fill="#B5DEFF" d="M565.76,350.44h-68.02c-2.87,0-5.2-2.33-5.2-5.2v-39.16c0-2.87,2.33-5.2,5.2-5.2h68.02
			c2.87,0,5.2,2.33,5.2,5.2v39.17C570.97,348.11,568.64,350.44,565.76,350.44z"/>
		<g>
			<g>
				<g>
					<path fill="#F5A334" d="M87.19,212.27c0,0,86.74-32.64,114.89,18.42c22.53,40.86-15.15,44.88-15.15,44.88
						s-3.61,22.32-43.56-32.89C124.55,216.65,87.19,212.27,87.19,212.27z"/>
				</g>
			</g>
		</g>
		<g>
			<g>
				<g>
					<path fill="#00A0C0" d="M79.48,73.19c0,0,75.11-19.29,119.18,76.94c44.08,96.23,87.5,105.81,87.5,105.81
						S117.37,277.7,79.48,73.19z"/>
				</g>
			</g>
		</g>
		<g>
			<g>
				<g>
					<path fill="#6AB8AB" d="M255.13,259.83c-8.02,30.88-76.45-32.8-80.83-87.09c-4.37-54.29,11.58-93.18-0.91-128.48
						C173.4,44.26,294.61,107.79,255.13,259.83z"/>
				</g>
			</g>
		</g>
		<linearGradient id="SVGID_2_" gradientUnits="userSpaceOnUse" x1="206.6894" y1="184.5237" x2="360.9961" y2="184.5237">
			<stop  offset="0" style="stop-color:#96CBFF"/>
			<stop  offset="1" style="stop-color:#5599FF"/>
		</linearGradient>
		<path fill="url(#SVGID_2_)" d="M348.31,168.59c-1.49-6.07-3.83-11.81-6.87-17.1l7.31-10.72l-9.86-10.08l-9.86-10.08l-10.89,7.06
			c-5.22-3.16-10.9-5.62-16.94-7.25l-2.42-12.74l-14.1-0.16l-14.1-0.16l-2.7,12.68c-6.07,1.5-11.81,3.83-17.09,6.87l-10.73-7.31
			l-10.08,9.86l-10.08,9.86l7.06,10.89c-3.16,5.22-5.62,10.9-7.25,16.94l-12.74,2.42l-0.16,14.1l-0.16,14.1l12.68,2.7
			c1.49,6.07,3.83,11.81,6.87,17.09l-7.31,10.72l9.86,10.08l9.86,10.08l10.89-7.06c5.22,3.16,10.9,5.62,16.94,7.25l2.42,12.74
			l14.1,0.16l14.1,0.16l2.7-12.68c6.07-1.49,11.81-3.83,17.09-6.87l10.73,7.31l10.08-9.86l10.08-9.86l-7.06-10.89
			c3.16-5.22,5.62-10.9,7.25-16.94l12.74-2.42l0.16-14.1l0.16-14.1L348.31,168.59z M283.45,219.09
			c-19.09-0.21-34.39-15.86-34.18-34.95c0.21-19.09,15.86-34.39,34.95-34.18c19.09,0.21,34.39,15.86,34.18,34.95
			C318.19,204,302.54,219.3,283.45,219.09z"/>
		<g>
			<g>
				<g>
					<path fill="#EEA886" d="M136.73,227.06c0,0,1.06-1.85-0.62-6.8c-1.62-4.79-7.22-4.35-9-1.29c-1.78,3.07-1.18,4.97,1.44,8.43
						C131.18,230.87,135.64,228.64,136.73,227.06z"/>
				</g>
			</g>
			<g>
				<g>
					<path fill="#EEA886" d="M123.72,312.21c0,0-0.28,2.03-0.31,2.34c-0.03,0.31-3.08-0.18-3.08-0.18l-0.25-2.42
						C120.08,311.95,123.34,311.92,123.72,312.21z"/>
				</g>
			</g>
			<g>
				<g>
					<path fill="#152B3D" d="M123.44,314.29c0,0,0.97,1.23,1.9,1.76c0.93,0.53,2.4,0.75,2.96,1.3c0.4,0.4,1.45,2.12-2.43,2.08
						c-3.88-0.03-5.75,0.24-6.17-0.42c-0.42-0.66,0.6-4.86,0.6-4.86S121.25,314.42,123.44,314.29z"/>
				</g>
			</g>
			<g>
				<g>
					<path fill="#EEA886" d="M144.83,312.21c0,0-0.28,2.03-0.31,2.34c-0.03,0.31-3.08-0.18-3.08-0.18l-0.25-2.42
						C141.19,311.95,144.45,311.92,144.83,312.21z"/>
				</g>
			</g>
			<g>
				<g>
					<path fill="#152B3D" d="M144.55,314.29c0,0,0.97,1.23,1.9,1.76c0.93,0.53,4.37,0.97,4.93,1.52c0.4,0.4,1.06,2-4.4,1.85
						c-3.88-0.11-5.75,0.24-6.17-0.42c-0.42-0.66,0.6-4.86,0.6-4.86S142.62,314.36,144.55,314.29z"/>
				</g>
			</g>
			<g>
				<g>
					<path fill="#323657" d="M124.75,261.6c0,0-1.56,4.86-1.36,9.05c0.21,4.19-0.81,8.77-1.22,13.14
						c-0.46,4.88-2.35,16.42-2.42,19.03c-0.07,2.61,0.29,10.94,0.29,10.94l3.79,0.09c0,0,3.18-20.18,4-22.24
						c0.82-2.06,4.91-16.74,5.05-18.39C133.01,271.57,124.75,261.6,124.75,261.6z"/>
				</g>
			</g>
			<g>
				<g>
					<path fill="#323657" d="M140.45,261.09c0,0,2.3,12.85,2.57,15.41s0.46,12.4,0.6,14c0.14,1.6,0.92,20.96,1.65,23.34h-4.22
						c0,0-4.34-14.07-4.34-20.73c0-6.66-2.87-14.48-4.73-18.87c-1.85-4.39-6.1-4.5-7.24-12.65
						C124.75,261.6,138.91,258.51,140.45,261.09z"/>
				</g>
			</g>
			<g>
				<g>
					<path fill="#EEA886" d="M135.2,228.36c0,0-0.48,1.39,0,2.38c0.48,0.99-6.09,0.4-6.09,0.4s0.3-2.04-0.56-3.73
						C127.7,225.73,135.2,228.36,135.2,228.36z"/>
				</g>
			</g>
			<g>
				<g>
					<path fill="#323657" d="M124.44,262.66c0,0,2.36,2.42,16.22-0.38l-0.21-1.19l-15.75,0.59L124.44,262.66z"/>
				</g>
			</g>
			<g>
				<g>
					<path fill="#EEA886" d="M136.19,231.06c0,0,2.42,0.25,3.12,0.38c0.69,0.13,5.35-0.83,6.31-0.93c0.96-0.1,5.03-2.89,5.17-3.22
						c0.13-0.33,2.48-6.28,2.61-7.56c0.13-1.29,2.29-0.62,2.1,0.26c-0.35,1.66-0.79,5.68-1.03,6.85c-0.26,1.26-0.97,4.11-1.36,4.46
						c-0.4,0.35-4.07,3.14-7.66,4.33c-3.59,1.19-6.3,2.94-6.3,2.94h-17.71c0,0-6.89-9.85-7.04-11.33
						c-0.15-1.48,4.81-11.35,5.8-12.58c0.99-1.24,2.42,0.4,2.42,0.4s-2.96,8.7-3.36,9.93c-0.4,1.24,3.45,6.67,4.5,6.69
						c1.05,0.02,3.76-0.33,4.97-0.38c1.2-0.05,2.47-0.58,2.47-0.58L136.19,231.06z"/>
				</g>
			</g>
			<g>
				<g>
					<path fill="#254380" d="M143.83,237.64c0,0-2.17,1.44-2.37,3.91c-0.2,2.47-0.99,6.38-1.38,7.72
						c-0.4,1.34,0.35,11.03,0.45,11.72c0.1,0.69-13.71,2.34-15.83,0.69c0,0-0.59-9.05-0.84-11.62c-0.25-2.57-1.43-8.8-1.83-9.64
						c-0.4-0.84-5.19-7.57-5.39-8.46c0,0,2.48-3.96,4.26-4.01c0,0,2.83,3.31,3.75,3.46c0.92,0.15,6.57-0.89,6.58-0.9
						c0,0,0.62,0.84,3.9-0.15c0,0,3.91,0.44,4.54,0.52c0.77,0.1,6.12-0.67,6.12-0.67s2.15,3.62,1.77,5.45L143.83,237.64z"/>
				</g>
			</g>
			<g>
				<g>
					<path fill="#EEA886" d="M153.27,220.49c0,0,0.48-2.29-0.1-2.95c-0.33-0.37-1.13-1.37-1.2-1.51c-0.07-0.15-0.93-0.64-0.93-0.87
						c0-0.24,0.84-0.53,1.57,0.15c0.73,0.67,1.18,0.82,1.48,0.75c0.29-0.07,0.71-2.5,0.75-3.1c0.04-0.6,0.27-2.19,0.65-2.08
						c0.38,0.11,0.36,0.8,0.36,0.8s0.44-1.2,0.73-0.97c0.29,0.24,0.26,0.82,0.26,0.82s0.55-0.67,0.69-0.18c0.15,0.49,0,0.93,0,0.93
						s0.56-0.31,0.6,0.46c0.04,0.77-0.16,3.01-0.56,3.81c-0.4,0.8-1.9,2.9-2.08,3.72C155.29,221.08,153.27,220.49,153.27,220.49z"/>
				</g>
			</g>
			<g>
				<g>
					<path fill="#EEA886" d="M122.13,216.47c0,0,1.65-2.77,2.21-3.02c0.56-0.25,1.35-0.39,2.04-0.88s1.61-0.91,1.56-1.07
						c-0.05-0.16-0.87-0.1-1.74,0.28c-0.87,0.38-1.26,0.2-1.34,0c-0.08-0.2,0.47-1.59,0.73-1.92c0.26-0.33,2.14-2.22,1.83-2.5
						c-0.31-0.28-1.53,0.76-1.73,0.97c0,0,0.97-2.04,0.59-2.14c-0.38-0.1-1.09,0.63-1.09,0.63s0.08-1.75-1.8,1.09
						c0,0,0.4-0.94-0.18-0.63c-0.58,0.31-1.14,2.08-1.32,2.97c-0.18,0.89-1,3.73-1.71,4.41
						C119.49,215.33,122.13,216.47,122.13,216.47z"/>
				</g>
			</g>
			<g>
				<g>
					<path fill="#353A3D" d="M128.55,227.41c0,0,0.87,0.08,2.72-0.56c1.85-0.64,1.98-3.87,2.38-3.48c0.82,0.78,1.59,0.24,1.89-0.22
						c0,0-0.9-1.19-0.48-1.76c0.42-0.57,1.1-0.99,1.1-0.99s-1.3-6.26-7.21-3.41C122.03,220.33,128.55,227.41,128.55,227.41z"/>
				</g>
			</g>
			<g>
				<g>
					<path fill="#254380" d="M135.2,230.74l-0.21-0.9c0,0-3.77-0.08-5.83,0.22l-0.22,1.08C128.95,231.14,131.58,232.33,135.2,230.74
						z"/>
				</g>
			</g>
			<g>
				<g>
					<path fill="#EEA886" d="M134.27,222.57c-0.34-0.57-1.61-0.95-1.76,0.66c-0.12,1.25,2.26,2.62,2.29,1.45
						C134.82,223.52,134.5,222.95,134.27,222.57z"/>
				</g>
			</g>
			<g>
				<g>
					<path fill="#E55353" d="M153.36,219.97c0,0,1.36,0.03,2.02,0.63c0,0,0.04,0.38-0.11,0.68c0,0-1.18-0.55-2.08-0.65
						C153.19,220.63,153.21,220.13,153.36,219.97z"/>
				</g>
			</g>
			<g>
				<g>
					<path fill="#353A3D" d="M154.97,220.31c0.13,0.3-0.01,0.64-0.31,0.77c-0.3,0.13-0.64-0.01-0.77-0.31
						c-0.12-0.3,0.01-0.64,0.31-0.77C154.5,219.88,154.84,220.01,154.97,220.31z"/>
				</g>
			</g>
			<g>
				<polygon fill="#FFBB55" points="116.25,320.01 153.22,320.01 141.57,355.79 142.66,356.15 154.8,318.86 115.42,318.86 
					103.39,355.79 104.48,356.15 				"/>
			</g>
			<g>
				<polygon fill="#FFBB55" points="128.83,355.79 117.18,320.01 154.15,320.01 165.92,356.15 167.01,355.79 154.99,318.86 
					115.6,318.86 127.74,356.15 				"/>
			</g>
			<g>
				<rect x="112.81" y="330.13" fill="#FFBB55" width="45.25" height="1.15"/>
			</g>
			<g>
				<rect x="108.15" y="342.57" fill="#FFBB55" width="54.14" height="1.15"/>
			</g>
		</g>
		<g>
			<g>
				<path fill="#6699CC" d="M316.24,247.07c0.87-11.8,1.48-22.83,1.83-33.11c-2.85-1.51-6.27-3.27-9-4.57
					c-8.47-4.03-20.28-9.47-27.86-12.94c-4.43-2.04-8.78-3.53-8.78-3.53s-30.28-2.9-32.73-2.75c-0.77,0.05-4.56,1.36-9.52,3.26
					c-10.74,4.07-31.44,12.37-34.73,14.74c-4.83,3.46-22.13,88.23-22.59,93.99c-0.45,5.59,23.52,13.24,45.72,19.11
					c-0.01,8.59-0.19,20.63-0.38,31.63c-0.03,1.88-0.07,3.72-0.1,5.51h97.13c-0.13-1.89-0.24-3.75-0.34-5.51
					c-0.01-0.23-0.02-0.46-0.04-0.69c-0.37-7.45-1.82-20.78-1.45-33.76c0,0-0.23-13.69,1.12-19.58
					C314.67,272.83,316.24,247.07,316.24,247.07z M193.08,296.91c0.16-11.04,14.86-31.57,14.86-31.57s0.68-0.29,0.69-0.26
					c0.01,0.01,0.76-0.1,0.76-0.09c0.02,0,2.28-2.16,2.3-2.16c0.54,1.96,5.41,29.69,6.6,45.83
					C204.48,305.94,193,302.17,193.08,296.91z"/>
			</g>
			<g>
				<path fill="#FFFFFF" d="M318.04,352.89c-0.64-4.6-1.24-9.19-1.79-13.69c0-0.02-0.01-0.04-0.01-0.06
					c-0.17-1.5-0.35-2.98-0.52-4.45c-0.01-0.07-0.02-0.15-0.02-0.23c-0.71-6.2-1.3-12.14-1.72-17.58
					c-0.32-4.17-0.03-8.24,0.54-12.23c1.69-27.83,2.53-57.17,2.53-57.17c0.89-12.01,1.4-23.24,1.74-33.7c0,0-38.02-17.97-41.46-19
					c0,0,7.21,16.93,12.62,54.78c2.08,14.54,5.93,39.01,8.72,63.98v0.01c1.51,13.48,4.35,27.21,6.51,39.35
					c0.33,1.88,0.64,3.72,0.93,5.51h12.72C318.56,356.56,318.3,354.72,318.04,352.89z"/>
			</g>
			<g>
				<path fill="#FFFFFF" d="M254.75,308.18c1.5-14.07,2.85-28.11,2.2-35.81c-5.24-61.86-20.08-78.24-22.23-80.63
					c-1.66,0.63-7.99,3.01-9.85,3.75c-10.15,4-30.83,11.33-33.62,13.33c-4.83,3.46-23.89,92.33-24.46,98.08
					c-0.38,3.89,24.49,12,49.86,19.25c-0.23,6.96-1.86,16.49-4.17,26.74c-0.4,1.82-0.83,3.66-1.28,5.51h37.84
					c0.22-1.83,0.44-3.66,0.66-5.51c0.67-5.53,1.38-11.19,2.08-17.21c10.61,2.75,17.82,4.51,17.82,4.51s9.96-16.84,12.85-23.66
					C282.93,315.36,270.11,312.28,254.75,308.18z M204.79,286.68c-0.33-12.66,3.94-21.3,3.94-21.3c1.25,4.34,2.99,16.74,4.52,29.06
					C208.11,291.86,204.85,289.24,204.79,286.68z"/>
			</g>
			<g>
				<path fill="#EEA987" d="M238.11,191.14c0,0,3.85-7.28,2.79-27.94c-0.29-5.72,30.06,13.57,30.06,13.57s-0.1,1.97-0.17,4.63
					c-0.04,1.11-0.05,2.32-0.05,3.57c0,0.34,0.01,0.69,0.01,1.03c0,0.56,0.01,1.12,0.02,1.68c0.02,0.69,0.04,1.37,0.08,2.03
					c0.03,0.74,0.08,1.45,0.15,2.09c0.12,1.25,0.86,3.45,1.12,4.05C273.51,199.08,249.48,199.27,238.11,191.14z"/>
			</g>
			<path fill="#E8734D" d="M263.56,204.28l5.59,7.52c0,0-3.28,4.39-9.1,1.15L263.56,204.28z"/>
			<path fill="#E8734D" d="M267.66,212.1c0,0,20.5,50.06,16.12,113.65l-6.46,11.73l-7.29-9.99c0,0-1.18-84.45-6.99-115.59
				L267.66,212.1z"/>
			<path fill="#EEA987" d="M269.55,197.27l-5.99,7.01c0,0-9.61-1.86-12.44-6.88C248.3,192.37,269.55,197.27,269.55,197.27z"/>
			<path fill="#C4C1CC" d="M270.93,191.14c0,0-0.7,5.34-7.36,13.14l7.28,9.78l3.94-20.29L270.93,191.14z"/>
			<path fill="#C4C1CC" d="M239.94,184.71c0,0,13.9,15.72,23.62,19.57l-4.52,11.18l-22.18-24.47L239.94,184.71z"/>
			<g>
				<path fill="#FFFFFF" d="M382.84,326.96c0,0-18.45-17.89-30.55-20.87c-5.59-1.38-12.96-9.1-19.97-18.18
					c-2.31-2.99-4.57-6.13-6.72-9.23c-0.01-0.01-0.01-0.01-0.01-0.01c-8.59-12.4-15.32-24.29-15.32-24.29s-25.39-29.76-5.02-43.02
					c0,0,8.73-0.19,13.52,2.41c4.92,2.67,15.43,24.6,17.21,28.48c1.78,3.88,21.08,39.94,22.37,40.75c1.29,0.81,3.45,3.78,11.17,7.93
					c9.45,5.09,24.3,19.99,24.3,19.99L382.84,326.96z"/>
			</g>
			<path fill="#EFAA88" d="M294.27,347.67c0,0-2.58-0.1-3.68-0.7c0,0-1.93-1.24-3.35-2.03c-0.45-0.25-0.85-0.46-1.13-0.57
				c-1.14-0.45-3.77-1.1-6.2-2.95c-2.43-1.85-10.34-9.25-10.34-9.25l5.11-7.86l2.36-7.78c0,0,18.44,1.83,20.9,3.3
				c0.24,0.14,0.47,0.3,0.68,0.45c1.96,1.44,2.82,3.34,3.76,4.21c0.34,0.32,3.56,3.76,3.38,5.15c-0.25,1.94-1.2,3.18-2.4,3.77
				c0,0-0.65,3.77-2.6,5.45c0,0-0.49,3.5-3.51,4.9C297.26,343.76,296.37,347.25,294.27,347.67z"/>
			<path fill="#EEA886" d="M264.91,109.9c0,0,33.33-8.03,26.31,34.17c-7.02,42.2-15.02,45.63-35.32,37.21
				c-20.31-8.41-18.89-35.41-20.1-48.61C234.59,119.46,254.25,110.52,264.91,109.9z"/>
			<path fill="#EEA886" d="M247.4,139.13c-0.5-3.71-7.85-4.96-8.36,0.62c-0.51,5.58,3.56,15.29,6.33,14.29
				S248.08,144.24,247.4,139.13z"/>
			<path fill="#16202E" d="M237.74,154.24c0,0,0.67-13.27,5.51-13.76c4.84-0.49,5.66,4.84,5.66,4.84l4.9,0.85
				c0,0-1.72-11.6,3.09-13.7c4.81-2.1,31.43,5.94,35.26,2.47c3.83-3.47,1.66-27.02-5.41-30.14c-7.07-3.12-26.57-10.07-40.63-0.24
				c0,0-11.09-1.1-12.6,7.86C232.01,121.38,234.64,147.64,237.74,154.24z"/>
			<path fill="#FFFFFF" d="M283.34,316.53l-13.76,23.66c0,0-36.46-9.39-44.97-11.79l19.45-23.15
				C244.06,305.25,272.73,311.8,283.34,316.53z"/>
			<path fill="#A77860" d="M270.84,189.73L270.84,189.73c-17.88-1.82-24.81-15.59-24.81-15.59c11.25,11.15,24.71,10.84,24.71,10.84
				c0,0.34,0.01,0.69,0.01,1.03c0,0.56,0.01,1.12,0.02,1.68C270.77,188.39,270.8,189.07,270.84,189.73z"/>
		</g>
		<g>
			<g>
				<g>
					<g>
						<path fill="#BAE0FF" d="M569.48,437.17c1.92,0.65,3.97,1.01,6.1,1.04c6.47,0.08,12.25-2.94,15.93-7.68
							c2.55-3.29,4.09-7.4,4.15-11.88c0.01-0.44,0-0.89-0.02-1.33c-0.11-1.99-0.51-3.9-1.16-5.7c-2.73-7.52-9.9-12.94-18.38-13.05
							c-4.57-0.06-8.79,1.43-12.18,3.99c-4.73,3.57-7.81,9.2-7.9,15.58C555.9,426.95,561.56,434.49,569.48,437.17z M560.98,418.2
							c0.06-4.75,2.34-8.95,5.85-11.62c2.55-1.95,5.75-3.09,9.21-3.05c6.36,0.08,11.73,4.14,13.78,9.78l0,0.01
							c0.49,1.34,0.79,2.77,0.87,4.26c0.02,0.33,0.02,0.66,0.02,0.99c-0.04,3.36-1.2,6.44-3.11,8.91
							c-2.76,3.56-7.09,5.82-11.94,5.76c-1.6-0.02-3.14-0.29-4.58-0.78C565.13,430.47,560.89,424.81,560.98,418.2z"/>
					</g>
				</g>
			</g>
			<g>
				<g>
					<g>
						<path fill="#1A598C" d="M587.58,427.49l3.92,3.04c-3.68,4.74-9.46,7.76-15.93,7.68c-2.13-0.03-4.18-0.39-6.1-1.04l1.59-4.7
							c1.44,0.49,2.98,0.76,4.58,0.78C580.49,433.32,584.83,431.05,587.58,427.49z"/>
					</g>
				</g>
			</g>
			<g>
				<g>
					<g>
						<path fill="#2273B5" d="M590.67,417.59l4.95-0.27c0.02,0.44,0.03,0.88,0.03,1.33c-0.06,4.48-1.6,8.59-4.15,11.88l-3.92-3.04
							c1.91-2.46,3.07-5.55,3.11-8.91C590.7,418.25,590.69,417.92,590.67,417.59z"/>
					</g>
				</g>
			</g>
			<g>
				<g>
					<g>
						<path fill="#2273B5" d="M590.67,417.59c-0.08-1.49-0.38-2.92-0.87-4.26l0-0.01l4.66-1.7c0.65,1.8,1.05,3.71,1.16,5.7
							L590.67,417.59z"/>
					</g>
				</g>
			</g>
			<g>
				<g>
					<g>
						<path fill="#4DA8F2" d="M563.91,402.56c3.39-2.55,7.61-4.04,12.18-3.99c8.48,0.11,15.64,5.53,18.38,13.05l-4.66,1.7l0-0.01
							c-2.05-5.64-7.42-9.7-13.78-9.78c-3.46-0.04-6.65,1.1-9.21,3.05L563.91,402.56z"/>
					</g>
				</g>
			</g>
		</g>
		<path fill="#4DA8F2" d="M515.39,395.3c-0.98-1.3-2.53-2.14-4.28-2.17c-2.42-0.03-4.49,1.52-5.22,3.69l0,0l0,0
			c-0.18,0.53-0.28,1.09-0.29,1.67c-0.01,0.68,0.11,1.34,0.33,1.94c0.36,0.97,0.98,1.81,1.78,2.43c0.8,0.62,1.77,1.02,2.83,1.12
			c0.14,0.01,0.28,0.02,0.43,0.02c0.09,0,0.18,0,0.27-0.01c0.03,0,0.06,0,0.1,0c0.55-0.03,1.07-0.14,1.56-0.32
			c2.07-0.75,3.55-2.72,3.58-5.04C516.5,397.39,516.09,396.23,515.39,395.3z M512.44,402.41L512.44,402.41
			c-0.37,0.13-0.76,0.22-1.17,0.24l0,0c-0.09,0-0.18,0.01-0.27,0c-0.39,0-0.76-0.07-1.11-0.17c-0.49-0.15-0.94-0.38-1.33-0.68
			c-0.14-0.11-0.28-0.23-0.41-0.36c-0.74-0.75-1.19-1.78-1.18-2.92c0-0.29,0.04-0.58,0.11-0.86c0.03-0.13,0.07-0.27,0.11-0.4
			c0.55-1.63,2.1-2.79,3.92-2.77c1.3,0.02,2.46,0.64,3.19,1.6c0.54,0.7,0.85,1.58,0.84,2.53
			C515.1,400.37,513.99,401.85,512.44,402.41z"/>
		<g>
			<g>
				<path fill="#78C2FF" d="M593.07,316.38h-6.37c-1.39,0-2.53-1.13-2.53-2.53v-6.37c0-1.39,1.13-2.53,2.53-2.53h6.37
					c1.39,0,2.53,1.13,2.53,2.53v6.37C595.59,315.24,594.46,316.38,593.07,316.38z M586.7,305.43c-1.13,0-2.05,0.92-2.05,2.05v6.37
					c0,1.13,0.92,2.05,2.05,2.05h6.37c1.13,0,2.05-0.92,2.05-2.05v-6.37c0-1.13-0.92-2.05-2.05-2.05H586.7z"/>
			</g>
		</g>
		<g>
			<g>
				<path fill="#78C2FF" d="M593.07,331.53h-6.37c-1.39,0-2.53-1.13-2.53-2.53v-6.37c0-1.39,1.13-2.53,2.53-2.53h6.37
					c1.39,0,2.53,1.13,2.53,2.53V329C595.59,330.4,594.46,331.53,593.07,331.53z M586.7,320.59c-1.13,0-2.05,0.92-2.05,2.05V329
					c0,1.13,0.92,2.06,2.05,2.06h6.37c1.13,0,2.05-0.92,2.05-2.06v-6.37c0-1.13-0.92-2.05-2.05-2.05H586.7z"/>
			</g>
		</g>
		<g>
			<g>
				<path fill="#78C2FF" d="M593.28,346.45h-6.79c-1.15,0-2.08-0.93-2.08-2.08v-6.79c0-1.15,0.93-2.08,2.08-2.08h6.79
					c1.15,0,2.08,0.93,2.08,2.08v6.79C595.36,345.52,594.43,346.45,593.28,346.45z"/>
			</g>
		</g>
		<g>
			<g>
				<g>
					<g>
						<path fill="#F3F3F3" d="M589.54,343.39l-2.77-2.41c-0.23-0.2-0.25-0.54-0.05-0.77c0.2-0.23,0.54-0.25,0.77-0.05l1.96,1.71
							l2.79-3.11c0.2-0.23,0.55-0.24,0.77-0.04c0.22,0.2,0.24,0.55,0.04,0.77L589.54,343.39z"/>
					</g>
				</g>
			</g>
		</g>
		<g>
			<g>
				<g>
					<path fill="#78C2FF" d="M595.36,362.15v1.89c0,1.18-0.96,2.14-2.14,2.14h-48.13c-1.18,0-2.14-0.96-2.14-2.14v-1.89
						c0-1.18,0.96-2.14,2.14-2.14h48.13C594.4,360.01,595.36,360.97,595.36,362.15z"/>
				</g>
			</g>
		</g>
		<g>
			<g>
				<g>
					<path fill="#78C2FF" d="M595.36,373.15v1.88c0,1.18-0.96,2.14-2.14,2.14h-48.13c-1.18,0-2.14-0.96-2.14-2.14v-1.88
						c0-1.18,0.96-2.14,2.14-2.14h48.13C594.4,371.01,595.36,371.97,595.36,373.15z"/>
				</g>
			</g>
		</g>
		<g>
			<g>
				<g>
					<path fill="#8FBBFF" d="M593.22,388.78h-48.13c-1.35,0-2.44-1.09-2.44-2.44v-1.89c0-1.34,1.1-2.44,2.44-2.44h48.13
						c1.34,0,2.44,1.09,2.44,2.44v1.89C595.65,387.68,594.56,388.78,593.22,388.78z M545.09,382.61c-1.02,0-1.84,0.83-1.84,1.84
						v1.89c0,1.02,0.83,1.84,1.84,1.84h48.13c1.02,0,1.84-0.83,1.84-1.84v-1.89c0-1.02-0.83-1.84-1.84-1.84H545.09z"/>
				</g>
			</g>
		</g>
		<path fill="#EEA886" d="M309.22,297.09c20.72,21.33,48.1,48.19,48.1,48.19l10.7-20.32c0,0-24.32-28.51-40.8-47.53
			C322.16,279.92,312.89,285.83,309.22,297.09z"/>
		<g>
			<path fill="#EEA886" d="M296.42,325.77c0,0,5.58,2.7,7.03,3.9c1.46,1.2,7.36,5.62,8.79,6.66c1.43,1.04-2.16,3.99-12.71-0.58
				C288.98,331.18,296.42,325.77,296.42,325.77z"/>
		</g>
		<polygon fill="#FFC955" points="296.91,264.72 287.18,355.12 415.16,355.12 424.88,264.72 		"/>
		
			<rect x="277" y="346.99" transform="matrix(-1 -1.224647e-16 1.224647e-16 -1 575.3688 702.1124)" fill="#FFC955" width="21.38" height="8.13"/>
		<g>
			<g>
				<g>
					<polygon fill="#D6D6D6" points="522.75,257.75 540.53,229.16 531.36,233.46 					"/>
				</g>
			</g>
			<g>
				<g>
					<polygon fill="#E8E8E8" points="522.75,257.75 523.64,240.65 530.18,236.81 					"/>
				</g>
			</g>
			<g>
				<g>
					<polygon fill="#C2C2C2" points="536.44,235.74 538.74,238.69 522.75,257.75 					"/>
				</g>
			</g>
		</g>
		<linearGradient id="SVGID_3_" gradientUnits="userSpaceOnUse" x1="78.0362" y1="357.6889" x2="425.8784" y2="357.6889">
			<stop  offset="0" style="stop-color:#96CBFF"/>
			<stop  offset="1" style="stop-color:#5599FF"/>
		</linearGradient>
		<rect x="78.04" y="354.93" fill="url(#SVGID_3_)" width="347.84" height="5.51"/>
		<g>
			<g>
				<g>
					<path fill="#BBD070" d="M441.94,341.97c0,0-29.79,24.38-17.81,46c11.99,21.62,19.67,4.05,19.67,4.05s8.94,3.45-2.73-22.98
						C435.56,356.59,441.94,341.97,441.94,341.97z"/>
				</g>
			</g>
		</g>
		<g>
			<g>
				<g>
					<path fill="#97A43C" d="M396.08,301.6c0,0-23.11,23.37,2.7,60.08c25.81,36.7,20.04,54.64,20.04,54.64
						S462.85,359.17,396.08,301.6z"/>
				</g>
			</g>
		</g>
		<g>
			<g>
				<g>
					<path fill="#48753A" d="M426.87,405.79c13.02,3.66,4.33-35-14.61-48.2c-18.94-13.2-36.59-15.67-46.84-27.79
						C365.41,329.8,362.77,387.75,426.87,405.79z"/>
				</g>
			</g>
		</g>
		<linearGradient id="SVGID_4_" gradientUnits="userSpaceOnUse" x1="345.7934" y1="471.0555" x2="629.3919" y2="471.0555">
			<stop  offset="0" style="stop-color:#96CBFF"/>
			<stop  offset="1" style="stop-color:#5599FF"/>
		</linearGradient>
		<rect x="345.79" y="468.3" fill="url(#SVGID_4_)" width="283.6" height="5.51"/>
		<path fill="#CFA345" d="M348.93,308.47c-1.03,5.03,1.32,9.76,5.24,10.57c3.92,0.8,7.94-2.63,8.97-7.66
			c1.03-5.03-1.32-9.76-5.24-10.57C353.97,300.01,349.96,303.44,348.93,308.47z"/>
		<g>
			<g>
				<g>
					<g>
						<g>
							<path fill="#EEA886" d="M622.11,414.08c0,0-0.21,1.14-0.85,1.31c-0.54,0.14-1.15,0.72-1.33,0.9c-0.25,0.24-1.28,0.69-0.99,1
								c0.3,0.32,1.74-0.66,2.08-0.8c0.34-0.14-0.15,1.45-0.01,1.81c0.14,0.36,2.82,1.03,3.03-0.1s-0.31-2.48-0.23-2.67
								c0.08-0.19,0.19-0.82,0.19-0.82L622.11,414.08z"/>
						</g>
					</g>
				</g>
			</g>
			<g>
				<g>
					<g>
						<g>
							<path fill="#EEA886" d="M621,418.03c0,0-0.42,3.5-0.25,3.76c0.17,0.26,0.36,0.27,0.41-0.06c0.05-0.33,0.5-3.37,0.5-3.37
								s0.2,4.23,0.29,4.47c0.05,0.14,0.42,0.18,0.47,0.01c0.04-0.17,0.08-4.37,0.08-4.37s0.2,3.95,0.33,4.12
								c0.12,0.16,0.47,0.11,0.47-0.18c0.01-0.29,0.03-3.97,0.03-3.97s0.32,2.86,0.53,2.95c0.12,0.05,0.44,0.1,0.33-0.63
								c-0.11-0.74-0.18-2.5-0.18-2.5L621,418.03z"/>
						</g>
					</g>
				</g>
			</g>
			<g>
				<path fill="#EEA886" d="M584.51,371.13c0,0-0.57-1.07-0.77-1.93c-0.2-0.86-1.27-2-1.7-2.27c-0.44-0.27-3.59-2.53-3.96-2.53
					c-0.37,0-0.15,0.7,0.16,0.91c0.32,0.2,2.88,2.2,2.88,2.2s-3.19-2.2-3.53-2.14c-0.33,0.06-0.57,0.48-0.21,0.92
					c0,0-0.73,0.48,0.03,1.06l1.51,1.17c0,0-0.89-0.46-0.56,0.25c0.18,0.38,2.03,1.49,2.33,1.82c0.3,0.34,2.64,1.48,2.64,1.48
					L584.51,371.13z"/>
			</g>
			<g>
				<path fill="#EEA886" d="M603.22,469.25h-0.79c0,0,0.26-2.99-0.47-3.02c-0.73-0.03-2.55,2.43-3.63,2.81
					c-1.08,0.38-6.65,0.7-6.68-0.32c-0.03-1.03,2.14-1.44,2.81-1.73c0.67-0.29,3.96-3.49,4.54-3.87c0.59-0.38,1.55-2.32,1.55-2.32
					h2.99c0,0,0.33,1.62,0.52,2.93c0.07,0.48,0.12,0.93,0.13,1.23C604.21,466.08,603.22,469.25,603.22,469.25z"/>
			</g>
			<g>
				<path fill="#EEA886" d="M617.75,468.66h-0.66v-2.78c-0.55,0.05-2.4,1.79-2.97,2.3c-0.57,0.51-1.35,0.48-3.76,0.64
					c-2.41,0.15-2.63-1.29-2.25-1.78c0.38-0.49,1.61-0.71,2.25-1.01c0.64-0.31,3.17-3.16,3.84-3.83c0.67-0.67,1.08-2.61,1.08-2.61
					l2.81,0.25c0,0-0.02,1.77,0.3,3.25v0c0,0,0,0.01,0,0.01c0.03,0.13,0.06,0.25,0.09,0.37C618.91,465,617.75,468.66,617.75,468.66z
					"/>
			</g>
			<g>
				<path fill="#EEA886" d="M610.39,375.68c0,0,1.37,2.9,0.64,5.26c0,0,4.22-0.58,4.35-1.07c0.13-0.49-0.53-4.93-0.04-6.3
					C615.82,372.22,610.39,375.68,610.39,375.68z"/>
			</g>
			<g>
				<path fill="#254380" d="M610.29,379.98c0,0-2.44,1.05-3.56,1.37c-1.12,0.32-3.41,1.59-2.92,5.69c0.49,4.1,1.46,7.62,1.84,9.37
					c0.39,1.75,0.55,6.26,0.29,8.48c0,0,6.12,1.04,13.08-0.95c0,0-1.52-3.64-1.56-4.6c-0.04-0.97,3.53-9.21,3.64-10.47
					c0.1-1.27,0.54-6.86-1.45-7.94c-1.99-1.08-3.52-0.81-4.36-1.3C614.45,379.13,611.43,379.51,610.29,379.98z"/>
			</g>
			<g>
				<path fill="#254380" d="M610.3,386.36c0,0,0.94-4.93-3.84-4.92c-4.2,0.01-8.16-0.79-8.83-1.16c-0.67-0.37-3.23-1.63-4.58-3.02
					c-1.35-1.39-8.65-6.94-8.65-6.94l-2.02,2.04c0,0,7.71,8.37,8.95,9.18c1.24,0.82,11.67,6.64,13,6.82
					C605.65,388.56,609.37,389.57,610.3,386.36z"/>
			</g>
			<g>
				<path fill="#254380" d="M625.3,401.58c0.14,1.73-0.8,13.71-0.8,13.71l-3.4,0.39c0,0,0.24-11.83,0.43-14.56
					c0.06-0.81-0.13-2.04-0.42-3.37v0c-0.18-0.85-0.41-1.74-0.64-2.59c-0.64-2.35-1.34-4.38-1.34-4.38s-3.8-9.89,0.97-9.49
					c0,0,1.77,1.83,2.52,4.83c0.75,3,1.61,7.49,1.64,9.29C624.31,397.19,625.2,400.3,625.3,401.58z"/>
			</g>
			<g>
				<path fill="#FFCB55" d="M606.76,404.79c0,0-1.1,2.59-1.19,3.25c-0.1,0.65-3.53,9.21-3.77,11.71c-0.24,2.53-0.97,9.28-1.23,10.25
					c-0.26,0.97,0.58,5.29,0.71,6.25c0.13,0.97,0.06,16.76-1.1,24.56c0,0,2.71,1.16,4.77,0c0,0,3.42-12.18,3.22-19.21
					c-0.19-7.03-1.08-9.99,0.01-12.83c1.09-2.84,7.47-11.35,8.12-12.25c0.64-0.9,4.68-5.89,0.86-11.29
					C613.34,399.83,606.76,404.79,606.76,404.79z"/>
			</g>
			<g>
				<path fill="#FFCB55" d="M619.96,427.87c-0.34,2.26,0.02,5.22,0.73,13.47c0.71,8.25-1.24,18.24-1.24,18.24
					c-2.45,0.84-5.27,0-5.27,0c0.06-0.58,0-20.11,0-21.85c0-1.74-0.5-3.72-0.63-5.71c-0.09-1.36-0.72-3.87-1.43-6.43
					c-0.21-0.77-0.43-1.54-0.65-2.29c0,0,0,0,0,0c-0.12-0.42-0.24-0.83-0.35-1.23c-1-3.48-2.35-16.92-2.35-16.92
					s7.48-6.02,11.12-0.35c3.64,5.67,1.77,9.8,1.64,10.51C621.4,416.01,620.3,425.61,619.96,427.87z"/>
			</g>
			<g>
				<path fill="#254380" d="M605.46,394.65c0,0,0.66,10.68-1.32,16.69c0,0,7.9,1.32,17.98-2.08c0,0-2.77-7.18-2.68-8.3
					c0.1-1.12,3.01-14.19,1.61-17.12C619.65,380.92,605.96,385.07,605.46,394.65z"/>
			</g>
			<g>
				<path fill="#EEA886" d="M611.92,363.77c-1.81-0.07-6.42,0.63-5.56,7.58c0.86,6.95,3.37,6.35,5.85,5.43
					c2.49-0.92,5.12-6.54,5.01-7.99C617.12,367.34,617.07,363.98,611.92,363.77z"/>
			</g>
			<g>
				<path fill="#353A3D" d="M606.37,368.21c0,0,2.22,2.36,4.29,2.82c0,0,1.76,2.68,4.54,3.19c0,0,5.41-5.98,0.22-9.8
					C610.23,360.6,606.18,366.08,606.37,368.21z"/>
			</g>
			<g>
				<path fill="#EEA886" d="M610.21,370.1c0.04-0.39,0.83-1.22,1.54-0.4s-0.33,2.93-0.78,2.97
					C610.53,372.7,610.06,371.57,610.21,370.1z"/>
			</g>
			<g>
				<path fill="#DBAF49" d="M616.86,415.75c-0.06,0.13-3.79,8.4-4.74,9.84c-0.21-0.77-0.43-1.54-0.65-2.29c0,0,0,0,0,0
					S616.73,415.93,616.86,415.75z"/>
			</g>
			<g>
				<path fill="#16284D" d="M621.29,389.27c0,0,0.26,5.26-0.17,8.48c-0.18-0.85-0.41-1.74-0.64-2.59
					C620.49,395.05,621.22,390.1,621.29,389.27z"/>
			</g>
			<g>
				<path fill="#353A3D" d="M613.31,363.32c0,0,6.29-0.15,5.34,10.65c-0.73,8.3,2.33,12.4,1.9,13.61c-0.43,1.21-1.9,3.23-5.2,1.41
					c-3.3-1.82-2.12-10.51-3.89-14.21c-1.77-3.7-4.67-6.24-4.67-6.24S607.46,362.24,613.31,363.32z"/>
			</g>
			<g>
				<path fill="#254380" d="M604.83,385.19c0,0-1.44,5.13-1.78,6.34c-0.44,1.57,1.62,4.53,3.44,3.62
					C608.31,394.24,604.83,385.19,604.83,385.19z"/>
			</g>
			<g>
				<path fill="#254380" d="M617.75,468.66h-0.66v-2.78c-0.55,0.05-2.4,1.79-2.97,2.3c-0.57,0.51-1.35,0.48-3.76,0.64
					c-2.41,0.15-2.63-1.29-2.25-1.78c0.38-0.49,1.61-0.71,2.25-1.01c2.57,0.14,5.72-3.48,7.22-3.47c0.8,0,0.79,0.45,0.82,0.53v0
					c0,0,0,0.01,0,0.01c0.03,0.13,0.06,0.25,0.09,0.37C618.91,465,617.75,468.66,617.75,468.66z"/>
			</g>
			<g>
				<path fill="#254380" d="M603.22,469.25h-0.79c0,0,0.26-2.99-0.47-3.02c-0.73-0.03-2.55,2.43-3.63,2.81
					c-1.08,0.38-6.65,0.7-6.68-0.32c-0.03-1.03,2.14-1.44,2.81-1.73c2.3-0.01,6.03-2.53,7.19-3.05c1.16-0.51,2.41-0.2,2.41-0.2
					c0.07,0.48,0.12,0.93,0.13,1.23C604.21,466.08,603.22,469.25,603.22,469.25z"/>
			</g>
		</g>
		<g>
			<g>
				<g>
					<g>
						<g>
							<path fill="#0E2D3D" d="M397.26,97.38c0,0-2.87,1.4-2.16,5.22c0.71,3.82,1.02,4.33,0.23,5.82c-0.79,1.49-1.73,7.85-1.02,9.06
								c0.71,1.21,8.84-5.3,9.96-10.75c1.13-5.46-0.71-7.88-1.36-8.79C402.27,97.03,399.79,96.1,397.26,97.38z"/>
						</g>
					</g>
				</g>
			</g>
		</g>
		<g>
			<g>
				<polygon fill="#78C2FF" points="355.89,69.04 392.06,69.04 392.06,95.26 392.06,100.78 386.54,95.26 355.89,95.26 				"/>
			</g>
		</g>
		<g>
			<path fill="#163342" d="M396.03,178.58c0,0-0.29,0.69-0.84,1.4c-0.4,0.52-1.65,2.67-2.2,2.83c-0.55,0.15-2.25,0.45-2.4,1.4
				c-0.15,0.95-0.23,1.62,1.45,1.7c1.68,0.07,2.77,0.17,3.58-1c0.8-1.17,2.08-2.02,2.08-2.02v3.07h0.65c0,0,0.3-3.19,0.48-3.42
				c0.17-0.23,0.62-2.67-0.93-3.95C396.34,177.31,396.03,178.58,396.03,178.58z"/>
		</g>
		<g>
			<path fill="#EEA886" d="M393,182.81c0,0,1.5,0.37,2.07,0c0.58-0.38,2.53-3.68,3.18-3.88c0,0-0.63-1.27-2.21-0.35
				C396.03,178.58,393.42,182.26,393,182.81z"/>
		</g>
		<g>
			<g>
				<g>
					<g>
						<path fill="#EEA886" d="M378.35,126.26c0,0-1.04,0.2-1.4-0.29c-0.3-0.42-0.99-0.73-1.21-0.83c-0.28-0.13-1.01-0.86-1.18-0.51
							c-0.17,0.36,1.13,1.26,1.37,1.51c0.24,0.24-1.28,0.35-1.54,0.59c-0.26,0.24,0.06,2.73,1.09,2.54c1.03-0.19,2-1.08,2.19-1.08
							c0.19,0,0.75-0.11,0.75-0.11L378.35,126.26z"/>
					</g>
				</g>
			</g>
		</g>
		<g>
			<g>
				<g>
					<g>
						<path fill="#EEA886" d="M374.64,126.62c0,0-3.11,0.8-3.27,1.03c-0.16,0.23-0.11,0.39,0.18,0.33c0.29-0.06,3.03-0.69,3.03-0.69
							s-3.52,1.57-3.7,1.73c-0.1,0.09-0.02,0.42,0.14,0.4c0.16-0.02,3.74-1.38,3.74-1.38s-3.29,1.47-3.39,1.65
							c-0.09,0.15,0.06,0.43,0.31,0.34c0.25-0.09,3.38-1.29,3.38-1.29s-2.32,1.22-2.33,1.42c0,0.12,0.06,0.41,0.65,0.08
							c0.59-0.33,2.06-0.98,2.06-0.98L374.64,126.62z"/>
					</g>
				</g>
			</g>
		</g>
		<g>
			<path fill="#163342" d="M404.42,180.57c0,0-1.67,2.49-2.35,3.09c0,0-1.5,0.55-1.65,1.6c-0.15,1.05-0.12,1.75,1.65,1.8
				c1.77,0.05,2.94-0.27,3.26-1.34c0.33-1.07,1.04-1.81,1.04-1.81v2.25h0.4c0,0,0.1-2.17,0.12-2.57c0.02-0.4,0.29-1.94-0.56-2.62
				C405.49,180.28,404.42,180.57,404.42,180.57z"/>
		</g>
		<g>
			<path fill="#1D3B54" d="M405.54,132.56c0,0,2.11,2.75,2.69,6.01c0.57,3.26-0.34,14.21-0.31,15.82c0.03,1.61,1.53,5.62,1.23,8.66
				c-0.3,3.04-1.48,18.15-1.48,18.15l-3.24-0.64c0,0,0.19-15.41,0-16.69c-0.19-1.28-0.56-5.92-0.64-6.45
				c-0.08-0.52-4.76-14.31-4.76-16.66C399.02,138.42,400.44,128.72,405.54,132.56z"/>
		</g>
		<g>
			<path fill="#1D3B54" d="M394.92,133.64c0,0-3.47,13.26-3.89,15.1c-0.41,1.84-1.01,3.35-1.01,4.13c0,1.81,0.67,4.72,0.67,4.72
				l4.41,21.1h4.2c0,0-2.34-12.66-2.4-15.14c-0.06-2.48-1.97-6-1.6-7.05c0.37-1.05,6.04-13.16,6.04-13.16
				S405.63,129.79,394.92,133.64z"/>
		</g>
		<g>
			<path fill="#EEA886" d="M402.07,183.66c0,0,1.72,0.96,2.82-0.27c0.93-1.04,1.45-2.42,1.45-2.42l-1.92-0.39L402.07,183.66z"/>
		</g>
		<g>
			<g>
				<path fill="#285173" d="M396.35,111.1c0,0-1.43,0.14-2.51,1.29c-1.08,1.16-2.1,3.01-2.38,3.63c-0.28,0.62-4.26,6.35-4.46,6.48
					c-0.21,0.13-2.2,0.8-3.53,1.24c-2.04,0.69-6.14,2.18-6.14,2.18l0.81,2.57c0,0,7.7-2.52,9.63-2.99c2.36-0.58,7.79-7.54,7.79-7.54
					S399.6,113.21,396.35,111.1z"/>
			</g>
		</g>
		<g>
			<g>
				<path fill="#FFC955" d="M398.85,110.1c0,0-1.86,0.88-2.5,1.01c-0.64,0.13-3.14,3.38-3.58,4.56c-0.44,1.19,0,2.96,0.9,5.05
					c0.9,2.09,0.05,2.78,0.46,4.87c0.41,2.09,0.28,9.9,0.2,11.06c-0.08,1.16,12.06,2.92,14.46,0.8c0,0-1.62-7.04-3.54-9.05
					c-0.42-0.43-0.37-3.33-0.09-4.05c0.28-0.72,3.48-6.11,3.48-6.11s0.23-5.46-1.16-6.55c-1.21-0.94-4.51-1.28-5.11-1.48
					C401.79,110,400.06,109.91,398.85,110.1z"/>
			</g>
		</g>
		<g>
			<g>
				<path fill="#EEA886" d="M397.97,107.95c0,0,0.06,0.51,0.12,1.2c0.02,0.27,0.05,0.58,0.08,0.88c0.07,0.93,0.13,1.92,0.1,2.43
					c0,0,1.93,1.93,4.12-2.25c0,0-0.92-1.73-0.23-4.08C402.85,103.78,397.97,107.95,397.97,107.95z"/>
			</g>
		</g>
		<g>
			<path fill="#183C59" d="M392.57,121.48c0,0-0.46-3.09,0.03-4.96c0,0,0,1.61,0.89,3.91L392.57,121.48z"/>
		</g>
		<g>
			<path fill="#EEA886" d="M403.86,110.51c0,0-1.33,3.92-4.97,3.63c-3.64-0.29-1.73-3.31-1.73-3.31s0.91-0.52,1.16-0.57
				c0.26-0.05,4.03-0.1,4.03-0.1L403.86,110.51z"/>
		</g>
		<g>
			<path fill="#285173" d="M397.17,110.83c0,0-1.91,5.28-1.91,10.65c0,5.38-0.15,14.14-0.82,16.9c-0.67,2.77-2.56,11.32-2.56,11.32
				l-1.49-0.77c0,0,3.57-13.65,3.84-14.64c0.27-0.98-0.2-11.39-0.46-12.26c-0.26-0.87-1.35-4.75-1.18-5.82
				c0.21-1.36,1.48-3.36,3.53-5.09L397.17,110.83z"/>
		</g>
		<g>
			<path fill="#285173" d="M403.14,110.34c0,0-1.19,3.8-1.79,8.66c-0.6,4.86,1.84,27.43,3.48,32.55l6.35-1.02
				c0,0-1.37-15.95-3.22-18.85c-1.86-2.9-2.45-5.47-0.44-11.53c2-6.06-0.88-9.06-0.88-9.06S403.7,110.41,403.14,110.34z"/>
		</g>
		<g>
			<polygon fill="#616161" points="396.29,126.44 403.99,139.78 412.55,134.84 405.19,121.3 			"/>
		</g>
		<g>
			<polygon fill="#E0CEC7" points="397.22,126.9 404.06,138.75 411.66,134.36 405.12,122.34 			"/>
		</g>
		<g>
			<polygon fill="#616161" points="399.74,125.84 399.26,125 402.34,123.23 402.94,123.99 			"/>
		</g>
		<g>
			<g>
				<g>
					<g>
						<g>
							<g>
								<path fill="#EEA886" d="M400.11,135.3c0,0,0.35,0,0.5-0.07c0,0,0.27-0.16,0.47-0.26c0.06-0.03,0.12-0.06,0.16-0.07
									c0.16-0.05,0.52-0.13,0.86-0.36c0.34-0.24,1.55-1.63,1.55-1.63l-0.57-0.87l-0.42-0.89c0,0-2.53,0.16-2.88,0.35
									c-0.03,0.02-0.07,0.04-0.09,0.06c-0.28,0.18-0.4,0.44-0.54,0.55c-0.05,0.04-0.51,0.49-0.49,0.68
									c0.02,0.26,0.14,0.44,0.3,0.53c0,0,0.07,0.52,0.32,0.76c0,0,0.05,0.48,0.45,0.69C399.73,134.75,399.83,135.23,400.11,135.3z
									"/>
							</g>
						</g>
					</g>
				</g>
			</g>
		</g>
		<g>
			<g>
				<path fill="#285173" d="M405.33,111.1c0,0,2.34-0.67,3.68,1.91c1.34,2.58,1.33,3.68,1.51,4.94c0.17,1.19,0.93,4.43,1.01,4.77
					c0.08,0.33,1.81,4.33,1.01,5.73c-0.8,1.4-8.89,5.54-8.84,5.84c0.05,0.31-1.4-3.12-1.4-3.12s3.28-1.83,3.81-2.39
					c0.87-0.91,2.71-1.9,2.33-3.03c-0.44-1.33-1.78-5.82-2.09-6.48C406.05,118.61,403.36,111.94,405.33,111.1z"/>
			</g>
		</g>
		<g>
			<g>
				<g>
					<g>
						<g>
							<path fill="#EEA987" d="M397.68,97.8c0,0-4.16,1.31-1.9,8.49c2.26,7.19,7.95-0.83,7.35-5.21
								C402.53,96.71,397.68,97.8,397.68,97.8z"/>
						</g>
					</g>
				</g>
			</g>
		</g>
		<g>
			<g>
				<g>
					<g>
						<g>
							<path fill="#0E2D3D" d="M395.35,102c0,0,2.07,2.03,5.53,2.28c0,0,1.33,1.56,1.43,2.17c0,0,3.09-5.27-0.71-8.42
								C397.81,94.88,393.95,100.7,395.35,102z"/>
						</g>
					</g>
				</g>
			</g>
		</g>
		<g>
			<g>
				<g>
					<g>
						<g>
							<path fill="#EEA987" d="M400.84,104.43c0.03-0.52,0.35-1.71,1.13-1.38c0.78,0.33-0.05,2.76-0.56,2.61
								C401.4,105.65,400.78,105.66,400.84,104.43z"/>
						</g>
					</g>
				</g>
			</g>
		</g>
		<g>
			<path fill="#A77860" d="M398.09,109.16c0.02,0.27,0.05,0.58,0.08,0.88c0,0,1.84-0.11,3.07-2.84
				C401.15,107.31,399.8,109.29,398.09,109.16z"/>
		</g>
		<g>
			<path fill="#C2C2C2" d="M543.1,220.76l-0.9-0.44c0.02-0.03,1.58-3.24,3-8.38l0.96,0.27C544.72,217.45,543.16,220.63,543.1,220.76
				z M547.98,203.34l-0.99-0.13c0.37-2.76,0.56-5.53,0.56-8.23c0-0.22,0-0.44,0-0.66l1-0.01c0,0.23,0,0.45,0,0.68
				C548.55,197.72,548.36,200.54,547.98,203.34z M546.74,185.45c-0.51-2.94-1.28-5.83-2.27-8.59l0.94-0.34
				c1.02,2.82,1.8,5.77,2.32,8.76L546.74,185.45z M540.73,168.79c-1.45-2.53-3.15-4.99-5.06-7.31l0.77-0.63
				c1.94,2.37,3.67,4.88,5.15,7.45L540.73,168.79z M529.53,155.03c-2.2-1.99-4.5-3.78-7.02-5.46l0.55-0.83
				c2.52,1.68,4.92,3.55,7.13,5.55L529.53,155.03z M514.78,145.15c-2.46-1.22-5.14-2.38-8.19-3.57l0.36-0.93
				c3.07,1.19,5.78,2.37,8.27,3.6L514.78,145.15z M498.16,138.54c-0.98-0.34-1.97-0.67-2.96-1.01c-1.84-0.62-3.69-1.25-5.55-1.9
				l0.33-0.94c1.85,0.65,3.7,1.28,5.54,1.9c0.99,0.34,1.98,0.67,2.96,1.01L498.16,138.54z M481.22,132.47
				c-2.98-1.21-5.66-2.43-8.22-3.72l0.45-0.89c2.53,1.28,5.19,2.49,8.14,3.69L481.22,132.47z M465.18,124.26
				c-2.52-1.64-4.97-3.44-7.28-5.34l0.64-0.77c2.28,1.88,4.69,3.66,7.18,5.27L465.18,124.26z M451.28,112.78
				c-2.04-2.1-4.03-4.39-5.93-6.79l0.78-0.62c1.88,2.38,3.85,4.64,5.87,6.72L451.28,112.78z M440.07,98.69
				c-1.6-2.42-3.18-5.01-4.69-7.69l0.87-0.49c1.5,2.66,3.06,5.23,4.65,7.63L440.07,98.69z M431.14,83.08
				c-1.47-2.6-3.11-5.11-4.87-7.47l0.8-0.6c1.78,2.39,3.44,4.94,4.93,7.58L431.14,83.08z M284.8,76.11l-0.82-0.57
				c1.45-2.09,3.16-4.14,5.06-6.11l0.72,0.7C287.9,72.05,286.23,74.06,284.8,76.11z M420.49,68.83c-2.06-2.12-4.28-4.13-6.61-5.99
				l0.62-0.78c2.36,1.88,4.62,3.92,6.71,6.07L420.49,68.83z M296.44,64.23l-0.61-0.79c2.31-1.77,4.84-3.46,7.51-5.03l0.51,0.86
				C301.22,60.82,298.72,62.49,296.44,64.23z M406.56,57.74c-2.5-1.53-5.15-2.94-7.88-4.19l0.42-0.91c2.76,1.27,5.45,2.7,7.98,4.25
				L406.56,57.74z M311.78,55.14l-0.42-0.91c2.68-1.23,5.49-2.37,8.37-3.4l0.33,0.94C317.22,52.79,314.43,53.92,311.78,55.14z
				 M390.39,50.25c-2.77-0.93-5.67-1.75-8.6-2.43l0.23-0.97c2.96,0.68,5.89,1.51,8.69,2.45L390.39,50.25z M328.61,49.13l-0.26-0.97
				c2.88-0.77,5.84-1.43,8.81-1.98l0.18,0.98C334.4,47.71,331.47,48.37,328.61,49.13z M372.99,46.22c-2.91-0.4-5.91-0.68-8.91-0.83
				l0.05-1c3.02,0.16,6.05,0.44,8.99,0.84L372.99,46.22z M346.21,45.88l-0.11-0.99c2.99-0.32,6.02-0.52,9.01-0.61l0.03,1
				C352.18,45.37,349.17,45.57,346.21,45.88z"/>
		</g>
		<g>
			<path fill="#252E3B" d="M504.1,306.25c0,0,12.93-37.92-11.75-49.68c-24.67-11.76-45.63,5.24-49.58,14.43
				c-3.96,9.2-2.91,25.92,0.47,37.57c3.38,11.66,2.88,29.41-4.45,35.34c-7.33,5.94-16.43,15.79-15.97,35.86
				c0.28,12.45,48.99-31.85,48.99-31.85L504.1,306.25z"/>
			<path fill="#FFFFFF" d="M469.43,351.36c0,0-20.28,4.49-28.33,9.2c-8.05,4.7-25.93,26.34-25.93,35.65c0,9.3,78.18,18,78.18,18
				l14.82,54.1c0,0,39.52-9.64,44.22-17.64c4.7-8-15.01-65.31-18.38-76.91c-3.44-11.83-17.6-20.08-34.07-22.39
				C483.47,349.06,469.43,351.36,469.43,351.36z"/>
			<path fill="#EEA886" d="M498.53,351.18c0,0-0.46,24.65-20.01,25.38c-19.55,0.73-15.48-23.64-15.48-23.64
				S477.35,347.12,498.53,351.18z"/>
			<path fill="#252E3B" d="M506.8,276.79c0,0,6.92,39.65-12.78,68.29C473.63,374.74,506.8,276.79,506.8,276.79z"/>
			<path fill="#EEA886" d="M494.34,333.75c0,0-1.36,11.79,0.91,19.12c2.27,7.33-29.89,7.54-29.87,1.51
				c0.02-6.85,3.29-12.57,0.21-24.31C462.5,318.33,494.34,333.75,494.34,333.75z"/>
			<path fill="#A77860" d="M469.39,335.25c0,0,10.15,10.58,23.14,1.1c0,0-1.07,6.76-10.41,7.63
				C472.78,344.86,469.39,335.25,469.39,335.25z"/>
			<path fill="#EEA886" d="M482.11,263.05c0,0,25.66,7.59,22,43.21c-3.67,35.61-20.43,33.78-22,34.04
				c-1.57,0.26-21.47,1.57-27.76-41.64C448.06,255.45,482.11,263.05,482.11,263.05z"/>
			<path fill="#252E3B" d="M475.48,278.93c0,0,13.94,22.18,28.62,27.33c0,0,8.01-37.22-25.09-45.02
				c-33.1-7.8-27.91,37.59-25.44,49.7C453.57,310.93,460.47,293.13,475.48,278.93z"/>
			<path fill="#88C0FF" d="M456.78,275.58c0,0,7.34-14.22,19.74-14.85c12.39-0.63,19.77,10.12,19.77,10.12s-4.84-12.11-19.75-12.11
				C461.62,258.75,456.78,275.58,456.78,275.58z"/>
		</g>
		
			<rect x="505.11" y="460.17" transform="matrix(-1 -1.224647e-16 1.224647e-16 -1 1031.6005 928.4708)" fill="#FFC955" width="21.38" height="8.13"/>
		<polygon fill="#FFC955" points="507.24,387.39 515.94,468.3 401.39,468.3 392.69,387.39 		"/>
		<path fill="#CFA345" d="M461.42,426.54c1.03,5.03-1.32,9.76-5.24,10.57c-3.92,0.8-7.94-2.63-8.97-7.66
			c-1.03-5.03,1.32-9.76,5.24-10.57C456.38,418.07,460.39,421.5,461.42,426.54z"/>
	</g>
</g>
<path fill="#6699CC" d="M232.24,248.82h13.5v15.26c-0.27,0.66-0.78,1.66-1.75,2.58c-1.94,1.83-4.3,1.98-5,2
	c-0.58,0.04-2.28,0.09-4-1c-1.93-1.22-2.59-3.06-2.75-3.58"/>
</svg>
