<?xml version="1.0" encoding="utf-8"?>
<!-- Generator: Adobe Illustrator 23.0.0, SVG Export Plug-In . SVG Version: 6.00 Build 0)  -->
<svg version="1.1" id="Capa_1" xmlns="http://www.w3.org/2000/svg" xmlns:xlink="http://www.w3.org/1999/xlink" x="0px" y="0px"
	 viewBox="0 0 800 600" style="enable-background:new 0 0 800 600;" xml:space="preserve">
<style type="text/css">
	.st0{display:none;fill:#FFFFFF;}
	.st1{display:none;}
	.st2{display:inline;fill:#FFFFFF;}
	.st3{fill:#568FED;}
	.st4{fill:#F0C85E;}
	.st5{fill:#FFFFFF;}
	.st6{fill:#BB6949;}
	.st7{fill:#7A82ED;}
	.st8{fill:#F3D37D;}
	.st9{fill:#D4D4D4;}
	.st10{fill:#E6E6E6;}
	.st11{fill:#C0C0C0;}
	.st12{fill:#DADDEE;}
	.st13{fill:#DBA686;}
	.st14{fill:#B68B72;}
	.st15{fill:#232536;}
	.st16{fill:#525686;}
	.st17{fill:#385988;}
	.st18{fill:#BBB7B5;}
	.st19{fill:#EFE9E7;}
	.st20{fill:#5E8CCD;}
	.st21{fill:#F2ECEA;}
	.st22{fill:#DAD5D3;}
	.st23{fill:#DBA585;}
	.st24{fill:#26283A;}
	.st25{fill:#486B89;}
	.st26{fill:#2E3048;}
	.st27{fill:#A2A6C1;}
	.st28{fill:#454545;}
	.st29{fill:#DCD0C8;}
	.st30{fill:#6D6865;}
	.st31{fill:#C6BBB5;}
	.st32{fill:#A98E75;}
	.st33{fill:#363957;}
	.st34{fill:#E3D6CD;}
	.st35{fill:#C8995F;}
	.st36{fill:#454971;}
	.st37{fill:#3E4148;}
	.st38{fill:#8C8581;}
	.st39{fill:#5D5955;}
	.st40{fill:#B9AFAA;}
	.st41{fill:#ECE0D7;}
	.st42{fill:#F4F6FF;}
	.st43{fill:#8C8480;}
	.st44{fill:#DEDFE6;}
	.st45{fill:#567459;}
	.st46{fill:#6A99BA;}
	.st47{fill:#31413B;}
	.st48{font-family:'Neon80s';}
	.st49{font-size:11.0816px;}
</style>
<g>
	<path class="st0" d="M839.49,119.85v507.28H103.24c-44.69-44.7-91.13-120.71-18.68-206.86
		c115.54-137.35,253.65-28.62,333.52-208.44C496.88,34.42,671.88,22.87,839.49,119.85z"/>
	<g class="st1">
		<path class="st2" d="M570.2,37.93c-33.44,10.86-63.52,28.81-89.41,53.35c-27.16,25.74-49.86,58.91-67.48,98.58
			c-46.44,104.57-111.75,117.75-180.89,131.71c-59.01,11.92-120.04,24.24-176.69,91.59c-34.89,41.47-47.45,84.76-37.36,128.66
			c6.66,28.91,22.9,57.55,48.34,85.32h3.25c-47.45-50.99-84.22-127.02-12.4-212.43c56.11-66.7,116.72-78.94,175.33-90.77
			c69.76-14.08,135.65-27.39,182.6-133.1C450,113.19,502.29,62.51,570.95,40.21c77.3-25.12,171.77-11.52,268.54,38.14v-2.71
			C742.52,26.16,647.82,12.7,570.2,37.93z"/>
	</g>
	<g>
		<g>
			<g>
				<path class="st3" d="M459.03,248.21c-2.69-10.41-6.81-20.22-12.13-29.25l12.34-18.58l-17.13-17.13l-17.13-17.14l-18.58,12.35
					c-9.03-5.32-18.86-9.45-29.25-12.13l-4.4-21.85h-24.23h-24.23l-4.39,21.85c-10.41,2.68-20.22,6.81-29.25,12.13l-18.58-12.35
					l-17.13,17.14l-17.14,17.13l12.35,18.58c-5.33,9.03-9.45,18.85-12.13,29.25l-21.85,4.39v24.23v24.23l21.85,4.4
					c2.68,10.41,6.8,20.22,12.13,29.25L237.8,353.3l17.14,17.13l17.13,17.14l18.58-12.35c9.03,5.32,18.85,9.44,29.25,12.13
					l4.39,21.85h24.23h24.23l4.4-21.85c10.4-2.69,20.22-6.81,29.25-12.13l18.58,12.35l17.13-17.14l17.13-17.13l-12.34-18.58
					c5.32-9.03,9.44-18.85,12.13-29.25l21.85-4.4v-24.23V252.6L459.03,248.21z M348.52,361.75c-46.89,0-84.91-38.01-84.91-84.91
					c0-46.89,38.02-84.9,84.91-84.9c46.9,0,84.91,38.01,84.91,84.9C433.43,323.74,395.42,361.75,348.52,361.75z"/>
			</g>
		</g>
		<g>
			<path class="st4" d="M641.56,131.05C641.27,71.58,584.21,23.65,514.11,24c-70.09,0.35-126.68,48.83-126.39,108.3
				c0.08,15.65,4.09,30.51,11.24,43.89c0.04,0.08,39.13,75.57,44.97,147.35c0.17,33.57,32.38,60.63,71.95,60.43
				c39.57-0.19,71.52-27.57,71.35-61.14c5.13-71.86,43.51-147.79,43.51-147.79l0,0C637.77,161.59,641.64,146.7,641.56,131.05z"/>
			
				<rect x="470.06" y="163.55" transform="matrix(0.9921 -0.1256 0.1256 0.9921 -27.0796 61.2989)" class="st5" width="4.71" height="163.55"/>
			
				<rect x="555.66" y="163.12" transform="matrix(-0.9933 -0.1157 0.1157 -0.9933 1083.9629 552.6884)" class="st5" width="4.71" height="163.55"/>
			<g>
				<polygon class="st5" points="549.5,188.98 531.76,171.42 514.49,188.86 497.34,171.89 480.66,188.74 462.07,170.34 
					464.34,168.04 480.64,184.17 497.32,167.31 514.47,184.29 531.74,166.84 549.47,184.41 565.75,167.96 568.05,170.24 				"/>
			</g>
			<path class="st6" d="M556.59,422.13l-81.25,0.4c-9.02,0.05-16.36-7.23-16.41-16.24l-0.16-31.98l113.9-0.56l0.16,31.97
				C572.88,414.74,565.6,422.09,556.59,422.13z"/>
			<path class="st7" d="M566.61,402.19l-101.48,0.5c-13.54,0.07-24.58-10.86-24.65-24.4l-0.26-53.23l150.53-0.74l0.26,53.23
				C591.08,391.09,580.15,402.13,566.61,402.19z"/>
		</g>
		<path class="st8" d="M608.22,182.08c0,0-2.23-124.46-89.79-141.97c0,0,60.73-2.24,86.81,41.73
			C631.33,125.8,608.22,182.08,608.22,182.08z"/>
		<g>
			<g>
				<g>
					<g>
						<polygon class="st9" points="635.49,276.84 697,242.44 675.86,241.05 						"/>
					</g>
				</g>
			</g>
			<g>
				<g>
					<g>
						<polygon class="st10" points="635.49,276.84 654.41,246.4 670.3,245.97 						"/>
					</g>
				</g>
			</g>
			<g>
				<g>
					<g>
						<polygon class="st11" points="682.85,250.35 684.09,258.1 635.49,276.84 						"/>
					</g>
				</g>
			</g>
		</g>
		<g>
			<path class="st10" d="M196.17,267.94l-1.24-0.06c0.12-2.24,0.26-4.5,0.42-6.71l1.24,0.09
				C196.43,263.46,196.29,265.71,196.17,267.94z M197.14,254.58l-1.24-0.12c0.21-2.23,0.44-4.48,0.69-6.68l1.23,0.14
				C197.58,250.12,197.34,252.36,197.14,254.58z M198.66,241.29l-1.23-0.17c0.31-2.22,0.64-4.46,0.99-6.64l1.23,0.2
				C199.29,236.85,198.96,239.08,198.66,241.29z M702.59,230.81l-0.51-1.13c0.02-0.01,2.44-1.09,5.83-3.2l0.66,1.05
				C705.1,229.69,702.7,230.77,702.59,230.81z M200.78,228.08l-1.22-0.23c0.41-2.2,0.84-4.42,1.3-6.59l1.22,0.25
				C201.62,223.68,201.18,225.89,200.78,228.08z M714.14,223.67l-0.76-0.98c1.79-1.38,3.49-2.83,5.04-4.33l0.86,0.9
				C717.7,220.78,715.97,222.27,714.14,223.67z M203.52,214.99l-1.21-0.29c0.51-2.18,1.06-4.37,1.63-6.52l1.2,0.32
				C204.58,210.64,204.03,212.82,203.52,214.99z M723.88,214.26l-0.97-0.78c1.41-1.76,2.67-3.6,3.74-5.45l1.08,0.62
				C726.63,210.56,725.33,212.44,723.88,214.26z M730.58,202.47l-1.17-0.41c0.74-2.08,1.27-4.22,1.58-6.37l1.23,0.18
				C731.9,198.1,731.34,200.32,730.58,202.47z M206.93,202.06l-1.19-0.35c0.63-2.15,1.29-4.31,1.97-6.43l1.18,0.38
				C208.21,197.77,207.55,199.92,206.93,202.06z M211.03,189.33l-1.17-0.41c0.75-2.11,1.53-4.23,2.33-6.3l1.16,0.45
				C212.55,185.12,211.77,187.23,211.03,189.33z M731.29,189.13c-0.11-2.14-0.42-4.33-0.93-6.52l1.21-0.28
				c0.52,2.26,0.85,4.53,0.96,6.74L731.29,189.13z M215.84,176.86l-1.14-0.48c0.87-2.06,1.78-4.13,2.7-6.16l1.13,0.52
				C217.61,172.75,216.71,174.81,215.84,176.86z M728.39,176.3c-0.78-1.97-1.72-4-2.8-6.01l1.09-0.59c1.11,2.05,2.07,4.12,2.87,6.14
				L728.39,176.3z M221.4,164.71l-1.11-0.55c0.99-2.01,2.03-4.02,3.08-5.98l1.09,0.59C223.42,160.71,222.39,162.71,221.4,164.71z
				 M722.15,164.61l-0.2-0.29c-1.15-1.71-2.46-3.33-3.88-4.84l0.9-0.85c1.47,1.56,2.82,3.24,4.01,5l0.2,0.3L722.15,164.61z
				 M713.18,155.09c-1.68-1.29-3.54-2.51-5.5-3.63l0.61-1.08c2.02,1.15,3.92,2.4,5.65,3.72L713.18,155.09z M227.71,152.93
				l-1.08-0.62c1.12-1.94,2.28-3.88,3.46-5.76l1.05,0.66C229.98,149.07,228.82,151,227.71,152.93z M701.74,148.52
				c-1.94-0.83-4.03-1.63-6.22-2.35l0.39-1.18c2.22,0.74,4.34,1.54,6.32,2.39L701.74,148.52z M689.14,144.29
				c-2.05-0.53-4.24-1.04-6.51-1.51l0.25-1.22c2.29,0.47,4.5,0.98,6.57,1.52L689.14,144.29z M234.78,141.59l-1.03-0.69
				c1.25-1.86,2.54-3.71,3.84-5.52l1.01,0.73C237.3,137.89,236.02,139.74,234.78,141.59z M676.06,141.57
				c-2.08-0.35-4.31-0.68-6.62-1l0.17-1.23c2.33,0.32,4.56,0.66,6.65,1.01L676.06,141.57z M662.79,139.73
				c-2.08-0.24-4.26-0.48-6.67-0.72l0.13-1.24c2.4,0.25,4.59,0.48,6.68,0.73L662.79,139.73z M649.45,138.36
				c-2.21-0.21-4.44-0.41-6.68-0.61l0.11-1.24c2.25,0.2,4.48,0.4,6.69,0.61L649.45,138.36z M636.08,137.15
				c-2.22-0.2-4.45-0.4-6.69-0.61l0.12-1.24c2.24,0.21,4.47,0.41,6.68,0.61L636.08,137.15z M622.71,135.89
				c-2.35-0.24-4.54-0.47-6.68-0.72l0.14-1.23c2.14,0.24,4.32,0.48,6.67,0.72L622.71,135.89z M609.37,134.37
				c-2.28-0.29-4.52-0.6-6.65-0.92l0.18-1.23c2.13,0.31,4.36,0.62,6.63,0.91L609.37,134.37z M596.08,132.4
				c-2.25-0.38-4.48-0.79-6.62-1.21l0.24-1.22c2.13,0.42,4.34,0.82,6.59,1.21L596.08,132.4z M242.6,130.75l-0.98-0.76
				c1.37-1.77,2.79-3.53,4.21-5.24l0.95,0.79C245.36,127.24,243.95,128.99,242.6,130.75z M582.88,129.79
				c-2.22-0.51-4.42-1.05-6.54-1.61l0.32-1.2c2.11,0.56,4.29,1.09,6.5,1.6L582.88,129.79z M569.86,126.34
				c-2.17-0.66-4.33-1.37-6.4-2.1l0.41-1.17c2.06,0.72,4.19,1.42,6.35,2.08L569.86,126.34z M557.16,121.87
				c-2.1-0.85-4.17-1.75-6.17-2.67l0.52-1.13c1.98,0.92,4.03,1.81,6.11,2.65L557.16,121.87z M251.14,120.48l-0.92-0.83
				c1.49-1.66,3.03-3.32,4.57-4.93l0.9,0.86C254.15,117.18,252.62,118.83,251.14,120.48z M544.97,116.21
				c-1.99-1.06-3.96-2.18-5.85-3.33l0.65-1.06c1.87,1.14,3.82,2.24,5.79,3.29L544.97,116.21z M260.4,110.85l-0.86-0.89
				c1.6-1.55,3.25-3.1,4.91-4.59l0.83,0.92C263.63,107.77,261.99,109.3,260.4,110.85z M533.47,109.22
				c-1.85-1.28-3.67-2.63-5.41-4.01l0.77-0.97c1.72,1.36,3.52,2.7,5.35,3.97L533.47,109.22z M270.32,101.9l-0.8-0.95
				c1.71-1.44,3.47-2.86,5.23-4.23l0.76,0.98C273.76,99.06,272.02,100.47,270.32,101.9z M522.92,100.85
				c-1.64-1.47-3.35-2.93-5.07-4.34l0.79-0.96c1.74,1.42,3.45,2.9,5.11,4.38L522.92,100.85z M280.85,93.68l-0.73-1.01
				c1.81-1.31,3.66-2.6,5.52-3.85l0.69,1.03C284.49,91.09,282.65,92.38,280.85,93.68z M512.59,92.39c-1.76-1.32-3.59-2.63-5.42-3.89
				l0.7-1.02c1.85,1.27,3.69,2.59,5.47,3.92L512.59,92.39z M291.94,86.23l-0.66-1.05c1.89-1.18,3.84-2.34,5.77-3.45l0.62,1.08
				C295.76,83.91,293.83,85.06,291.94,86.23z M501.59,84.83c-1.87-1.17-3.79-2.33-5.73-3.44l0.62-1.08
				c1.95,1.12,3.89,2.28,5.77,3.46L501.59,84.83z M303.54,79.58l-0.58-1.1c1.97-1.04,3.99-2.06,6-3.04l0.54,1.12
				C307.5,77.53,305.49,78.54,303.54,79.58z M490,78.19c-1.96-1.02-3.97-2.02-5.98-2.98l0.53-1.12c2.02,0.96,4.05,1.97,6.02,3
				L490,78.19z M315.56,73.75l-0.5-1.13c2.03-0.9,4.11-1.78,6.18-2.61l0.46,1.15C319.65,71.99,317.59,72.86,315.56,73.75z
				 M477.94,72.45c-2.03-0.87-4.11-1.73-6.18-2.53l0.45-1.16c2.09,0.81,4.18,1.67,6.22,2.55L477.94,72.45z M327.93,68.78l-0.42-1.17
				c2.09-0.76,4.22-1.5,6.34-2.19l0.38,1.18C332.13,67.29,330.01,68.02,327.93,68.78z M465.49,67.61c-2.09-0.73-4.22-1.43-6.34-2.09
				l0.37-1.19c2.14,0.66,4.28,1.37,6.39,2.1L465.49,67.61z M340.61,64.64l-0.35-1.19c2.14-0.62,4.32-1.21,6.48-1.76l0.31,1.2
				C344.9,63.43,342.73,64.02,340.61,64.64z M452.73,63.66c-2.13-0.58-4.31-1.14-6.47-1.65l0.29-1.21c2.18,0.52,4.37,1.07,6.51,1.66
				L452.73,63.66z M353.54,61.35l-0.27-1.21c2.17-0.48,4.39-0.93,6.58-1.34l0.23,1.22C357.9,60.42,355.7,60.87,353.54,61.35z
				 M439.73,60.58c-2.17-0.44-4.38-0.85-6.57-1.22l0.21-1.22c2.2,0.37,4.43,0.78,6.61,1.22L439.73,60.58z M366.66,58.9l-0.19-1.23
				c2.2-0.34,4.44-0.64,6.65-0.91l0.15,1.23C371.07,58.26,368.84,58.56,366.66,58.9z M426.55,58.36c-2.2-0.3-4.43-0.56-6.64-0.79
				l0.13-1.24c2.22,0.23,4.47,0.49,6.68,0.79L426.55,58.36z M379.91,57.3l-0.11-1.24c2.22-0.2,4.47-0.36,6.7-0.49l0.07,1.24
				C384.35,56.94,382.11,57.1,379.91,57.3z M413.26,56.99c-2.21-0.16-4.46-0.28-6.67-0.36l0.05-1.24c2.23,0.08,4.49,0.21,6.71,0.36
				L413.26,56.99z M393.23,56.54l-0.03-1.24c2.23-0.06,4.49-0.08,6.71-0.06l-0.01,1.24C397.69,56.47,395.45,56.49,393.23,56.54z"/>
		</g>
		<g>
			<path class="st12" d="M324.9,357.18c0,0-13.15,117.19-20.15,119.41c-7,2.22,87.92-3.47,87.92-3.47s-14.34-100.11-15.26-116.75
				S324.9,357.18,324.9,357.18z"/>
			<g>
				<path class="st13" d="M356.94,218.02c0,0,11.78,1.99,9.78,20.43c-2,18.44-12.4,16.82-13.09,16.79
					c-0.7-0.03-10.46,0.22-10.98-22.33C342.66,232.91,342.51,216.24,356.94,218.02z"/>
			</g>
			<g>
				<path class="st13" d="M362.1,250.2c0,0-0.45,7.65,0.26,9.3c0.72,1.65-9.41,6.82-15.74,0.87c0,0,1.28-8.3,0.88-11.23
					C347.12,246.21,362.1,250.2,362.1,250.2z"/>
			</g>
			<g>
				<path class="st13" d="M366.96,233.23c0,0,1.31-1.37,1.76,0.04c0.46,1.4-1.65,7.45-1.93,7.9c0,0-0.24,0.54-0.55,0.24
					C365.95,241.11,366.96,233.23,366.96,233.23z"/>
			</g>
			<g>
				<path class="st13" d="M342.79,232.74c0,0-1.25-1.42-1.77-0.04c-0.52,1.38,1.37,7.59,1.6,7.97c0,0,0.41,0.64,0.72,0.35
					C343.67,240.73,342.79,232.74,342.79,232.74z"/>
			</g>
			<path class="st14" d="M348.32,252.77c0,0,1.88,2.61,6.25,2.51c4.37-0.1,6.27-2.38,6.27-2.38s-2.07,4.33-6.29,4.28
				C350.33,257.14,348.32,252.77,348.32,252.77z"/>
			<path class="st15" d="M318.23,489.93c0,0-1.61,3.62-2.97,5.05c-1.36,1.43-6.56,4-6.58,8.26c-0.03,4.62,8.76,3.34,12.2,3.17
				c3.44-0.17,3.7-2.64,5.15-5.25c1.45-2.62,2.91-2.17,3.18-4.28c0.27-2.11-1.11-6.83-1.11-6.83L318.23,489.93z"/>
			<path class="st16" d="M318.08,488.6l-0.25,2.19c0,0,5.41,1.81,10.52,0.19l-0.28-3L318.08,488.6z"/>
			<g>
				<g>
					<g>
						<polygon class="st17" points="535.06,498.35 533.82,498.3 540.05,341.93 432.32,341.93 426.09,498.35 424.85,498.3 
							431.13,340.69 541.34,340.69 						"/>
					</g>
				</g>
			</g>
			<g>
				<g>
					<g>
						<polygon class="st17" points="545.15,498.35 538.91,341.93 431.18,341.93 437.41,498.3 436.18,498.35 429.9,340.69 
							540.11,340.69 546.38,498.3 						"/>
					</g>
				</g>
			</g>
			<g>
				<g>
					<polygon class="st18" points="436.79,447.47 545.76,447.47 539.51,290.46 430.54,290.46 					"/>
				</g>
			</g>
			<g>
				<g>
					<polygon class="st19" points="531.36,447.47 422.39,447.47 428.65,290.46 537.62,290.46 					"/>
				</g>
			</g>
			<g>
				<g>
					<polygon class="st20" points="457.32,400.17 456.13,399.75 466.46,370.77 488.86,364.85 496.9,333.05 514.19,325.42 
						518.06,300.69 519.31,300.89 515.33,326.29 497.98,333.95 489.89,365.88 467.42,371.82 					"/>
				</g>
			</g>
			<g>
				<path class="st21" d="M491.98,363.24c1.18,1.44,0.96,3.55-0.48,4.73c-1.44,1.17-3.55,0.96-4.73-0.48
					c-1.17-1.43-0.96-3.55,0.48-4.73C488.69,361.58,490.8,361.8,491.98,363.24z"/>
			</g>
			<g>
				<path class="st20" d="M491.9,368.45c-1.7,1.39-4.22,1.14-5.62-0.57c-1.39-1.7-1.14-4.22,0.56-5.62c1.7-1.39,4.22-1.14,5.62,0.56
					C493.86,364.54,493.6,367.06,491.9,368.45z M487.65,363.25c-1.17,0.95-1.34,2.68-0.39,3.84s2.68,1.34,3.84,0.39
					c1.17-0.95,1.34-2.68,0.39-3.84C490.54,362.47,488.81,362.29,487.65,363.25z"/>
			</g>
			<g>
				<path class="st21" d="M500.13,331.56c1.18,1.44,0.96,3.56-0.48,4.73c-1.44,1.17-3.55,0.96-4.73-0.48
					c-1.17-1.44-0.96-3.55,0.48-4.73C496.84,329.91,498.96,330.13,500.13,331.56z"/>
			</g>
			<g>
				<path class="st20" d="M500.06,336.78c-1.71,1.39-4.22,1.14-5.62-0.56c-1.39-1.71-1.14-4.22,0.57-5.62
					c1.7-1.39,4.22-1.14,5.62,0.56C502.01,332.87,501.76,335.39,500.06,336.78z M495.8,331.58c-1.17,0.95-1.34,2.68-0.39,3.84
					c0.95,1.17,2.68,1.34,3.84,0.38c1.17-0.95,1.34-2.68,0.38-3.84C498.69,330.8,496.97,330.62,495.8,331.58z"/>
			</g>
			<g>
				<path class="st21" d="M517.15,323.72c1.17,1.44,0.96,3.56-0.48,4.73c-1.44,1.17-3.56,0.96-4.73-0.48
					c-1.17-1.44-0.96-3.55,0.48-4.73C513.86,322.07,515.98,322.28,517.15,323.72z"/>
			</g>
			<g>
				<path class="st21" d="M469.67,369.46c1.17,1.44,0.96,3.56-0.48,4.73c-1.44,1.17-3.56,0.96-4.73-0.48
					c-1.17-1.44-0.96-3.56,0.48-4.73C466.37,367.81,468.49,368.02,469.67,369.46z"/>
			</g>
			<g>
				<path class="st20" d="M469.59,374.67c-1.71,1.39-4.22,1.14-5.62-0.57c-1.39-1.7-1.14-4.22,0.57-5.62
					c1.7-1.39,4.22-1.14,5.62,0.56C471.55,370.76,471.3,373.28,469.59,374.67z M465.34,369.47c-1.17,0.95-1.34,2.68-0.39,3.84
					c0.95,1.17,2.68,1.34,3.84,0.39c1.17-0.95,1.34-2.68,0.38-3.84C468.23,368.69,466.5,368.52,465.34,369.47z"/>
			</g>
			<g>
				<g>
					<g>
						<path class="st22" d="M474.67,331.43h-31.46c-0.61,0-1.1-0.49-1.1-1.1v-4.78c0-0.61,0.49-1.1,1.1-1.1h31.46
							c0.61,0,1.1,0.49,1.1,1.1v4.78C475.77,330.94,475.28,331.43,474.67,331.43z"/>
					</g>
				</g>
			</g>
			<g>
				<g>
					<g>
						<path class="st22" d="M474.67,319.25h-31.46c-0.61,0-1.1-0.49-1.1-1.1v-4.78c0-0.6,0.49-1.09,1.09-1.09h31.46
							c0.61,0,1.1,0.49,1.1,1.1v4.78C475.77,318.76,475.28,319.25,474.67,319.25z"/>
					</g>
				</g>
			</g>
			<g>
				<path class="st20" d="M517.07,328.94c-1.7,1.39-4.22,1.14-5.62-0.57c-1.39-1.7-1.14-4.22,0.57-5.62
					c1.7-1.39,4.22-1.14,5.62,0.56C519.03,325.02,518.78,327.54,517.07,328.94z M512.82,323.73c-1.17,0.95-1.34,2.68-0.39,3.84
					c0.95,1.17,2.68,1.34,3.84,0.39c1.17-0.95,1.34-2.68,0.38-3.85C515.71,322.95,513.99,322.78,512.82,323.73z"/>
			</g>
			<g>
				<g>
					<polygon class="st20" points="448.17,428.15 447.42,427.61 460.7,409.12 477.84,409.49 490.08,388.52 503.93,386.63 
						511.75,369.84 512.59,370.23 504.56,387.49 490.65,389.38 478.37,410.43 461.17,410.06 					"/>
				</g>
			</g>
			<g>
				<path class="st21" d="M480.39,408.98c0.54,1.26-0.04,2.72-1.31,3.27c-1.26,0.54-2.73-0.04-3.26-1.31
					c-0.54-1.26,0.04-2.73,1.31-3.27C478.39,407.13,479.85,407.72,480.39,408.98z"/>
			</g>
			<g>
				<path class="st20" d="M479.27,412.67c-1.5,0.64-3.24-0.05-3.88-1.55c-0.64-1.5,0.06-3.24,1.55-3.88
					c1.5-0.64,3.24,0.06,3.88,1.55C481.46,410.29,480.76,412.03,479.27,412.67z M477.31,408.1c-1.03,0.44-1.5,1.63-1.06,2.65
					c0.44,1.02,1.63,1.5,2.65,1.06c1.02-0.44,1.5-1.63,1.06-2.65C479.52,408.14,478.33,407.66,477.31,408.1z"/>
			</g>
			<g>
				<path class="st21" d="M492.68,388.12c0.54,1.26-0.04,2.72-1.31,3.27c-1.26,0.54-2.73-0.04-3.27-1.31
					c-0.54-1.26,0.04-2.73,1.31-3.26C490.67,386.28,492.14,386.86,492.68,388.12z"/>
			</g>
			<g>
				<path class="st20" d="M491.55,391.82c-1.5,0.64-3.24-0.05-3.88-1.55c-0.64-1.5,0.05-3.24,1.55-3.88
					c1.5-0.64,3.24,0.06,3.88,1.55C493.75,389.44,493.05,391.18,491.55,391.82z M489.59,387.25c-1.02,0.44-1.5,1.63-1.06,2.65
					c0.44,1.02,1.63,1.5,2.65,1.06c1.03-0.44,1.5-1.63,1.06-2.65C491.81,387.28,490.62,386.81,489.59,387.25z"/>
			</g>
			<g>
				<path class="st21" d="M506.39,386.03c0.54,1.26-0.04,2.73-1.31,3.27c-1.26,0.54-2.73-0.05-3.27-1.31
					c-0.54-1.26,0.04-2.72,1.31-3.27C504.38,384.18,505.85,384.77,506.39,386.03z"/>
			</g>
			<g>
				<path class="st21" d="M463.25,408.84c0.54,1.26-0.05,2.72-1.31,3.27c-1.26,0.54-2.72-0.04-3.27-1.31
					c-0.54-1.26,0.05-2.72,1.31-3.26C461.24,406.99,462.71,407.57,463.25,408.84z"/>
			</g>
			<g>
				<path class="st20" d="M462.13,412.53c-1.5,0.64-3.24-0.05-3.88-1.55c-0.64-1.5,0.05-3.24,1.55-3.88
					c1.5-0.64,3.24,0.05,3.88,1.55C464.32,410.15,463.62,411.89,462.13,412.53z M460.17,407.96c-1.02,0.44-1.5,1.63-1.06,2.65
					c0.44,1.02,1.63,1.5,2.65,1.06c1.02-0.44,1.5-1.63,1.06-2.66C462.38,407.99,461.19,407.52,460.17,407.96z"/>
			</g>
			<g>
				<path class="st20" d="M505.26,389.72c-1.5,0.64-3.24-0.05-3.88-1.55c-0.64-1.5,0.05-3.24,1.55-3.88
					c1.5-0.64,3.24,0.05,3.88,1.55C507.46,387.34,506.76,389.08,505.26,389.72z M503.3,385.15c-1.03,0.44-1.5,1.63-1.06,2.65
					c0.44,1.02,1.63,1.5,2.65,1.06c1.03-0.44,1.5-1.63,1.06-2.65C505.52,385.19,504.33,384.71,503.3,385.15z"/>
			</g>
			<g>
				<g>
					<g>
						<path class="st23" d="M425.32,296.4c0,0,3.55-1.12,3.84-3.22c0.24-1.79,1.85-3.93,2.34-4.59c0.66-0.88,1.68-4.34,2.8-3.52
							c1.12,0.82-1.4,5.79-1.72,6.93c-0.32,1.15,4.54-1.03,5.74-0.73c1.2,0.3,4.36,8.55,0.85,9.66c-3.51,1.11-7.99-0.02-8.57,0.3
							c-0.58,0.32-2.52,0.91-2.52,0.91L425.32,296.4z"/>
					</g>
				</g>
			</g>
			<g>
				<g>
					<g>
						<path class="st23" d="M437.43,291.34c0,0,10.96-2.69,11.85-2.26c0.88,0.43,0.99,1.04-0.02,1.33
							c-1.02,0.29-10.52,2.91-10.52,2.91s13.51-1,14.31-0.81c0.47,0.11,0.75,1.27,0.22,1.48c-0.53,0.21-13.87,1.97-13.87,1.97
							s12.62-0.91,13.24-0.55c0.54,0.32,0.54,1.44-0.4,1.58c-0.93,0.13-12.59,1.64-12.59,1.64s9.23-0.09,9.57,0.53
							c0.21,0.38,0.5,1.36-1.88,1.31c-2.38-0.05-8.01,0.42-8.01,0.42L437.43,291.34z"/>
					</g>
				</g>
			</g>
			<g>
				<path class="st12" d="M373.23,284.58c0,0,2.85,5.02,6.66,10.68c0.35,0.52,0.71,1.05,1.07,1.57c0,0,0,0,0,0
					c0.5,0.71,1,1.43,1.52,2.14c0.62,0.85,1.24,1.69,1.88,2.51c3.53,4.58,7.25,8.47,10.07,9.17c6.11,1.5,36.78-5.3,36.78-5.3
					l-2.37-12.06c0,0-10.75,3.66-17.94,4.26c-4.41,0.37-9.9,1.81-10.55,1.4c-0.65-0.41-13.23-18.55-14.13-20.51
					c-0.9-1.96-4.92-9.64-8.35-13.31c-3.43-3.67-7.15-2.27-7.15-2.27C360.43,269.57,373.23,284.58,373.23,284.58z"/>
			</g>
			<g>
				<path class="st24" d="M387.09,488.87c0,0,4.74,4.98,9.56,6.02c4.82,1.04,8.18,2.37,8.22,5.23c0.04,2.86-13.86,4.74-19.37,1.86
					c-8.22-4.3-9.06-3-9.97-5.15c-0.91-2.15,1.09-7.9,1.04-8.58C376.49,487.4,387.09,488.87,387.09,488.87z"/>
			</g>
			<g>
				<path class="st25" d="M386.56,486.48c0,0,0.63,2.33,0.53,2.38c-0.09,0.05-10.85,1.25-10.53-0.62c0.26-1.52,0.64-3.17,0.64-3.17
					L386.56,486.48z"/>
			</g>
			<g>
				<path class="st26" d="M375.71,346.33c0,0,4.98,36.19,7.02,48.43c2.38,14.31,3.19,26.13,3.85,33.53
					c0.83,9.31,1.94,56.97,2.53,59.69c0.58,2.72-14.51,1.31-14.51,1.31s-7.91-62.13-10.39-72.05c-2.31-9.24-9.05-49.13-11.17-46.6
					c-2.11,2.52-11.14,48.04-12.7,55.32c-1.57,7.28-10.31,65.7-10.31,65.7s-9.36,1.7-15.04-1.17c0,0,4.4-51.09,5.4-64.75
					c0.38-5.2,1.31-62.38,10.11-85.4C335.13,328.17,375.71,346.33,375.71,346.33z"/>
			</g>
			<path class="st12" d="M361.09,259.53c0,0,13.19,2.72,14.75,4.11c1.7,1.48,4.69,15.92,4.87,19.94c0.18,4.02-1.59,20.82-3.29,27.08
				c-1.7,6.26-1.08,37.04-0.01,45.71c0,0-19.54,8.75-52.51,0.81c0,0,5.74-28.54,4.7-37.11c-1.34-10.99-3.97-37.94-3.97-37.94
				s-0.08-16.49,2.24-18.46c2.32-1.97,19.43-4.14,19.43-4.14H361.09z"/>
			<path class="st12" d="M335.32,262.88c0,0,8.26,2.28,3.71,17.43c-3.56,11.87-4.04,14.42-4.04,14.42l-19.06-4.76
				c0,0,4.88-25.08,14-27.24C329.94,262.74,333.54,262.08,335.32,262.88z"/>
			<path class="st27" d="M379.89,295.26c0.35,0.52,0.71,1.05,1.07,1.57c0,0,0,0,0,0c0.5,0.71,1,1.43,1.52,2.14
				c0.39-7.06-1.47-16.86-1.47-16.86C381.37,285.41,379.89,295.26,379.89,295.26z"/>
			<rect x="367.6" y="284.37" class="st12" width="8.1" height="12.36"/>
			<path class="st12" d="M362.04,257.61c0,0-8.15,2.4-14.98-0.42l-0.47,3.34c0,0,9.16,3.48,16.31,1.89L362.04,257.61z"/>
			<path class="st23" d="M315.31,355.9c0,0,0.7,4.27,1.27,5.07c0.57,0.8,2.08,4.79,2.23,5.35c0.15,0.56,1.03,4.57,1.19,5.08
				c0.15,0.51-1,1.26-1.75,0.18c-0.46-0.68-1.24-3.28-1.56-4.12c-0.32-0.84-1.31-3.5-1.6-3.03c-0.3,0.47-0.32,4-0.4,4.91
				c-0.07,0.91,0.43,3.72,0.67,4.88c0.24,1.16,1.64,6.05,1.02,6.3c-0.62,0.24-1.14,0.16-1.9-1.17c0,0-1.28,0.67-1.97-0.94
				c0,0-1.14,0.38-1.78-1.72c0,0-0.79-0.46-1.08-1.22c-0.29-0.75-1.94-7.18-1.86-9.78c0.09-2.6,0.75-4.4,0.69-6.24
				c-0.06-1.84-0.89-5.79-0.89-5.79L315.31,355.9z"/>
			<g>
				<path class="st12" d="M317.56,360.4c0,0-4.55,0.72-11.08,0.17c0,0,3.7-42.04,3.51-44.42c-0.18-2.2,8.49-41.26,13.25-47.18
					l7.24,22.85c-0.55-0.18-7.88,23.3-7.98,25.72C322.36,320.78,317.56,360.4,317.56,360.4z"/>
			</g>
			<path class="st28" d="M367.8,229.84c0.36-4.9,0-8.95-0.64-11.45c-0.78-3.08-5.77-2.24-5.77-2.24v0c-7.61-2.28-12.19-1.23-15.07,0
				c-4.31,3.53-4.64,9.55-4.45,12.86c0.09,0.78,0.18,1.57,0.26,2.34c0,0.02,0,0.02,0,0.02c0.39,3.29,0.79,6.16,0.79,6.16l1.37,1.58
				c0,0-0.35-5.49,0.49-5.79c0.45-0.17,0.56-1.27,0.56-2.26c0.01-0.85-0.07-1.61-0.07-1.61c8.8-4.05,18.67-1.16,18.89-0.6
				c0.14,0.35,0.34,1.4,0.54,2.34c0.12,0.57,0.24,1.09,0.34,1.38c0.26,0.78,0.16,5.73,0.16,5.73l1.72-2.24c0,0,0.22-1.07,0.5-2.68
				l0,0v0c0.09-0.52,0.19-1.1,0.29-1.72C367.72,231.67,367.79,230.97,367.8,229.84z"/>
			<path class="st12" d="M348.53,360.12c0,0-15.34,109.06-19.28,106.88c-3.94-2.19-18.37-1.81-24.5,9.59s21.5-112.43,20.15-119.41
				S348.53,360.12,348.53,360.12z"/>
		</g>
		<g>
			<g>
				<rect x="173" y="419.49" class="st29" width="51.32" height="3.05"/>
			</g>
			<g>
				
					<rect x="179.88" y="430.46" transform="matrix(-1 -1.224647e-16 1.224647e-16 -1 364.2528 999.4743)" class="st30" width="4.5" height="138.55"/>
			</g>
			<g>
				<rect x="216.29" y="418.62" class="st31" width="35.67" height="4.35"/>
			</g>
			<g>
				<rect x="227.37" y="381.5" class="st31" width="13.51" height="41.03"/>
			</g>
			<g>
				<rect x="154.59" y="422.58" class="st32" width="197.66" height="7.88"/>
			</g>
			<g>
				<path class="st33" d="M116.65,374.9c0,0-2.16,30.32,3.76,33.95c3.71,2.27,18.5,9.94,18.07,11.38
					c-0.44,1.44-8.35,12.79-8.35,12.79s-28.42-18.72-29.34-24.61c-0.89-5.76,1.4-44.39,5.31-46.17c2.92-1.33,4.47-0.23,8.16,2.51
					C119.43,368.58,116.65,374.9,116.65,374.9z"/>
			</g>
			<g>
				<g>
					<g>
						<path class="st34" d="M168.45,383.56l2.51-0.93c0,0-3.12-7.33-4.49-7.15c-1.57,0.2-3.53,0.72-3.53,0.72L168.45,383.56z"/>
					</g>
				</g>
			</g>
			<g>
				<g>
					<g>
						<path class="st35" d="M169.02,384.82c-0.32-0.24-5.33-9.84-5.33-9.84L153,376.44l5.78,11.37L169.02,384.82z"/>
					</g>
				</g>
			</g>
			<g>
				<g>
					<g>
						<path class="st36" d="M151.62,550.09c0,0-0.88,6.13-0.99,7.06c-0.11,0.92-9.83-0.54-9.83-0.54l-0.79-7.3
							C140.01,549.31,150.4,549.23,151.62,550.09z"/>
					</g>
				</g>
			</g>
			<g>
				<g>
					<g>
						<path class="st26" d="M150.73,556.37c0,0,3.08,3.7,6.06,5.31c2.98,1.61,7.66,2.25,9.42,3.92c1.27,1.2,4.63,6.39-7.74,6.28
							c-12.37-0.11-18.34,0.73-19.66-1.26c-1.33-1.99,1.92-14.67,1.92-14.67S143.65,557.01,150.73,556.37z"/>
					</g>
				</g>
			</g>
			<g>
				<g>
					<g>
						<path class="st36" d="M213.9,550.15c0,0-0.88,6.14-0.99,7.06c-0.11,0.92-9.83-0.54-9.83-0.54l-0.79-7.3
							C202.28,549.36,212.68,549.29,213.9,550.15z"/>
					</g>
				</g>
			</g>
			<g>
				<g>
					<g>
						<path class="st26" d="M213.01,556.43c0,0,3.08,3.7,6.06,5.31c2.98,1.61,13.94,2.93,15.7,4.6c1.27,1.2,3.39,6.05-14.02,5.6
							c-12.37-0.32-18.34,0.73-19.66-1.26c-1.32-1.99,1.92-14.67,1.92-14.67S205.76,557.14,213.01,556.43z"/>
					</g>
				</g>
			</g>
			<g>
				<g>
					<g>
						<path class="st26" d="M120.27,444.14c0,0,35.34,5.98,43.32,7.23c7.98,1.25,51.26,12.02,56.67,15.3
							c4.31,2.61-2.26,65.35-3.79,89.28h-17.05l-1.24-71.8c-20.46,0.51-35.05-4.78-49.95-2.52c-14.9,2.26-27.31,5.48-36.78-7.22
							C111.46,474.42,111.11,446.91,120.27,444.14z"/>
					</g>
				</g>
			</g>
			<g>
				<g>
					<g>
						<path class="st26" d="M155.1,556.01l-16.61-1.03l-1.62-70.83c-8.81,0.22-11.82-0.34-18.95-1.2l-13.41-31.17
							c11.75,2.35,49.42,11.85,54.44,14.89C163.25,469.29,156.63,532.08,155.1,556.01z"/>
					</g>
				</g>
			</g>
			<g>
				<g>
					<g>
						<path class="st23" d="M136.54,311.67c0,0,12.95-3.58,17.9,6.48c4.94,10.06,2.7,29.12-3.83,30.91
							c-6.53,1.8-15.92-0.27-18.63-6.53c-2.71-6.26-4.87-15.15-4.22-20.91C128.4,315.86,133.09,313.05,136.54,311.67z"/>
					</g>
				</g>
			</g>
			<g>
				<g>
					<g>
						<path class="st23" d="M147.22,347.06c0,0-0.14,7.65,0.7,9.28c0.84,1.63-18.04,1.22-18.04,1.22s2.98-9.19,1.29-17.01
							C129.5,332.8,147.22,347.06,147.22,347.06z"/>
					</g>
				</g>
			</g>
			<g>
				<g>
					<g>
						<path class="st37" d="M130.15,337.65c0,0,1.01,2.05,5.9,1.72c4.89-0.33,11.33-6.23,13.41-6.76c2.08-0.52,2.2-1.71,2.2-1.71
							l1.1,1.95l2.13,0.32c0,0-1.45-5.91,1.7-7.99c3.15-2.08-1.42-18.84-17.35-14.8c0,0-12.16,2.23-12.33,9.02
							C126.74,326.21,127.79,334.05,130.15,337.65z"/>
					</g>
				</g>
			</g>
			<g>
				<g>
					<g>
						<path class="st29" d="M148.91,356.14c0,0-0.05-3.11-1.46-3.41c-1.41-0.3-14.84-2.14-16.58-1.46l-0.74,4.11
							C130.13,355.37,133.47,357.43,148.91,356.14z"/>
					</g>
				</g>
			</g>
			<g>
				<g>
					<g>
						<path class="st23" d="M152.8,329.51c-0.36-2.55-3.27-5.48-4.93-1.51c-1.66,3.98,1.12,9.77,2.99,9.46
							C152.72,337.16,153.29,332.98,152.8,329.51z"/>
					</g>
				</g>
			</g>
			<g>
				<g>
					<g>
						<path class="st33" d="M205.17,392.95c-0.01,0-0.01,0-0.02,0C205.24,392.99,205.26,392.99,205.17,392.95z"/>
					</g>
				</g>
			</g>
			<g>
				<g>
					<g>
						<path class="st37" d="M132.76,313.49c0,0-15.8-0.74-2.76,23.91L132.76,313.49z"/>
					</g>
				</g>
			</g>
			<g>
				<g>
					<polygon class="st38" points="97.56,564.41 98.74,567.72 148.39,552.34 146.01,545.64 					"/>
				</g>
			</g>
			<g>
				<g>
					<rect x="144.45" y="496.01" class="st38" width="5.64" height="53.98"/>
				</g>
			</g>
			<g>
				<g>
					<rect x="130.63" y="493.14" class="st39" width="33.28" height="3.18"/>
				</g>
			</g>
			<g>
				<g>
					<polygon class="st38" points="197.41,564.41 196.23,567.72 146.58,552.34 148.77,545.22 					"/>
				</g>
			</g>
			<g>
				<g>
					<polygon class="st38" points="162.43,567.37 162.43,571.21 146.58,552.34 148.77,545.22 					"/>
				</g>
			</g>
			<g>
				<g>
					<path class="st40" d="M202.05,569.01c0,2.56-2.08,4.64-4.64,4.64c-2.56,0-4.64-2.08-4.64-4.64c0-2.56,2.08-4.64,4.64-4.64
						C199.97,564.37,202.05,566.45,202.05,569.01z"/>
				</g>
			</g>
			<g>
				<g>
					<path class="st40" d="M162.82,569.01c0,2.56-2.08,4.64-4.64,4.64c-2.56,0-4.64-2.08-4.64-4.64c0-2.56,2.08-4.64,4.64-4.64
						C160.74,564.37,162.82,566.45,162.82,569.01z"/>
				</g>
			</g>
			<g>
				<g>
					<path class="st40" d="M102.2,569.01c0,2.56-2.08,4.64-4.64,4.64c-2.56,0-4.64-2.08-4.64-4.64c0-2.56,2.08-4.64,4.64-4.64
						C100.13,564.37,102.2,566.45,102.2,569.01z"/>
				</g>
			</g>
			<g>
				<path class="st29" d="M184.21,493.14h-73.45c-1.49,0-2.7-1.21-2.7-2.7v-6.64c0-1.49,1.21-2.7,2.7-2.7h73.45
					c1.49,0,2.7,1.21,2.7,2.7v6.64C186.91,491.93,185.7,493.14,184.21,493.14z"/>
			</g>
			<g>
				<rect x="322.46" y="430.46" class="st30" width="4.5" height="138.55"/>
			</g>
			<g>
				<path class="st41" d="M289.76,401.27H178.5c-1.49,0-2.69-1.21-2.69-2.69v-76.9c0-1.49,1.21-2.69,2.69-2.69h111.26
					c1.49,0,2.69,1.21,2.69,2.69v76.9C292.45,400.06,291.24,401.27,289.76,401.27z"/>
			</g>
			<g>
				<rect x="180.37" y="323.42" class="st42" width="107.51" height="64.95"/>
			</g>
			<g>
				<path class="st43" d="M237.89,393.57c0,2.08-1.69,3.76-3.76,3.76c-2.08,0-3.76-1.68-3.76-3.76c0-2.08,1.69-3.76,3.76-3.76
					C236.2,389.8,237.89,391.49,237.89,393.57z"/>
			</g>
			<g>
				<path class="st29" d="M258.27,422.69v-1.46c0,0-2.06-9.11-16.62-9.11s-14.27,10.57-14.27,10.57H258.27z"/>
			</g>
			<g>
				<g>
					<path class="st23" d="M227.21,413.47c0,0,3.16-0.25,4.32-0.94c1.16-0.7,8.09-5.36,9.72-4.62c1.63,0.75,12.47,4.07,12.09,5.65
						c-0.38,1.59-1.38,1.43-2.14,1.15c-0.77-0.28-8.64-1.93-9.33-1.65c0,0,7.73,2.82,7.76,4.88c0.03,2.06-1.62,2.56-2.35,3.34
						c-0.73,0.78-1.62,2.71-3.61,2.86c-1.99,0.15-11.71-3.23-13.72-3.39c-2-0.16-5.71,0.12-5.96-0.2
						C223.75,420.22,227.21,413.47,227.21,413.47z"/>
				</g>
			</g>
			<g>
				<g>
					<g>
						<path class="st26" d="M169.62,360.45c-10.09-1.77-20.7-4.32-20.7-4.32l-18.78-0.76c0,0-17.24,3.79-24.03,6.86
							c-0.65,0.29-0.65,15.38-2.42,19.34l5.63,11.88c0,0,3.25,23.52,3.93,33.99c0.31,4.8-0.88,46.42-0.88,46.42
							s1.69,0.83,14.51,2.25s44.85-0.51,45.06-2.03c0.2-1.51-6.2-56.38-6.49-59.23c-0.43-4.36,1.26-24.51,1.26-24.51
							c2.42,3.25,8.57,17.9,14.99,24.87c3.78,4.1,22.47,6.62,26,6.73c7.67,0.26,21.66,1.78,22.08,1.04
							c0.32-0.45,1.22-12.42,0.34-12.71c-0.77-0.26-26.75-1.75-33.41-5.28c-2.44-1.29-9.72-17.17-9.72-17.17
							S175.18,362.95,169.62,360.45z"/>
					</g>
				</g>
			</g>
			<g>
				<path class="st29" d="M138.83,472.65H94.83c-2.86,0-5.19-2.32-5.19-5.19v-64.94c0-2.86,2.32-5.18,5.18-5.18h44.01
					c2.86,0,5.18,2.32,5.18,5.18v64.94C144.02,470.33,141.7,472.65,138.83,472.65z"/>
			</g>
			<g>
				<path class="st29" d="M134.38,490.14c-8.02,0-14.52-2.69-19.33-8c-10.87-12-8.92-33.1-8.83-33.99c0.17-1.66,1.65-2.88,3.31-2.71
					c1.66,0.17,2.88,1.65,2.71,3.31c-0.02,0.24-1.76,19.36,7.3,29.34c3.66,4.04,8.52,6,14.83,6c1.67,0,3.03,1.35,3.03,3.03
					C137.41,488.78,136.05,490.14,134.38,490.14z"/>
			</g>
			<g>
				<g>
					<g>
						<path class="st44" d="M219.1,332.03h-30.72c-0.21,0-0.39-0.17-0.39-0.39v-2.66c0-0.21,0.17-0.39,0.39-0.39h30.72
							c0.21,0,0.39,0.17,0.39,0.39v2.66C219.49,331.86,219.31,332.03,219.1,332.03z"/>
					</g>
				</g>
			</g>
			<g>
				<g>
					<g>
						<path class="st44" d="M219.1,339.39h-30.72c-0.21,0-0.39-0.17-0.39-0.39v-2.66c0-0.21,0.17-0.39,0.39-0.39h30.72
							c0.21,0,0.39,0.17,0.39,0.39V339C219.49,339.22,219.31,339.39,219.1,339.39z"/>
					</g>
				</g>
			</g>
			<g>
				<g>
					<g>
						<path class="st44" d="M218.19,383.2h-28.9c-0.72,0-1.3-0.58-1.3-1.3v-36.2c0-0.72,0.58-1.3,1.3-1.3h28.9
							c0.72,0,1.3,0.58,1.3,1.3v36.2C219.49,382.62,218.9,383.2,218.19,383.2z"/>
					</g>
				</g>
			</g>
			<g>
				<g>
					<g>
						<path class="st44" d="M279.87,383.2H227.9c-1.14,0-2.06-0.92-2.06-2.06v-50.49c0-1.14,0.92-2.06,2.06-2.06h51.97
							c1.14,0,2.06,0.92,2.06,2.06v50.49C281.93,382.28,281.01,383.2,279.87,383.2z"/>
					</g>
				</g>
			</g>
		</g>
	</g>
</g>
<path class="st12" d="M354.7,359.62l2.54,99.07c0,0,17.5-3.06,35.43,14.44c17.93,17.5-15.26-116.75-15.26-116.75L354.7,359.62z"/>
<path class="st45" d="M348.43,360.78c0,0-7.53-90.2-1.84-100.25l0.47-3.34c7.92,1.15,10.84,1.27,11.77,1.07
	c1.35-0.3,1.97-0.41,3.21-0.65c0.18-0.03,0.27-0.05,0.28-0.05c4.99,0.78-7.18,100.21-7.59,103.22"/>
<polygon class="st46" points="354.8,259.53 351.5,262.88 354.75,266.87 357.9,263.16 "/>
<path class="st47" d="M355.01,260.17c-1.64,2.91-8.49,5.61-9.8,6.02c4.45-1.19,9.8-8.01,9.8-8.01"/>
<path class="st47" d="M355.01,260.17c1.64,2.91,7.31,4.96,8.51,5.62c-4.11-2.28-8.51-7.6-8.51-7.6"/>
<polygon class="st46" points="354.58,265.34 351.33,268.62 349.66,329.35 352.04,332.42 354.4,329.86 357.9,268.97 "/>
<text transform="matrix(1 0 0 1 231.0645 354.6943)" class="st48 st49">@CARES</text>
</svg>
