<?xml version="1.0" encoding="utf-8"?>
<!-- Generator: Adobe Illustrator 23.0.0, SVG Export Plug-In . SVG Version: 6.00 Build 0)  -->
<svg version="1.1" id="Layer_1" xmlns="http://www.w3.org/2000/svg" xmlns:xlink="http://www.w3.org/1999/xlink" x="0px" y="0px"
	 viewBox="0 0 2000 1333" style="enable-background:new 0 0 2000 1333;" xml:space="preserve">
<style type="text/css">
	.st0{fill:url(#SVGID_1_);}
	.st1{fill:url(#SVGID_2_);}
	.st2{fill:url(#SVGID_3_);}
	.st3{fill:#F5E0C3;}
	.st4{fill:#BEF5EF;}
	.st5{fill:#3FB8A2;}
	.st6{fill:#002736;}
	.st7{fill:#004265;}
	.st8{fill:#003D5A;}
	.st9{fill:#007289;}
	.st10{fill:#6AB8AB;}
	.st11{fill:#69B7AA;}
	.st12{fill:#0475A1;}
	.st13{fill:#0473A0;}
	.st14{fill:#004063;}
	.st15{fill:#003D5C;}
	.st16{fill:#003A58;}
	.st17{fill:#00A0C0;}
	.st18{fill:#F5A334;}
	.st19{fill:#F4A234;}
	.st20{fill:#F8A434;}
	.st21{fill:#01A1C1;}
	.st22{fill:#00A2C3;}
	.st23{fill:#013957;}
	.st24{fill:#013654;}
	.st25{fill:#03729F;}
	.st26{fill:#009FBF;}
	.st27{fill:#352510;}
	.st28{opacity:0.4;fill:#00000B;enable-background:new    ;}
	.st29{fill:#F0C47E;}
	.st30{opacity:0.58;fill:#F0C47E;enable-background:new    ;}
	.st31{fill:#D46F47;}
	.st32{opacity:0.44;fill:#D46F47;enable-background:new    ;}
	.st33{opacity:0.34;fill:#F0C47E;enable-background:new    ;}
	.st34{fill:#00000B;}
	.st35{fill:#76A7E9;}
	.st36{opacity:0.41;fill:#76A7E9;enable-background:new    ;}
	.st37{fill:#01314A;}
	.st38{opacity:0.12;fill:#806064;enable-background:new    ;}
	.st39{fill:#806064;}
	.st40{fill:#DFA040;}
	.st41{opacity:0.62;fill:#D0495A;enable-background:new    ;}
	.st42{opacity:0.56;fill:#76A7E9;enable-background:new    ;}
	.st43{fill:#C29E63;}
	.st44{opacity:0.3;fill:#F0C47E;enable-background:new    ;}
	.st45{fill:#001619;}
	.st46{opacity:0.51;fill:#3366CC;enable-background:new    ;}
	.st47{opacity:0.27;}
	.st48{fill:#013451;}
	.st49{opacity:0.46;}
	.st50{fill:#996633;}
	.st51{opacity:0.34;fill:#806064;enable-background:new    ;}
	.st52{opacity:0.46;fill:#996633;enable-background:new    ;}
	.st53{opacity:0.34;}
	.st54{fill:#000009;}
	.st55{opacity:0.5;fill:#806064;enable-background:new    ;}
	.st56{opacity:0.48;fill:#F0C47E;enable-background:new    ;}
	.st57{fill:#070B00;}
	.st58{fill:#00000C;}
	.st59{opacity:0.35;fill:#D46F47;enable-background:new    ;}
	.st60{fill:#FFFFFF;}
	.st61{opacity:0.31;fill:#76A7E9;enable-background:new    ;}
	.st62{opacity:0.42;fill:#F0C47E;enable-background:new    ;}
	.st63{fill:#D0495A;}
	.st64{opacity:0.41;fill:#D0495A;enable-background:new    ;}
	.st65{opacity:0.34;fill:#D0495A;enable-background:new    ;}
	.st66{opacity:0.16;fill:#F0C47E;enable-background:new    ;}
	.st67{fill:#FFFFE9;}
	.st68{fill:#E5B991;}
	.st69{fill:#C28061;}
	.st70{fill:#20232C;}
	.st71{fill:#F0F0F0;}
	.st72{fill:#B8D4E3;}
	.st73{fill:#C7CFE2;}
	.st74{fill:#3E4E63;}
	.st75{fill:#2C3A4A;}
	.st76{fill:#8FA8D4;}
	.st77{fill:#4C7F9C;}
	.st78{fill:#36383E;}
	.st79{fill:#A2D6D0;}
	.st80{fill:#DC3D3D;}
	.st81{fill:#66CC99;}
	.st82{fill:#01304A;}
	.st83{fill:#022D43;}
	.st84{fill:#F5A335;}
	.st85{fill:#022A3E;}
</style>
<linearGradient id="SVGID_1_" gradientUnits="userSpaceOnUse" x1="308.9189" y1="-1255.6079" x2="1256.9188" y2="-1255.6079" gradientTransform="matrix(-4.857226e-16 1 1 4.857226e-16 1729.908 -22.8189)">
	<stop  offset="0" style="stop-color:#00C6BC"/>
	<stop  offset="1" style="stop-color:#17398D"/>
</linearGradient>
<path class="st0" d="M256,1209V311.1c0-13.8,11.2-25,25-25c0,0,138.7,22,271.3,12.9c31.1-2.1,123.4,14.5,123.4,17.6l16.9,892.5
	c0,13.8-11.2,25-25,25H281C267.2,1234,256,1222.8,256,1209z"/>
<linearGradient id="SVGID_2_" gradientUnits="userSpaceOnUse" x1="297.3189" y1="-1254.658" x2="1245.2189" y2="-1254.658" gradientTransform="matrix(-4.857226e-16 1 1 4.857226e-16 1729.908 -22.8189)">
	<stop  offset="0" style="stop-color:#00C6BC"/>
	<stop  offset="1" style="stop-color:#17398D"/>
</linearGradient>
<path class="st1" d="M256,1197.4V299.5c0-13.8,11.3-25,25.1-25c0,0,180.1,18.6,347.4,29.9c31.2,2.1,58.4,31.7,58.4,34.7l7.6,858.3
	c0,13.8-11.3,25-25.1,25H281.1C267.3,1222.4,256,1211.3,256,1197.4z"/>
<linearGradient id="SVGID_3_" gradientUnits="userSpaceOnUse" x1="304.3924" y1="-275.958" x2="1279.0188" y2="-275.958" gradientTransform="matrix(-4.857226e-16 1 1 4.857226e-16 1729.908 -22.8189)">
	<stop  offset="0" style="stop-color:#00C6BC"/>
	<stop  offset="1" style="stop-color:#17398D"/>
</linearGradient>
<path class="st2" d="M1235.7,1231.1V333.2c0-13.8,11.2-25,25-25c0,0,238.8,9.2,345.5-22c29.9-8.8,56.4-2.9,56.4,0.2l9.6,944.8
	c0,13.8-11.2,25-25,25h-386.5C1246.9,1256.1,1235.7,1244.9,1235.7,1231.1z"/>
<g>
	<g>
		<path class="st3" d="M945.2,168.2c30.9-24.4,72.6-32.9,111.3-26.8c35.7,5.5,69.6,23.1,93.5,49.8c13.5,14.9,23.6,32.8,28.5,52.1
			c0.3,2,0.7,4.1,1,6.1c-23.2-0.7-46.3,0.1-69.5-0.4c-2.4-9.3-4.7-18.6-7.7-27.7c-4.4,10.6-6.2,22.1-9.9,32.9
			c-4.3-19-8.5-37.9-12.8-56.9c-1.2-5-1.7-10.2-4.2-14.8c-6.8,33-11.9,66.3-18.6,99.3c-6.5-19.9-12.8-39.9-19.1-59.9
			c-0.5,0-1.4,0.1-1.9,0.1c-4,9-8.1,17.9-12.2,26.9c-2.4,0.2-4.8,0.4-7.1,0.7c2,2.3,6,2.5,8.5,1c4.5-7.2,6.6-15.6,11.1-22.8
			c1.8,0.6,1.7,2.9,2.5,4.3c5.8,18.8,12,37.4,17.8,56.2c0.4,0.2,1.4,0.5,1.8,0.7c5.9-32.2,11.4-64.4,17.8-96.5
			c5.9,23.1,10.3,46.5,16.1,69.6c5-10.6,6.2-22.4,10.3-33.3c2.3,7.4,3.4,15.1,6.5,22.2c21,0.8,42.1,0.3,63.2,0.3
			c2.6,0.2,7.3-1.1,7.9,2.6c1.2,7.6,0.5,15.3,0.3,23c-3.1,19.7-12.2,38-23.6,54.4c-10.6,15.1-23.4,28.7-37.8,40.3
			c-3.2,2.7-9.3,5.3-6.8,10.5c5.4,10.4,17.3,15,28.2,17.7c-17.3,0.1-34.7-0.2-52-1c-19.6-0.8-39.1-2.4-58.5-5
			c-22.4-3-44.3-10.2-63.4-22c17.9-13.2,30.7-32,39.2-52.1c9.3-21,16.1-44.6,10.1-67.4c-6.3-27.9-26.4-51.4-50.8-66
			c-8.2-5.2-17.2-9-26.5-11.9C940.6,172.1,942.8,170.1,945.2,168.2z M1086.1,278.4c-5.2,2.1-8.2,7.9-7.2,13.3c0.4,4.3,4.1,7,7,9.7
			c5.4,4.7,10.4,9.8,16,14.3c1.8,2.1,3.8-0.7,5.3-1.8c5.7-5.3,11.5-10.3,17.2-15.6c3.9-3.4,4.9-9.3,2.7-13.9
			c-2.4-5.9-10-8.7-15.9-6.3c-3.3,1-5,4.3-7.3,6.6c-1.4,0.6-1.8-1.5-2.7-2.1C1098.3,277.7,1091.3,276.1,1086.1,278.4z"/>
	</g>
</g>
<g>
	<g>
		<path class="st4" d="M784.7,221.6c29.9-36.6,80.3-55.2,127.4-48c22,3.1,43,12.5,59.8,26.8c10.7,9.1,19.7,20,26.2,32.3
			c9.7,18.3,12.3,40.1,7,60.1c-5,18.9-12.9,37.1-24,53.3c-17.5,25-46.1,40.9-76,47.1c-35.4,6.2-71.6,6.9-107.5,7.3
			c8.5-2.9,18-6.1,22.9-14.1c0.9-1.7,2.7-4,0.9-5.7c-2.8-3.2-6.5-5.3-9.7-8.1c-18.5-15.9-34-35.5-43.6-57.8c-4-9.7-6.8-20-6.9-30.5
			C760.3,261.4,770.3,239.3,784.7,221.6z M859.4,222.4c-1.7,9.1,0.6,18.7-1.1,27.7c-8.4,0.6-16.8-0.3-25.2,0.4c-5,0.5-9.1,5-9.2,10
			c-0.2,9.6-0.1,19.2,0,28.8c-0.2,4.8,3.2,9.6,8,10.6c8.8,1.2,17.9-0.6,26.6,0.9c1.3,8.8-0.4,17.9,0.8,26.8c1.4,3.8,5.3,6.7,9.5,6.5
			c10.2,0.2,20.3,0,30.5,0c5.2,0.3,10.3-4.5,9.8-9.8c0.2-8-0.2-16,0.2-23.9c8.6-0.4,17.2,0.2,25.7-0.3c5.3-0.4,9.3-5.6,9-10.8
			c0.1-9.2,0-18.4,0-27.6c0.4-5.3-3.7-10.7-9.2-11.2c-8.3-0.7-16.8,0.3-25.1-0.4c-1.5-5.4-0.3-11.4-0.6-17c-0.3-4.5,1.3-10-2.5-13.4
			c-2.7-3.1-7.1-3.5-11-3.4c-8.9,0.1-17.8-0.1-26.6,0.1C864.8,216.4,861.1,219,859.4,222.4z"/>
	</g>
</g>
<g>
	<path class="st5" d="M1075.5,182.7c2.5,4.6,3,9.8,4.2,14.8c4.3,18.9,8.5,37.9,12.8,56.9c3.8-10.8,5.5-22.3,9.9-32.9
		c3,9.1,5.3,18.4,7.7,27.7c23.2,0.5,46.3-0.3,69.5,0.4c-0.3-2.1-0.7-4.1-1-6.1c0.9,2.8,2,5.5,2.7,8.4c0.2,8.4,1.3,17-0.9,25.2
		c0.1-7.7,0.9-15.4-0.3-23c-0.6-3.6-5.3-2.4-7.9-2.6c-21.1,0-42.2,0.5-63.2-0.3c-3.1-7.1-4.2-14.9-6.5-22.2
		c-4.2,10.9-5.3,22.7-10.3,33.2c-5.7-23.1-10.2-46.5-16.1-69.6c-6.4,32.1-11.9,64.3-17.8,96.5c-0.5-0.2-1.4-0.5-1.8-0.7
		c-5.8-18.8-12-37.4-17.8-56.2c-0.8-1.4-0.7-3.7-2.5-4.3c-4.4,7.2-6.6,15.6-11.1,22.8c-2.4,1.5-6.4,1.3-8.5-1
		c2.3-0.3,4.7-0.5,7.1-0.7c4.1-9,8.2-17.9,12.2-26.9c0.5,0,1.4-0.1,1.9-0.1c6.3,20,12.6,40,19.1,59.9
		C1063.6,249,1068.7,215.6,1075.5,182.7z"/>
</g>
<g>
	<path class="st6" d="M218,256.9c9.8-16.3,27.8-29.9,47.9-28.4c9,0.5,18,2.3,27,3.3c-7.4,1.7-15.2,2.8-21.7,6.9
		c-20.3,12.7-25.1,35.3-26.1,40.2c-5.1,25.9,7.3,48.6,11.1,55.9c20,39.3,10,72,5.7,200.8c-2.4,70.1,1.5,33.5-0.5,180.5
		c-2,150.5-7.1,282.3-7.1,282.3c-2.8,73-5.8,128.8-3.3,213.6c1,34.3,2.6,62.5,3.8,81.5c6.4,1.8,13.2,1.8,19.8,1.6
		c41.8-0.1,83.6,0.2,125.3-0.2c3.7,0.8,6.6,3.6,10.5,3.7c3.4,0.2,6.7,0.7,10,1.7c-17,2.2-34,4-51,5.9c-33.8,3.8-67.5,7.5-101.2,11.8
		c-13.8,1.7-27.6-3.9-37.7-13c-7.3-6.7-13-14.9-16.8-23.9c-2.8-7-4.8-14.5-4.7-22.1c-0.1-11.6,0-23.2,0-34.8c0-12.8,0-25.7,0-38.5
		c0-1.9,0-3.7,0-5.6c0-53.3,0.1-106.7,0-160c0.1-31.3,0-62.6,0-93.9c0-2,0-4.1,0-6.1c-0.1-31.5,0.3-63-0.2-94.4
		c0.2-6.2,0.4-12.4,0.2-18.6c0-60.5,0.1-121-0.1-181.4c-0.1-10.1,0.8-20.3-0.7-30.3c0.4-3.2,0.7-6.4,0.8-9.7c0-69.7,0-139.4,0-209.1
		c-0.1-9,0.1-18-0.2-26.9c0.6-20.9,0-41.9,0.3-62.9C209.1,276.2,212.8,266,218,256.9z"/>
	<path class="st6" d="M1633.6,231.7c13.9-1.2,28.2-5.8,42-1.5c12.5,3.7,22.8,12.6,30.2,23c7.3,10.6,11.4,23.3,11.7,36
		c0,186.2-0.1,372.4,0,558.5c0,74.4-0.1,148.8,0.1,223.2c-0.2,6.2-0.1,12.4,0,18.6c-0.2,19.1,0,38.3-0.1,57.5c0,1.9,0,3.8,0,5.7
		c0,21.4-0.1,42.9,0.1,64.4c0,2.4-0.1,4.8,0,7.2c-0.2,12.3,0.3,24.7-0.3,37.1c-1.8,21.2-14.3,42-33.8,51.8c-9,4.6-19.5,5.8-29.4,4.2
		c-28.7-3.9-57.5-6.8-86.3-10.1c-24.2-2.9-48.4-5.3-72.6-8.4c7-1.5,14-2.7,21.1-3.8c66.3-3.1,115.3-9.4,130.8-15.6
		c3.6-1.4,11.7-4.7,16.4-12.6c3.4-5.8,3.7-11.6,3.8-17.7c0.1-5.7-0.4-15.2-5-26.6c0.6-8.6,1.5-21.5,2.5-37.2
		c3.2-49.6,5.3-94.1,6.1-113.6c2.8-73.9-0.8-158.2-2.9-199c2.1-7.9,4.9-20.1,6.9-35.4c6.3-47.2-1.5-76.6-4.4-120.6
		c-1.5-23,0.3-19.4,1.9-88.4c3.1-137.3,4.7-206,1.4-243.5c-2.2-26-6.6-50.6,3.6-78.6c1.9-5.2,4.4-11,4.5-19.6
		c0.2-20.2-12.6-44-33.5-51.2C1643.4,233.8,1638.5,232.9,1633.6,231.7z"/>
</g>
<g>
	<path class="st7" d="M245.9,902.2c-0.6-5.5-0.6-11-0.5-16.4c-0.2-193.9,0-387.8-0.1-581.7c0-8.4,0.2-16.9-0.2-25.3
		c2.4-16.2,11.7-31.6,26.1-40.2c6.5-4.1,14.3-5.2,21.7-6.9c37.8,4.5,75.6,9,113.5,13c22.2,2.7,44.4,5.2,66.6,7.5
		c62.3,7.2,124.7,14.2,187,21.3c8.5,0.9,16.6,4.3,23.3,9.6c14.5,11.4,21.4,29.3,24.5,46.8c-0.1,56.3,0,112.6-0.1,168.9
		c0.1,8.6-0.3,17.2,0.3,25.7c-0.7,23-0.1,46.1-0.2,69.1c0,34.1,0,68.2,0,102.3c-0.7,12.1,0.3,24.2,0,36.3c-1,26.6,0.3,53.3-0.4,79.9
		c0.6,11.8-0.7,23.7,0.7,35.4c-0.7,41.4-0.1,82.8-0.2,124.3c-0.3,11.8,0.5,23.7-0.7,35.5c-1.8-8.6-0.2-17.3-1.5-25.9
		c-0.6,3.3-0.9,6.6-1.1,9.9c-6.1-1-12.4-1.7-18.4,0.4c-0.4,7.8,0.8,15.8-1,23.5c-1-8.2,0-16.5-0.3-24.8c-0.2-23,0.7-46.1-0.2-69.1
		c0.6-12.5,0.7-25.1,0-37.6c0.7-22,0.6-44.1,0.2-66.1c0.5-16.2,0.4-32.3,0.1-48.5c-0.4-30.8-0.7-61.6-1.1-92.4
		c1.2-4.7,1.5-9.5,1.3-14.4c-0.3-50.3-0.1-100.7-0.1-151c-0.1-8.5,0.4-17.1-0.6-25.5c1-7.3,0.5-14.6,0.6-21.9
		c0-41.6,0-83.2,0.1-124.8c0-1.5-0.2-3-0.7-4.4c-5.2-1.1-10.5-1.2-15.8-1.8c-125.9-12.6-251.7-25.1-377.6-37.7
		c-6.5-0.7-13-1.4-19.5-1.8c0.1,27.5-0.3,54.9,0.2,82.4c-0.4,35.4-0.3,70.8,0,106.1c-0.4,25.8-0.4,51.6,0,77.4
		c-0.5,28.5,0,57.1-0.2,85.7c0.1,31.3-0.2,62.7,0.3,94.1c-0.6,15.7-0.1,31.3-0.3,47c0.2,14.3-0.3,28.6,0.3,42.9
		c-0.8,18.5-0.1,37-0.3,55.5c0.2,15.2-0.3,30.4,0.4,45.5c-0.2,4.6-0.6,9.2-0.7,13.8c-2.3-16.4,0.3-33-1.4-49.5
		c-0.9-7.5,0.3-15.2-1.1-22.6c-1.6,9.4,0.7,19.1-1.3,28.4c-6.4,1.5-12.8,43.2-19.3,43.9"/>
	<path class="st7" d="M1654.8,729.2c0.7-62.2,0.1-124.3,0.3-186.5c0.1-83.1-0.1-166.3,0.1-249.4c-2,0.2-4.1,0.4-6.1,0.6
		c-6.8,0.6-13.6,1.4-20.4,2.1c-123.6,12.3-247.2,24.7-370.8,37c-5.7,0.5-11.3,1-16.9,1.9c0.2,29.8,0.1,59.6,0.1,89.3
		c-0.1,69.9,0.1,139.8,0.1,209.6c0,2.5-0.1,152.1,0.1,154.6c-7.9,7.4-16.23-1.69-22.73,7.01c-0.5-77.7,0.03-286.71-0.17-364.41
		c0.2-32.7,0-65.3,0.1-98c1.1-16.3,7.2-32.6,18.7-44.6c6.9-7.4,16.2-13,26.4-14.5c43.7-5.1,87.6-9.7,131.3-14.9
		c63.2-7.2,126.4-14.3,189.5-21.7c16.4-1.4,32.8-3.7,49.1-5.6c4.9,1.2,9.9,2.1,14.6,3.8c20.9,7.9,32.8,30.1,33.5,51.2
		c0,183,0,366.1,0,549.2c-0.3,11.8,0.5,23.6-0.4,35.4c-3.2,9.7-0.6,20-1.6,29.9c-7.5-0.6-15-0.4-22.5-0.6
		c-0.7-12.6,0.7-25.3-0.8-37.8c-0.9-6.7,0.4-13.7-1.6-20.2"/>
</g>
<g>
	<path class="st8" d="M268.6,871.6c1.4,7.5,0.2,15.1,1.1,22.6c1.6,16.5-0.9,33.1,1.4,49.5c0.5,16,0.1,32,0.3,48
		c0,9.4-0.1,18.8,0.1,28.3c-0.3,22.6,0,45.2,0,67.7c-0.5,9.9-0.2,19.7-0.8,29.6c-0.9-3.2-1.7-6.4-2.4-9.6c-0.6,2.8-0.9,5.7-0.8,8.7
		c-7.6,0.2-15.3,0.1-22.9,0.2c-0.1-14.6,0-29.1-0.1-43.7c-0.9-25-0.4-49.9-0.6-74.9c-0.4-96.1-0.3-192.2-0.3-288.3
		c-0.1-134.8,0-269.5,0-404.3c0.1-8.9-0.6-17.9,1.3-26.7c0.5,8.4,0.2,16.9,0.2,25.3c0.1,193.9-0.1,387.8,0.1,581.7
		c-0.1,5.5-0.7-21.3,0-15.8"/>
</g>
<g>
	<path class="st9" d="M1649.3,293.7c2-0.2,4-0.4,6.1-0.6c-0.2,83.1,0,166.3-0.1,249.4c-0.3,62.2,0.3,124.4-0.3,186.5
		c-0.7-1-1.3-2.1-2-3.1c1.4-7.8,0.7-15.8,0.8-23.7c0.1-35.8,0-71.5,0.1-107.3c-0.2-14.7,0.4-29.5-0.3-44.2c0.7-31,0.1-62.1,0.3-93.1
		c0-54.7,0.2-109.4,0-164C1652.8,293.7,1650.4,293.7,1649.3,293.7z"/>
</g>
<g>
	<path class="st10" d="M125.8,528.1c0.6,0.2,1.9,0.5,2.5,0.6c2.9,1.5,5.8,3.1,8.7,4.6c26.6,13.5,52.6,29.4,71.9,52.3
		c-0.1,3.2-0.4,6.5-0.8,9.7c-5.2,28.8-9.4,57.9-18.1,86c-3.1,9.6-6,19.3-10.8,28.2c-10.1-32.2-19.1-64.7-28.9-97
		C142.4,584.3,133.5,556.4,125.8,528.1z"/>
	<path class="st10" d="M83.4,643c-2.2-15.5,0.3-31.1,4.3-46.1c20.9,22.4,43,43.9,66.9,63.2c2.7,2.3,6.1,4.4,7,8
		c14.1,48.3,28.4,96.5,42.6,144.7c1.1,4.3,2.6,8.6,4.4,12.7c0.5,31.5,0.1,62.9,0.2,94.4c-36.4-15.8-68.9-39.3-98.9-64.8
		c-26.3-22.5-50.4-47.4-73.2-73.4c6.3-7,16.3-10.2,25.6-8.5c16.6,2.7,30.2,13.1,44,21.7c7.8,5.2,18,5.8,27,4
		c6.3-1.3,12.6-4.8,15.2-10.9c3.5-7.8,0.9-16.4-1.9-24c-8.5-21.3-25-38-37.2-57.1C96.8,687.7,86,666.2,83.4,643z"/>
	<path class="st10" d="M204.7,644.2c1.1-6.3,2.4-12.5,4.1-18.7c0.1,60.5,0.1,121,0.1,181.4c-1.4-2.2-2.6-4.5-3.3-7
		c-6.9-24.3-14.2-48.5-21.4-72.8c-1-4-3.4-8.5-1.2-12.6C193.7,692.4,199.6,668.3,204.7,644.2z"/>
	<path class="st10" d="M33,786.4c7.1,5.8,12.4,13.4,18.8,19.9c19.3,20.5,39.5,40.3,61.3,58.4c29.2,24.2,60.8,46.2,95.9,61.3
		c0,31.3,0,62.6,0,93.9c-9.1-13.2-17.5-29.2-33.7-35c-1.6-0.5-3.1-0.8-4.7-1.2c-4.9,0-10.2,1-13.8,4.5c-4.1,3.6-5.3,9-6.8,13.9
		c-0.5,0-1.4,0.1-1.8,0.1c-32.9-33.4-62.9-69.8-87.9-109.4c-12.2-19.9-23.4-40.7-29.5-63.2C26.9,815.6,25.4,799.7,33,786.4z"/>
</g>
<g>
	<path class="st11" d="M90.1,589c7.9-20.9,18.4-40.7,29.9-59.9c1.7,4,3.2,8.1,4.3,12.3c10.9,38.1,22.7,75.8,33.3,114
		c-6.1-4-11.3-9.2-16.8-13.8c-16.9-15-33.1-30.7-48.3-47.3C91.2,592.7,90.1,590.9,90.1,589z"/>
</g>
<g>
	<path class="st12" d="M1825.9,738.4c8.1-5.5,16.2-11.2,25.2-15c-17.6,39.8-34.7,79.8-51.1,120.1c-7.4,18.3-14.6,36.6-21.9,54.9
		c-4.4-8.3-6.5-17.5-9.7-26.2c-7-22.4-12.2-45.5-13.8-68.9c7.2-7.9,14.8-15.3,22.5-22.6C1792.7,765.7,1808.6,751.1,1825.9,738.4z"/>
	<path class="st12" d="M1749.4,809.1c2,6.6,2.1,13.5,3.3,20.3c4.5,25.6,12.3,50.5,21.6,74.7c0.9,2.1,0.2,4.4-0.6,6.5
		c-15.4,39.6-29.7,79.5-43.1,119.8c-4.7,13.4-8.3,27.2-13.2,40.6c-0.2-74.4-0.1-148.8-0.1-223.2c5.6-5.1,9.3-11.7,14.1-17.5
		C1737.3,823.1,1743,815.8,1749.4,809.1z"/>
</g>
<g>
	<path class="st13" d="M1844.8,750.6c3.8-7.9,6.4-16.3,11.2-23.7c5.8,15.3,7.2,31.7,9.3,47.8c2.1,18.4,5.7,36.6,7.9,55
		c3.7,29.8,6.5,59.7,6,89.7c-34.3,30.8-78.1,51.7-124.3,57.3c14.5-43,31.7-85,48.3-127.3C1816.9,816.4,1830.5,783.3,1844.8,750.6z"
		/>
	<path class="st13" d="M1860.4,940.8c6.4-4.3,12.2-9.6,18.5-14.1c0.1,4.1,0.3,8.1,0.4,12.2c-0.7,8-1.2,16-1.8,24.1
		c-1.3,14.3-3.3,28.5-6.1,42.6c-0.9,2.1,0,3.9,1.2,5.7c-0.4,2.6-4,3.3-4.2,6.1c-1.9,8-3.2,16.1-5.9,24c-3.4,10.3-6.9,20.5-11.3,30.4
		c-13.5,14.9-29.4,27.4-46.7,37.6c-27.3,16.1-56.8,28.4-87.1,37.8c0.1-19.2-0.1-38.3,0.1-57.5c11-36.1,22.4-72,35.3-107.5
		C1791.4,977.4,1828.7,963,1860.4,940.8z"/>
</g>
<g>
	<path class="st14" d="M1218.6,760.4c7.2,2.7,15.1,3.8,22.8,3.2c-0.2,8.3,0,16.5-0.1,24.8c-0.1,14.5,0.1,28.9,0,43.4
		c0,21.6,0.2,43.2,0.1,64.8c-0.2,28.7,0.3,57.4-0.1,86.1c-0.4,2.6-0.9,5.2-1.5,7.8c-1.2-21.6,0.6-43.4-1.1-65
		c-0.9,8.3-0.3,16.6-0.7,24.9c-4.8,0.2-9.6,0.3-14.4,0.4c-0.3,0.8-0.8,2.4-1.1,3.2c-0.6-1.1-1.2-2.1-1.7-3.2
		c-0.6,12.8-0.1,25.6-0.4,38.4c-0.3,6.9,1.2,14.1-1.6,20.7c-0.3-6.6-0.3-13.3-0.3-19.9c0.1-33.3,0.1-66.6,0.1-99.9
		C1218.7,846.9,1218.5,803.7,1218.6,760.4z"/>
</g>
<g>
	<path class="st15" d="M1654.9,842.5c2,6.6,0.7,13.5,1.6,20.2c1.5,12.5,0.1,25.2,0.8,37.8c7.5,0.2,15,0,22.5,0.6
		c1-10-1.6-20.3,1.6-29.9c0.8,13.6,0.3,27.2,0.4,40.8c-0.1,51.9,0.1,103.8-0.2,155.8c-1,1.3-1.9,2.6-3.1,3.7
		c-7.1,0.8-14.2,0.1-21.2,0c-0.1-5.8,0-11.7-0.8-17.5c-1.1,17.5-0.3,35.1-0.5,52.7c-0.3,8.1,0.7,16.3-1.1,24.3
		c-0.9-10.3-0.1-20.7-0.8-31c0.3-18.3,0.8-36.6,0.1-54.8c0.6-19,0.5-38,0.7-57c0.1-4.3-0.3-8.6-0.7-12.9c1-16,0.4-32.1,0.7-48.2
		c-0.1-9.7,0.5-19.5-0.6-29.2c-0.5-11.1,1.1-22.1,0.4-33.2c-0.4-6.6,0.1-13.3-0.8-19.9C1654.2,844.1,1654.7,843.1,1654.9,842.5z"/>
</g>
<g>
	<path class="st16" d="M1238.7,925.5c1.7,21.6-0.2,43.4,1.1,65c0.5-2.6,1.1-5.2,1.5-7.8c0,3,0.1,6,0.1,9.1c-0.1,10.9,0,21.8,0,32.8
		c-0.1,13.1,0,26.2,0,39.3c0,16.4,0,32.9,0.1,49.4c-0.2,11.7-0.2,23.3,0,35c8.9,1.6,17.9,2.2,26.8,2.7l0.1,1c-2,0-4,0-6,0.1
		c1.8,0.8,3.6,1.7,5.4,2.6c-15.3,1.1-30.6,0.7-45.9,0.3c-0.4-8.3,0.5-16.6-0.7-24.8c-1.6,11.7-0.2,23.5-0.8,35.3
		c-1.5,18-0.3,36-1.1,54c-1.1-7.1-0.7-14.3-0.7-21.5c0-11,0-22.1,0-33.1c0.2-51.6-0.2-103.1,0.2-154.7c2.8-6.6,1.3-13.8,1.6-20.7
		c0.3-12.8-0.2-25.6,0.4-38.4c0.6,1,1.1,2.1,1.7,3.2c0.3-0.8,0.8-2.4,1.1-3.2c4.8-0.1,9.6-0.2,14.4-0.4
		C1238.4,942.2,1237.8,933.8,1238.7,925.5z"/>
</g>
<g>
	<path class="st17" d="M8.3,940.7C29,942,50.6,943.7,69,954c2.9,13.3,7,26.4,9.3,39.8c2.1,11.6,4.6,23.3,3.5,35.2
		c-3.6-3.6-6.8-7.7-10-11.6c-16.1-19.1-32.2-38.2-48.1-57.5C18.6,953.5,12.9,947.6,8.3,940.7z"/>
	<path class="st17" d="M5.6,943.9c4.6,4.3,8.4,9.4,12.4,14.2c12.7,15.4,26,30.3,38.1,46.1c-10.6-2.6-20.8-6.7-31-10.5
		c-7.4-2.6-14.3-6.4-21.8-8.5c-0.5-11.4-0.7-22.9,0.7-34.3C4.5,948.6,5.1,946.3,5.6,943.9z"/>
	<path class="st17" d="M3.6,990c4.2-0.7,7.8,1.9,11.4,3.3c13.7,5.8,27.8,10.8,42.1,14.8c4.4,1,6.9,4.9,9.6,8.2
		c34.1,41,68.5,81.6,102.4,122.7c-9.9,1.5-20.1,1.2-30.1,0.7c-40.2-3.6-78.6-17.4-114.7-34.3c-2.2-0.8-2.8-3-3.4-4.9
		c3.5-4.4,8.6-7.4,14.2-8.5c8.3-0.3,16.6,0.4,24.7,2.1c8.4,2,18.3-1.2,23-8.5c3.8-6.5-1.3-13.5-5.9-18c-13.6-12.7-31.8-19-45.8-31.1
		C16.4,1025,6.1,1008.3,3.6,990z"/>
</g>
<g>
	<path class="st18" d="M1941.4,949.3c18.1-2.4,36.7-4.1,54.7-0.1c-5.9,3.7-11.9,7.4-17.8,11.2c-37.2,23.3-73.6,47.7-110,72
		c10.6-26.7,22.8-53,38.8-77C1918.3,952.1,1929.9,951,1941.4,949.3z"/>
</g>
<g>
	<path class="st19" d="M1980,964c5.6-3.5,11.2-7.2,17-10.4c-0.3,0.7-0.9,2.1-1.3,2.8c-9.7,21-23.4,39.9-34.7,60.1
		c-16.8,28.2-34.4,55.9-54.6,81.9c-21.5,2.3-43.6-0.3-63.7-8.6c0.3-0.6,0.8-1.8,1.1-2.4c2.8-5.1,5.1-10.4,7.3-15.8
		c4.4-9.9,7.9-20.2,11.3-30.4C1901.2,1014.8,1940.2,988.9,1980,964z"/>
	<path class="st19" d="M1762.9,1189.7c32.9-25.7,59.1-59.1,78.1-95.8c19.5,8.1,41.1,11.1,62.1,9.2c-21.3,27.1-45.2,52.6-72.7,73.6
		c-5.8,3.9-11.1,8.7-17.5,11.7C1796.6,1193.3,1779.3,1192.3,1762.9,1189.7z"/>
</g>
<g>
	<path class="st20" d="M1882.9,961.3c6.3-1.9,12.7-3.8,19.3-5c-12,17.1-20.5,36.2-29.6,54.9c-1.2-1.8-2.1-3.6-1.2-5.7
		c2.8-14.1,4.8-28.3,6.1-42.6C1879.2,962.4,1881.1,961.8,1882.9,961.3z"/>
</g>
<g>
	<path class="st21" d="M76.5,970.6c-1-4.4-3.1-8.8-2.1-13.3c12.6,8.8,21.3,22,27.5,35.8c6.9,14.1,9.7,30.4,20.1,42.7
		c3.5,4.2,9.3,8.1,15,5.7c7-3.3,11.9-10.7,12.1-18.3c0.3-6.3,0-12.7,0.4-19c-0.4-0.4-1.1-1.2-1.5-1.6c0.5,0,1.4-0.1,1.8-0.1
		c1.5-4.9,2.8-10.3,6.8-13.9c3.6-3.6,8.9-4.5,13.8-4.5c9.4,22,13.2,45.7,16.8,69.2c4.6,36.6,7.3,73.4,7.2,110.2
		c-7-6.7-12.6-14.5-18.9-21.8c-29.1-34.6-57.9-69.4-87.1-104c-1.7-1.9-3.2-4.2-2.9-6.8C85.7,1010.2,81.4,990.2,76.5,970.6z"/>
</g>
<g>
	<path class="st22" d="M175.2,985c16.2,5.8,24.6,21.8,33.7,35c0.1,53.3,0,106.7,0,160c-4.9-4.6-11.8-9.7-11.4-17.1
		c0-10.8,0.2-21.7-0.3-32.5c-1.9-40.2-5.1-80.5-14.5-119.7C180.7,1002,177.2,993.7,175.2,985z"/>
</g>
<g>
	<path class="st23" d="M704.4,991.3c0.2-3.3,0.5-6.6,1.1-9.9c1.3,8.6-0.3,17.4,1.5,25.9c0.5,32.3-0.4,64.5,0.7,96.8
		c-0.1,36.4,0,72.7,0,109.1c-0.3,1.6-0.6,3.2-0.8,4.8c-1.3-17.1-0.4-34.4-0.7-51.5c-0.4-12.6,0.7-25.2-0.7-37.7
		c-1.2,8.5-0.4,17.1-0.7,25.7c-20.3-1.7-40.9,1-61.1-2.3c6.7-0.9,13.5-1.3,20.3-2c6.9-0.6,13.7-1.1,20.6-1.8
		c0.6-16.9,0.4-33.9,0.4-50.8c0-27.5,0.2-55,0.2-82.4c1.9-7.7,0.6-15.7,1-23.5C692,989.7,698.3,990.4,704.4,991.3z"/>
</g>
<g>
	<path class="st24" d="M1655.6,1183.8h-1.3c0.3-17.6-0.5-35.2,0.5-52.8c1.8-8,0.9-16.2,1.1-24.3c0.3-17.6-0.5-35.2,0.6-52.7
		c0.8,5.8,0.7,11.7,0.8,17.5c7.1,0.1,14.2,0.7,21.2,0c1.2-1,2.1-2.4,3.1-3.7c0.3,16.7,0.1,33.4,0,50.1c0.3,12.4,2.06,63.2,0.56,75.5
		"/>
</g>
<g>
	<path class="st25" d="M1822.8,1103.5c7.5-4.8,13.6-11.3,21.2-16c-0.3,0.6-0.8,1.8-1.1,2.4c-0.7,1.3-1.3,2.7-1.9,4
		c-18.9,36.7-45.2,70.1-78.1,95.8c-1.4,1.2-2.8,2.5-4.2,3.7c-13.4,8.5-26.6,17.4-41.3,23.7c-0.1-21.4,0-42.9-0.1-64.4
		C1754.3,1140.7,1790.8,1125.7,1822.8,1103.5z"/>
</g>
<g>
	<path class="st26" d="M19.3,1107.2c3.2,1.2,6.3,2.4,9.4,3.8c19.6,9.1,39.8,16.7,60.6,22.6c25.5,6.9,52.1,11.8,78.6,8.8
		c1.9-0.2,4.2-0.6,5.5,1.2c12.1,13.8,23.1,28.5,35.6,41.9c0,12.8,0,25.7,0,38.5c-5.1-1.3-10.2-2.7-15.2-4.2
		c-39.1-11.5-77.8-25.7-112.7-46.7c-17-10.1-33.8-21.3-47.5-35.6C25.9,1129.2,18,1119.1,19.3,1107.2z"/>
</g>
<g>
	<g>
		<path class="st27" d="M423.5,91.9l-12.7-12.5c0,0-11.8-8.1-36.5,6.3s-30.6,46.4-51.1,36.8s-69.2-11-73.9,26
			c-5.6,43.9,35.5,101.4,85.5,96.4s106.8-72.3,106.8-72.3L423.5,91.9z"/>
		<path class="st28" d="M404,164.1l-25.6-19.9c0,0-7.8-4.7-18.9,4.9c-11.1,9.6-35.4,17.7-54.9,10.2c-19.6-7.5-57.5-8.1-52.9,18.4
			c6.4,23.5,22.7,46.3,44,58.4c1.1,0.5,2,1,2.8,1.5c11.1,5.7,23.4,8.6,36.2,7.3c23.9-2.4,49.3-19,69.3-35.6V164.1z"/>
		<path class="st29" d="M389.9,173.3c0,0,0.4,47.7-11.2,47.5s41.7,6,41.7,6s2.2-36.2,6.5-42.6C431.3,177.7,389.9,173.3,389.9,173.3z
			"/>
		<path class="st30" d="M390.5,173.3l-0.6,2.6c-0.1,5-0.3,20.3-3.8,33.9c3.1-0.1,17.9-7.8,36-4.8c1.1-9.6,2.7-17.7,4.8-20.8
			C431,178.1,395.4,173.9,390.5,173.3z"/>
		<path class="st31" d="M352.5,206.4c0,0-28.1,76.4-39,102.1s-38.1,71.7-12.3,80.9c0,0,47-31.3,111.7-30.7l17.4,8.2L446,216.6
			l-21.4-2c0,0-17.4,7.2-33.4,0c-16.1-7.2-20.3-12.3-20.3-12.3l-16.5-6.1L352.5,206.4z"/>
		<g>
			<path class="st29" d="M510.9,162.6l6.4-15.7c0,0,1.4-7.6-0.2-14.4c-1.6-6.8,4.7-22.7,8.2-12.5s7.1,13.5,12.9-0.1
				c5.8-13.6,12.1-23.1,20.4-15.8c8.4,7.3,3.9,29.2-5.3,36.3c-9.2,7.1-32.9,28.1-32.9,28.1L510.9,162.6z"/>
			<path class="st31" d="M423.1,226.2c0,0-1.8-10.3,1.6-11.6c67.1-26,88.8-65.6,88.8-65.6l18.3,13c0,0-24.4,64.2-61.5,89.7
				c-16.6,11.4-35.9,12.7-35.9,12.7L423.1,226.2z"/>
			<path class="st32" d="M507,210.7c0,0-39.2,39.9-61.9,39.9c-6.1,0-2.2,5.1-2.2,12.5c7.1-1.5,17.8-4.7,27.5-11.4
				C484.7,241.8,497.2,226.2,507,210.7L507,210.7z"/>
		</g>
		
			<ellipse transform="matrix(0.0492 -0.9988 0.9988 0.0492 248.9624 550.7994)" class="st29" cx="413.79" cy="144.63" rx="57.4" ry="45.4"/>
		<path class="st33" d="M459,141.7c-1.6,31.6-23.1,56.3-48.1,55.1c-23.4-1.2-41.5-24.5-42.5-53.3c-1.1,31.2,17.8,57.3,42.5,58.5
			c25,1.2,46.6-23.4,48.1-55.1c0.1-2.1,0.1-4.2,0-6.2C459.1,141,459,141.3,459,141.7z"/>
		<g>
			<path class="st29" d="M303.4,135.6l-3.1-16.7c0,0,0.1-7.7,3.1-14c2.9-6.3,0-23.2-5.5-13.9s-9.7,11.8-12.6-2.7
				s-7.2-25.1-16.8-19.6s-9.7,27.8-2.1,36.6s26.5,34.1,26.5,34.1L303.4,135.6z"/>
			<path class="st31" d="M376.7,215.6c0,0-2.9-11-5.7-13.3c-59.8-49.4-68.2-82.1-68.2-82.1l-20.9,9.9c0,0,22.1,68.5,38.4,93.6
				c11,16.9,20.3,39.4,20.3,39.4L376.7,215.6z"/>
		</g>
		<g>
			<path class="st34" d="M376.7,85c12.9-10.2,70.9-17.2,86.8,5.6c15.2,21.7,12.1,46.1-11.9,45.2s-46.8-22.4-68.5-8
				c-8.8,5.8-25,10.5-23.8,1.3S366.2,93.3,376.7,85z"/>
		</g>
		<path class="st29" d="M382.2,132.8c0,0-5.5-6.1-14.8-4.4c-9.3,1.6-16.4,26.4,5.5,30.5c15.5,2.9,5.5-14.8,5.5-14.8L382.2,132.8z"/>
		<path class="st32" d="M355.1,243.9c-13-4.5-41.6-37.2-59.4-74.2c7.4,19.7,16.6,41.9,24.5,54c6,9.3,11.6,20.3,15.3,28.3
			c-8,21.2-16.9,44.4-22,56.5C326.6,279.9,355.1,243.9,355.1,243.9z"/>
	</g>
	<path class="st35" d="M441.9,1203v2c0,14.6,9.2,23.5,23,32.6c10.1,6.7,20,16.5,25.8,22.8c3.6,3.8,1.4,10.2-3.8,10.9
		c-14.2,1.9-39.7-8.7-58.1-17.7c-12.7-6.2-19.3-20.5-15.7-34.2l7.2-27.7L441.9,1203z"/>
	<path class="st36" d="M428.9,1253.5c18.3,8.9,43.9,19.6,58.1,17.7c3.1-0.4,5-2.8,5.4-5.5c-5.1-1.4-16.4-0.9-26.4-4
		c-13.7-4.2-31.4-11.9-42-27.3c-10.5-15.5,5-35.3,5-35.3l-8.7-7.5l-7.2,27.7C409.6,1233,416.2,1247.3,428.9,1253.5z"/>
	<path class="st35" d="M342.7,1203v2c0,14.6,9.3,23.6,23,32.6c8.5,5.6,16.9,13.5,22.8,19.6c5.3,5.5,1.2,14.7-6.4,14.3
		c-14.7-0.8-36.3-10-52.4-17.8c-12.7-6.2-19.3-20.5-15.7-34.2l7.2-27.7L342.7,1203z"/>
	<path class="st36" d="M333.8,1246.1c-14.6-9.1-7.2-37.2-5.3-50.6l-7.3-3.9l-7.2,27.7c-3.6,13.7,3,28,15.7,34.2
		c16.1,7.9,37.7,17,52.4,17.8c0.9,0.1,1.8,0,2.7-0.3C373.4,1266.5,353.3,1258.2,333.8,1246.1z"/>
	<path class="st37" d="M403.8,714.2l-112.4-10.1c0,0-13.9,39.2-7.6,89.7s17.1,174.3,17.1,174.3s-29.4,48.1,5.7,252.1h48.6
		c0,0,19.5-247,22.1-264.7s51.9-234.9,51.9-234.9L403.8,714.2z"/>
	<path class="st38" d="M365,684.8l-73.6,19.3c0,0-13.9,39.2-7.6,89.7s17.1,174.3,17.1,174.3s-29.4,48.1,5.7,252.1h17.9
		c-22.2-110.7-13.3-212.8-5.9-234.6c8.6-25.3,9.1-91.3,9.1-176.3C327.7,745.7,359.8,710.6,365,684.8z"/>
	<path class="st39" d="M357.7,308.5c0,0-6.9,40.4-0.7,53.9c6.2,13.5,16.2,24.9,28.1,8.5C397.1,354.4,357.7,308.5,357.7,308.5z"/>
	<path class="st37" d="M392.5,730.6l78.4,11.5l40.6,217.4c0,0-18,28.7-57.7-0.3c-39.8-29.1-76.5-141.5-76.5-141.5L392.5,730.6z"/>
	<path class="st37" d="M480.9,933.9l30.6,25.6l-58.4,264.4l-48-5.7c0,0-19.8-225.7,41-279.2C463.9,923.3,480.9,933.9,480.9,933.9z"
		/>
	<path class="st40" d="M406.1,433.8c0,0-56.8-28.4-77.7,5.7c-20.8,34.1-0.9,141.1-10.4,170.5s-49.3,81.5-35,103.3
		c14.2,21.8,154.4,58.7,201.8,26.5c0,0,8.5-4.7,0-67.3c-8.5-62.5,17.1-203.7,0-223.6C467.7,429.1,406.1,433.8,406.1,433.8z"/>
	<path class="st41" d="M365,495.8c0,0-17.6,81.2-30.8,122.1c-6.5,20.2-43.8,49.1-43.8,49.1l25.8-52c0,0,7.6-19.3,3.8-48.2
		c-3.8-28.9-0.2-40.4-0.2-40.4L365,495.8z"/>
	<g>
		<path class="st35" d="M498.5,453.4l27.2,8.6c0,0-31,86.5-33.9,102.3c-2.9,15.9-16.4,44.3-14.7,58.9c1.7,14.6,16.9,28.3,9.6,36.2
			c-7.2,7.9-34.1-28.5-33.9-36.2s8.6-23.9,7.9-35.6c-0.7-11.7-5-41.5-2.9-64.3C460.2,499.5,465.5,470,498.5,453.4z"/>
		<path class="st35" d="M397.5,345.9c0,0,30.5,9.1,70.7,34.8c40.3,25.6,64.3,67.6,57.8,80.1c-6.6,12.6-46.3,13-73.1,3.4
			c-26.8-9.6-69-24.5-83.8-55.8C354.4,377.1,350.8,335.7,397.5,345.9z"/>
		<path class="st42" d="M430.4,366.9l-29.8,31.3l18.7,52.7c11.8,5.5,23.7,9.7,33.5,13.2c7.3,2.6,15.5,4.5,23.8,5.6
			c-13.4,15.2-16.1,34-18.6,53.5c-1.4,11.1-0.9,24,0,35.6c2.5-4.3,1.9-12.8,2.9-22.8c3.8-39.4,35.6-73.3,35.6-73.3
			C490.5,432.6,430.4,366.9,430.4,366.9z"/>
		<path class="st31" d="M477.7,610.8l-19.4-8.9c-2.3,8.3-5.7,16.5-5.8,21.4c-0.2,7.7,26.7,44.1,33.9,36.2s-7.9-21.6-9.6-36.2
			C476.3,619.7,476.7,615.5,477.7,610.8z"/>
	</g>
	<path class="st40" d="M370.1,438.5c-6-8.5-19.9-14.2-41.7,0.9c-21.8,15.2-69.2,119-74.8,148.1c-5.7,29.1-8.6,67.9,18.9,64.1
		c27.5-3.8,29.2-49.6,29.2-49.6s43.7-69.8,61.7-97.2C381.5,477.4,379.8,452.1,370.1,438.5z"/>
	<path class="st29" d="M283.9,605.3c-8-5.2,23.5-12.2,77.7-8.5c42.7,2.9,45.5-40.7,54-36.9s-11.4,14.2,0,17.1
		c11.4,2.8,28-13.6,30.6,10.7s-21.1,28.6-35.3,27.4c-14.2-1.2-39.8,8.3-63.5,17.7c-23.7,9.5-50.2,19.9-74.8,18.9
		C247.9,650.7,283.9,605.3,283.9,605.3z"/>
	<path class="st29" d="M480.2,576.8c-5.1,0-7.9,8.2-9.4,21.2c-1.4,13-0.5,20.2,6,24.8C490.1,632.1,519.9,576.7,480.2,576.8z"/>
	
		<ellipse transform="matrix(0.0954 -0.9954 0.9954 0.0954 66.9154 709.6542)" class="st43" cx="423.9" cy="318.01" rx="77.1" ry="61"/>
	<path class="st44" d="M484.6,313c-4.1,42.4-34.5,74.1-68.1,70.9c-29.6-2.8-51.7-32-53.7-67.9c-2.3,40.7,21.2,75.5,53.7,78.6
		c33.5,3.2,64-28.5,68.1-70.9c0.5-5,0.6-9.9,0.3-14.7C484.8,310.4,484.7,311.7,484.6,313z"/>
	<path class="st45" d="M429.3,232.9c23,1.3,54.3,15.7,62.5,60.1c0.7,3.8-7.6,16.5-17.1,6.5s-22.9-23.4-22.9-23.4s16,19.5,4,19.5
		S424,275.1,424,275.1s8.4,13.5,2.9,12s-23.4-12.5-23.4-12.5s0.5,10.5-7.5,10.5s10.5,24.9,2.5,23.4s-17-6.5-17-6.5
		s-3.5,18.4-2.8,30.4c0.9,15.5-13.6,42.4-13.6,42.4s-18.8-46.6-16.2-70.2C352.1,275.5,370.3,229.7,429.3,232.9z"/>
	<path class="st43" d="M388.1,309.9c0,0-7.3-20.5-17.3-10.9c-10,9.7-10.4,29.2,3.3,35.2C392.5,342.5,388.1,309.9,388.1,309.9z"/>
	<path class="st46" d="M435.4,1003.8c21.3-56,30.6-57.8,30.6-57.8l-57.5-157.7l-12.4,79.1l0,0c11.3,26.7,26.8,58.2,43.6,78.3
		c-52.9,63.3-34.6,272.6-34.6,272.6l8.1,1C413.3,1213.4,416.7,1052.8,435.4,1003.8z"/>
	<g>
		<g>
			<path class="st35" d="M446.2,453.4l27.2,8.6c0,0-31,86.5-33.9,102.3c-2.9,15.9-16.4,44.3-14.7,58.9c1.7,14.6,16.9,28.3,9.6,36.2
				c-7.2,7.9-34.1-28.5-33.9-36.2s8.6-23.9,7.9-35.6s-7.9-42-2.9-64.3C410.7,500.9,413.1,470,446.2,453.4z"/>
			<path class="st35" d="M338,355.4c0,0,31,7.2,72.8,30.3c41.8,23.1,68.4,63.4,62.7,76.4c-5.8,13-45.4,15.9-72.8,7.9
				c-27.4-7.9-70.4-20.2-87.1-50.4S290.7,348.1,338,355.4z"/>
			<g class="st47">
				<path class="st35" d="M370.1,438.5c-28.7-18.6-48-58-48.9-83.5c-28.5,4.4-22,38.5-7.6,64.5c16.7,30.3,59.7,42.5,87.1,50.4
					c6.7,1.9,14.1,3.2,21.5,3.9c-10.9,15.8-13.1,34.5-16.5,49.4c-5,22.3,2.2,52.6,2.9,64.3c0.1-54,19-97.3,24-110.2
					C437.6,464.5,422.4,472.5,370.1,438.5z"/>
				<path class="st35" d="M407.8,596.3c0-0.1,0.1-0.2,0.1-0.4C407.8,596,407.8,596.2,407.8,596.3z"/>
				<path class="st35" d="M408,595.5c0-0.1,0-0.2,0.1-0.3C408,595.2,408,595.4,408,595.5z"/>
			</g>
		</g>
		<path class="st31" d="M425.9,610.8l-19.4-8.9c-2.3,8.3-5.7,16.5-5.8,21.4c-0.2,7.7,26.7,44.1,33.9,36.2c7.2-7.9-7.9-21.6-9.6-36.2
			C424.4,619.7,424.9,615.5,425.9,610.8z"/>
	</g>
	<path class="st31" d="M316,335.6l-20.3,26.6l5.6,27.2c0,0,36.4-23,55.8-27l-16-30.8L316,335.6z"/>
	<g>
		<path class="st43" d="M283.9,605.3c-8-5.2,23.5-12.2,77.7-8.5c42.7,2.9,45.5-40.7,54-36.9s-11.4,14.2,0,17.1
			c11.4,2.8,28-13.6,30.6,10.7s-21.1,28.6-35.3,27.4c-14.2-1.2-39.8,8.3-63.5,17.7c-23.7,9.5-50.2,19.9-74.8,18.9
			C247.9,650.7,283.9,605.3,283.9,605.3z"/>
		<path class="st40" d="M341.4,595.8c-41.6-0.9-68.2,5-61.2,9.5c0,0-32.2,45.5-7.6,46.4c20.1,0.8,41.6-6.1,61.6-13.8
			C331.6,619.9,336.4,605.4,341.4,595.8z"/>
	</g>
</g>
<g>
	<path class="st48" d="M267.7,1116.4c0-2.9,0.2-5.8,0.8-8.7c0.7,3.2,1.4,6.4,2.4,9.6c0.8,12.6,0.2,25.3,0.3,38
		c-8.5-0.1-17,0.1-25.5-0.2c-0.4-1.8-0.8-3.6-1.2-5.4c0.7-11,0.1-22.1,0.3-33.2C252.4,1116.4,260,1116.6,267.7,1116.4z"/>
</g>
<g>
	<g>
		<path class="st43" d="M566.2,899.5c3.4,65.5,9.9,144.6,32.6,143.4c22.6-1.2,40.7-65.4,42.3-130.9c2.7-109.6-27-117.6-49.6-116.5
			C568.9,796.7,562.9,834,566.2,899.5z"/>
		<path class="st43" d="M608,992.1L608,992.1c11.4,0.8,18.9,25.8,18.8,61.3c-0.2,38.6-23.5,132.4-17.5,160.4
			c7.3,33.9,28,51.6,5.7,55.5s-30.6-28.5-30.2-47.8c0.4-23.3-9.3-110.7-10.2-143.8c-1.6-58.8,25.6-109.4,25.6-109.4"/>
		<g class="st49">
			<path class="st50" d="M612.5,919.2c0,0,10.4,58.6-1.6,96c0,0,12.2,49.4,7.9,88.9c-3.7,34.4-5.8,49.7-6.3,53
				c5.4-36.9,14-80.3,14.1-103.6c0.1-15.1-1.2-28.2-3.6-38.4c8-19.5,13.9-47.4,16.6-77.3L612.5,919.2z"/>
			<path class="st29" d="M612.5,1157.8L612.5,1157.8L612.5,1157.8z"/>
		</g>
	</g>
	<g>
		<path class="st39" d="M581.3,1187.6c13.2,3.5,23.2,0.6,28.4-1.5c-0.6,11.5-2.3,21-0.7,27.2c8.9,33.5,30,51.6,7.9,56.6
			s-37.6-31.6-36.7-51.5C580.6,1211.9,582.5,1200.9,581.3,1187.6z"/>
		<path class="st51" d="M621.2,1260.9c-13.7,2.2-25.5-3.9-34.2-13.2c6.4,13.8,17.1,25.1,30,22.2c7.8-1.7,10.2-5.1,9.7-10.2
			C625.1,1260.1,623.3,1260.5,621.2,1260.9z"/>
	</g>
</g>
<g>
	<g>
		<path class="st43" d="M568.8,899.5c-3.4,65.5-12.5,144.6-35.1,143.4c-22.6-1.2-40.7-65.4-42.3-130.9
			c-2.7-109.6,27-117.6,49.6-116.5C563.6,796.7,572.2,834,568.8,899.5z"/>
		<path class="st43" d="M528.5,992.1L528.5,992.1c-22.4-5.2-20.4,49-21.6,60.4c-4.2,38.3,16.9,132,9.6,159.6
			c-8.9,33.5-30,51.6-7.9,56.6s37.6-31.6,36.7-51.5c-1.1-23.3,10.3-105,12.7-138c4.4-58.7-20.4-110.5-20.4-110.5"/>
	</g>
	<path class="st52" d="M530.3,923.4c0,0,20.5,67.5,12,92.1c0,0,14.2,49.3,9.1,85.4c-5.1,36.1-4.7,85.3-4.7,85.3
		c3-34.3,9.4-83.4,11.2-107.1c1.7-22.4-0.9-43.8-4.8-61.7c4.9-15.5,8.4-36.7,11-59.5L530.3,923.4z"/>
	<g>
		<g>
			<path class="st39" d="M546.8,1186.3c-13.2,3.5-23.8,0.6-29-1.5c0.6,11.5,0.4,21-1.3,27.2c-8.9,33.5-30,51.6-7.9,56.6
				s37.6-31.6,36.7-51.5C544.9,1210.6,545.6,1199.6,546.8,1186.3z"/>
		</g>
		<g class="st53">
			<path class="st39" d="M508.4,1261.5c-4.6-0.9-7.6-2.2-9.4-3.9c-0.8,5.5,1.4,9.2,9.6,11c12.3,2.8,22.6-7.4,29.1-20.3
				C530.2,1257.6,520.1,1263.7,508.4,1261.5z"/>
		</g>
	</g>
</g>
<g>
	<path class="st54" d="M583.2,349.2c13.5,3.4,28.4,8.4,40.2,38.2c11.7,29.7,7.4,65.1,7.4,99.9c0,26.9,0.2,60.4-2.5,86.9
		c-2.4,23.2-106,4-106,4S501,519,497.4,465.7C494.1,417.1,509.5,330.7,583.2,349.2z"/>
	<path class="st55" d="M612,381.4c0,0,11.5,46.3,9.6,57.3c-1.9,11.1-2.5,36.5-3,53.1c-0.2,7.4-2.6,31.9-6.6,40.7s-38,16.1-38,16.1
		s-24.6-4.3-26.7-4.3c-2.2,0-19-6.6-19-6.6s-7.3,7.8-9.5-5.8s-9.2-57.8-9.3-76.5c-0.2-18.7,11-57.8,11-57.8l27.1-22.2l36.9-5.7
		L612,381.4z"/>
	<path class="st43" d="M591.1,533.4c2.6,11.3-55.3,8.9-47.8,0c4.9-5.9,4.5-42.5,4.5-42.5s38.6-7.8,38.2,0.6
		C585.5,502.6,589.1,525.1,591.1,533.4z"/>
	<path class="st56" d="M547.9,479.3l-0.4,28.3c0,0,27.8,0.8,40.3,6.6c0,0-2.9-29-2.4-35C586.1,470,547.9,479.3,547.9,479.3z"/>
	<ellipse class="st43" cx="565" cy="429.9" rx="55.5" ry="70.1"/>
	<path class="st44" d="M564.2,489.7c-22.4,0-41.8-15-51.7-37.1c7.5,27.6,28.2,47.5,52.5,47.5c27.4,0,50.1-25.1,54.7-58
		C611.8,469.8,589.9,489.7,564.2,489.7z"/>
	<path class="st57" d="M589.8,355.6c0,0,25.5,8.3,17.9,29.5c-9.3,26-47.8,15.7-62.5,38.4c-21.4,33.1-33.7,21.3-35.7,49.3
		c0,0-12.8-38.2-7-63.1C508.2,384.9,538.2,331.4,589.8,355.6z"/>
	<path class="st58" d="M598.1,379.6c0,0,3.9,18.6,10.9,28c7.1,9.4,12.2,20.3,13.3,27.2c1.1,6.8,3-10.2,0-26.3
		c-3-16.1-7.3-41.8-18.1-43.4C593.5,363.4,598.1,379.6,598.1,379.6z"/>
	<path class="st43" d="M613.4,425.3c0.3-2.8,1-6.1,2.8-8.2c2.7-3.2,7.6-2.3,9.7,1c2,3,1.8,8,1.6,11.4c-0.4,5.7-3.1,17-11.2,14.3"/>
</g>
<g>
	<path class="st31" d="M591.1,743L493,764.9c0,0-11.5,42.5-8.3,108.8s8.7,90.5,8.7,90.5s102.8,30.6,144.9,0c0,0,34.4-145.9,0-212.8
		C616.3,708.7,591.1,743,591.1,743z"/>
	<path class="st59" d="M619.7,859.7c-3,38.1-4.6,92-16.6,116.8c13.5-1.8,25.8-5.5,35.1-12.3c0,0,30.8-130.7,5-201.4l-30.3,2.3
		C612.8,765.1,623.2,814.7,619.7,859.7z"/>
</g>
<path class="st60" d="M545.8,518.6c0,0,17.2,10.5,42.7,0c0,0,23.5-0.9,34.4,7.6c12.6,9.8,19.5,89.4,21,119.7c1.5,29.7,0,119,0,119
	s-83.5,21.1-151,0c0,0-0.2-31.5,3.2-95.3c2.1-40.4,6.5-63.1,7.9-91c0.9-16.7-8.8-47.7-4.2-50.9C515.5,517.1,537.4,518.6,545.8,518.6
	z"/>
<path class="st61" d="M636.5,578.6c0,0,15.1,44,11.6,80.4s-34,16.2-34,16.2l-9.7-57L636.5,578.6z"/>
<g>
	<path class="st29" d="M632.9,616.9c0,0-5.1,24.4,0,31c0,0-22.9,3.4-31.9-4.2c0,0,5.7-18.5,3.8-26.8
		C603,608.6,632.9,616.9,632.9,616.9z"/>
	<path class="st62" d="M604.7,618l0.1,0.8c0.8,3.4,0.3,8.6-0.6,13.4l-0.7,2.1c0,0,15.9-0.9,27.1,3c0.2-8.8,2.2-18.5,2.2-18.5
		S604.9,611,604.7,618z"/>
</g>
<g>
	<path class="st63" d="M601,634.3c0,0,14.4,5.3,27.2,1.8c0,0,13.1,1.6,20.2,11.4c0,0-3.4,27,0.3,39.3c13.3,44.7,31,87.4,18.2,132.2
		c-5.1,17.9-10.2,35.8-14.2,54.1c-0.6,2.9-1.3,5.9-3.3,8c-3.8,4.1-11.2,3-15-1.1s-4.9-10.1-4.7-15.7c0.4-10.1,2.3-39.3,2.3-50.5
		c0-16.1-43.3-18-39.1,10.9c1.9,12.9,9.4,24.4,11.8,37.2c1.8,9.4,0,21.7-9.2,24.5c-21,6.4-37.2-43.5-40.7-57.5
		c-10.8-43.4,9.8-80.2,9.8-122.9C564.6,684.7,568.3,636.8,601,634.3z"/>
	<path class="st64" d="M646.6,677.6c0,0,5.3,16.3,5.5,15.4c0.2-0.9,3.9,31.5,10.4,43.2c6.5,11.6,8.5,22.1,8.5,22.1
		c-2.3-2.5-19.9-20.3-24.4-40.3C642.7,700.5,646.6,677.6,646.6,677.6z"/>
	<path class="st64" d="M577.6,677.6c0,0-4.3,19.7-6.2,30.3c-1.9,10.4-5.3,28.3-6,37.8c-0.5,6.7-10.4,28.4-10.4,28.4
		s4.3-20.9,5.5-28.4s3-27.1,3.1-32.6s0-11.3,1.1-18.6C565.8,687.3,577.6,677.6,577.6,677.6z"/>
	<path class="st65" d="M631,791.6c-9.5-5.7-28.5-8-39,9.7c-10.4,17.7,5.1,45.7,11.6,55.9c-3.1-11-9.1-21.3-10.7-32.6
		c-4.2-28.9,39.1-26.9,39.1-10.9c0,8.3-1.1,26.5-1.8,39.5c1.4-5.1,3.5-12.3,6.3-19.1C641.6,821.4,641.8,798.1,631,791.6z"/>
</g>
<path class="st60" d="M607.6,520.5c0,0,44.1-2.9,54.4,63.5c5.1,33.1,15,51.3,18,101.7c0.8,13.4-14.2,57.2-41.7,60.4
	c-27.5,3.3-54.7-9.7-41.4-20c10-7.7,24.4,4.5,27.4,0s-10.9-13.2-3.6-11.5c7.3,1.8,12.5,9.2,20,6.3c7.5-3,11.1-36.2,10.5-48.6
	c-0.8-15.5-26.4-73.6-26.4-73.6L607.6,520.5z"/>
<path class="st43" d="M651.2,675.2c0,14-3.6,43-10.6,45.8c-7.5,3-12.7-4.5-20-6.3s6.6,7,3.6,11.5s-17.4-7.7-27.4,0
	c-13.3,10.3,13.9,23.3,41.4,20c25-3,39.7-39.5,41.6-56.2C668.9,681.9,658.9,677.5,651.2,675.2z"/>
<path class="st63" d="M626.5,653.2l9.4-15.1c0,0,20.1,4.6,34.4,30.9c12.8,23.6,8.9,44.1,14.9,57.3c5.9,13.2,12.4,24.8,1.7,27.2
	c-11.5,2.6-17.8-16.6-21.2-35.3s-21.9-30.4-29-40.6C632.5,671.9,626.5,653.2,626.5,653.2z"/>
<g>
	<path class="st29" d="M658,590.4c-2.4,25.2-20.9,44.1-41.3,42.2c-20.4-2-35-24-32.6-49.2c0.3-3,0.8-5.9,1.5-8.7
		c5.3-20.7,21.8-35.2,39.8-33.5C645.8,543.2,660.4,565.2,658,590.4z"/>
	<path class="st66" d="M617.2,626.8c-14.7-1.4-26.6-11.9-32.1-26.3c3.8,17.4,16,30.6,31.6,32.1s30.1-9.2,37.1-25.7
		C645.7,620.1,631.9,628.3,617.2,626.8z"/>
	<path class="st29" d="M588.5,579.6c-0.1-2.4-0.5-5.2-1.9-7.1c-2.1-2.8-6.2-2.4-8.3,0.3c-1.8,2.4-2,6.6-2,9.5
		c0,4.9,1.6,14.5,8.6,12.7"/>
	<path class="st29" d="M653,585.9c0.2-2.3,0.8-5.1,2.4-7c2.3-2.7,6.4-2,8.2,0.8c1.7,2.5,1.5,6.8,1.3,9.7c-0.3,4.9-2.6,14.4-9.5,12.1
		"/>
	<path class="st39" d="M636.3,550.2c-1.7,1.9-6.9,1.5-10.2-0.1c-3.3-1.7-4.7,1.2-9,0s-8.2-11.2,3.3-18.6c0,0-2.2,5.2,3,6.8
		C628.7,539.8,643.4,542.5,636.3,550.2z"/>
</g>
<g>
	<path class="st67" d="M501.2,527.5l-3.6,2.6c0,0-17,18.6-34.7,66.4c-13.3,35.9-28.9,87-13.6,87c6.7,0,23.6-6.7,35.5-23.7
		c15.1-21.7,31.6-51.1,35.9-71.2c2.7-13,7.4-18.6,5.7-27.8C523.7,546.3,514,535,501.2,527.5z"/>
	<path class="st60" d="M457.9,645.9c0,0-14.7,13-15,21.6c-0.9,26.5,20.4,55.1,76.2,86.1c0,0,23.9,12.9,38.3,20.6
		c14.3,7.7,29.6,10.6,40.1,8.7c10.5-1.9-1.9-25.8-22.9-29.6s-31.1-1.6-49.3-27.4c-18.2-25.8-46-76-46-76L457.9,645.9z"/>
	<path class="st43" d="M574.5,753.3c-21-3.8-31.1-1.6-49.3-27.4c-4-5.6-8.6-11.8-13.3-18c-7.6,7.8-15.9,17.6-21.2,27.2
		c8.2,6.5,17.6,12.8,28.4,18.5c0,0,23.9,12.9,38.3,20.6c14.3,7.7,29.6,10.6,40.1,8.7S595.6,757.1,574.5,753.3z"/>
	<path class="st61" d="M498.7,638.2l8.1-54c-11,33.4-38.2,74.1-38.2,74.1c10.6,5.9,48.5,56.4,48.5,56.4L504.8,694
		c-7.8-12.9-15.2-25.7-19.9-34.2C489.5,653.2,494.2,645.8,498.7,638.2z"/>
</g>
<g>
	<g>
		<g>
			<path class="st68" d="M1422.86,1146.65c0,6.92-1.59,19.75-2.58,27.03c-0.45,3.3-0.79,5.46-0.79,5.46h-46.05l-0.65-5.95
				l-3.48-32.24L1422.86,1146.65z"/>
			<path class="st69" d="M1369.31,1140.94l53.56,5.71c0,6.92-1.59,19.75-2.58,27.03c-14.98,0.11-35.36-0.22-47.49-0.49
				L1369.31,1140.94z"/>
		</g>
		<g>
			<path class="st68" d="M1506.54,1140.94l-2.09,19.25l-2.04,18.94h-46.05c0,0-0.58-4-1.3-9.39c-0.94-7.37-2.07-17.3-2.07-23.09
				L1506.54,1140.94z"/>
			<path class="st69" d="M1506.54,1140.94l-2.09,19.25c-11.37,2.22-33.52,6.51-49.4,9.55c-0.94-7.37-2.07-17.3-2.07-23.09
				L1506.54,1140.94z"/>
		</g>
	</g>
	<path class="st70" d="M1486.1,521.57c-0.02,0-0.02,0-0.02,0c-6.78,5.8-17.16,6.83-17.16,6.83l1.3-5.62c0,0-2.7,5.5-35.72,5.62
		c-33.02-0.11-35.72-5.62-35.72-5.62l1.3,5.62c0,0-7.66-0.76-14.11-4.65c-3.01-8.51-7.91-25.09-8.85-44.77
		c-0.76-15.52-0.31-27.03,0.61-36.12c2.16,19.66,112.57,24.31,114.75,7.26C1492.91,480.36,1488.57,508.2,1486.1,521.57z"/>
	<g>
		<g>
			<path class="st71" d="M1578.41,734.44l-38.77,19.81l-13.88-52.95v-0.02l-4.49-17.14l-0.61-2.36l3.1-91.72l10.9-39.63
				c1.21,1.98,18.6,75.98,31.09,129.51c0.63,2.67,1.24,5.3,1.84,7.86C1573.8,714.54,1578.41,734.44,1578.41,734.44z"/>
			<path class="st71" d="M1545.72,889.58c0,0-1.33,0.36-3.57,0.97c-8.15,2.16-28.51,7.39-41.72,9.14
				c-16.85,2.25-31.09,0.74-32.57-2.63c-0.58-1.3-1.46-42.19-2.31-91.57c-0.45-26.69-0.9-55.87-1.28-82.63
				c0,0,37.09-115.78,36.17-119.33c-0.94-3.57-19.3-12.56-19.3-12.56s14.98-9.35,15.37-12.54c0.31-2.72-9.28-30.39-12.13-38.55
				c23.59,3.15,46.37,7.05,49.38,9.17c1.62,1.12,1.77,5.73,1.19,11.73c0,0,0,0.09-0.02,0.25c-1.51,14.87-7.53,38.01-7.53,38.01
				s7.1,24.71,7.86,33.7c0.38,4.74-7.97,31.88-15.95,57.78c-7.17,23.21-14.02,45.42-14.02,49.67
				C1505.28,749.18,1544.98,824.05,1545.72,889.58z"/>
			<path class="st72" d="M1464.26,722.87c-0.74-50.79-1.28-92.94-1.28-92.94l4.18-88.04c0.97-2.25,1.59-3.75,1.66-3.95
				c0.02-0.02,0.02-0.02,0.02-0.02l14.74-0.29c0,0,0.29,0.83,0.79,2.27c2.85,8.15,12.45,35.83,12.13,38.55
				c-0.38,3.19-15.37,12.54-15.37,12.54s18.35,8.99,19.3,12.56C1501.35,607.09,1464.26,722.87,1464.26,722.87z"/>
			<path class="st73" d="M1567.58,687.8l-25.25,27.9l23.41-35.76C1566.37,682.61,1566.97,685.24,1567.58,687.8z"/>
			<path class="st73" d="M1539.92,634.61c0,5.48-10.78,52.16-14.18,66.68l-4.49-17.14c7.32-23.81,14.35-47.04,14-51.4
				c-0.76-8.99-7.86-33.7-7.86-33.7s6.02-23.14,7.53-38.01c-0.04,2.31-0.54,20.38-3.68,37.94
				C1531.23,598.98,1539.92,628.12,1539.92,634.61z"/>
		</g>
		<g>
			<path class="st71" d="M1353.54,681.78l-0.67,2.4l-4.96,17.79l-17.52,62.88l-35.79-19.79c0,0,44.26-191.51,46.01-194.63
				l10.06,39.63L1353.54,681.78z"/>
			<path class="st71" d="M1405.63,722.87c-0.36,26.76-0.76,55.91-1.19,82.6c-0.79,49.4-1.59,90.29-2.13,91.59
				c-1.37,3.37-14.51,4.87-30.08,2.63c-12.2-1.75-30.98-6.96-38.53-9.14c-2.09-0.61-3.32-0.97-3.32-0.97
				c0.7-65.53,37.13-140.4,37.13-149.39c0-4.18-6.07-25.7-12.51-48.48c-7.41-26.26-15.32-54.16-14.94-58.97
				c0.7-8.99,7.26-33.7,7.26-33.7s-5.55-23.14-6.94-38.01c-0.56-6.11-0.43-10.83,1.08-11.97c2.81-2.11,23.81-6.02,45.6-9.17
				c-2.63,8.15-11.5,35.83-11.21,38.55c0.36,3.19,14.2,12.54,14.2,12.54s-16.96,8.99-17.81,12.56
				C1371.35,607.09,1405.63,722.87,1405.63,722.87z"/>
			<path class="st72" d="M1406.8,629.93c0,0-0.49,42.14-1.17,92.94c0,0-34.28-115.78-33.41-119.33
				c0.85-3.57,17.81-12.56,17.81-12.56s-13.84-9.35-14.2-12.54c-0.29-2.72,8.58-30.39,11.21-38.55c0.47-1.44,0.74-2.27,0.74-2.27
				l13.16,0.29c0,0,0,0.02,0.04,0.07c0.13,0.36,0.88,2.13,1.98,4.7L1406.8,629.93z"/>
			<path class="st73" d="M1352.86,684.19l-4.96,17.79c-2.99-13.79-13.52-62.81-13.52-69.3c0-7.57,8.99-33.99,8.99-33.99
				c-2.81-14.6-2.99-37.65-2.99-37.65c1.39,14.87,6.94,38.01,6.94,38.01s-6.56,24.71-7.26,33.7
				C1339.72,637.1,1346.14,660.35,1352.86,684.19z"/>
		</g>
		<g>
			<path class="st74" d="M1528.13,1096.26c-0.38,9.37,2.63,48.3,2.63,48.3s-31.45,6.67-96.98,6.67c-37.99,0-63.6-2.63-77.37-4.58
				c-8.18-1.17-12.2-2.09-12.2-2.09s2.76-38.93,2.43-48.3c-0.36-9.37-12.94-165.12-12.94-205.71c7.55,2.18,26.33,7.39,38.53,9.14
				c14.85,2.13,27.47,0.88,29.81-2.18c0.11-0.13,0.2-0.29,0.27-0.45c0.22-0.54,0.47-7.59,0.76-19.09c0.02-0.45,0.02-0.9,0.04-1.35
				c0.4-16.56,0.85-41.6,1.3-69.53c0.02-1.06,0.02-1.62,0.02-1.62c7.48,2.07,17.79,4.07,30.08,4.11c11.12,0.04,20.67-1.51,27.97-3.3
				c1.08-0.25,2.09-0.52,3.06-0.79c0.85,49.38,1.73,90.26,2.31,91.57c1.48,3.37,15.73,4.87,32.57,2.63
				c13.21-1.75,33.56-6.99,41.72-9.14c0,2.2-0.05,4.72-0.11,7.55C1540.71,947.54,1528.49,1087.41,1528.13,1096.26z"/>
			<path class="st75" d="M1402.04,897.51c-0.31,3.62-1.76,14.27-2.14,15.04c-2.79,5.62-27.48-0.79-27.48-0.79
				s-11.64,89.9-12.2,123.6c-0.56,33.7,2.81,67.96,2.25,71.03c-0.45,2.47-4.45,29.34-6.04,40.26c-8.18-1.17-12.2-2.09-12.2-2.09
				s2.76-38.93,2.43-48.3c-0.36-9.37-12.94-165.12-12.94-205.71c7.55,2.18,26.33,7.39,38.53,9.14
				C1387.08,901.82,1399.7,900.57,1402.04,897.51z"/>
			<path class="st75" d="M1542.15,890.55c0,2.2-0.05,4.72-0.11,7.55c-6.69,2.25-20.13,7.84-38.34,12.58
				c-22.53,5.86-35.53,2.99-39.44,0s-1.71-104.39-1.71-104.39h-0.07c1.08-0.25,2.09-0.52,3.06-0.79
				c0.85,49.38,1.73,90.26,2.31,91.57c1.48,3.37,15.73,4.87,32.57,2.63C1513.64,897.94,1533.99,892.7,1542.15,890.55z"/>
		</g>
		<g>
			<g>
				<path class="st76" d="M1465.12,585.18l-2.13,44.75c0,0,0.54,42.14,1.28,92.94c0.38,26.76,0.83,55.94,1.28,82.63
					c-7.62,2.09-18.29,4.13-31.02,4.09c-12.29-0.04-22.6-2.04-30.08-4.11c0.43-26.69,0.83-55.85,1.19-82.6
					c0.49-36.84,0.88-69.12,1.06-84.09c0.07-5.66,0.11-8.85,0.11-8.85l-3.82-87.25c-1.1-2.56-1.84-4.34-1.98-4.7
					c0.58-0.07,1.17-0.16,1.75-0.22c10.38-1.3,19.95-2.27,26.6-2.61c1.66-0.09,3.15-0.13,4.43-0.13c1.82,0,4.02,0.07,6.56,0.22
					c7.08,0.4,16.67,1.3,27.03,2.52c0.49,0.04,0.97,0.11,1.46,0.18c-0.07,0.2-0.7,1.71-1.66,3.95L1465.12,585.18z"/>
			</g>
			<g>
				<rect x="1417.07" y="503.5" class="st68" width="33.43" height="38.19"/>
				<polygon class="st69" points="1450.49,503.5 1450.49,519.9 1421.42,533 1417.07,529.7 1417.07,503.5 				"/>
			</g>
			<g>
				<path class="st77" d="M1468.85,537.92c0,0,0,0-0.02,0.02c-0.07,0.2-0.7,1.71-1.66,3.95c-3.73,8.76-12.54,29-14.29,29
					c-0.85,0-3.64-4.31-6.76-9.68v-0.02c-5.14-8.83-11.21-20.44-11.21-20.44l5.44-5.5l12.54-12.65L1468.85,537.92z"/>
				<path class="st77" d="M1434.9,540.75c0,0-6.67,12.78-11.95,21.72c-2.81,4.76-5.23,8.42-6.02,8.42
					c-1.71,0-10.06-19.07-13.95-28.22c-1.1-2.56-1.84-4.34-1.98-4.7c-0.04-0.04-0.04-0.07-0.04-0.07l15.97-15.32l12.42,12.56
					L1434.9,540.75z"/>
			</g>
			<g>
				<g>
					<polygon class="st74" points="1452.02,751.18 1434.9,777.28 1417.78,751.18 1426.77,609.13 1429.02,573.71 1440.79,573.71 
						1441.06,577.84 1441.06,577.86 					"/>
					<polygon class="st75" points="1441.06,577.84 1441.06,577.86 1426.77,609.13 1429.02,573.71 1440.79,573.71 					"/>
				</g>
				<g>
					<path class="st74" d="M1446.11,561.19v0.02l-1.68,3.95l-3.64,8.54h-11.77l-4.09-7.57l-1.98-3.66
						c5.28-8.94,11.95-21.72,11.95-21.72S1440.97,552.36,1446.11,561.19z"/>
					<path class="st75" d="M1446.11,561.19v0.02l-1.68,3.95l-9.53-7.95l-9.97,8.92l-1.98-3.66c5.28-8.94,11.95-21.72,11.95-21.72
						S1440.97,552.36,1446.11,561.19z"/>
				</g>
			</g>
		</g>
	</g>
	<g>
		<g>
			<path class="st78" d="M1392.53,763.85l-97.05,16.51l-5.37,0.92c-2.27,0.38-4.49-1.42-4.92-3.98l-23.66-138.97
				c-0.45-2.56,1.06-4.99,3.35-5.37l14.83-2.54l1.12,6.67c0.38,2.2,2.27,3.71,4.2,3.39l65.01-11.08c1.95-0.34,3.23-2.38,2.85-4.58
				l-1.15-6.67l15.52-2.63c0.34-0.04,0.67-0.07,0.99-0.02c1.89,0.18,3.57,1.77,3.95,3.98l23.63,138.99
				C1396.31,761.04,1394.8,763.47,1392.53,763.85z"/>
			<path class="st79" d="M1350.05,629.42l-37.85,6.45l-27.16,4.63c-1.93,0.31-3.82-1.19-4.2-3.39l-1.26-7.48l59.58-10.15l12.47-2.11
				l1.28,7.48C1353.29,627.04,1352.01,629.08,1350.05,629.42z"/>
		</g>
		<g>
			<path class="st68" d="M1300.56,702.39c-0.81,1.53-1.75,2.49-1.98,2.72c0.12-0.02,0.46-0.09,0.84-0.04c0,0,0.58,0.11,1.07,0.63
				c1.1,1.16-0.99,7.92-2.28,13.38c-0.27,1.14-0.5,2.73-1.76,4.21c-3.17,3.73-6.27,4.11-9.08,4.94c-0.16,0.04-0.31,0.13-0.49,0.25
				c-0.52,0.31-1.08,0.88-1.68,1.62c0,0-0.07,0.09-0.2,0.27c-0.2,0.22-0.4,0.49-0.58,0.76c-0.18,0.22-0.36,0.47-0.56,0.74
				c-1.42,2.07-2.83,4.58-3.8,6.36c-0.61,1.17-1.03,2-1.12,2.18l-0.02,0.02l1.33,7.75c0,0-9.01-4.29-9.64-5.68
				c-0.63-1.42-0.49-5.98-0.49-5.98s-2.88-2.52-3.44-3.21c-0.56-0.72-0.99-5.84-0.99-5.84s-2.88-1.95-3.44-2.94
				c-0.56-0.99-0.49-5.82-0.49-5.82s-3.01-3.8-3.5-5.35s5.84-15.23,6.74-16.78c0.11-0.18,0.45-0.52,1.01-0.92c0,0,0,0,0.02-0.02
				c4.11-3.21,18.76-12.22,20.24-13.46c1.68-1.39,3.37,0.9,1.42,7.21c-1.98,6.34-12.02,10.42-12.51,10.92
				c-0.07,0.07-0.13,0.2-0.22,0.43c0,0.02,0,0.02,0,0.04c-0.13,0.43-0.31,1.1-0.47,1.86c-0.07,0.29-0.13,0.61-0.2,0.94
				c-0.29,1.39-0.56,2.9-0.72,3.75c-0.02,0.25-0.07,0.43-0.09,0.56c-0.02,0.07-0.04,0.09-0.02,0.13c0.47-0.31,8.02-5.57,9.32-6.27
				c1.33-0.7,14.04-3.57,16.35-4.27c2.31-0.72,2.94,1.46,1.95,3.86C1300.9,701.71,1300.74,702.07,1300.56,702.39z"/>
		</g>
	</g>
	<g>
		<g>
			<path class="st71" d="M1648.32,665.25c0,0-27.88,31.2-51.92,57.62l-0.04,0.04c-17.63,19.39-33.2,36.17-34.15,36.17
				c-1.3,0-8.22-0.56-14.09-1.66c-4.2-0.79-7.86-1.84-8.49-3.17c0,0-4.38-26.06-2.7-31.38c1.68-5.35,64.2-70.81,64.2-70.81
				L1648.32,665.25z"/>
			<polygon class="st73" points="1637.04,677.84 1600.16,666.09 1635.15,679.94 			"/>
			<path class="st73" d="M1596.36,722.92c-17.63,19.39-33.2,36.17-34.15,36.17c-1.3,0-8.22-0.56-14.09-1.66l-0.04-0.02
				L1596.36,722.92z"/>
		</g>
		<g>
			<path class="st68" d="M1715.85,634.09c-1.03-0.11-5.17,0.18-7.75,0.36c-1.26,0.11-2.13,0.18-2.13,0.18s0.04,0.07,0.09,0.16
				c0.2,0.43,0.72,1.55,0.31,1.89c-0.49,0.43-9.82-0.07-12.69,0.92c-2.88,0.99-13.21,7.08-14.83,7.86
				c-1.6,0.76-24.91,4.13-28.08,5.32c-3.15,1.19-8.33,5.39-12.51,7.35l-4.07,3.17l-32.01-8.96c0,0,6.13-15.73,15.95-18.53
				c7.41-2.11,20.42-2.07,27.99-1.93c2.47,0.04,4.36,0.11,5.3,0.11c3.77,0,17.81-1.42,24.55-2.38c6.74-0.99,30.33-6.2,34.98-3.1
				C1715.58,629.6,1717.4,634.23,1715.85,634.09z"/>
			<path class="st68" d="M1660.58,614.32c-0.61,2.97-2.22,7.05-6.22,9.41c-3.41,2.02-5.21,1.51-5.53,2.02
				c-0.16,0.25-0.81,1.68-1.44,3.12c0,0,0,0.02-0.02,0.04c-0.05,0.13-0.11,0.29-0.18,0.43c-0.11,0.25-0.22,0.52-0.31,0.74
				c-0.45,1.01-0.76,1.77-0.76,1.77c-0.61,0-1.24-0.02-1.89-0.02c-5.3-0.07-12.42-0.04-18.6,0.63h-0.09
				c-2.74,0.29-5.3,0.72-7.41,1.33c-9.21,2.63-15.16,16.62-15.88,18.35c-0.02,0.07-0.04,0.11-0.07,0.18c0,0,2.2-11.75,8.38-18.4
				c6.18-6.65,18.58-8.83,21-9.68c2.45-0.85,9.35-7.73,10.4-8.6c3.93-3.32,9.03-5.1,14.6-5.05
				C1658.29,610.59,1661.19,611.38,1660.58,614.32z"/>
		</g>
	</g>
	<g>
		<path class="st68" d="M1506.14,442.02c-5.37,9.57-12.6,11.97-13.66,8.09c-0.15,1.58-0.41,3.76-0.87,6.32c0,0-1.41,7.91-4.46,15.63
			c-2.84,7.19-7,17.73-16.11,25.89c-14.98,13.45-34.69,12.69-39.79,12.32c-5.98-0.44-24.4-2.75-38.21-18.63
			c-11.7-13.45-13.08-28.58-13.32-33.44c-0.02-0.02-0.02-0.04-0.02-0.07c-0.74-4.94-1.42-10.11-1.98-15.28
			c0.79-7.95,1.91-14.06,2.9-19.39c0.58-3.17,1.53-6.38,2.56-9.39c2.7-7.82,6.13-14.2,6.13-14.2l-0.7,8.72c0,0,11.1,3.64,27.32,2.52
			c15.7-1.08,25.41-4.87,26.01-5.1l-1.75,4.65c16.15-1.75,26.08-10.49,31.88-18.49c0.02,0,0.02-0.02,0.02-0.02
			c5.37-7.41,7.23-14.15,7.23-14.15s-1.28,30.22,15.43,49.92c0,0,2.54-7.66,8.72-6.69C1509.66,422.2,1510.36,434.49,1506.14,442.02z
			"/>
		<path class="st78" d="M1522.58,507.43c-15.64,22.4-37.92,22.46-38.19,22.46c0,0,0.7-3.03,1.68-8.33c0,0,0,0,0.02,0
			c2.47-13.37,6.81-41.2,6.38-71.46c1.06,3.89,8.29,1.48,13.66-8.09c4.22-7.53,3.53-19.81-2.65-20.8c-6.18-0.97-8.72,6.69-8.72,6.69
			c-16.71-19.7-15.43-49.92-15.43-49.92s-8.06,29.29-39.13,32.66l1.75-4.65c-0.61,0.22-10.31,4.02-26.01,5.1
			c-16.22,1.12-27.32-2.52-27.32-2.52l0.7-8.72c0,0-6.58,12.22-8.69,23.59c-0.99,5.32-2.11,11.43-2.9,19.39
			c-0.92,9.1-1.37,20.6-0.61,36.12c0.94,19.68,5.84,36.26,8.85,44.77c1.39,3.93,2.38,6.16,2.38,6.16s-21.9,1.68-37.07-19.1
			c-20.44-27.99-7.89-84.18,9.55-128.43c18.71-47.54,50.46-61.78,82.74-55.04c32.3,6.74,42.77,26.22,42.77,26.22
			s14.89,6.36,20.51,19.1C1512.47,385.38,1540.08,482.36,1522.58,507.43z"/>
		<path class="st69" d="M1494.66,425.15l-4.25-0.73c-0.23-0.89-0.52-1.72-0.89-2.41c-3.37-6.36-14.11-7.57-25.3-6.54
			c-11.1,1.03-22.53,3.82-23.5,10.04c-0.13,0.86-0.2,1.71-0.24,2.55c-0.92-0.65-3.17-2.1-4.97-2.1c-1.81,0-4.07,1.46-4.98,2.1
			c-0.04-0.84-0.11-1.69-0.25-2.55c-0.97-6.22-12.4-9.01-23.5-10.04c-11.19-1.03-21.9,0.18-25.3,6.54
			c-0.37,0.69-0.65,1.52-0.88,2.41l-4.24,0.73c-0.88,0.15-1.52,0.91-1.52,1.81v1.67c0,0.9,0.65,1.67,1.54,1.81l3.68,0.59
			c0.36,6.86,3.14,14.68,8.2,17.38c7.68,4.07,23.32,3.8,30.37-0.43c7.81-4.68,11.49-10.76,11.88-17.58
			c0.84-0.39,2.63-1.07,4.98-1.07c2.35,0,4.13,0.68,4.97,1.07c0.4,6.82,4.09,12.9,11.88,17.58c7.08,4.22,22.69,4.49,30.37,0.43
			c5.06-2.69,7.86-10.52,8.21-17.38l3.68-0.59c0.89-0.14,1.54-0.91,1.54-1.81v-1.67C1496.19,426.07,1495.54,425.31,1494.66,425.15z
			 M1417.08,447.06c-6.22,3.71-19.99,3.95-26.76,0.36c-6.76-3.57-7.8-17.07-4.83-22.69c2.99-5.62,11.12-6.87,21.14-6.31
			c9.82,0.54,19.86,3.35,20.71,8.83C1428.54,435,1425.57,441.98,1417.08,447.06z M1480.7,447.42c-6.76,3.59-20.53,3.35-26.76-0.36
			c-8.49-5.08-11.43-12.06-10.24-19.81c0.83-5.48,10.9-8.29,20.69-8.83c10.04-0.56,18.15,0.7,21.14,6.31
			C1488.52,430.35,1487.46,443.85,1480.7,447.42z"/>
		<path class="st80" d="M1494.67,423.73l-4.25-0.73c-0.23-0.89-0.52-1.72-0.89-2.41c-3.37-6.36-14.11-7.57-25.3-6.54
			c-11.1,1.03-22.53,3.82-23.5,10.04c-0.13,0.86-0.2,1.71-0.24,2.55c-0.92-0.65-3.17-2.1-4.97-2.1c-1.81,0-4.07,1.46-4.98,2.1
			c-0.04-0.84-0.11-1.69-0.25-2.55c-0.97-6.22-12.4-9.01-23.5-10.04c-11.19-1.03-21.9,0.18-25.3,6.54
			c-0.37,0.69-0.65,1.52-0.88,2.41l-4.24,0.73c-0.88,0.15-1.52,0.91-1.52,1.81v1.67c0,0.9,0.65,1.67,1.54,1.81l3.68,0.59
			c0.36,6.86,3.14,14.68,8.2,17.38c7.68,4.07,23.32,3.8,30.37-0.43c7.81-4.68,11.49-10.76,11.88-17.58
			c0.84-0.39,2.63-1.07,4.98-1.07c2.35,0,4.13,0.68,4.97,1.07c0.4,6.82,4.09,12.9,11.88,17.58c7.08,4.22,22.69,4.49,30.37,0.43
			c5.06-2.69,7.86-10.52,8.21-17.38l3.68-0.59c0.89-0.14,1.54-0.91,1.54-1.81v-1.67C1496.19,424.64,1495.55,423.88,1494.67,423.73z
			 M1417.09,445.63c-6.22,3.71-19.99,3.95-26.76,0.36c-6.76-3.57-7.8-17.07-4.83-22.69c2.99-5.62,11.12-6.87,21.14-6.31
			c9.82,0.54,19.86,3.35,20.71,8.83C1428.54,433.57,1425.58,440.56,1417.09,445.63z M1480.71,445.99
			c-6.76,3.59-20.53,3.35-26.76-0.36c-8.49-5.08-11.43-12.06-10.24-19.81c0.83-5.48,10.9-8.29,20.69-8.83
			c10.04-0.56,18.15,0.7,21.14,6.31S1487.47,442.42,1480.71,445.99z"/>
	</g>
</g>
<path class="st63" d="M595.5,652.2l7.6-16.7c0,0-24.4-3.4-40.8,17.9c-15.3,20-28.4,67.1-31.8,81.6c-3.4,14.4-1.9,26.2,8.9,22.6
	c6.7-2.2,13.3-21.4,15.8-36.7c1.9-11.5,18.4-33.1,24.1-41.7C581.2,676.4,595.5,652.2,595.5,652.2z"/>
<polygon class="st81" points="1373.45,1187.33 1373.55,1277.47 1529.45,1256.73 1534.45,1183.33 "/>
<g>
	<path class="st82" d="M1220.3,1165.3c0.6-11.8-0.8-23.6,0.8-35.3c1.2,8.2,0.4,16.5,0.7,24.8c15.3,0.4,30.6,0.7,45.9-0.3
		c-1.8-0.9-3.6-1.7-5.4-2.6c2-0.1,4-0.1,6-0.1c1.2,3.2,4.9,2.9,7.8,3.2c33.4,2.4,66.8,5.3,100.3,7.7c55.6,4.6,111.3,8.9,166.9,13.3
		c0.7-1.9,1.4-3.8,2.1-5.8c0.1,1.5,0.2,3,0.4,4.5c28.5,2.4,57,5,85.5,7.3c7.6,0.6,15.2,1.6,22.9,1.7h1.3c0.2-5.2,0.3-10.3,0.8-15.5
		c0.5,2.9,1,5.7,1.3,8.7c7.1-1.4,14.3-0.9,21.4-0.9c1.5-8.6,1.5-17.3,2.7-25.9c0.8,10.8,0.3,21.7,0.4,32.6c-0.9,12-0.4,24.1-1,36.1
		c-0.9,1.2-1.7,2.5-2.8,3.6c-6.7,1-13.4-0.3-20.1,0.4c-17.3,2.4-34.7,0.5-52.1,1.2c-4.7,0.5-9.1,2.9-13.9,2.6
		c-29.2-0.2-58.4-0.1-87.6-0.1c-3.7,0-7.4-0.3-11.1-0.6c-0.2,0.7-0.7,2-0.9,2.7c-0.5-1.6-1-3.1-1.6-4.6c-0.4-0.4-1.1-1.3-1.5-1.8
		c-2.3-4.5-4.2-9.5-8.6-12.5c-3.7-2.9-8.7-3.1-13.2-3.5c-21.2-1.7-42.4-3.7-63.6-5.4c-5.2-0.6-10.3,2.2-12.8,6.6
		c-4.2,6.4-3,14.3-2.7,21.6c-0.3-0.6-1-1.8-1.3-2.4c-0.5,1.3-1,2.7-1.4,4.1c-11.6-0.9-23.3-0.2-34.9-0.5c-42.8,0-85.5,0-128.3-0.1
		c-0.2,0.4-0.7,1.1-0.9,1.5c-1.3-4-2.3-8.2-2.7-12.4C1219.9,1201.3,1218.8,1183.3,1220.3,1165.3z"/>
</g>
<polygon class="st81" points="420.3,1191.6 420.4,1281.74 576.3,1261 581.3,1187.6 "/>
<g>
	<path class="st83" d="M244.3,1193.3c1.6,6,1.2,12.3,1.4,18.4c0.4-2.1,0.9-4.2,1.3-6.3c11.7-0.4,23.4,0,35.1-0.2
		c6.7-0.2,13.4-0.4,20.2-0.5c47.7-0.8,93.3,1.3,136.5,5.7c0.3,1.6,0.5,3.2,0.8,4.9c-3.8,6.4-3.8,14.1-3.1,21.3
		c0.5,4.8,3.8,8.8,7.1,12.1c-16.6,2.9-36.1,5.1-58,5.3c-15.1,0.1-29-0.8-41.4-2.2c-23.7-3.9-40.4-3.2-51.5-1.6
		c-4.6,0.7-15.3,2.4-29.7,1.3c-7.4-0.6-13.5-1.8-17.5-2.8c-0.8-2-1.6-4.9-1.9-8.5c-0.2-3.4,0.2-6.2,0.6-8.2
		C243.9,1219.1,243.2,1206.2,244.3,1193.3z"/>
</g>
<g>
	<path class="st84" d="M1717.4,1217.1c14.7-6.2,27.9-15.2,41.3-23.7c14.3,3.3,29.1,3.4,43.6,2.1c-26,14.9-54.8,25.9-84.9,28.8
		C1717.3,1221.8,1717.4,1219.5,1717.4,1217.1z"/>
</g>
<g>
	<path class="st85" d="M1678.5,1222.4c1.1-1.1,1.9-2.4,2.8-3.6c2.1,12,0.7,24.2,1.2,36.3c0.6,11.5-2.8,22.9-8.6,32.8
		c-2.4,4-6.7,7.3-11.7,7.1c-48.7,0.1-97.4-0.3-146.1,0.1c-7.1,1.2-14.1,2.3-21.1,3.8c-18.8-1.7-37.6-4.2-56.3-6.2
		c-37.2-4.2-74.3-8.4-111.5-12.6c-21.2-2.5-42.5-4.7-63.7-7.3c-21-3.3-35.8-22.1-41.6-41.1c0.2-0.4,0.7-1.1,0.9-1.5
		c42.8,0.1,85.5,0.1,128.3,0.1c11.6,0.3,23.3-0.4,34.9,0.5c0.4-1.4,0.9-2.8,1.4-4.1c0.3,0.6,1,1.8,1.3,2.4
		c2.6,6.9,7.3,14.3,15.5,14.9c22.9,2.3,45.8,4.4,68.7,6.6c5.5,0.8,11.1-2.1,13.8-6.8c4-6.4,3.2-14.3,2.8-21.4
		c0.4,0.4,1.1,1.3,1.5,1.8c0.6,1.5,1.1,3.1,1.6,4.6c0.2-0.7,0.7-2,0.9-2.7c3.7,0.3,7.3,0.5,11.1,0.6c29.2-0.1,58.4-0.1,87.6,0.1
		c4.8,0.3,9.2-2.1,13.9-2.6c17.4-0.7,34.8,1.2,52.1-1.2C1665.1,1222.1,1671.8,1223.4,1678.5,1222.4z"/>
	<path class="st85" d="M538.2,1221.9c1,2.7,1.7,5.5,2,8.4c53.8-0.5,107.7,0.2,161.5-0.4c0.3-0.8,1-2.4,1.3-3.2
		c0.6,0.8,1.3,1.7,1.9,2.5c-4.7,16.3-14.7,32-30.4,39.8c-6.7,3.5-14.3,4.1-21.7,4.9c-31.9,3.5-63.7,7.3-95.5,10.8
		c-45.6,5-91.2,10.6-136.9,15.4c-3.2-1-6.6-1.4-10-1.7c-3.9-0.1-6.9-2.9-10.5-3.7c-41.8,0.3-83.5,0.1-125.3,0.2
		c-6.6,0.2-13.4,0.2-19.8-1.6c-2.8-6.9-6.9-13.4-8.6-20.7c-1.6-6.2-1.3-12.6-2-18.9c-0.8-7.3-0.6-14.6,0.2-21.9
		c1.6,5.4,1.5,11.1,1.3,16.7c7.8,0.3,15.6,0.7,23.3-0.4c9-1.3,18.1-0.5,27.1-0.7c16.5,0.1,33-0.2,49.5,0.1c13,1.9,26.2,0.9,39.3,1.1
		c19.6,0.1,39.1-0.1,58.7-0.2c5,2.3,10.6,2,15.9,1.2c20-2,40-3.9,60-5.7c4-0.3,8-1.6,10.9-4.4
		C535.6,1235.2,537.4,1228.4,538.2,1221.9z"/>
</g>
<g>
	<path class="st37" d="M705.4,1128.9c1.4,12.5,0.3,25.1,0.7,37.7c0.4,17.2-0.6,34.4,0.7,51.5c-0.3,3.8-1,7.5-2,11.2
		c-0.7-0.8-1.3-1.7-1.9-2.5c-0.3,0.8-1,2.4-1.3,3.2c-53.8,0.6-107.7-0.1-161.5,0.4c-0.3-2.9-1-5.7-2-8.4c-0.6-5.9-1.1-12.5-5.7-17
		c-2.9-3.2-7.3-4.6-11.5-4.1c-22.5,2-45,3.9-67.5,5.9c-5.9,0.2-10.5,4.1-13.8,8.5c-0.3-1.7-0.6-3.3-0.8-4.9
		c-47.1-0.3-94.3,0-141.5-0.1c-5.7,0.1-9.4-5.8-15.2-5c-11.7,0.2-23.4-0.2-35.1,0.2c-0.4,2.1-0.9,4.2-1.3,6.3
		c-0.3-6.2,0.2-12.4-1.4-18.4c-0.5-6.4-0.4-12.8-0.4-19.2c0.1-8.1-0.6-16.3,0.6-24.3c0.4,1.8,0.8,3.6,1.2,5.4
		c8.5,0.2,17,0.1,25.5,0.2c0,9.5,0.1,18.9,0,28.4c8-0.2,15.9-1.1,23.8-1.8c12.7-0.8,25.3-2.3,37.9-3.1c17.8-0.9,35.5-3,53.3-4.4
		c38.5-3.4,77-6.7,115.5-10.1c40.3-3.5,80.5-7,120.8-10.5l1.2-0.1c6.6-0.6,13.2-1,19.9-1.6c20.2,3.3,40.8,0.5,61.1,2.3
		C705,1146,704.2,1137.4,705.4,1128.9z"/>
</g>
</svg>
