<?xml version="1.0" encoding="utf-8"?>
<!-- Generator: Adobe Illustrator 23.0.0, SVG Export Plug-In . SVG Version: 6.00 Build 0)  -->
<svg version="1.1" id="Layer_1" xmlns="http://www.w3.org/2000/svg" xmlns:xlink="http://www.w3.org/1999/xlink" x="0px" y="0px"
	 viewBox="0 0 2000 1333" style="enable-background:new 0 0 2000 1333;" xml:space="preserve">
<style type="text/css">
	.st0{fill:url(#SVGID_1_);}
	.st1{fill:url(#SVGID_2_);}
	.st2{fill:url(#SVGID_3_);}
	.st3{fill:#F5E0C3;}
	.st4{fill:#BEF5EF;}
	.st5{fill:#3FB8A2;}
	.st6{fill:#F59A99;}
	.st7{fill:#002736;}
	.st8{fill:#004265;}
	.st9{fill:#003D5A;}
	.st10{fill:#007289;}
	.st11{fill:#01273A;}
	.st12{fill:#011013;}
	.st13{fill:#007A81;}
	.st14{fill:#C36B6A;}
	.st15{fill:#012C39;}
	.st16{fill:#FBA735;}
	.st17{fill:#012B39;}
	.st18{fill:#DFDFDD;}
	.st19{fill:#6AB8AB;}
	.st20{fill:#69B7AA;}
	.st21{fill:#00586C;}
	.st22{fill:#01A48F;}
	.st23{fill:#002F3B;}
	.st24{fill:#F16E40;}
	.st25{fill:#ACB1B2;}
	.st26{fill:#A9ADAF;}
	.st27{fill:#CACBC6;}
	.st28{fill:#0475A1;}
	.st29{fill:#0473A0;}
	.st30{fill:#7D7B7C;}
	.st31{fill:#002F3C;}
	.st32{fill:#004063;}
	.st33{fill:#7A9872;}
	.st34{fill:#71A0BE;}
	.st35{fill:#81886B;}
	.st36{fill:#003D5C;}
	.st37{fill:#001E25;}
	.st38{fill:#003A58;}
	.st39{fill:#6D7C7F;}
	.st40{fill:#00A0C0;}
	.st41{fill:#15162A;}
	.st42{fill:#F5A334;}
	.st43{fill:#F4A234;}
	.st44{fill:#F8A434;}
	.st45{fill:#01A1C1;}
	.st46{fill:#00A2C3;}
	.st47{fill:#013957;}
	.st48{fill:#00222B;}
	.st49{fill:#013654;}
	.st50{fill:#03729F;}
	.st51{fill:#009FBF;}
	.st52{fill:#013451;}
	.st53{fill:#01314A;}
	.st54{fill:#01304A;}
	.st55{fill:#022D43;}
	.st56{fill:#F5A335;}
	.st57{fill:#022A3E;}
</style>
<linearGradient id="SVGID_1_" gradientUnits="userSpaceOnUse" x1="191.8674" y1="1539.6305" x2="1139.8004" y2="1539.6305" gradientTransform="matrix(-4.857226e-16 1 -1 -4.857226e-16 2016.908 36.1811)">
	<stop  offset="0" style="stop-color:#00C6BC"/>
	<stop  offset="1" style="stop-color:#17398D"/>
</linearGradient>
<path class="st0" d="M259.01,1150.97V253.06c0-13.81,11.2-25.01,25.01-25.01c0,0,138.74,22.01,271.28,12.89
	c31.1-2.14,123.36,14.48,123.36,17.56l16.9,892.47c0,13.81-11.2,25.01-25.01,25.01H284.01
	C270.2,1175.98,259.01,1164.79,259.01,1150.97z"/>
<linearGradient id="SVGID_2_" gradientUnits="userSpaceOnUse" x1="180.3327" y1="1539.6305" x2="1128.2657" y2="1539.6305" gradientTransform="matrix(-4.857226e-16 1 -1 -4.857226e-16 2016.908 36.1811)">
	<stop  offset="0" style="stop-color:#00C6BC"/>
	<stop  offset="1" style="stop-color:#17398D"/>
</linearGradient>
<path class="st1" d="M259.01,1139.44V241.52c0-13.81,11.2-25.01,25.01-25.01c0,0,179.33,18.6,345.83,29.85
	c31.1,2.1,58.12,31.66,58.12,34.73l7.58,858.34c0,13.81-11.2,25.01-25.01,25.01H284.01C270.2,1164.45,259.01,1153.25,259.01,1139.44
	z"/>
<linearGradient id="SVGID_3_" gradientUnits="userSpaceOnUse" x1="187.3246" y1="559.9014" x2="1161.9098" y2="559.9014" gradientTransform="matrix(-4.857226e-16 1 -1 -4.857226e-16 2016.908 36.1811)">
	<stop  offset="0" style="stop-color:#00C6BC"/>
	<stop  offset="1" style="stop-color:#17398D"/>
</linearGradient>
<path class="st2" d="M1238.74,1173.08V275.16c0-13.81,11.2-25.01,25.01-25.01c0,0,238.8,9.24,345.5-22.03
	c29.92-8.77,56.44-2.92,56.44,0.15l9.59,944.8c0,13.81-11.2,25.01-25.01,25.01h-386.53
	C1249.93,1198.09,1238.74,1186.9,1238.74,1173.08z"/>
<g>
	<g>
		<path class="st3" d="M948.22,110.22c30.88-24.45,72.64-32.87,111.35-26.79c35.7,5.49,69.58,23.06,93.5,49.79
			c13.46,14.89,23.59,32.77,28.53,52.14c0.33,2.02,0.66,4.06,0.99,6.1c-23.16-0.66-46.34,0.09-69.5-0.4
			c-2.39-9.27-4.72-18.58-7.68-27.69c-4.43,10.61-6.15,22.09-9.94,32.92c-4.27-18.96-8.52-37.91-12.77-56.86
			c-1.21-4.97-1.68-10.21-4.18-14.76c-6.81,32.97-11.9,66.29-18.61,99.28c-6.5-19.92-12.85-39.89-19.11-59.88
			c-0.48,0.01-1.42,0.06-1.89,0.07c-3.96,9.02-8.14,17.95-12.2,26.91c-2.37,0.19-4.75,0.39-7.08,0.69c2.03,2.27,6.03,2.5,8.46,0.99
			c4.47-7.2,6.64-15.55,11.06-22.79c1.76,0.55,1.7,2.85,2.48,4.26c5.8,18.78,12.02,37.43,17.79,56.22c0.44,0.17,1.36,0.5,1.82,0.66
			c5.92-32.16,11.41-64.41,17.79-96.48c5.87,23.06,10.33,46.46,16.05,69.56c4.98-10.55,6.15-22.39,10.32-33.25
			c2.31,7.36,3.43,15.11,6.48,22.24c21.03,0.79,42.14,0.25,63.2,0.25c2.62,0.19,7.31-1.07,7.95,2.57
			c1.24,7.58,0.46,15.33,0.33,22.98c-3.12,19.74-12.23,38.05-23.59,54.42c-10.56,15.09-23.37,28.68-37.8,40.25
			c-3.15,2.71-9.29,5.34-6.78,10.45c5.37,10.37,17.34,15.05,28.21,17.7c-17.34,0.06-34.7-0.17-52.02-1.05
			c-19.55-0.84-39.09-2.42-58.51-4.97c-22.38-3-44.26-10.23-63.44-22.03c17.89-13.22,30.73-31.97,39.23-52.13
			c9.28-20.98,16.1-44.65,10.13-67.45c-6.28-27.85-26.4-51.37-50.84-66.03c-8.24-5.15-17.24-9.01-26.52-11.94
			C943.61,114.11,945.84,112.08,948.22,110.22z M1089.12,220.39c-5.18,2.13-8.19,7.94-7.17,13.33c0.41,4.26,4.06,7,6.98,9.73
			c5.4,4.69,10.45,9.78,16,14.3c1.85,2.07,3.75-0.7,5.31-1.76c5.65-5.25,11.49-10.32,17.17-15.56c3.87-3.41,4.91-9.31,2.74-13.89
			c-2.44-5.93-10.02-8.69-15.95-6.33c-3.35,0.99-4.99,4.26-7.25,6.58c-1.4,0.65-1.8-1.54-2.67-2.12
			C1101.25,219.66,1094.35,218.1,1089.12,220.39z"/>
	</g>
</g>
<g>
	<g>
		<path class="st4" d="M787.68,163.64c29.9-36.59,80.31-55.19,127.37-48.01c21.99,3.13,43,12.48,59.81,26.77
			c10.69,9.05,19.7,20.02,26.23,32.32c9.7,18.32,12.33,40.05,7.05,60.06c-4.99,18.86-12.9,37.13-24.05,53.26
			c-17.5,25.05-46.11,40.91-75.96,47.12c-35.44,6.18-71.56,6.89-107.45,7.28c8.47-2.9,18.04-6.07,22.92-14.06
			c0.86-1.67,2.68-4.01,0.86-5.7c-2.82-3.16-6.54-5.34-9.7-8.11c-18.5-15.92-33.99-35.5-43.63-57.83
			c-3.96-9.7-6.84-19.99-6.89-30.49C763.34,203.35,773.35,181.25,787.68,163.64z M862.37,164.39c-1.66,9.1,0.6,18.66-1.1,27.68
			c-8.38,0.64-16.81-0.3-25.19,0.39c-5.02,0.51-9.09,5.03-9.15,9.97c-0.17,9.57-0.06,19.17-0.04,28.75
			c-0.17,4.75,3.15,9.56,7.95,10.62c8.8,1.16,17.86-0.62,26.57,0.85c1.27,8.84-0.37,17.88,0.77,26.76c1.36,3.78,5.29,6.71,9.48,6.53
			c10.16,0.24,20.34,0.01,30.51,0c5.22,0.25,10.3-4.51,9.76-9.75c0.15-7.97-0.24-15.95,0.18-23.92c8.57-0.41,17.17,0.2,25.74-0.3
			c5.32-0.42,9.26-5.65,9.04-10.75c0.06-9.19,0.04-18.37,0-27.56c0.38-5.33-3.66-10.71-9.19-11.21c-8.35-0.69-16.77,0.27-25.11-0.4
			c-1.54-5.37-0.25-11.38-0.62-17c-0.34-4.48,1.26-9.97-2.55-13.42c-2.74-3.11-7.14-3.48-11.03-3.36
			c-8.87,0.15-17.76-0.14-26.64,0.11C867.77,158.44,864.13,160.97,862.37,164.39z"/>
	</g>
</g>
<g>
	<path class="st5" d="M1078.51,124.67c2.5,4.56,2.97,9.8,4.18,14.76c4.25,18.94,8.51,37.9,12.77,56.86
		c3.8-10.83,5.51-22.31,9.94-32.92c2.96,9.11,5.29,18.42,7.68,27.69c23.16,0.49,46.34-0.26,69.5,0.4c-0.33-2.05-0.66-4.08-0.99-6.1
		c0.95,2.76,2.04,5.48,2.68,8.35c0.22,8.42,1.27,16.96-0.95,25.23c0.13-7.65,0.91-15.4-0.33-22.98c-0.63-3.64-5.33-2.38-7.95-2.57
		c-21.06,0-42.18,0.54-63.2-0.25c-3.05-7.13-4.16-14.88-6.48-22.24c-4.18,10.86-5.35,22.7-10.32,33.25
		c-5.71-23.1-10.18-46.5-16.05-69.56c-6.37,32.07-11.87,64.32-17.79,96.48c-0.46-0.16-1.37-0.49-1.82-0.66
		c-5.76-18.79-11.99-37.44-17.79-56.22c-0.77-1.41-0.71-3.71-2.48-4.26c-4.42,7.24-6.59,15.59-11.06,22.79
		c-2.43,1.51-6.42,1.29-8.46-0.99c2.34-0.3,4.71-0.5,7.08-0.69c4.06-8.96,8.24-17.88,12.2-26.91c0.47-0.01,1.41-0.06,1.89-0.07
		c6.26,19.99,12.61,39.96,19.11,59.88C1066.62,190.96,1071.71,157.64,1078.51,124.67z"/>
</g>
<g>
	<g>
		<path class="st6" d="M862.37,164.39c1.76-3.42,5.4-5.95,9.37-5.99c8.87-0.25,17.76,0.04,26.64-0.11c3.9-0.12,8.29,0.25,11.03,3.36
			c3.81,3.44,2.21,8.94,2.55,13.42c0.37,5.62-0.91,11.63,0.62,17c8.34,0.67,16.76-0.29,25.11,0.4c5.54,0.5,9.57,5.88,9.19,11.21
			c0.04,9.19,0.06,18.37,0,27.56c0.22,5.09-3.72,10.32-9.04,10.75c-8.57,0.5-17.17-0.11-25.74,0.3c-0.42,7.97-0.03,15.95-0.18,23.92
			c0.53,5.24-4.55,10-9.76,9.75c-10.17,0.01-20.35,0.24-30.51,0c-4.19,0.19-8.13-2.75-9.48-6.53c-1.14-8.87,0.5-17.92-0.77-26.76
			c-8.71-1.47-17.78,0.31-26.57-0.85c-4.8-1.06-8.11-5.87-7.95-10.62c-0.03-9.58-0.13-19.18,0.04-28.75
			c0.06-4.94,4.14-9.46,9.15-9.97c8.38-0.69,16.81,0.25,25.19-0.39C862.97,183.05,860.71,173.49,862.37,164.39z M873.17,169.91
			c0.06,11.21,0.25,22.41-0.1,33.62c-11.54,0.24-23.08-0.22-34.61,0.27c-0.17,8.99-0.58,18.03,0.25,27.01
			c11.48-0.09,22.97-0.22,34.46,0.06c0.17,11.28,0.06,22.58,0.05,33.86c9.1,0,18.23,0.3,27.35-0.01c0-11.28-0.19-22.56,0.09-33.86
			c11.48-0.27,22.97-0.11,34.46-0.07c0.77-8.96,0.33-17.97,0.25-26.94c-11.55-0.57-23.12-0.06-34.69-0.3
			c-0.3-11.19-0.18-22.4-0.05-33.6C891.5,169.56,882.32,169.61,873.17,169.91z"/>
	</g>
	<path class="st6" d="M1089.12,220.39c5.23-2.28,12.14-0.72,15.16,4.28c0.86,0.59,1.27,2.77,2.67,2.12c2.26-2.32,3.9-5.59,7.25-6.58
		c5.93-2.36,13.51,0.4,15.95,6.33c2.17,4.58,1.13,10.48-2.74,13.89c-5.68,5.24-11.52,10.31-17.17,15.56
		c-1.56,1.06-3.45,3.83-5.31,1.76c-5.55-4.52-10.6-9.61-16-14.3c-2.92-2.73-6.58-5.48-6.98-9.73
		C1080.93,228.32,1083.94,222.52,1089.12,220.39z"/>
	<path class="st6" d="M461.5,339.66c9.75-1.8,19.62-4.04,28.19-9.16c4.37,3.49,8.13,7.66,11.36,12.21
		c3.22,4.33,6.34,8.75,9.22,13.32c9.61,15.79,17.64,33.63,16.9,52.4c0.06,6.1-1,12.39-4.16,17.72c-2.08,3.71-6.2,5.55-9.99,7.11
		c-4.04,1.27-8.21,2.1-12.4,2.62c-17.72,2.17-35.39-1.98-52.03-7.66c8.7,14.64,23.04,24.78,37.21,33.87
		c8.38,5.15,16.89,10.16,25.88,14.24c1.69,4.82,3.69,9.51,5.6,14.24c1.09,2.75,2.21,5.49,3.38,8.22c-0.09,4.99,1.31,11.07-2.48,15.1
		c-4.52,4.14-11.4,2.25-16.06-0.62c-13.23-8.21-23.45-21.4-38.76-26.12c-10.88-6.07-22.52-10.75-34.71-13.57
		c3.43-9.86,4.99-20.17,7.44-30.25c5.07-9.62,4.57-20.97,5.98-31.47c-3.58-0.77-7.83-1.02-10.14-4.24
		c-5.41-6.91-4.49-16.2-4.04-24.39c5.9-4.93,13.74-2.25,20.28-0.25c0.05-3.77,0.51-7.71-1.07-11.27
		c-2.53-6.03-5.26-12.82-2.73-19.31C446.7,345.08,454.22,340.93,461.5,339.66z"/>
	<path class="st6" d="M1364.38,353.88c2.48-0.34,4.94-1.22,7.49-0.87c4.7,1.85,8.35,6.94,13.89,6.14c8.79-1.36,18.38-3.33,26.8,0.59
		c3.91,1.7,6.55,5.69,5.93,9.96c-0.52,6.34,0.9,12.57,2.74,18.61c0.39-0.15,1.18-0.47,1.57-0.62c2.3-3.98,4.37-8.67,8.81-10.77
		c2.53-1.06,4.77,0.95,5.9,3.03c3.38,6,4.65,13.23,3.21,19.97c-1.7,6.13-7.59,9.53-13.05,12.06c-4.55,11.27-4.71,24.17,0.6,35.24
		c0.36,4.46,0.03,8.92-0.05,13.39c-0.06,1.24-0.11,2.48-0.15,3.73c-0.15,2.36-0.32,4.72-0.52,7.08c-0.17,1.46-0.32,2.92-0.46,4.38
		c-9.54,7.72-20.21,13.9-30.57,20.45c-7.41,0.22-14.82-0.22-22.19-0.65c-2.7-5.57-5.85-10.91-8.71-16.39
		c-1.02-1.68-1.08-3.63-1.09-5.5c16.61-4.57,33.13-11.74,45.47-23.89c-12.33,5.64-26.36,7.31-39.73,4.95
		c-9.13-3.22-15.13-11.46-18.66-19.97c-5.7-13.67-7.11-28.67-7.08-43.3c-0.2-12.45,1.12-24.87,2.91-37.18
		C1353.06,354.15,1358.76,354.93,1364.38,353.88z"/>
	<path class="st6" d="M530.09,412.97c9.03-1.41,18.56,0.69,25.98,6c6.21,4.48,15.48,6.49,18.18,14.39
		c1.89,5.44,4.47,10.66,5.95,16.24c0.67,5.43-0.09,10.91,0.24,16.36c-4.98,2.38-9.98,4.74-14.63,7.69
		c-1.87-3.64-4.86-6.51-8.74-8.05c-6.54-2.7-11.29-7.95-16.12-12.82c0.83-5.64,1.71-11.27,3.26-16.76c2.64-1.87,5.6-3.81,6.09-7.25
		c-2.15-2.51-3.87-5.42-6.45-7.54C539.26,418.43,532.2,418.81,530.09,412.97z"/>
	<path class="st6" d="M1007.94,442.74c3.75-1.68,7.25-0.01,10.3,2.27c0.41-1.04,1.21-3.09,1.6-4.13c2.73,0.92,5.6,1.77,7.94,3.54
		c10.03,7.39,18.07,16.92,26.19,26.22c1.23-3.91,2.07-7.97,3.95-11.64c1.3-2.46,4.25-4.29,7.03-2.81c1.32,5.3-1.99,10.52-0.85,15.86
		c1.42,6.68,4.85,13.42,2.56,20.33c0.56,1.01,1.13,2.03,1.73,3.07c-7.14,2.88-13.14,8-18.12,13.69c-4.49-1.4-9.12-2.57-13.18-4.98
		c-9.41-5.47-16.05-14.28-22.35-22.84c-3.61-5.4-7.59-10.92-8.51-17.48c0.93-0.25,2.78-0.76,3.72-1.01
		c-2.3-3.34-4.14-7.14-3.21-11.27c1.76,0.56,3.58,1.16,5.37,1.77C1009.53,450.33,1007.85,446.73,1007.94,442.74z"/>
	<path class="st6" d="M565.4,614.06c7.22-9.05,19.11-15.56,31.04-13.83c2.81,10.96,5.85,21.88,8.04,32.98
		c-11.71,3.13-22.42,9.33-34.55,10.98c-3.45,0.79-6.73,2.2-9.81,3.87c0.06,0.59,0.19,1.75,0.25,2.33
		c-3.2-6.16-5.88-12.58-9.42-18.56C555.93,626.04,560.83,620.17,565.4,614.06z"/>
	<path class="st6" d="M1521.84,902.53c6.88-6.44,13.37-13.6,21.98-17.87c4.43,4.38,9.83,7.71,15.62,10.11
		c-3.21,5.34-0.2,11.84-2.65,17.42c-1.68,4.77-6.13,7.61-10.04,10.48c4.23,0.61,8.87,0.35,12.67,2.58c0.2,1.58,0.37,3.19,0.51,4.82
		c2.87,2.23,6.3,5.3,4.35,9.31c-2.13,1.88-5.12,2.37-7.69,3.39c0.15,1.8,1.73,4.94-0.89,5.64c-8.35,2.48-17.18,2.83-25.72,4.44
		c-7.2-1.93-12.62-7.38-16.99-13.04c-2.76-3.47-2.17-8.1-2.18-12.19c0.23-4.75-0.03-9.65,1.49-14.21
		C1514.25,908.91,1518.41,905.91,1521.84,902.53z"/>
</g>
<g>
	<path class="st7" d="M221.01,198.85c9.81-16.34,27.78-29.85,47.89-28.4c9.04,0.54,17.95,2.28,26.95,3.26
		c-7.39,1.71-15.17,2.82-21.7,6.93c-20.25,12.74-25.12,35.35-26.07,40.16c-5.1,25.9,7.34,48.55,11.07,55.9
		c19.96,39.28,10.04,72,5.68,200.84c-2.37,70.1,1.48,33.53-0.47,180.47c-2,150.55-7.11,282.32-7.11,282.32
		c-2.83,73.03-5.79,128.81-3.32,213.63c1,34.29,2.57,62.54,3.78,81.49c6.44,1.82,13.17,1.75,19.79,1.6
		c41.77-0.11,83.57,0.15,125.31-0.2c3.66,0.8,6.65,3.59,10.51,3.66c3.36,0.22,6.72,0.69,9.95,1.65
		c-16.96,2.21-33.98,3.96-50.96,5.92c-33.76,3.81-67.52,7.49-101.22,11.79c-13.78,1.71-27.64-3.88-37.67-12.99
		c-7.25-6.69-13.01-14.89-16.78-23.92c-2.81-7.04-4.75-14.5-4.72-22.09c-0.08-11.61,0.01-23.2-0.01-34.81
		c0-12.83,0.01-25.67-0.01-38.5c-0.01-1.88-0.03-3.73-0.01-5.59c0.01-53.34,0.09-106.66,0-160c0.05-31.3,0.03-62.59,0.01-93.87
		c-0.01-2.05,0-4.07,0-6.08c-0.13-31.47,0.3-62.95-0.22-94.41c0.2-6.19,0.36-12.39,0.2-18.58c0.01-60.49,0.1-120.97-0.05-181.44
		c-0.09-10.1,0.75-20.25-0.69-30.28c0.38-3.22,0.71-6.44,0.76-9.67c0.01-69.7-0.03-139.39-0.03-209.07
		c-0.06-8.97,0.14-17.95-0.24-26.91c0.65-20.94,0.01-41.92,0.25-62.89C212.09,218.2,215.78,207.96,221.01,198.85z"/>
	<path class="st7" d="M1636.58,173.7c13.9-1.17,28.2-5.82,41.97-1.47c12.51,3.72,22.76,12.59,30.15,22.98
		c7.28,10.56,11.36,23.25,11.67,36c-0.01,186.18-0.11,372.37-0.01,558.54c0.03,74.4-0.14,148.81,0.09,223.21
		c-0.23,6.2-0.05,12.42-0.03,18.63c-0.2,19.14-0.03,38.3-0.08,57.46c-0.03,1.87-0.04,3.76-0.01,5.65
		c0.03,21.45-0.06,42.91,0.05,64.36c-0.01,2.4-0.05,4.78-0.04,7.21c-0.22,12.35,0.34,24.72-0.27,37.08
		c-1.76,21.24-14.26,41.98-33.79,51.84c-9,4.63-19.48,5.84-29.43,4.22c-28.71-3.86-57.52-6.81-86.29-10.12
		c-24.17-2.9-48.4-5.29-72.55-8.41c6.98-1.49,14.03-2.66,21.08-3.81c66.31-3.11,115.27-9.36,130.79-15.55
		c3.61-1.44,11.69-4.66,16.42-12.63c3.44-5.8,3.65-11.64,3.79-17.68c0.13-5.67-0.41-15.22-5.04-26.6
		c0.61-8.62,1.51-21.53,2.51-37.19c3.18-49.57,5.34-94.08,6.08-113.62c2.8-73.9-0.82-158.22-2.92-199.01
		c2.05-7.86,4.91-20.14,6.95-35.37c6.3-47.2-1.52-76.56-4.42-120.63c-1.52-22.98,0.32-19.37,1.89-88.42
		c3.13-137.34,4.69-206.01,1.45-243.49c-2.24-25.96-6.56-50.57,3.6-78.61c1.89-5.22,4.43-10.96,4.54-19.56
		c0.24-20.2-12.57-43.99-33.53-51.23C1646.44,175.82,1641.46,174.86,1636.58,173.7z"/>
</g>
<g>
	<path class="st8" d="M248.9,844.21c-0.65-5.45-0.56-10.96-0.47-16.44c-0.22-193.88-0.04-387.76-0.11-581.65
		c-0.04-8.45,0.24-16.9-0.23-25.33c2.45-16.2,11.71-31.56,26.07-40.16c6.53-4.11,14.31-5.22,21.7-6.93
		c37.81,4.54,75.65,8.95,113.52,12.98c22.18,2.65,44.37,5.18,66.59,7.5c62.31,7.24,124.67,14.23,186.99,21.34
		c8.52,0.86,16.62,4.32,23.3,9.56c14.54,11.39,21.42,29.3,24.45,46.82c-0.06,56.31,0.03,112.63-0.08,168.94
		c0.13,8.57-0.28,17.16,0.28,25.72c-0.69,23.03-0.13,46.08-0.24,69.11c-0.04,34.11,0,68.21-0.05,102.31
		c-0.67,12.09,0.29,24.17,0.03,36.27c-0.99,26.63,0.27,53.26-0.39,79.9c0.6,11.81-0.69,23.65,0.66,35.43
		c-0.69,41.41-0.08,82.84-0.24,124.26c-0.27,11.83,0.53,23.7-0.67,35.5c-1.82-8.56-0.19-17.32-1.47-25.92
		c-0.6,3.27-0.91,6.58-1.09,9.91c-6.11-0.95-12.43-1.65-18.37,0.42c-0.42,7.82,0.84,15.79-1.05,23.51
		c-1.03-8.24-0.04-16.52-0.25-24.77c-0.19-23.04,0.69-46.1-0.18-69.13c0.56-12.52,0.7-25.07,0.03-37.58
		c0.66-22.03,0.58-44.1,0.15-66.14c0.47-16.15,0.42-32.32,0.08-48.47c8.43-9.41,11.5-22.2,11.72-34.46
		c-0.28-19.96-6.04-39.29-12.77-57.96c1.22-4.7,1.49-9.55,1.27-14.38c-0.28-50.34-0.09-100.7-0.14-151.04
		c-0.09-8.52,0.44-17.06-0.62-25.53c0.98-7.26,0.55-14.59,0.61-21.88c0.05-41.61-0.04-83.23,0.08-124.83c0.05-1.54-0.17-3-0.66-4.41
		c-5.21-1.11-10.55-1.19-15.83-1.8c-125.86-12.57-251.72-25.13-377.59-37.71c-6.51-0.66-13.01-1.37-19.54-1.83
		c0.14,27.47-0.29,54.95,0.2,82.42c-0.41,35.37-0.34,70.76,0,106.11c-0.39,25.8-0.36,51.6-0.01,77.39
		c-0.53,28.55-0.05,57.12-0.2,85.69c0.13,31.35-0.24,62.72,0.25,94.07c-0.61,15.65-0.14,31.3-0.27,46.95
		c0.17,14.31-0.25,28.63,0.34,42.93c-0.75,18.49-0.06,37.03-0.27,55.53c0.19,15.18-0.29,30.38,0.38,45.54
		c-0.17,4.58-0.56,9.16-0.66,13.77c-2.25-16.4,0.27-33.03-1.35-49.49c-0.9-7.53,0.25-15.15-1.13-22.63
		c-1.57,9.41,0.74,19.09-1.27,28.43c-6.36,1.46-12.82,43.24-19.27,43.89"/>
	<path class="st8" d="M1587.44,179.32c16.43-1.44,32.76-3.72,49.14-5.62c4.89,1.16,9.87,2.12,14.64,3.77
		c20.86,7.87,32.78,30.08,33.53,51.23c0.04,183.05-0.04,366.1,0.04,549.16c-0.29,11.79,0.51,23.62-0.42,35.39
		c-3.21,9.65-0.57,19.98-1.57,29.93c-7.49-0.6-15.01-0.39-22.5-0.59c-0.7-12.6,0.71-25.27-0.79-37.83
		c-0.86-6.74,0.42-13.65-1.59-20.24c8.91-19.87,18.59-39.95,21.39-61.71c1.24-8.59-2.34-16.86-5.84-24.5
		c-4.48-9.45-9.99-18.37-15.53-27.24c0.66-62.16,0.06-124.35,0.32-186.52c0.05-83.14-0.13-166.29,0.08-249.43
		c-2.04,0.2-4.06,0.42-6.07,0.62c-6.82,0.64-13.61,1.41-20.4,2.1c-123.6,12.32-247.2,24.68-370.8,37.03
		c-5.66,0.52-11.31,1.05-16.92,1.85c0.19,29.78,0.08,59.57,0.08,89.34c-0.06,69.87,0.06,139.75,0.05,209.61
		c0.04,2.55,0.18,5.08,0.38,7.64c-7.86,7.39-16.43,14.14-22.88,22.85c-0.5-77.74-0.06-155.48-0.29-233.23
		c0.18-32.67-0.04-65.34,0.1-98.02c1.12-16.29,7.17-32.63,18.65-44.64c6.92-7.4,16.15-13.02,26.37-14.49
		c43.74-5.1,87.55-9.7,131.28-14.95C1461.07,193.78,1524.28,186.7,1587.44,179.32z"/>
</g>
<g>
	<path class="st9" d="M271.64,813.62c1.38,7.48,0.23,15.1,1.13,22.63c1.61,16.46-0.9,33.1,1.35,49.49c0.52,16,0.13,32.01,0.32,48.03
		c-0.01,9.42-0.15,18.84,0.14,28.27c-0.3,22.58-0.05,45.15,0.03,67.71c-0.51,9.86-0.24,19.72-0.75,29.58
		c-0.93-3.18-1.69-6.4-2.35-9.62c-0.63,2.85-0.85,5.74-0.84,8.66c-7.62,0.21-15.25,0.05-22.88,0.24c-0.08-14.55,0-29.1-0.09-43.65
		c-0.93-24.96-0.39-49.94-0.58-74.92c-0.44-96.08-0.25-192.17-0.34-288.27c-0.08-134.76-0.03-269.51,0-404.28
		c0.08-8.91-0.57-17.92,1.32-26.71c0.47,8.44,0.19,16.89,0.23,25.33c0.08,193.9-0.1,387.77,0.11,581.65
		c-0.09,5.48-0.66-21.28-0.02-15.83"/>
</g>
<g>
	<path class="st10" d="M1652.27,235.74c2.01-0.2,4.02-0.42,6.07-0.62c-0.2,83.14-0.03,166.29-0.08,249.43
		c-0.25,62.17,0.34,124.36-0.32,186.52c-0.67-1.04-1.31-2.06-1.96-3.07c1.38-7.84,0.72-15.8,0.8-23.71
		c0.11-35.77-0.01-71.55,0.1-107.33c-0.23-14.73,0.42-29.48-0.32-44.18c0.71-31.02,0.14-62.06,0.33-93.09
		c0.01-54.67,0.15-109.35,0.03-164.02C1655.76,235.69,1653.44,235.73,1652.27,235.74z"/>
</g>
<g>
	<path class="st11" d="M479.93,291.58c1.69-1.91,4.41-2.12,6.77-2.6c3.42,3.29,7.33,6.44,9.1,10.97c4,10.15,3.02,23.3-6.11,30.54
		c-8.57,5.12-18.44,7.36-28.19,9.16c-7.29,1.27-14.8,5.43-17.15,12.74c-2.53,6.49,0.2,13.28,2.73,19.31
		c1.57,3.56,1.12,7.5,1.07,11.27c-6.54-2-14.37-4.68-20.28,0.25c-0.46,8.19-1.37,17.47,4.04,24.39c2.31,3.22,6.56,3.47,10.14,4.24
		c-1.41,10.51-0.91,21.85-5.98,31.47c-1.98-0.19-4.14-0.3-5.57-1.83c-9.98-9.33-19.31-19.32-28.58-29.34
		c-3.97-4.52-7.99-9.01-11.53-13.85c-1.35-7.14-0.25-14.39,0.19-21.55c0.86-4.92,1.96-9.81,2.74-14.74
		c4.15-12.62,11.34-25.71,23.98-31.69c11.01-3.92,22.45-6.54,33.77-9.42c6.58-1.76,14.3-2.25,19.11-7.61
		C476.19,307.37,474.12,297.61,479.93,291.58z"/>
	<path class="st11" d="M1323.51,325.87c4.14-5.73,8.87-12.43,16.52-13.52c8.7-1.1,16.49,3.78,23.58,8.05
		c3.58,2.66,7.73-0.24,11.21-1.62c11.06-5.57,24.42-7.34,36.32-3.43c9.08,2.98,14.94,11.59,24.33,13.98
		c4.37,1.07,8.9,2.75,11.46,6.65c4.58,6.53,8.01,13.8,13.2,19.94c5.29,6.14,1.7,14.25,1.08,21.27c-0.98,5.19,4.19,9.42,2.69,14.58
		c-3.02,6.64-11.34,9.01-14.52,15.51c-0.91,4.87,0,10.02-1.96,14.7c-3.67,10.15-12.43,17.11-19.15,25.23
		c-5.31-11.07-5.14-23.97-0.6-35.24c5.46-2.52,11.35-5.93,13.05-12.06c1.43-6.74,0.17-13.96-3.21-19.97
		c-1.13-2.08-3.38-4.09-5.9-3.03c-4.44,2.1-6.51,6.79-8.81,10.77c-0.39,0.15-1.18,0.47-1.57,0.62c-1.84-6.04-3.26-12.27-2.74-18.61
		c0.62-4.27-2.02-8.26-5.93-9.96c-8.42-3.92-18.02-1.95-26.8-0.59c-5.54,0.8-9.19-4.29-13.89-6.14c-2.55-0.35-5.02,0.54-7.49,0.87
		c-5.61,1.05-11.31,0.26-16.95,0.44c-3.4,0.79-6.59,2.17-9.93,3.08c-3.14,0.07-5.94-1.68-8.81-2.67c-0.1,0.74-0.3,2.23-0.41,2.97
		c-0.22-0.29-0.66-0.87-0.89-1.16c-0.27-0.75-0.8-2.26-1.07-3.01c-3.57-2.32-8.28-4.13-9.36-8.67
		C1315.6,337.87,1319.79,331.46,1323.51,325.87z"/>
</g>
<g>
	<path class="st12" d="M486.69,288.99c13.2,1.49,22.87,13.13,25.74,25.25c1.75,10.71-4.53,20.69-11.38,28.47
		c-3.24-4.54-7-8.71-11.36-12.21c9.13-7.24,10.11-20.39,6.11-30.54C494.02,295.43,490.11,292.28,486.69,288.99z"/>
	<path class="st12" d="M1328.69,354.73c2.87,0.99,5.68,2.75,8.81,2.67c3.34-0.91,6.53-2.3,9.93-3.08
		c-1.79,12.3-3.11,24.72-2.91,37.18l-0.71-0.54c-3.55-2.85-6.65-6.3-8.81-10.28c-2.78-5.05-2.27-11.13-0.81-16.5
		c-2.06-2.08-4.18-4.12-5.9-6.48C1328.38,356.97,1328.58,355.47,1328.69,354.73z"/>
</g>
<g>
	<path class="st13" d="M390.39,398.3c-3.86-6.56-1.3-14.64,0.19-21.55C390.14,383.91,389.05,391.16,390.39,398.3z"/>
</g>
<g>
	<path class="st14" d="M448.58,428.21c16.65,5.68,34.31,9.83,52.03,7.66c2.88,13.68,6.58,27.19,11.06,40.45
		c-8.99-4.08-17.5-9.09-25.88-14.24C471.62,453,457.28,442.85,448.58,428.21z"/>
	<path class="st14" d="M1370.27,454.77c13.37,2.36,27.4,0.69,39.73-4.95c-12.34,12.14-28.86,19.32-45.47,23.89l0.47-1.47
		c0.47-1.36,0.95-2.73,1.42-4.11c0.32-1,0.95-3.01,1.27-4.01C1368.59,461.01,1369.44,457.89,1370.27,454.77z"/>
</g>
<g>
	<path class="st15" d="M1428.07,464.33c0.04-1.25,0.09-2.5,0.15-3.73c3.61,1.17,7.19,2.5,10.68,4.04
		c11.6,6.99,16.18,20.29,19.53,32.52c7.81,29.95,9.74,61.03,10.93,91.79c4.25,2.2,9.47,3.38,12.19,7.66
		c5.4,7.51,4.39,17.41,1.59,25.7c-0.84-0.09-2.49-0.26-3.33-0.35c1.49-6.64,3.44-13.96,0.2-20.42c-3.4-7.15-12.7-10.06-20.06-7.87
		c-4.52,1.36-7.55,5.29-9.36,9.38c-2.51,4.95-3.06,10.52-2.86,15.99c-3.83-0.41-3.14-4.34-3.02-7.09c0.39-4.36,1.78-8.55,3.21-12.65
		c3.5-6.43,10.3-10.45,17.71-10.53c-0.67-28.18-2.87-56.48-9.01-84.08c-2.4-9.75-5.02-19.71-10.46-28.28
		C1442.1,470.13,1435.26,466.18,1428.07,464.33z"/>
</g>
<g>
	<path class="st16" d="M583.43,464.77c5.5-1.07,11.45-0.7,16.33,2.25c6.64,3.53,10.03,10.48,14.07,16.41
		c20.85,31.96,38.74,65.63,56.25,99.43c6.28,11.64,11.86,23.62,16.71,35.92c6.73,18.67,12.49,38,12.77,57.96
		c-0.22,12.26-3.29,25.05-11.72,34.46c-4.62,4.77-10.35,8.34-16.52,10.84c-0.52,0.19-1.59,0.57-2.12,0.77
		c-7.02-0.17-14.54,1.02-21.01-2.28c-10.04-4.87-16.42-14.48-21.61-23.86c-6.53-11.82-10.32-24.78-14.73-37.44
		c0.14,9.77,3.09,19.21,4.2,28.88c1.26,10.4,3.29,20.73,3.71,31.22c2.69,28.23,5.8,56.45,7.52,84.77
		c1.09,10.07,0.62,20.29,2.48,30.29c0.01,12.35,1.63,24.63,1.42,36.99c-0.27,10.86,1.19,21.64,0.94,32.5
		c-0.1,9.15,0.24,18.32-0.28,27.47c-0.88,11.59-5.28,23.16-13.74,31.5c-4.33,3.96-10.61,5.65-16.3,3.83
		c-10.21-3.19-16.59-13.83-16.25-24.09c0.23-22.11,0.11-44.22-0.1-66.32c-0.28-12.44,0.1-24.9-0.95-37.3
		c-1.03-47.09-3.85-94.12-8.2-141.02c-1.74-17.96-3.75-35.89-6.35-53.74c12.13-1.65,22.84-7.85,34.55-10.98
		c-2.18-11.11-5.23-22.03-8.04-32.98c-11.93-1.73-23.82,4.78-31.04,13.83c-5.17-26.44-10.56-53.03-20.56-78.2
		c-5.52-13.72-12.47-27.44-24.2-37.08c-1.17-2.73-2.29-5.48-3.38-8.22c8.18,5.9,16.77,11.22,24.78,17.35
		c16.04,13.54,30.81,29.21,40.1,48.07c0.55,0.19,1.64,0.56,2.17,0.75c-6.61-17.16-13.17-34.37-21.22-50.95
		c-2.31-4.7-4.72-9.63-4.44-14.99c-0.39-6.45,2.68-12.58,7.16-17.13c4.65-2.95,9.65-5.3,14.63-7.69
		C581.41,465.53,582.41,465.13,583.43,464.77z"/>
	<g>
		<path class="st16" d="M414.98,479.93c4.41-2.37,8.56-5.52,13.65-6.35c12.19,2.82,23.83,7.5,34.71,13.57
			c9.1,5.58,17.43,12.5,23.95,20.92c1.46,1.92,2.78,4.03,3.17,6.44c6.13,41.84,10.55,83.93,14.79,125.98
			c8.95-3.76,17.71-7.92,26.55-11.94c6.35-2.87,14.13-1.45,19.15,3.31c3.54,5.98,6.22,12.39,9.42,18.56
			c1.8,4.06,4.86,7.99,4.35,12.67c-0.5,5.1-4.05,9.37-8.3,12.09c-15.02,10.06-30.56,19.37-46.37,28.19
			c0.37,14.41,0.28,28.84,1.27,43.23c0.67,18.35-0.57,36.67-1.18,55c-1.52,15.77-3.5,31.54-3.61,47.4
			c-1.12,14.68-1.57,29.41-3.57,44.02c-1.51,10.77-3.12,21.53-5.79,32.09c-4.3,14.1-9.69,30.77-24.61,37.16
			c-19.64,8.12-40.69,12.37-61.62,15.86c-29.65,4.32-60.19,7.29-89.87,1.67c-9.95-2-20.07-5.64-27.08-13.19
			c-0.1-0.16-0.29-0.51-0.39-0.69c-0.84-1.46-1.68-2.91-2.39-4.41c-0.63-4.21-0.84-8.5-0.08-12.68
			c10.59-53,19.88-106.24,29.23-159.47c28.35,1.9,56.3-6.13,82.03-17.17c30.14-13.34,58.25-30.84,84.28-50.78
			c5.1-4.04,10.7-7.59,14.88-12.64c-6.79,2.42-12.76,6.49-19.2,9.65c-18.22,9.77-36.95,18.57-55.37,27.97
			c-21.15,10.72-44.15,18.16-67.82,20.87c-11.95,1.31-24.36,1.24-35.8-2.75l-0.9-0.45c-14.88-6.56-25.02-21.04-28.16-36.53
			c-0.11-0.85-0.36-2.53-0.47-3.37c-1.74-18.33-1.23-36.91,1.7-55.11c4.33-23.21,9.46-46.37,17.74-68.58
			c6.48-17.8,14.8-34.93,24.57-51.22c3.96-6.49,8.16-12.82,12.61-18.99c7.29-10.23,14.13-20.93,23.32-29.65
			c7.07-7.23,16.28-11.88,25.39-16.12C404.17,482.07,409.75,481.58,414.98,479.93z M453.91,586.78
			c-7.82,22.91-18.05,44.93-28.81,66.62c-2.31,4.88-5.43,9.38-7.1,14.55c8-1.61,15.93-3.57,23.82-5.64
			c10.49-27.27,16.72-56.22,17.46-85.4c-0.09-1.76-0.23-3.51-0.44-5.25C456.77,576.56,455.77,581.8,453.91,586.78z"/>
	</g>
</g>
<g>
	<path class="st17" d="M1339.97,485.37c7.57-8.9,16.84-16.59,27.72-21.25c-0.32,1-0.95,3.01-1.27,4.01
		c-21.15,10.52-34.85,31.62-41.47,53.44c-5.71,20.03-8.75,40.68-11.77,61.24c-4.55,27.47-6.96,55.24-9.76,82.92
		c-0.79,0.25-2.36,0.74-3.14,0.99c0.53-4.37,0.99-8.74,0.98-13.13c3.31-32.33,6.86-64.68,12.34-96.74
		c3.57-19.18,6.72-38.96,16.25-56.33C1332.75,495.15,1336.19,490.12,1339.97,485.37z"/>
</g>
<g>
	<path class="st18" d="M1428.07,464.33c7.19,1.85,14.03,5.8,18.09,12.08c5.45,8.57,8.06,18.53,10.46,28.28
		c6.15,27.59,8.34,55.9,9.01,84.08c-7.41,0.09-14.21,4.11-17.71,10.53c-3.35,4.69-5.03,10.6-4.32,16.32
		c3.25,19.41,3.9,39.12,5.83,58.67c0.5,5.08,3.19,9.53,6.06,13.65c-3.12,1.8-6.3,3.53-9.75,4.58c-3.9,1.11-7.77,2.32-11.44,3.98
		c0.55,1.9,0.74,5.44,3.64,5.1c4.3-0.55,7.62-3.82,11.16-6.05c-0.29-0.59-0.88-1.76-1.17-2.35c0.55,0.47,1.63,1.42,2.16,1.9
		c2.76-1.42,5.4-3.11,8.35-4.17c3.69,0.41,7.12,2.07,10.51,3.53c3.57,1.82,7.06,3.82,10.8,5.37c0.77-0.42,2.32-1.27,3.1-1.7
		c0.05-1.06,0.13-3.18,0.17-4.24c-4.33-1.72-8.93-2.51-13.47-3.34c-2.5-0.77-4.9-1.75-7.3-2.68c2.45-3.48,4.63-7.19,5.79-11.29
		c5.42-17.98,10.2-36.14,15.08-54.26c2.81-8.29,3.81-18.18-1.59-25.7c-2.72-4.28-7.94-5.47-12.19-7.66
		c-1.19-30.76-3.12-61.84-10.93-91.79c-3.35-12.23-7.92-25.53-19.53-32.52c19.45,6.31,37.71,16.05,53.88,28.4
		c6.91,5.42,14.88,9.37,21.69,14.95c16.84,12.8,31.72,27.82,46.6,42.71c27.03,28.23,52.2,58.17,75.46,89.47
		c6.67,9.16,13.19,18.42,19.46,27.83c0.65,1.01,1.28,2.03,1.96,3.07c5.54,8.87,11.05,17.8,15.53,27.24
		c3.5,7.64,7.08,15.91,5.84,24.5c-2.81,21.76-12.48,41.84-21.39,61.71c-0.24,0.54-0.71,1.62-0.94,2.16
		c-14.79,28.84-30.9,57.12-50,83.44c-6.83,9-13.6,18.3-22.52,25.41c-2.83,2.46-6.7,2.78-10.28,2.72c-5.04-0.6-10.03-1.65-14.74-3.48
		c-5.79-2.4-11.19-5.73-15.62-10.11c-4.67-4.47-8.23-10.46-8.06-17.02c-0.55-7.79,4.43-14.24,7.71-20.89
		c9.24-18.64,17.84-37.6,26.23-56.65c4.86-11.41,10-22.71,14.73-34.17c1.24-2.4-0.8-4.62-1.94-6.58c-4.91-7.2-9.52-14.6-14.41-21.81
		c-18.14-28.34-36.76-56.4-55.12-84.6c-2.65-4.41-5.37-8.79-8.81-12.64c-1.5,26.28,0.58,52.63,2.4,78.85
		c3.76,43.97,10.26,87.72,19.39,130.91c0.79,2.67-0.44,5.25-1.73,7.55c-6.97,12.5-11.02,27.04-8.8,41.32
		c0.71,5.07,3.71,9.37,6.44,13.6c-3.43,3.38-7.59,6.38-9.56,10.88c-1.51,4.57-1.26,9.46-1.49,14.21c0.01,4.09-0.57,8.72,2.18,12.19
		c4.37,5.67,9.79,11.11,16.99,13.04c3.48,1.4,6.86,3.38,10.72,3.52c5.97,0.35,11.82-1.1,17.61-2.31
		c9.9,14.55,18.03,30.21,27.93,44.79c0.24-2.2,0.51-4.38,0.72-6.55c1.27,7.96,2.48,16.06,1.16,24.11
		c-3.21,9.82-9.13,18.59-16.43,25.95c-6.15,6.21-12.95,11.77-20.2,16.7c-25.67,17.05-55.09,29.04-85.79,33.6
		c-12.23,1.63-25.11,2.07-36.83-2.26c-8.87-3.26-10.91-13.49-12.72-21.53c-5.26-31.3-2.13-63.15-0.34-94.6
		c2.44-30.56,5.47-61.09,8.72-91.59c0.3-3.79,0.44-7.58,0.61-11.36c0.28,1.42,0.56,2.86,0.89,4.31c-0.57-9.25,1.31-18.41,2.02-27.61
		c2.6-31.2,6.59-62.61,3.01-93.9c-2.09-28.24-4.29-56.5-4.06-84.84c-0.34-35.4,1.99-70.72,4.13-106.03
		c0.83-9.05,1.94-18.07,2.83-27.11c0.71-4.95,0.95-9.96,1.56-14.93c1.14-13.83,1.07-27.94-2.32-41.48
		c-0.74-3.39-3.24-5.95-5.61-8.35C1427.76,469.05,1427.92,466.69,1428.07,464.33z"/>
	<path class="st18" d="M1324.95,521.56c6.61-21.81,20.31-42.92,41.47-53.44c-0.47,1.37-0.95,2.75-1.42,4.11
		c-13.92,11.93-20.63,29.43-26.88,45.99c-1.12,3.13-2.07,6.31-3.01,9.51c-13.57,45.61-14.84,93.98-9.27,140.95
		c2.07,15.13,3.67,30.34,3.8,45.6c1.99,24.49,0.04,49.03-0.38,73.53c-1.49,25.8-3.21,51.57-5.26,77.31c-0.29,2.8-0.7,5.59-0.9,8.41
		c-2.41,15.85-3.14,31.9-4.89,47.83c-3.82,44.04-9.67,88.07-8.75,132.35c-0.13,7.66-1.92,15.18-3.48,22.65
		c-2.35,5.67-6.97,12.08-14.04,11.19c-8.02-1.32-14.39-6.86-21.11-10.92c-8.47-5.93-16.4-13.37-20.24-23.07
		c-1.49-3.73-1.56-7.79-1.08-11.71c3.03-10.81,3.5-22.11,5.38-33.13c8.51-63.05,16.35-126.23,20.5-189.73
		c1.05-10.77,0.57-21.63,1.55-32.4c0.17-9.36,0.88-18.79-0.61-28.08c-0.01-7.8-0.95-15.55-1.97-23.26
		c-1.66-13.67-2.59-27.39-2.53-41.16c-3.83,2.2-7.48,4.7-11.35,6.83c-5.12,2.35-10.58,3.94-16.18,4.65
		c-7.71,0.6-15.54-0.49-22.76-3.21c-30.23-11.31-54.25-33.55-76.17-56.22c-7.06-7.89-13.85-16.01-20.85-23.95
		c-24.78-28.43-48.75-57.58-70.64-88.24c-4.52-6-7.4-13.7-5.5-21.19c0.52-1.26,1.17-2.46,1.87-3.62
		c4.98-5.69,10.98-10.81,18.12-13.69c5.22-0.12,10.59,0.52,15.26,3c6.01,2.92,10.08,8.34,14.64,12.98
		c9,9.51,17.97,19.07,27.69,27.89c12.32,11.53,25.02,22.69,38.46,32.97c17.53,13.35,34.95,26.86,52.32,40.41
		c1.64-2.21,3.29-4.41,5.02-6.55c6.45-8.71,15.02-15.46,22.88-22.85c5.69-5.35,11.57-10.5,17.31-15.79
		c12.9-11.91,25.84-23.76,38.86-35.53c3-2.7,4.75-6.34,6.72-9.75c3.69-6.51,8.39-12.39,13.2-18.13c5.99-6.64,12.24-13.1,19.24-18.73
		c-3.78,4.75-7.22,9.78-10.12,15.13c-9.54,17.37-12.68,37.15-16.25,56.33c-5.48,32.06-9.03,64.41-12.34,96.74
		c-1.35,3.83-1.85,7.86-1.71,11.92c-4.57,2.22-10.31,5.37-9.88,11.22c-1,7.19,6.75,13.44,13.75,11.68
		c6.28-1.16,10.69-8.04,8.77-14.09c-1.1-3.97-5.19-5.84-7.68-8.81c1.79-16.67,3.35-33.38,5.37-50.03
		c0.96-10.89,3.54-21.68,3.3-32.66C1316.21,562.24,1319.24,541.59,1324.95,521.56z"/>
	<path class="st18" d="M463.34,487.14c15.31,4.72,25.53,17.91,38.76,26.12c4.66,2.87,11.54,4.77,16.06,0.62
		c3.78-4.03,2.39-10.11,2.48-15.1c11.73,9.63,18.68,23.36,24.2,37.08c9.99,25.17,15.39,51.75,20.56,78.2
		c-4.57,6.12-9.47,11.98-14.45,17.78c-5.02-4.75-12.8-6.18-19.15-3.31c-8.84,4.02-17.6,8.19-26.55,11.94
		c-4.24-42.06-8.66-84.14-14.79-125.98c-0.39-2.41-1.71-4.52-3.17-6.44C480.78,499.65,472.45,492.72,463.34,487.14z"/>
	<path class="st18" d="M1459.96,593.67c7.36-2.18,16.66,0.72,20.06,7.87c1.37,9.35-0.89,18.64-2.72,27.75
		c-4.34,16-8.63,32.02-13.51,47.87c-0.86,3.27-2.96,5.99-5.43,8.26c-6.95-9.09-5.7-20.74-6.93-31.37c-1.22-16.96-4.25-34.09-0.83-51
		C1452.4,598.96,1455.44,595.03,1459.96,593.67z"/>
	<path class="st18" d="M560.12,648.07c3.09-1.67,6.36-3.08,9.81-3.87c2.6,17.85,4.61,35.78,6.35,53.74
		c4.35,46.9,7.17,93.93,8.2,141.02c1.05,12.4,0.67,24.86,0.95,37.3c-8.52,4.39-17.6,7.68-26.89,10.08
		c-18.16,4.49-36.9,6.24-55.57,6.65c1.99-14.6,2.45-29.34,3.57-44.02c0.1-15.86,2.08-31.62,3.61-47.4c0.61-18.33,1.85-36.65,1.18-55
		c-0.99-14.39-0.9-28.82-1.27-43.23c15.81-8.82,31.35-18.13,46.37-28.19c4.25-2.72,7.81-6.99,8.3-12.09
		c0.51-4.68-2.55-8.61-4.35-12.67C560.31,649.81,560.18,648.65,560.12,648.07z"/>
</g>
<g>
	<path class="st19" d="M128.81,470.13c0.62,0.15,1.87,0.45,2.49,0.6c2.93,1.46,5.8,3.07,8.72,4.57
		c26.59,13.49,52.6,29.44,71.91,52.31c-0.05,3.23-0.38,6.45-0.76,9.67c-5.19,28.79-9.4,57.91-18.12,85.95
		c-3.05,9.58-5.97,19.32-10.79,28.23c-10.09-32.17-19.1-64.68-28.85-96.97C145.35,526.33,136.54,498.37,128.81,470.13z"/>
	<path class="st19" d="M86.39,584.99c-2.16-15.45,0.25-31.12,4.34-46.08c20.92,22.44,43.02,43.88,66.95,63.23
		c2.72,2.27,6.11,4.36,7.02,8c14.09,48.27,28.45,96.48,42.57,144.74c1.13,4.33,2.56,8.6,4.43,12.69
		c0.52,31.46,0.09,62.94,0.22,94.41c-36.44-15.82-68.94-39.26-98.93-64.79c-26.32-22.53-50.44-47.41-73.18-73.39
		c6.32-7.01,16.29-10.22,25.63-8.46c16.56,2.72,30.19,13.07,44.01,21.7c7.85,5.24,17.97,5.83,27.03,4.01
		c6.25-1.32,12.65-4.78,15.17-10.86c3.52-7.75,0.88-16.44-1.89-23.97c-8.48-21.33-24.96-38.01-37.24-57.14
		C99.76,629.67,89.04,608.21,86.39,584.99z"/>
	<path class="st19" d="M207.74,586.24c1.1-6.29,2.35-12.54,4.11-18.68c0.15,60.48,0.06,120.95,0.05,181.44
		c-1.37-2.21-2.62-4.48-3.31-6.96c-6.89-24.31-14.17-48.52-21.36-72.76c-1.04-4.04-3.39-8.51-1.17-12.57
		C196.72,634.4,202.57,610.25,207.74,586.24z"/>
	<path class="st19" d="M35.96,728.4c7.12,5.79,12.38,13.43,18.83,19.91c19.32,20.53,39.54,40.31,61.25,58.42
		c29.2,24.19,60.78,46.21,95.88,61.35c0.01,31.29,0.04,62.57-0.01,93.87c-9.13-13.2-17.52-29.2-33.73-34.97
		c-1.55-0.46-3.14-0.84-4.7-1.16c-4.91,0-10.16,0.97-13.76,4.53c-4.06,3.57-5.32,8.99-6.84,13.91c-0.46,0.02-1.36,0.07-1.82,0.11
		c-32.93-33.43-62.94-69.81-87.9-109.41c-12.2-19.86-23.44-40.65-29.52-63.17C29.9,757.61,28.38,741.66,35.96,728.4z"/>
</g>
<g>
	<path class="st20" d="M93.13,530.95c7.94-20.89,18.42-40.7,29.86-59.92c1.74,3.97,3.17,8.07,4.32,12.26
		c10.87,38.06,22.73,75.85,33.29,113.99c-6.09-4.01-11.27-9.15-16.81-13.84c-16.9-14.95-33.07-30.7-48.28-47.32
		C94.18,534.66,93.14,532.93,93.13,530.95z"/>
</g>
<g>
	<path class="st21" d="M1338.12,518.22c6.25-16.56,12.96-34.06,26.88-45.99l-0.47,1.47c0.01,1.87,0.08,3.82,1.09,5.5
		c2.86,5.48,6.01,10.82,8.71,16.39c-1.19,2.67-3.2,5.23-3.24,8.22c1.35,3.89,4.74,6.61,7.48,9.57
		c-6.67,21.91-9.61,44.65-12.72,67.24c-3.66,34.88-6.09,69.86-7.31,104.89c0.18,15-1.28,29.95-1.04,44.95
		c0.18,7.41-0.74,14.9,0.33,22.28c3.62,6.25,8.99,11.33,13.15,17.25c1.64,1.66,2.76,4.57,5.35,4.88c5.33-5.29,9.66-11.47,14.74-17
		c1.82-2.33,4.34-4.36,5.4-7.15c-1.19-13-2.41-26.05-2.45-39.12c-0.05-11.19-1.41-22.34-1.18-33.55
		c0.15-16.29-1.19-32.53-1.09-48.82c-0.1-38.29-1.8-76.55-1.36-114.83c0.08-3.34,3.36-5.25,5.48-7.44
		c9.4,13.24,24.03,21.47,38.06,29.19c-0.89,9.04-2.01,18.06-2.83,27.11c-2.13,35.31-4.47,70.62-4.13,106.03
		c-0.23,28.34,1.97,56.6,4.06,84.84c3.58,31.29-0.41,62.7-3.01,93.9c-0.71,9.2-2.59,18.36-2.02,27.61
		c-0.33-1.45-0.61-2.88-0.89-4.31c-20.92,1.8-42,2.15-62.95,0.56c-12.84-1.55-25.74-3.16-38.17-6.78
		c2.04-25.75,3.77-51.52,5.26-77.31c0.42-24.5,2.37-49.05,0.38-73.53c-0.13-15.26-1.73-30.48-3.8-45.6
		c-5.57-46.96-4.3-95.33,9.27-140.95c8.09-0.87,15.3-4.92,22.33-8.65c5.13-3.11,10.75-6.51,13.39-12.07c0-0.65,0-1.93,0-2.57
		c-4.16,1.01-7.78,3.32-11.57,5.18C1352.43,512.97,1345.22,515.48,1338.12,518.22z"/>
	<path class="st21" d="M1427.1,475.78c0.14-1.46,0.29-2.92,0.46-4.38c2.37,2.4,4.88,4.95,5.61,8.35
		c3.39,13.54,3.47,27.65,2.32,41.48c-13.46-2.71-27.01-6.88-37.51-15.97c-0.48-3.02-0.98-6.03-1.46-9.02
		C1406.88,489.69,1417.56,483.51,1427.1,475.78z"/>
</g>
<g>
	<path class="st22" d="M1374.33,495.59c7.38,0.42,14.78,0.87,22.19,0.65c0.48,3,0.98,6,1.46,9.02c-0.53,0.42-1.59,1.29-2.12,1.71
		c-2.12,2.18-5.41,4.09-5.48,7.44c-0.44,38.28,1.26,76.54,1.36,114.83c-0.1,16.29,1.24,32.53,1.09,48.82
		c-0.23,11.21,1.13,22.35,1.18,33.55c0.04,13.08,1.26,26.12,2.45,39.12c-1.05,2.8-3.58,4.82-5.4,7.15
		c-5.08,5.53-9.41,11.71-14.74,17c-2.59-0.31-3.71-3.22-5.35-4.88c-4.16-5.92-9.54-10.99-13.15-17.25
		c-1.07-7.38-0.15-14.86-0.33-22.28c-0.24-15,1.22-29.95,1.04-44.95c1.22-35.03,3.66-70.01,7.31-104.89
		c3.11-22.59,6.06-45.33,12.72-67.24c-2.74-2.96-6.13-5.68-7.48-9.57C1371.13,500.82,1373.14,498.26,1374.33,495.59z"/>
	<path class="st22" d="M456.41,1148.72c22.49-2.02,45.01-3.89,67.51-5.88c4.23-0.49,8.7,0.87,11.55,4.08
		c4.55,4.49,5.05,11.04,5.69,17c-0.72,6.46-2.55,13.3-7.63,17.85c-2.89,2.85-6.95,4.09-10.94,4.39
		c-20.02,1.83-40.04,3.78-60.05,5.74c-5.33,0.75-10.92,1.1-15.93-1.21c-3.34-3.34-6.6-7.3-7.1-12.14
		c-0.71-7.2-0.67-14.88,3.12-21.33C445.94,1152.83,450.56,1148.87,456.41,1148.72z"/>
	<path class="st22" d="M1394.59,1149.38c2.58-4.36,7.66-7.14,12.82-6.56c21.19,1.7,42.36,3.74,63.56,5.42
		c4.51,0.4,9.42,0.62,13.15,3.51c4.37,2.96,6.31,8,8.6,12.48c0.39,7.16,1.18,15.03-2.84,21.43c-2.79,4.69-8.32,7.6-13.85,6.83
		c-22.89-2.17-45.8-4.33-68.68-6.61c-8.18-0.65-12.95-8.06-15.5-14.93C1391.56,1163.73,1390.42,1155.78,1394.59,1149.38z"/>
</g>
<g>
	<path class="st23" d="M1359.27,509.62c3.78-1.86,7.4-4.17,11.57-5.18c0,0.64,0,1.92,0,2.57c-2.64,5.55-8.27,8.96-13.39,12.07
		c-7.03,3.73-14.25,7.77-22.33,8.65c0.94-3.19,1.89-6.38,3.01-9.51C1345.22,515.48,1352.43,512.97,1359.27,509.62z"/>
	<path class="st23" d="M1395.86,506.97c0.53-0.42,1.59-1.29,2.12-1.71c10.5,9.1,24.05,13.27,37.51,15.97
		c-0.61,4.97-0.85,9.97-1.56,14.93C1419.9,528.44,1405.26,520.21,1395.86,506.97z"/>
	<path class="st23" d="M1362.17,871.89c20.95,1.58,42.03,1.24,62.95-0.56c-0.17,3.78-0.3,7.56-0.61,11.36
		c-3.25,30.5-6.28,61.03-8.72,91.59c-1.79,31.45-4.91,63.3,0.34,94.6c1.82,8.04,3.85,18.27,12.72,21.53
		c11.72,4.33,24.61,3.89,36.83,2.26c30.7-4.56,60.12-16.55,85.79-33.6c1,12.97-1.63,25.82-1.31,38.79
		c-0.6,4.78-1.24,9.57-1.57,14.39c-0.65,1.95-1.4,3.86-2.08,5.79c-55.65-4.39-111.31-8.69-166.95-13.29
		c-3.72-28-7.9-55.96-10.94-84.05c-2.31-16.98-2.89-34.14-5.15-51.13c-1.41-17.28-2.16-34.61-2.81-51.93
		C1360.78,902.38,1359.83,887.03,1362.17,871.89z"/>
</g>
<g>
	<path class="st24" d="M453.91,586.78c1.85-4.98,2.86-10.22,4.93-15.13c0.22,1.75,0.36,3.49,0.44,5.25
		c-0.74,29.18-6.97,58.13-17.46,85.4c-7.88,2.07-15.82,4.03-23.82,5.64c1.66-5.17,4.79-9.67,7.1-14.55
		C435.86,631.71,446.09,609.69,453.91,586.78z"/>
	<path class="st24" d="M616.05,688.09c-1.12-9.67-4.06-19.11-4.2-28.88c4.41,12.65,8.2,25.62,14.73,37.44
		c5.19,9.38,11.57,18.99,21.61,23.86c6.48,3.31,13.99,2.11,21.01,2.28c-14.77,6.04-32.2,5.93-46.41-1.56
		c-1.03-0.64-2.04-1.29-3.03-1.92C619.33,708.82,617.3,698.49,616.05,688.09z"/>
	<path class="st24" d="M482.38,718.4c6.44-3.16,12.4-7.23,19.2-9.65c-4.18,5.05-9.78,8.6-14.88,12.64
		c-26.03,19.94-54.14,37.44-84.28,50.78c-25.74,11.04-53.68,19.07-82.03,17.17c1.1-8.27,2.18-16.56,3-24.86
		c11.44,3.98,23.86,4.06,35.8,2.75c23.68-2.71,46.67-10.15,67.82-20.87C445.43,736.97,464.16,728.17,482.38,718.4z"/>
</g>
<g>
	<g>
		<path class="st25" d="M1303.42,665.71c2.81-27.68,5.22-55.45,9.76-82.92c0.24,10.98-2.34,21.76-3.3,32.66
			c-2.02,16.65-3.58,33.36-5.37,50.03c2.49,2.97,6.58,4.84,7.68,8.81c1.92,6.05-2.49,12.93-8.77,14.09
			c-7,1.76-14.75-4.49-13.75-11.68c-0.43-5.85,5.31-9,9.88-11.22c-0.14-4.06,0.37-8.09,1.71-11.92c0.01,4.39-0.44,8.76-0.98,13.13
			C1301.06,666.45,1302.63,665.96,1303.42,665.71z M1301.22,671.04c-3.12,0.01-6.39,2.36-6.25,5.64c-0.93,4.77,5.26,8.34,9.19,5.68
			C1309.31,679.79,1307.15,670.87,1301.22,671.04z"/>
	</g>
</g>
<g>
	<path class="st26" d="M1443.61,615.62c-0.71-5.73,0.96-11.63,4.32-16.32c-1.43,4.11-2.82,8.3-3.21,12.65
		c-0.11,2.75-0.81,6.68,3.02,7.09c-0.2-5.47,0.34-11.03,2.86-15.99c-3.43,16.91-0.39,34.04,0.83,51
		c1.23,10.63-0.01,22.29,6.93,31.37c2.48-2.27,4.57-4.99,5.43-8.26c4.88-15.85,9.17-31.87,13.51-47.87
		c1.83-9.11,4.09-18.41,2.72-27.75c3.24,6.45,1.28,13.78-0.2,20.42c0.84,0.09,2.49,0.26,3.33,0.35
		c-4.89,18.12-9.66,36.28-15.08,54.26c-1.16,4.11-3.34,7.81-5.79,11.29c2.4,0.94,4.8,1.91,7.3,2.68c-0.15,0.97-0.44,2.93-0.6,3.92
		c-3.39-1.46-6.82-3.12-10.51-3.53c-2.96,1.06-5.6,2.75-8.35,4.17c-0.53-0.47-1.61-1.42-2.16-1.9c-0.55-0.17-1.65-0.51-2.2-0.69
		c3.45-1.05,6.63-2.78,9.75-4.58c-2.87-4.12-5.56-8.57-6.06-13.65C1447.51,654.74,1446.87,635.03,1443.61,615.62z"/>
</g>
<g>
	<path class="st27" d="M1504.14,630.3c3.44,3.86,6.16,8.24,8.81,12.64c18.36,28.2,36.97,56.26,55.12,84.6
		c-0.42,20.87-0.46,41.78,1.63,62.56c-8.39,19.04-16.99,38-26.23,56.65c-3.28,6.65-8.25,13.1-7.71,20.89
		c-0.17,6.56,3.39,12.55,8.06,17.02c-8.61,4.27-15.1,11.43-21.98,17.87c-2.73-4.23-5.73-8.54-6.44-13.6
		c-2.22-14.28,1.83-28.82,8.8-41.32c1.28-2.3,2.51-4.88,1.73-7.55c-9.13-43.19-15.63-86.95-19.39-130.91
		C1504.72,682.92,1502.64,656.58,1504.14,630.3z"/>
	<path class="st27" d="M1559.43,894.77c4.71,1.83,9.7,2.88,14.74,3.48c0.63,10.83,2.11,21.6,3.73,32.35
		c2.69,20.6,6.12,41.12,9.04,61.71c-0.22,2.17-0.48,4.36-0.72,6.55c-9.9-14.58-18.03-30.24-27.93-44.79
		c-5.79,1.21-11.64,2.66-17.61,2.31c-3.86-0.14-7.24-2.12-10.72-3.52c8.54-1.61,17.37-1.96,25.72-4.44c2.62-0.7,1.04-3.84,0.89-5.64
		c2.58-1.02,5.56-1.51,7.69-3.39c1.94-4.01-1.49-7.08-4.35-9.31c-0.14-1.62-0.3-3.23-0.51-4.82c-3.8-2.23-8.44-1.97-12.67-2.58
		c3.91-2.87,8.37-5.72,10.04-10.48C1559.23,906.61,1556.22,900.11,1559.43,894.77z"/>
</g>
<g>
	<path class="st28" d="M1828.95,680.44c8.07-5.52,16.18-11.16,25.24-15.01c-17.56,39.8-34.65,79.81-51.05,120.08
		c-7.39,18.27-14.58,36.62-21.9,54.91c-4.37-8.3-6.46-17.48-9.66-26.22c-7-22.43-12.23-45.49-13.79-68.94
		c7.16-7.86,14.85-15.25,22.51-22.64C1795.66,707.66,1811.57,693.13,1828.95,680.44z"/>
	<path class="st28" d="M1752.39,751.14c2.02,6.59,2.07,13.53,3.35,20.25c4.49,25.56,12.26,50.47,21.57,74.7
		c0.88,2.12,0.19,4.41-0.55,6.48c-15.39,39.56-29.68,79.53-43.08,119.79c-4.68,13.44-8.35,27.22-13.24,40.6
		c-0.23-74.4-0.06-148.81-0.09-223.21c5.57-5.12,9.33-11.71,14.13-17.46C1740.33,765.14,1746.03,757.85,1752.39,751.14z"/>
	<path class="st28" d="M558.54,886.34c9.29-2.41,18.37-5.69,26.89-10.08c0.22,22.1,0.33,44.2,0.1,66.32
		c-0.34,10.26,6.04,20.89,16.25,24.09c5.69,1.82,11.97,0.12,16.3-3.83c2.89,14.89,2.25,30.15,4.33,45.14
		c0.76,8.95,1.23,17.92,1.33,26.91c1.5,20.34,1.12,40.77,1.82,61.15c-40.27,3.51-80.53,7.03-120.79,10.48
		c1.08-16.9,4.24-33.61,6.28-50.42c2.51-17.02,4.43-34.12,6.89-51.15c2.11-17.85,3.31-35.78,5.29-53.64
		c0.76-13.14,1.55-26.28,2.17-39.42C537.44,904.76,549.2,896.73,558.54,886.34z"/>
</g>
<g>
	<path class="st29" d="M1847.82,692.56c3.81-7.86,6.42-16.3,11.15-23.71c5.81,15.29,7.17,31.72,9.33,47.78
		c2.13,18.41,5.68,36.63,7.87,55.04c3.69,29.75,6.5,59.7,6.02,89.7c-34.26,30.81-78.11,51.69-124.31,57.27
		c14.52-42.97,31.7-85.05,48.27-127.29C1819.89,758.36,1833.49,725.3,1847.82,692.56z"/>
	<path class="st29" d="M1863.39,882.79c6.45-4.34,12.15-9.63,18.49-14.14c0.13,4.06,0.32,8.12,0.43,12.21
		c-0.66,8.01-1.24,16.04-1.83,24.06c-1.3,14.28-3.25,28.52-6.08,42.59c-0.86,2.07,0,3.93,1.22,5.69c-0.42,2.57-3.96,3.32-4.18,6.1
		c-1.94,8-3.22,16.15-5.94,23.96c-3.38,10.27-6.91,20.53-11.3,30.44c-13.46,14.85-29.37,27.42-46.74,37.58
		c-27.3,16.05-56.79,28.44-87.11,37.78c0.05-19.16-0.13-38.31,0.08-57.46c10.98-36.07,22.37-72.05,35.31-107.49
		C1794.38,919.43,1831.68,904.99,1863.39,882.79z"/>
</g>
<g>
	<path class="st30" d="M1301.22,671.04c5.93-0.17,8.09,8.75,2.95,11.32c-3.94,2.66-10.12-0.91-9.19-5.68
		C1294.84,673.4,1298.1,671.05,1301.22,671.04z"/>
</g>
<g>
	<path class="st31" d="M1469.57,690.55c4.55,0.84,9.14,1.62,13.47,3.34c-0.04,1.06-0.11,3.18-0.17,4.24
		c-0.77,0.42-2.32,1.27-3.1,1.7c-3.75-1.55-7.24-3.54-10.8-5.37C1469.12,693.48,1469.41,691.52,1469.57,690.55z"/>
	<path class="st31" d="M1434.31,696.5c3.67-1.66,7.54-2.87,11.44-3.98c0.55,0.17,1.65,0.51,2.2,0.69c0.29,0.59,0.88,1.76,1.17,2.35
		c-3.54,2.23-6.86,5.5-11.16,6.05C1435.04,701.94,1434.85,698.4,1434.31,696.5z"/>
</g>
<g>
	<path class="st32" d="M1221.55,702.37c7.22,2.72,15.06,3.81,22.76,3.21c-0.18,8.27-0.03,16.55-0.06,24.82
		c-0.09,14.46,0.08,28.94-0.03,43.42c0,21.61,0.17,43.23,0.09,64.84c-0.18,28.69,0.33,57.38-0.08,86.07
		c-0.41,2.62-0.95,5.22-1.47,7.82c-1.24-21.64,0.61-43.4-1.05-65.03c-0.94,8.29-0.33,16.62-0.74,24.93
		c-4.81,0.17-9.62,0.31-14.42,0.4c-0.28,0.8-0.83,2.41-1.1,3.22c-0.6-1.07-1.16-2.12-1.7-3.16c-0.57,12.78-0.1,25.58-0.38,38.39
		c-0.29,6.9,1.17,14.11-1.64,20.7c-0.27-6.64-0.28-13.29-0.25-19.92c0.13-33.3,0.05-66.58,0.05-99.86
		C1221.67,788.94,1221.53,745.66,1221.55,702.37z"/>
</g>
<g>
	<path class="st33" d="M627.27,804.09c-1.71-28.33-4.82-56.55-7.52-84.77c0.99,0.64,2.01,1.29,3.03,1.92l-1.88-0.76
		c0.79,8.3,1.88,16.57,2.65,24.87c1.46,14.5,2.73,29.03,3.85,43.57c0.85,10.38,1.33,20.79,2.03,31.19c0.43,4.74,0.5,9.51,0.3,14.28
		C627.89,824.38,628.36,814.16,627.27,804.09z"/>
</g>
<g>
	<path class="st34" d="M1276.34,758.51c1.49,9.28,0.77,18.72,0.61,28.08c-0.98,10.77-0.5,21.63-1.55,32.4
		c-4.15,63.5-12,126.68-20.5,189.73c-1.88,11.02-2.35,22.33-5.38,33.13c0.62-10.62,2.83-21.08,4.06-31.64
		c2.17-16.11,4.37-32.22,6.31-48.36c0.79-6.24,1.66-12.48,2.25-18.74c2.44-19.14,4.53-38.34,6.45-57.53
		c2.27-20.17,3.85-40.4,5.47-60.61c0.72-15.11,2.32-30.16,1.87-45.3C1276.17,772.61,1275.89,765.55,1276.34,758.51z"/>
</g>
<g>
	<path class="st35" d="M322.48,764.04l0.9,0.45c-0.81,8.3-1.89,16.59-3,24.86c-9.34,53.23-18.64,106.46-29.23,159.47
		c-0.76,4.18-0.56,8.47,0.08,12.68c-4.34-8.91,0.62-18.63,1.71-27.73c1.08-5.68,2.26-11.34,3.2-17.05
		c3.76-19.18,7.17-38.44,10.68-57.66c2.18-12.13,4.33-24.25,6.51-36.37C316.8,803.2,320.36,783.73,322.48,764.04z"/>
</g>
<g>
	<path class="st36" d="M1657.92,784.52c2.01,6.59,0.72,13.5,1.59,20.24c1.5,12.55,0.09,25.22,0.79,37.83
		c7.49,0.2,15.01-0.01,22.5,0.59c1-9.95-1.64-20.28,1.57-29.93c0.8,13.57,0.27,27.17,0.39,40.75
		c-0.09,51.92,0.08,103.84-0.15,155.76c-0.98,1.26-1.87,2.63-3.09,3.68c-7.05,0.76-14.16,0.11-21.22,0.02
		c-0.09-5.84,0.03-11.71-0.81-17.5c-1.07,17.53-0.34,35.13-0.53,52.7c-0.25,8.09,0.69,16.29-1.14,24.25
		c-0.91-10.33-0.06-20.7-0.77-31.04c0.32-18.27,0.8-36.59,0.1-54.84c0.55-18.99,0.47-38,0.7-56.99c0.09-4.32-0.3-8.64-0.67-12.92
		c0.99-16.04,0.41-32.1,0.7-48.15c-0.14-9.73,0.5-19.49-0.56-29.19c-0.5-11.08,1.13-22.14,0.44-33.21
		c-0.42-6.64,0.14-13.3-0.77-19.91C1657.21,786.14,1657.68,785.06,1657.92,784.52z"/>
</g>
<g>
	<path class="st37" d="M1323.1,873.53c0.2-2.82,0.61-5.62,0.9-8.41c12.43,3.62,25.33,5.23,38.17,6.78
		c-2.34,15.14-1.38,30.49-1.51,45.74c0.65,17.32,1.4,34.64,2.81,51.93c-0.3,3.91-0.75,7.81-1.09,11.72
		c-0.39-2.03-0.76-4.06-1.12-6.08c-14.85-0.22-29.76-0.54-44.59,0.21c-0.38,3.63-0.76,7.28-1.22,10.92
		c-0.56-2.25-1.09-4.47-1.51-6.7c2.46-27.73,5.26-55.42,7.77-83.15C1322.38,888.84,1323.46,881.2,1323.1,873.53z"/>
</g>
<g>
	<path class="st38" d="M1241.72,867.52c1.66,21.63-0.19,43.39,1.05,65.03c0.52-2.61,1.07-5.2,1.47-7.82
		c-0.01,3.01,0.09,6.04,0.13,9.07c-0.09,10.91-0.03,21.83,0,32.75c-0.06,13.08,0.03,26.17,0.03,39.25
		c-0.03,16.45-0.03,32.91,0.11,49.36c-0.15,11.67-0.15,23.34,0.01,35.01c8.86,1.56,17.86,2.15,26.85,2.65l0.05,1.01
		c-2.04,0-4.04,0.04-6.04,0.09c1.76,0.84,3.58,1.7,5.38,2.56c-15.27,1.05-30.62,0.74-45.91,0.35c-0.36-8.27,0.48-16.59-0.71-24.81
		c-1.61,11.69-0.22,23.54-0.85,35.31c-1.46,17.96-0.34,35.98-1.09,53.96c-1.12-7.13-0.67-14.34-0.71-21.49
		c-0.01-11.04,0-22.09,0-33.12c0.23-51.55-0.17-103.11,0.24-154.65c2.81-6.59,1.35-13.8,1.64-20.7c0.28-12.8-0.19-25.61,0.38-38.39
		c0.55,1.04,1.1,2.08,1.7,3.16c0.28-0.81,0.83-2.42,1.1-3.22c4.8-0.09,9.61-0.22,14.42-0.4
		C1241.39,884.15,1240.78,875.81,1241.72,867.52z"/>
</g>
<g>
	<path class="st39" d="M1318.21,921.36c1.75-15.94,2.48-31.99,4.89-47.83c0.36,7.67-0.72,15.31-1.4,22.95
		c-2.51,27.73-5.31,55.42-7.77,83.15c-1.51,18.41-3.33,36.84-3.44,55.32c-0.06,13.82,1.69,28.5-4.51,41.41
		c1.56-7.48,3.35-14.99,3.48-22.65C1308.54,1009.43,1314.39,965.4,1318.21,921.36z"/>
</g>
<g>
	<path class="st40" d="M11.3,882.72c20.67,1.26,42.34,3.01,60.7,13.32c2.89,13.32,6.97,26.36,9.34,39.79
		c2.06,11.58,4.6,23.35,3.54,35.17c-3.61-3.64-6.78-7.65-9.99-11.62c-16.06-19.13-32.16-38.23-48.09-57.47
		C21.6,895.54,15.87,889.57,11.3,882.72z"/>
	<path class="st40" d="M8.62,885.94c4.6,4.33,8.37,9.38,12.44,14.16c12.66,15.42,26.03,30.3,38.14,46.14
		c-10.63-2.61-20.78-6.7-31.02-10.46c-7.38-2.62-14.27-6.43-21.83-8.55c-0.48-11.43-0.69-22.94,0.74-34.32
		C7.52,890.57,8.07,888.25,8.62,885.94z"/>
	<path class="st40" d="M6.61,931.96c4.15-0.66,7.76,1.92,11.44,3.33c13.72,5.77,27.78,10.79,42.14,14.8
		c4.42,0.99,6.91,4.94,9.6,8.15c34.09,40.95,68.51,81.63,102.38,122.75c-9.95,1.47-20.06,1.2-30.08,0.66
		c-40.17-3.59-78.55-17.41-114.74-34.33c-2.21-0.76-2.82-2.97-3.44-4.9c3.54-4.43,8.6-7.45,14.22-8.54
		c8.29-0.32,16.56,0.44,24.67,2.13c8.41,2.03,18.35-1.19,23.02-8.54c3.75-6.46-1.3-13.52-5.92-18.03
		c-13.56-12.7-31.83-18.96-45.85-31.11C19.37,966.96,9.1,950.25,6.61,931.96z"/>
</g>
<g>
	<path class="st41" d="M502.97,892.99c18.68-0.41,37.42-2.16,55.57-6.65c-9.34,10.38-21.1,18.42-33.13,25.53
		c-9.03,5.13-18.38,9.77-28.24,13.2C499.85,914.52,501.46,903.76,502.97,892.99z"/>
</g>
<g>
	<path class="st42" d="M1944.45,891.28c18.09-2.4,36.68-4.11,54.7-0.14c-5.95,3.72-11.91,7.41-17.84,11.16
		c-37.16,23.25-73.56,47.67-110.02,71.98c10.55-26.72,22.76-52.95,38.76-76.99C1921.26,894.1,1932.95,893.04,1944.45,891.28z"/>
</g>
<g>
	<path class="st43" d="M1982.96,906.01c5.64-3.53,11.21-7.18,17.04-10.42c-0.32,0.7-0.94,2.11-1.26,2.82
		c-9.7,21.04-23.4,39.92-34.66,60.14c-16.77,28.17-34.42,55.93-54.61,81.89c-21.53,2.33-43.64-0.34-63.65-8.6
		c0.28-0.59,0.83-1.77,1.1-2.36c2.79-5.09,5.05-10.43,7.26-15.79c4.39-9.91,7.92-20.17,11.3-30.44
		C1904.18,956.83,1943.23,930.92,1982.96,906.01z"/>
	<path class="st43" d="M1765.86,1131.69c32.87-25.71,59.1-59.07,78.05-95.81c19.53,8.07,41.06,11.12,62.14,9.15
		c-21.32,27.12-45.16,52.56-72.74,73.63c-5.8,3.94-11.11,8.74-17.52,11.69C1799.64,1135.27,1782.34,1134.33,1765.86,1131.69z"/>
</g>
<g>
	<path class="st44" d="M1885.92,903.31c6.35-1.9,12.71-3.84,19.26-5.03c-11.96,17.13-20.5,36.23-29.57,54.91
		c-1.22-1.76-2.08-3.62-1.22-5.69c2.83-14.08,4.79-28.32,6.08-42.59C1882.24,904.36,1884.09,903.84,1885.92,903.31z"/>
</g>
<g>
	<path class="st45" d="M79.47,912.57c-1.04-4.39-3.11-8.77-2.08-13.35c12.62,8.85,21.27,22.03,27.51,35.77
		c6.86,14.13,9.69,30.39,20.12,42.67c3.5,4.18,9.32,8.12,14.99,5.65c7.02-3.26,11.88-10.68,12.13-18.3
		c0.25-6.34-0.01-12.68,0.43-19.01c-0.38-0.41-1.14-1.22-1.52-1.63c0.46-0.04,1.36-0.09,1.82-0.11c1.52-4.93,2.78-10.35,6.84-13.91
		c3.61-3.56,8.85-4.53,13.76-4.53c9.41,21.99,13.24,45.74,16.78,69.19c4.63,36.55,7.26,73.37,7.21,110.2
		c-6.96-6.69-12.58-14.54-18.88-21.8c-29.07-34.63-57.93-69.44-87.09-104.01c-1.71-1.92-3.16-4.18-2.88-6.84
		C88.74,952.22,84.41,932.2,79.47,912.57z"/>
</g>
<g>
	<path class="st46" d="M497.18,925.08c9.85-3.43,19.21-8.07,28.24-13.2c-0.62,13.14-1.41,26.28-2.17,39.42
		c-1.98,17.86-3.19,35.79-5.29,53.64c-2.46,17.03-4.38,34.13-6.89,51.15c-2.04,16.81-5.21,33.52-6.28,50.42
		c-38.5,3.39-76.98,6.69-115.47,10.06c-17.78,1.37-35.51,3.43-53.33,4.36c-1.54-15.38-3.99-30.64-5.62-46
		c-2.72-22.3-4.93-44.66-7.82-66.95c-0.28-7.3-1.42-14.53-2.22-21.78c-0.19-2.17-0.63-4.54,0.79-6.41
		c29.67,5.62,60.22,2.65,89.87-1.67c20.92-3.49,41.97-7.74,61.62-15.86C487.49,955.85,492.88,939.18,497.18,925.08z"/>
	<path class="st46" d="M178.17,926.98c16.21,5.77,24.61,21.76,33.73,34.97c0.09,53.34,0.01,106.66,0,160
		c-4.95-4.63-11.81-9.67-11.35-17.12c0.03-10.82,0.19-21.65-0.34-32.46c-1.87-40.15-5.09-80.48-14.54-119.68
		C183.72,943.96,180.2,935.67,178.17,926.98z"/>
</g>
<g>
	<path class="st47" d="M707.43,933.33c0.18-3.33,0.5-6.64,1.09-9.91c1.28,8.6-0.34,17.36,1.47,25.92
		c0.51,32.26-0.39,64.54,0.67,96.81c-0.08,36.38-0.05,72.74,0,109.12c-0.3,1.58-0.58,3.19-0.79,4.82
		c-1.35-17.13-0.38-34.36-0.74-51.53c-0.39-12.55,0.67-25.18-0.74-37.69c-1.19,8.52-0.39,17.12-0.7,25.7
		c-20.33-1.73-40.86,1.04-61.08-2.27c6.74-0.86,13.52-1.25,20.29-1.96c6.86-0.55,13.71-1.14,20.57-1.77
		c0.62-16.93,0.36-33.91,0.36-50.85c0-27.48,0.17-54.96,0.17-82.44c1.89-7.72,0.63-15.69,1.05-23.51
		C695,931.68,701.33,932.38,707.43,933.33z"/>
</g>
<g>
	<path class="st48" d="M1363.46,969.56c2.26,16.98,2.84,34.14,5.15,51.13c3.05,28.09,7.22,56.05,10.94,84.05
		c-33.46-2.32-66.86-5.3-100.3-7.68c-2.89-0.3-6.59-0.05-7.83-3.24l-0.05-1.01c-0.05-5.4-0.13-10.79-0.55-16.17
		c6.73,4.06,13.09,9.6,21.11,10.92c7.07,0.89,11.69-5.53,14.04-11.19c6.2-12.9,4.44-27.59,4.51-41.41
		c0.11-18.48,1.93-36.91,3.44-55.32c0.42,2.23,0.95,4.46,1.51,6.7c0.46-3.64,0.84-7.29,1.22-10.92c14.83-0.75,29.74-0.44,44.59-0.21
		c0.36,2.02,0.72,4.04,1.12,6.08C1362.71,977.37,1363.16,973.46,1363.46,969.56z"/>
</g>
<g>
	<path class="st49" d="M1659.49,995.96c0.84,5.79,0.72,11.66,0.81,17.5c7.06,0.09,14.17,0.74,21.22-0.02
		c1.22-1.05,2.11-2.42,3.09-3.68c0.32,16.69,0.06,33.37,0.01,50.06c0.34,12.39-0.17,24.77-1.73,37.08
		c-6.08,1.29-12.32,0.55-18.42,1.21c-5.09,1.93-5.76,7.49-5.08,12.14c-0.48,5.14-0.6,10.31-0.76,15.49l-1.35,0.01
		c0.28-17.6-0.47-35.24,0.53-52.83c1.83-7.96,0.89-16.16,1.14-24.25C1659.15,1031.09,1658.43,1013.5,1659.49,995.96z"/>
</g>
<g>
	<path class="st50" d="M1825.78,1045.46c7.49-4.78,13.59-11.32,21.15-15.97c-0.28,0.59-0.83,1.77-1.1,2.36
		c-0.65,1.35-1.3,2.68-1.92,4.04c-18.94,36.74-45.17,70.1-78.05,95.81c-1.42,1.22-2.81,2.48-4.23,3.68
		c-13.36,8.51-26.56,17.45-41.25,23.69c-0.11-21.45-0.03-42.91-0.05-64.36C1757.31,1082.65,1793.85,1067.7,1825.78,1045.46z"/>
</g>
<g>
	<path class="st51" d="M22.26,1049.19c3.17,1.17,6.32,2.42,9.41,3.84c19.57,9.05,39.8,16.69,60.57,22.63
		c25.46,6.95,52.08,11.79,78.55,8.76c1.89-0.15,4.23-0.62,5.48,1.22c12.11,13.75,23.06,28.52,35.64,41.89
		c0.03,12.83,0.01,25.67,0.01,38.5c-5.08-1.34-10.16-2.72-15.2-4.18c-39.12-11.54-77.78-25.67-112.74-46.71
		c-17.05-10.1-33.76-21.25-47.46-35.57C28.9,1071.24,21,1061.08,22.26,1049.19z"/>
</g>
<g>
	<path class="st52" d="M270.66,1058.37c-0.01-2.92,0.2-5.82,0.84-8.66c0.66,3.22,1.42,6.44,2.35,9.62
		c0.81,12.64,0.17,25.32,0.34,37.99c-8.51-0.1-17.01,0.07-25.52-0.15c-0.42-1.82-0.8-3.62-1.17-5.42
		c0.67-11.04,0.05-22.1,0.28-33.15C255.41,1058.42,263.05,1058.59,270.66,1058.37z"/>
</g>
<g>
	<path class="st53" d="M708.41,1070.87c1.41,12.5,0.34,25.13,0.74,37.69c0.36,17.17-0.61,34.39,0.74,51.53
		c-0.33,3.77-0.96,7.53-1.99,11.19c-0.66-0.85-1.3-1.68-1.92-2.5c-0.33,0.79-0.98,2.38-1.3,3.17c-53.83,0.6-107.69-0.14-161.51,0.36
		c-0.32-2.88-1-5.7-2.01-8.4c-0.63-5.95-1.14-12.5-5.69-17c-2.86-3.21-7.33-4.57-11.55-4.08c-22.5,1.98-45.02,3.86-67.51,5.88
		c-5.85,0.15-10.47,4.12-13.79,8.5c-0.29-1.65-0.56-3.26-0.84-4.88c-47.15-0.29-94.31-0.01-141.45-0.12
		c-5.68,0.1-9.4-5.78-15.24-5.02c-11.68,0.2-23.37-0.2-35.05,0.24c-0.43,2.08-0.88,4.19-1.31,6.29c-0.27-6.15,0.22-12.42-1.43-18.42
		c-0.51-6.41-0.38-12.83-0.37-19.24c0.09-8.11-0.62-16.25,0.57-24.3c0.37,1.8,0.75,3.59,1.17,5.42c8.51,0.22,17.01,0.05,25.52,0.15
		c0.05,9.47,0.08,18.94,0.01,28.42c7.97-0.17,15.88-1.12,23.83-1.76c12.66-0.85,25.27-2.32,37.94-3.06
		c17.81-0.92,35.55-2.98,53.33-4.36c38.5-3.37,76.98-6.66,115.47-10.06c40.26-3.46,80.52-6.98,120.79-10.48l1.21-0.11
		c6.61-0.61,13.24-1.04,19.86-1.62c20.23,3.31,40.76,0.54,61.08,2.27C708.02,1087.99,707.22,1079.39,708.41,1070.87z"/>
</g>
<g>
	<path class="st54" d="M1223.29,1107.31c0.63-11.77-0.76-23.61,0.85-35.31c1.19,8.22,0.36,16.54,0.71,24.81
		c15.29,0.39,30.64,0.7,45.91-0.35c-1.8-0.86-3.62-1.72-5.38-2.56c2.01-0.05,4-0.09,6.04-0.09c1.24,3.19,4.94,2.95,7.83,3.24
		c33.44,2.37,66.85,5.35,100.3,7.68c55.64,4.6,111.3,8.9,166.95,13.29c0.69-1.93,1.43-3.84,2.08-5.79c0.08,1.49,0.19,3,0.36,4.51
		c28.48,2.43,56.97,5.02,85.47,7.29c7.62,0.59,15.21,1.62,22.87,1.71l1.35-0.01c0.17-5.18,0.28-10.35,0.76-15.49
		c0.53,2.86,0.99,5.74,1.35,8.66c7.06-1.39,14.27-0.89,21.42-0.86c1.5-8.57,1.51-17.31,2.72-25.91c0.84,10.83,0.25,21.73,0.37,32.6
		c-0.94,12.03-0.39,24.09-0.96,36.13c-0.88,1.22-1.71,2.5-2.78,3.58c-6.67,0.96-13.42-0.3-20.1,0.36
		c-17.27,2.37-34.74,0.49-52.09,1.2c-4.72,0.49-9.09,2.86-13.92,2.58c-29.2-0.2-58.39-0.14-87.58-0.07
		c-3.72-0.04-7.4-0.27-11.07-0.56c-0.23,0.66-0.7,2-0.94,2.66c-0.5-1.57-1-3.14-1.55-4.64c-0.38-0.44-1.14-1.31-1.52-1.75
		c-2.29-4.48-4.23-9.52-8.6-12.48c-3.73-2.88-8.65-3.11-13.15-3.51c-21.2-1.67-42.37-3.72-63.56-5.42
		c-5.17-0.57-10.25,2.21-12.82,6.56c-4.18,6.4-3.03,14.35-2.74,21.55c-0.32-0.6-0.96-1.78-1.28-2.38c-0.51,1.35-1,2.71-1.45,4.09
		c-11.63-0.9-23.31-0.21-34.95-0.46c-42.76,0.03-85.54,0.01-128.3-0.05c-0.23,0.39-0.71,1.14-0.95,1.51
		c-1.27-4.04-2.26-8.17-2.72-12.37C1222.95,1143.29,1221.83,1125.27,1223.29,1107.31z"/>
</g>
<g>
	<path class="st55" d="M247.3,1135.3c1.65,6,1.17,12.27,1.43,18.42c0.43-2.1,0.88-4.21,1.31-6.29c11.68-0.44,23.37-0.04,35.05-0.24
		c6.67-0.23,13.39-0.4,20.16-0.51c47.68-0.79,93.26,1.35,136.52,5.65c0.28,1.62,0.55,3.23,0.84,4.88
		c-3.8,6.45-3.83,14.13-3.12,21.33c0.5,4.84,3.76,8.8,7.1,12.14c-16.56,2.92-36.07,5.12-57.97,5.26c-15.08,0.1-28.95-0.8-41.37-2.21
		c-23.66-3.93-40.35-3.15-51.47-1.58c-4.63,0.65-15.34,2.44-29.68,1.26c-7.42-0.61-13.46-1.82-17.46-2.76
		c-0.77-1.97-1.65-4.87-1.9-8.46c-0.23-3.37,0.17-6.2,0.61-8.2C246.87,1161.11,246.2,1148.17,247.3,1135.3z"/>
</g>
<g>
	<path class="st56" d="M1720.39,1159.06c14.69-6.24,27.89-15.18,41.25-23.69c14.28,3.26,29.07,3.37,43.63,2.05
		c-26.03,14.91-54.77,25.93-84.91,28.85C1720.33,1163.84,1720.37,1161.46,1720.39,1159.06z"/>
</g>
<g>
	<path class="st57" d="M1681.5,1164.44c1.07-1.09,1.9-2.36,2.78-3.58c2.13,11.99,0.67,24.17,1.21,36.27
		c0.6,11.46-2.81,22.86-8.6,32.75c-2.4,4.04-6.72,7.35-11.68,7.14c-48.7,0.11-97.41-0.27-146.1,0.06
		c-7.05,1.15-14.09,2.32-21.08,3.81c-18.82-1.67-37.56-4.19-56.33-6.21c-37.18-4.18-74.34-8.41-111.5-12.63
		c-21.23-2.46-42.48-4.7-63.7-7.28c-21.01-3.28-35.77-22.08-41.58-41.12c0.24-0.37,0.72-1.12,0.95-1.51
		c42.76,0.06,85.54,0.07,128.3,0.05c11.64,0.25,23.32-0.44,34.95,0.46c0.44-1.39,0.94-2.75,1.45-4.09c0.32,0.6,0.96,1.78,1.28,2.38
		c2.55,6.86,7.33,14.28,15.5,14.93c22.88,2.28,45.78,4.44,68.68,6.61c5.54,0.77,11.06-2.13,13.85-6.83
		c4.02-6.4,3.24-14.26,2.84-21.43c0.38,0.44,1.14,1.31,1.52,1.75c0.55,1.5,1.05,3.07,1.55,4.64c0.24-0.66,0.71-2,0.94-2.66
		c3.67,0.29,7.35,0.52,11.07,0.56c29.19-0.06,58.38-0.12,87.58,0.07c4.82,0.27,9.19-2.1,13.92-2.58c17.36-0.71,34.83,1.17,52.09-1.2
		C1668.08,1164.14,1674.83,1165.4,1681.5,1164.44z"/>
	<path class="st57" d="M541.16,1163.92c1,2.7,1.69,5.52,2.01,8.4c53.82-0.5,107.68,0.24,161.51-0.36c0.32-0.79,0.96-2.38,1.3-3.17
		c0.62,0.81,1.26,1.65,1.92,2.5c-4.65,16.25-14.65,32.04-30.41,39.76c-6.68,3.52-14.33,4.14-21.71,4.93
		c-31.86,3.54-63.7,7.26-95.55,10.8c-45.64,5.02-91.24,10.62-136.92,15.38c-3.24-0.96-6.59-1.42-9.95-1.65
		c-3.86-0.06-6.86-2.86-10.51-3.66c-41.75,0.35-83.54,0.09-125.31,0.2c-6.63,0.15-13.36,0.22-19.79-1.6
		c-2.83-6.91-6.87-13.38-8.63-20.68c-1.63-6.17-1.27-12.59-1.96-18.87c-0.75-7.29-0.56-14.63,0.22-21.89
		c1.57,5.42,1.51,11.08,1.3,16.66c7.76,0.26,15.57,0.67,23.3-0.36c8.99-1.29,18.09-0.49,27.15-0.66c16.49,0.12,32.99-0.2,49.48,0.12
		c13.03,1.86,26.22,0.86,39.33,1.14c19.57,0.1,39.14-0.05,58.7-0.21c5.02,2.31,10.6,1.96,15.93,1.21
		c20.01-1.96,40.03-3.91,60.05-5.74c4-0.3,8.05-1.55,10.94-4.39C538.61,1177.22,540.44,1170.38,541.16,1163.92z"/>
</g>
</svg>
